G04 #@! TF.GenerationSoftware,KiCad,Pcbnew,(6.0.2)*
G04 #@! TF.CreationDate,2022-09-28T01:25:07+02:00*
G04 #@! TF.ProjectId,Washing-Machine-Sensor,57617368-696e-4672-9d4d-616368696e65,rev?*
G04 #@! TF.SameCoordinates,Original*
G04 #@! TF.FileFunction,Legend,Bot*
G04 #@! TF.FilePolarity,Positive*
%FSLAX46Y46*%
G04 Gerber Fmt 4.6, Leading zero omitted, Abs format (unit mm)*
G04 Created by KiCad (PCBNEW (6.0.2)) date 2022-09-28 01:25:07*
%MOMM*%
%LPD*%
G01*
G04 APERTURE LIST*
G04 Aperture macros list*
%AMRoundRect*
0 Rectangle with rounded corners*
0 $1 Rounding radius*
0 $2 $3 $4 $5 $6 $7 $8 $9 X,Y pos of 4 corners*
0 Add a 4 corners polygon primitive as box body*
4,1,4,$2,$3,$4,$5,$6,$7,$8,$9,$2,$3,0*
0 Add four circle primitives for the rounded corners*
1,1,$1+$1,$2,$3*
1,1,$1+$1,$4,$5*
1,1,$1+$1,$6,$7*
1,1,$1+$1,$8,$9*
0 Add four rect primitives between the rounded corners*
20,1,$1+$1,$2,$3,$4,$5,0*
20,1,$1+$1,$4,$5,$6,$7,0*
20,1,$1+$1,$6,$7,$8,$9,0*
20,1,$1+$1,$8,$9,$2,$3,0*%
G04 Aperture macros list end*
%ADD10C,0.120000*%
%ADD11C,0.150000*%
%ADD12C,0.180000*%
%ADD13C,0.100000*%
%ADD14R,1.350000X1.350000*%
%ADD15O,1.350000X1.350000*%
%ADD16C,1.350000*%
%ADD17R,2.200000X2.200000*%
%ADD18C,2.200000*%
%ADD19C,0.700000*%
%ADD20C,4.400000*%
%ADD21C,2.250000*%
%ADD22R,1.700000X1.700000*%
%ADD23O,1.700000X1.700000*%
%ADD24RoundRect,0.250000X-0.262500X-0.450000X0.262500X-0.450000X0.262500X0.450000X-0.262500X0.450000X0*%
%ADD25RoundRect,0.250000X0.250000X0.475000X-0.250000X0.475000X-0.250000X-0.475000X0.250000X-0.475000X0*%
%ADD26R,1.600000X1.600000*%
%ADD27O,1.600000X1.600000*%
%ADD28RoundRect,0.250000X0.262500X0.450000X-0.262500X0.450000X-0.262500X-0.450000X0.262500X-0.450000X0*%
%ADD29RoundRect,0.250000X-0.450000X0.262500X-0.450000X-0.262500X0.450000X-0.262500X0.450000X0.262500X0*%
G04 APERTURE END LIST*
D10*
X161600000Y-106100000D02*
X162900000Y-106100000D01*
X162900000Y-106100000D02*
X162900000Y-112100000D01*
X162900000Y-112100000D02*
X161600000Y-112100000D01*
X161600000Y-112100000D02*
X161600000Y-106100000D01*
X158700000Y-106100000D02*
X160300000Y-106100000D01*
X160300000Y-106100000D02*
X160300000Y-112100000D01*
X160300000Y-112100000D02*
X158700000Y-112100000D01*
X158700000Y-112100000D02*
X158700000Y-106100000D01*
X162900000Y-106100000D02*
X164200000Y-106100000D01*
X164200000Y-106100000D02*
X164200000Y-112100000D01*
X164200000Y-112100000D02*
X162900000Y-112100000D01*
X162900000Y-112100000D02*
X162900000Y-106100000D01*
X158700000Y-112100000D02*
X160300000Y-112100000D01*
X160300000Y-112100000D02*
X160300000Y-118100000D01*
X160300000Y-118100000D02*
X158700000Y-118100000D01*
X158700000Y-118100000D02*
X158700000Y-112100000D01*
X164200000Y-112100000D02*
X165600000Y-112100000D01*
X165600000Y-112100000D02*
X165600000Y-118100000D01*
X165600000Y-118100000D02*
X164200000Y-118100000D01*
X164200000Y-118100000D02*
X164200000Y-112100000D01*
X160300000Y-112100000D02*
X161600000Y-112100000D01*
X161600000Y-112100000D02*
X161600000Y-118100000D01*
X161600000Y-118100000D02*
X160300000Y-118100000D01*
X160300000Y-118100000D02*
X160300000Y-112100000D01*
X165600000Y-106100000D02*
X166900000Y-106100000D01*
X166900000Y-106100000D02*
X166900000Y-112100000D01*
X166900000Y-112100000D02*
X165600000Y-112100000D01*
X165600000Y-112100000D02*
X165600000Y-106100000D01*
X161600000Y-112100000D02*
X162900000Y-112100000D01*
X162900000Y-112100000D02*
X162900000Y-118100000D01*
X162900000Y-118100000D02*
X161600000Y-118100000D01*
X161600000Y-118100000D02*
X161600000Y-112100000D01*
X160300000Y-106100000D02*
X161600000Y-106100000D01*
X161600000Y-106100000D02*
X161600000Y-112100000D01*
X161600000Y-112100000D02*
X160300000Y-112100000D01*
X160300000Y-112100000D02*
X160300000Y-106100000D01*
X162900000Y-112100000D02*
X164200000Y-112100000D01*
X164200000Y-112100000D02*
X164200000Y-118100000D01*
X164200000Y-118100000D02*
X162900000Y-118100000D01*
X162900000Y-118100000D02*
X162900000Y-112100000D01*
X164200000Y-106100000D02*
X165600000Y-106100000D01*
X165600000Y-106100000D02*
X165600000Y-112100000D01*
X165600000Y-112100000D02*
X164200000Y-112100000D01*
X164200000Y-112100000D02*
X164200000Y-106100000D01*
X165600000Y-112100000D02*
X166900000Y-112100000D01*
X166900000Y-112100000D02*
X166900000Y-118100000D01*
X166900000Y-118100000D02*
X165600000Y-118100000D01*
X165600000Y-118100000D02*
X165600000Y-112100000D01*
X188800000Y-93671428D02*
X188800000Y-93071428D01*
X188400000Y-93071428D02*
X188285714Y-93071428D01*
X188228571Y-93100000D01*
X188171428Y-93157142D01*
X188142857Y-93271428D01*
X188142857Y-93471428D01*
X188171428Y-93585714D01*
X188228571Y-93642857D01*
X188285714Y-93671428D01*
X188400000Y-93671428D01*
X188457142Y-93642857D01*
X188514285Y-93585714D01*
X188542857Y-93471428D01*
X188542857Y-93271428D01*
X188514285Y-93157142D01*
X188457142Y-93100000D01*
X188400000Y-93071428D01*
X187628571Y-93271428D02*
X187628571Y-93671428D01*
X187771428Y-93042857D02*
X187914285Y-93471428D01*
X187542857Y-93471428D01*
X164550000Y-107466666D02*
X164516666Y-107400000D01*
X164516666Y-107300000D01*
X164550000Y-107200000D01*
X164616666Y-107133333D01*
X164683333Y-107100000D01*
X164816666Y-107066666D01*
X164916666Y-107066666D01*
X165050000Y-107100000D01*
X165116666Y-107133333D01*
X165183333Y-107200000D01*
X165216666Y-107300000D01*
X165216666Y-107366666D01*
X165183333Y-107466666D01*
X165150000Y-107500000D01*
X164916666Y-107500000D01*
X164916666Y-107366666D01*
X165216666Y-107800000D02*
X164516666Y-107800000D01*
X164516666Y-108066666D01*
X164550000Y-108133333D01*
X164583333Y-108166666D01*
X164650000Y-108200000D01*
X164750000Y-108200000D01*
X164816666Y-108166666D01*
X164850000Y-108133333D01*
X164883333Y-108066666D01*
X164883333Y-107800000D01*
X165216666Y-108500000D02*
X164516666Y-108500000D01*
X164516666Y-108966666D02*
X164516666Y-109100000D01*
X164550000Y-109166666D01*
X164616666Y-109233333D01*
X164750000Y-109266666D01*
X164983333Y-109266666D01*
X165116666Y-109233333D01*
X165183333Y-109166666D01*
X165216666Y-109100000D01*
X165216666Y-108966666D01*
X165183333Y-108900000D01*
X165116666Y-108833333D01*
X164983333Y-108800000D01*
X164750000Y-108800000D01*
X164616666Y-108833333D01*
X164550000Y-108900000D01*
X164516666Y-108966666D01*
X165216666Y-110466666D02*
X165216666Y-110066666D01*
X165216666Y-110266666D02*
X164516666Y-110266666D01*
X164616666Y-110200000D01*
X164683333Y-110133333D01*
X164716666Y-110066666D01*
X164516666Y-111100000D02*
X164516666Y-110766666D01*
X164850000Y-110733333D01*
X164816666Y-110766666D01*
X164783333Y-110833333D01*
X164783333Y-111000000D01*
X164816666Y-111066666D01*
X164850000Y-111100000D01*
X164916666Y-111133333D01*
X165083333Y-111133333D01*
X165150000Y-111100000D01*
X165183333Y-111066666D01*
X165216666Y-111000000D01*
X165216666Y-110833333D01*
X165183333Y-110766666D01*
X165150000Y-110733333D01*
X184628571Y-110300000D02*
X184342857Y-110300000D01*
X184685714Y-110471428D02*
X184485714Y-109871428D01*
X184285714Y-110471428D01*
X183971428Y-109871428D02*
X183914285Y-109871428D01*
X183857142Y-109900000D01*
X183828571Y-109928571D01*
X183800000Y-109985714D01*
X183771428Y-110100000D01*
X183771428Y-110242857D01*
X183800000Y-110357142D01*
X183828571Y-110414285D01*
X183857142Y-110442857D01*
X183914285Y-110471428D01*
X183971428Y-110471428D01*
X184028571Y-110442857D01*
X184057142Y-110414285D01*
X184085714Y-110357142D01*
X184114285Y-110242857D01*
X184114285Y-110100000D01*
X184085714Y-109985714D01*
X184057142Y-109928571D01*
X184028571Y-109900000D01*
X183971428Y-109871428D01*
X192514285Y-110488428D02*
X192514285Y-109888428D01*
X192114285Y-109888428D02*
X192000000Y-109888428D01*
X191942857Y-109917000D01*
X191885714Y-109974142D01*
X191857142Y-110088428D01*
X191857142Y-110288428D01*
X191885714Y-110402714D01*
X191942857Y-110459857D01*
X192000000Y-110488428D01*
X192114285Y-110488428D01*
X192171428Y-110459857D01*
X192228571Y-110402714D01*
X192257142Y-110288428D01*
X192257142Y-110088428D01*
X192228571Y-109974142D01*
X192171428Y-109917000D01*
X192114285Y-109888428D01*
X192314285Y-111454428D02*
X192657142Y-111454428D01*
X192485714Y-111454428D02*
X192485714Y-110854428D01*
X192542857Y-110940142D01*
X192600000Y-110997285D01*
X192657142Y-111025857D01*
X192085714Y-110911571D02*
X192057142Y-110883000D01*
X192000000Y-110854428D01*
X191857142Y-110854428D01*
X191800000Y-110883000D01*
X191771428Y-110911571D01*
X191742857Y-110968714D01*
X191742857Y-111025857D01*
X191771428Y-111111571D01*
X192114285Y-111454428D01*
X191742857Y-111454428D01*
X161950000Y-107466666D02*
X161916666Y-107400000D01*
X161916666Y-107300000D01*
X161950000Y-107200000D01*
X162016666Y-107133333D01*
X162083333Y-107100000D01*
X162216666Y-107066666D01*
X162316666Y-107066666D01*
X162450000Y-107100000D01*
X162516666Y-107133333D01*
X162583333Y-107200000D01*
X162616666Y-107300000D01*
X162616666Y-107366666D01*
X162583333Y-107466666D01*
X162550000Y-107500000D01*
X162316666Y-107500000D01*
X162316666Y-107366666D01*
X162616666Y-107800000D02*
X161916666Y-107800000D01*
X161916666Y-108066666D01*
X161950000Y-108133333D01*
X161983333Y-108166666D01*
X162050000Y-108200000D01*
X162150000Y-108200000D01*
X162216666Y-108166666D01*
X162250000Y-108133333D01*
X162283333Y-108066666D01*
X162283333Y-107800000D01*
X162616666Y-108500000D02*
X161916666Y-108500000D01*
X161916666Y-108966666D02*
X161916666Y-109100000D01*
X161950000Y-109166666D01*
X162016666Y-109233333D01*
X162150000Y-109266666D01*
X162383333Y-109266666D01*
X162516666Y-109233333D01*
X162583333Y-109166666D01*
X162616666Y-109100000D01*
X162616666Y-108966666D01*
X162583333Y-108900000D01*
X162516666Y-108833333D01*
X162383333Y-108800000D01*
X162150000Y-108800000D01*
X162016666Y-108833333D01*
X161950000Y-108900000D01*
X161916666Y-108966666D01*
X162616666Y-110466666D02*
X162616666Y-110066666D01*
X162616666Y-110266666D02*
X161916666Y-110266666D01*
X162016666Y-110200000D01*
X162083333Y-110133333D01*
X162116666Y-110066666D01*
X161916666Y-110700000D02*
X161916666Y-111133333D01*
X162183333Y-110900000D01*
X162183333Y-111000000D01*
X162216666Y-111066666D01*
X162250000Y-111100000D01*
X162316666Y-111133333D01*
X162483333Y-111133333D01*
X162550000Y-111100000D01*
X162583333Y-111066666D01*
X162616666Y-111000000D01*
X162616666Y-110800000D01*
X162583333Y-110733333D01*
X162550000Y-110700000D01*
X178414285Y-96614285D02*
X178442857Y-96642857D01*
X178528571Y-96671428D01*
X178585714Y-96671428D01*
X178671428Y-96642857D01*
X178728571Y-96585714D01*
X178757142Y-96528571D01*
X178785714Y-96414285D01*
X178785714Y-96328571D01*
X178757142Y-96214285D01*
X178728571Y-96157142D01*
X178671428Y-96100000D01*
X178585714Y-96071428D01*
X178528571Y-96071428D01*
X178442857Y-96100000D01*
X178414285Y-96128571D01*
X186800000Y-93671428D02*
X186800000Y-93071428D01*
X186400000Y-93071428D02*
X186285714Y-93071428D01*
X186228571Y-93100000D01*
X186171428Y-93157142D01*
X186142857Y-93271428D01*
X186142857Y-93471428D01*
X186171428Y-93585714D01*
X186228571Y-93642857D01*
X186285714Y-93671428D01*
X186400000Y-93671428D01*
X186457142Y-93642857D01*
X186514285Y-93585714D01*
X186542857Y-93471428D01*
X186542857Y-93271428D01*
X186514285Y-93157142D01*
X186457142Y-93100000D01*
X186400000Y-93071428D01*
X185600000Y-93071428D02*
X185885714Y-93071428D01*
X185914285Y-93357142D01*
X185885714Y-93328571D01*
X185828571Y-93300000D01*
X185685714Y-93300000D01*
X185628571Y-93328571D01*
X185600000Y-93357142D01*
X185571428Y-93414285D01*
X185571428Y-93557142D01*
X185600000Y-93614285D01*
X185628571Y-93642857D01*
X185685714Y-93671428D01*
X185828571Y-93671428D01*
X185885714Y-93642857D01*
X185914285Y-93614285D01*
X196657142Y-93100000D02*
X196714285Y-93071428D01*
X196800000Y-93071428D01*
X196885714Y-93100000D01*
X196942857Y-93157142D01*
X196971428Y-93214285D01*
X197000000Y-93328571D01*
X197000000Y-93414285D01*
X196971428Y-93528571D01*
X196942857Y-93585714D01*
X196885714Y-93642857D01*
X196800000Y-93671428D01*
X196742857Y-93671428D01*
X196657142Y-93642857D01*
X196628571Y-93614285D01*
X196628571Y-93414285D01*
X196742857Y-93414285D01*
X196371428Y-93671428D02*
X196371428Y-93071428D01*
X196028571Y-93671428D01*
X196028571Y-93071428D01*
X195742857Y-93671428D02*
X195742857Y-93071428D01*
X195600000Y-93071428D01*
X195514285Y-93100000D01*
X195457142Y-93157142D01*
X195428571Y-93214285D01*
X195400000Y-93328571D01*
X195400000Y-93414285D01*
X195428571Y-93528571D01*
X195457142Y-93585714D01*
X195514285Y-93642857D01*
X195600000Y-93671428D01*
X195742857Y-93671428D01*
X162616666Y-114000000D02*
X161916666Y-114000000D01*
X162416666Y-114233333D01*
X161916666Y-114466666D01*
X162616666Y-114466666D01*
X161916666Y-114933333D02*
X161916666Y-115066666D01*
X161950000Y-115133333D01*
X162016666Y-115200000D01*
X162150000Y-115233333D01*
X162383333Y-115233333D01*
X162516666Y-115200000D01*
X162583333Y-115133333D01*
X162616666Y-115066666D01*
X162616666Y-114933333D01*
X162583333Y-114866666D01*
X162516666Y-114800000D01*
X162383333Y-114766666D01*
X162150000Y-114766666D01*
X162016666Y-114800000D01*
X161950000Y-114866666D01*
X161916666Y-114933333D01*
X162583333Y-115500000D02*
X162616666Y-115600000D01*
X162616666Y-115766666D01*
X162583333Y-115833333D01*
X162550000Y-115866666D01*
X162483333Y-115900000D01*
X162416666Y-115900000D01*
X162350000Y-115866666D01*
X162316666Y-115833333D01*
X162283333Y-115766666D01*
X162250000Y-115633333D01*
X162216666Y-115566666D01*
X162183333Y-115533333D01*
X162116666Y-115500000D01*
X162050000Y-115500000D01*
X161983333Y-115533333D01*
X161950000Y-115566666D01*
X161916666Y-115633333D01*
X161916666Y-115800000D01*
X161950000Y-115900000D01*
X162616666Y-116200000D02*
X161916666Y-116200000D01*
X171367857Y-109528571D02*
X171396428Y-109614285D01*
X171396428Y-109757142D01*
X171367857Y-109814285D01*
X171339285Y-109842857D01*
X171282142Y-109871428D01*
X171225000Y-109871428D01*
X171167857Y-109842857D01*
X171139285Y-109814285D01*
X171110714Y-109757142D01*
X171082142Y-109642857D01*
X171053571Y-109585714D01*
X171025000Y-109557142D01*
X170967857Y-109528571D01*
X170910714Y-109528571D01*
X170853571Y-109557142D01*
X170825000Y-109585714D01*
X170796428Y-109642857D01*
X170796428Y-109785714D01*
X170825000Y-109871428D01*
X171339285Y-110471428D02*
X171367857Y-110442857D01*
X171396428Y-110357142D01*
X171396428Y-110300000D01*
X171367857Y-110214285D01*
X171310714Y-110157142D01*
X171253571Y-110128571D01*
X171139285Y-110100000D01*
X171053571Y-110100000D01*
X170939285Y-110128571D01*
X170882142Y-110157142D01*
X170825000Y-110214285D01*
X170796428Y-110300000D01*
X170796428Y-110357142D01*
X170825000Y-110442857D01*
X170853571Y-110471428D01*
X171396428Y-110728571D02*
X170796428Y-110728571D01*
X171396428Y-111071428D02*
X171053571Y-110814285D01*
X170796428Y-111071428D02*
X171139285Y-110728571D01*
X165950000Y-107800000D02*
X165916666Y-107733333D01*
X165916666Y-107633333D01*
X165950000Y-107533333D01*
X166016666Y-107466666D01*
X166083333Y-107433333D01*
X166216666Y-107400000D01*
X166316666Y-107400000D01*
X166450000Y-107433333D01*
X166516666Y-107466666D01*
X166583333Y-107533333D01*
X166616666Y-107633333D01*
X166616666Y-107700000D01*
X166583333Y-107800000D01*
X166550000Y-107833333D01*
X166316666Y-107833333D01*
X166316666Y-107700000D01*
X166616666Y-108133333D02*
X165916666Y-108133333D01*
X165916666Y-108400000D01*
X165950000Y-108466666D01*
X165983333Y-108500000D01*
X166050000Y-108533333D01*
X166150000Y-108533333D01*
X166216666Y-108500000D01*
X166250000Y-108466666D01*
X166283333Y-108400000D01*
X166283333Y-108133333D01*
X166616666Y-108833333D02*
X165916666Y-108833333D01*
X165916666Y-109300000D02*
X165916666Y-109433333D01*
X165950000Y-109500000D01*
X166016666Y-109566666D01*
X166150000Y-109600000D01*
X166383333Y-109600000D01*
X166516666Y-109566666D01*
X166583333Y-109500000D01*
X166616666Y-109433333D01*
X166616666Y-109300000D01*
X166583333Y-109233333D01*
X166516666Y-109166666D01*
X166383333Y-109133333D01*
X166150000Y-109133333D01*
X166016666Y-109166666D01*
X165950000Y-109233333D01*
X165916666Y-109300000D01*
X165916666Y-110366666D02*
X165916666Y-110800000D01*
X166183333Y-110566666D01*
X166183333Y-110666666D01*
X166216666Y-110733333D01*
X166250000Y-110766666D01*
X166316666Y-110800000D01*
X166483333Y-110800000D01*
X166550000Y-110766666D01*
X166583333Y-110733333D01*
X166616666Y-110666666D01*
X166616666Y-110466666D01*
X166583333Y-110400000D01*
X166550000Y-110366666D01*
D11*
X159442857Y-106433333D02*
X159442857Y-106700000D01*
X159861904Y-106814285D02*
X159861904Y-106433333D01*
X159061904Y-106433333D01*
X159061904Y-106814285D01*
X159823809Y-107119047D02*
X159861904Y-107233333D01*
X159861904Y-107423809D01*
X159823809Y-107500000D01*
X159785714Y-107538095D01*
X159709523Y-107576190D01*
X159633333Y-107576190D01*
X159557142Y-107538095D01*
X159519047Y-107500000D01*
X159480952Y-107423809D01*
X159442857Y-107271428D01*
X159404761Y-107195238D01*
X159366666Y-107157142D01*
X159290476Y-107119047D01*
X159214285Y-107119047D01*
X159138095Y-107157142D01*
X159100000Y-107195238D01*
X159061904Y-107271428D01*
X159061904Y-107461904D01*
X159100000Y-107576190D01*
X159861904Y-107919047D02*
X159061904Y-107919047D01*
X159061904Y-108223809D01*
X159100000Y-108300000D01*
X159138095Y-108338095D01*
X159214285Y-108376190D01*
X159328571Y-108376190D01*
X159404761Y-108338095D01*
X159442857Y-108300000D01*
X159480952Y-108223809D01*
X159480952Y-107919047D01*
X159100000Y-109747619D02*
X159061904Y-109671428D01*
X159061904Y-109557142D01*
X159100000Y-109442857D01*
X159176190Y-109366666D01*
X159252380Y-109328571D01*
X159404761Y-109290476D01*
X159519047Y-109290476D01*
X159671428Y-109328571D01*
X159747619Y-109366666D01*
X159823809Y-109442857D01*
X159861904Y-109557142D01*
X159861904Y-109633333D01*
X159823809Y-109747619D01*
X159785714Y-109785714D01*
X159519047Y-109785714D01*
X159519047Y-109633333D01*
X159861904Y-110128571D02*
X159061904Y-110128571D01*
X159061904Y-110433333D01*
X159100000Y-110509523D01*
X159138095Y-110547619D01*
X159214285Y-110585714D01*
X159328571Y-110585714D01*
X159404761Y-110547619D01*
X159442857Y-110509523D01*
X159480952Y-110433333D01*
X159480952Y-110128571D01*
X159861904Y-110928571D02*
X159061904Y-110928571D01*
X159061904Y-111461904D02*
X159061904Y-111614285D01*
X159100000Y-111690476D01*
X159176190Y-111766666D01*
X159328571Y-111804761D01*
X159595238Y-111804761D01*
X159747619Y-111766666D01*
X159823809Y-111690476D01*
X159861904Y-111614285D01*
X159861904Y-111461904D01*
X159823809Y-111385714D01*
X159747619Y-111309523D01*
X159595238Y-111271428D01*
X159328571Y-111271428D01*
X159176190Y-111309523D01*
X159100000Y-111385714D01*
X159061904Y-111461904D01*
D10*
X184800000Y-93671428D02*
X184800000Y-93071428D01*
X184400000Y-93071428D02*
X184285714Y-93071428D01*
X184228571Y-93100000D01*
X184171428Y-93157142D01*
X184142857Y-93271428D01*
X184142857Y-93471428D01*
X184171428Y-93585714D01*
X184228571Y-93642857D01*
X184285714Y-93671428D01*
X184400000Y-93671428D01*
X184457142Y-93642857D01*
X184514285Y-93585714D01*
X184542857Y-93471428D01*
X184542857Y-93271428D01*
X184514285Y-93157142D01*
X184457142Y-93100000D01*
X184400000Y-93071428D01*
X183942857Y-93071428D02*
X183571428Y-93071428D01*
X183771428Y-93300000D01*
X183685714Y-93300000D01*
X183628571Y-93328571D01*
X183600000Y-93357142D01*
X183571428Y-93414285D01*
X183571428Y-93557142D01*
X183600000Y-93614285D01*
X183628571Y-93642857D01*
X183685714Y-93671428D01*
X183857142Y-93671428D01*
X183914285Y-93642857D01*
X183942857Y-93614285D01*
X194514285Y-92688428D02*
X194514285Y-92088428D01*
X194114285Y-92088428D02*
X194000000Y-92088428D01*
X193942857Y-92117000D01*
X193885714Y-92174142D01*
X193857142Y-92288428D01*
X193857142Y-92488428D01*
X193885714Y-92602714D01*
X193942857Y-92659857D01*
X194000000Y-92688428D01*
X194114285Y-92688428D01*
X194171428Y-92659857D01*
X194228571Y-92602714D01*
X194257142Y-92488428D01*
X194257142Y-92288428D01*
X194228571Y-92174142D01*
X194171428Y-92117000D01*
X194114285Y-92088428D01*
X194314285Y-93654428D02*
X194657142Y-93654428D01*
X194485714Y-93654428D02*
X194485714Y-93054428D01*
X194542857Y-93140142D01*
X194600000Y-93197285D01*
X194657142Y-93225857D01*
X193771428Y-93054428D02*
X194057142Y-93054428D01*
X194085714Y-93340142D01*
X194057142Y-93311571D01*
X194000000Y-93283000D01*
X193857142Y-93283000D01*
X193800000Y-93311571D01*
X193771428Y-93340142D01*
X193742857Y-93397285D01*
X193742857Y-93540142D01*
X193771428Y-93597285D01*
X193800000Y-93625857D01*
X193857142Y-93654428D01*
X194000000Y-93654428D01*
X194057142Y-93625857D01*
X194085714Y-93597285D01*
X170825000Y-115842857D02*
X170796428Y-115785714D01*
X170796428Y-115700000D01*
X170825000Y-115614285D01*
X170882142Y-115557142D01*
X170939285Y-115528571D01*
X171053571Y-115500000D01*
X171139285Y-115500000D01*
X171253571Y-115528571D01*
X171310714Y-115557142D01*
X171367857Y-115614285D01*
X171396428Y-115700000D01*
X171396428Y-115757142D01*
X171367857Y-115842857D01*
X171339285Y-115871428D01*
X171139285Y-115871428D01*
X171139285Y-115757142D01*
X171396428Y-116128571D02*
X170796428Y-116128571D01*
X171396428Y-116471428D01*
X170796428Y-116471428D01*
X171396428Y-116757142D02*
X170796428Y-116757142D01*
X170796428Y-116900000D01*
X170825000Y-116985714D01*
X170882142Y-117042857D01*
X170939285Y-117071428D01*
X171053571Y-117100000D01*
X171139285Y-117100000D01*
X171253571Y-117071428D01*
X171310714Y-117042857D01*
X171367857Y-116985714D01*
X171396428Y-116900000D01*
X171396428Y-116757142D01*
X192800000Y-93671428D02*
X192800000Y-93071428D01*
X192400000Y-93071428D02*
X192285714Y-93071428D01*
X192228571Y-93100000D01*
X192171428Y-93157142D01*
X192142857Y-93271428D01*
X192142857Y-93471428D01*
X192171428Y-93585714D01*
X192228571Y-93642857D01*
X192285714Y-93671428D01*
X192400000Y-93671428D01*
X192457142Y-93642857D01*
X192514285Y-93585714D01*
X192542857Y-93471428D01*
X192542857Y-93271428D01*
X192514285Y-93157142D01*
X192457142Y-93100000D01*
X192400000Y-93071428D01*
X191914285Y-93128571D02*
X191885714Y-93100000D01*
X191828571Y-93071428D01*
X191685714Y-93071428D01*
X191628571Y-93100000D01*
X191600000Y-93128571D01*
X191571428Y-93185714D01*
X191571428Y-93242857D01*
X191600000Y-93328571D01*
X191942857Y-93671428D01*
X191571428Y-93671428D01*
X191714285Y-96614285D02*
X191742857Y-96642857D01*
X191828571Y-96671428D01*
X191885714Y-96671428D01*
X191971428Y-96642857D01*
X192028571Y-96585714D01*
X192057142Y-96528571D01*
X192085714Y-96414285D01*
X192085714Y-96328571D01*
X192057142Y-96214285D01*
X192028571Y-96157142D01*
X191971428Y-96100000D01*
X191885714Y-96071428D01*
X191828571Y-96071428D01*
X191742857Y-96100000D01*
X191714285Y-96128571D01*
X191457142Y-96671428D02*
X191457142Y-96071428D01*
X191457142Y-96357142D02*
X191114285Y-96357142D01*
X191114285Y-96671428D02*
X191114285Y-96071428D01*
X190514285Y-96671428D02*
X190857142Y-96671428D01*
X190685714Y-96671428D02*
X190685714Y-96071428D01*
X190742857Y-96157142D01*
X190800000Y-96214285D01*
X190857142Y-96242857D01*
X154375000Y-103842857D02*
X154346428Y-103785714D01*
X154346428Y-103700000D01*
X154375000Y-103614285D01*
X154432142Y-103557142D01*
X154489285Y-103528571D01*
X154603571Y-103500000D01*
X154689285Y-103500000D01*
X154803571Y-103528571D01*
X154860714Y-103557142D01*
X154917857Y-103614285D01*
X154946428Y-103700000D01*
X154946428Y-103757142D01*
X154917857Y-103842857D01*
X154889285Y-103871428D01*
X154689285Y-103871428D01*
X154689285Y-103757142D01*
X154946428Y-104128571D02*
X154346428Y-104128571D01*
X154946428Y-104471428D01*
X154346428Y-104471428D01*
X154946428Y-104757142D02*
X154346428Y-104757142D01*
X154346428Y-104900000D01*
X154375000Y-104985714D01*
X154432142Y-105042857D01*
X154489285Y-105071428D01*
X154603571Y-105100000D01*
X154689285Y-105100000D01*
X154803571Y-105071428D01*
X154860714Y-105042857D01*
X154917857Y-104985714D01*
X154946428Y-104900000D01*
X154946428Y-104757142D01*
X171388428Y-113957142D02*
X170788428Y-113957142D01*
X171217000Y-114157142D01*
X170788428Y-114357142D01*
X171388428Y-114357142D01*
X171388428Y-114642857D02*
X170788428Y-114642857D01*
X172325857Y-113814285D02*
X172354428Y-113900000D01*
X172354428Y-114042857D01*
X172325857Y-114100000D01*
X172297285Y-114128571D01*
X172240142Y-114157142D01*
X172183000Y-114157142D01*
X172125857Y-114128571D01*
X172097285Y-114100000D01*
X172068714Y-114042857D01*
X172040142Y-113928571D01*
X172011571Y-113871428D01*
X171983000Y-113842857D01*
X171925857Y-113814285D01*
X171868714Y-113814285D01*
X171811571Y-113842857D01*
X171783000Y-113871428D01*
X171754428Y-113928571D01*
X171754428Y-114071428D01*
X171783000Y-114157142D01*
X171754428Y-114528571D02*
X171754428Y-114642857D01*
X171783000Y-114700000D01*
X171840142Y-114757142D01*
X171954428Y-114785714D01*
X172154428Y-114785714D01*
X172268714Y-114757142D01*
X172325857Y-114700000D01*
X172354428Y-114642857D01*
X172354428Y-114528571D01*
X172325857Y-114471428D01*
X172268714Y-114414285D01*
X172154428Y-114385714D01*
X171954428Y-114385714D01*
X171840142Y-114414285D01*
X171783000Y-114471428D01*
X171754428Y-114528571D01*
X190514285Y-110488428D02*
X190514285Y-109888428D01*
X190114285Y-109888428D02*
X190000000Y-109888428D01*
X189942857Y-109917000D01*
X189885714Y-109974142D01*
X189857142Y-110088428D01*
X189857142Y-110288428D01*
X189885714Y-110402714D01*
X189942857Y-110459857D01*
X190000000Y-110488428D01*
X190114285Y-110488428D01*
X190171428Y-110459857D01*
X190228571Y-110402714D01*
X190257142Y-110288428D01*
X190257142Y-110088428D01*
X190228571Y-109974142D01*
X190171428Y-109917000D01*
X190114285Y-109888428D01*
X190314285Y-111454428D02*
X190657142Y-111454428D01*
X190485714Y-111454428D02*
X190485714Y-110854428D01*
X190542857Y-110940142D01*
X190600000Y-110997285D01*
X190657142Y-111025857D01*
X189800000Y-111054428D02*
X189800000Y-111454428D01*
X189942857Y-110825857D02*
X190085714Y-111254428D01*
X189714285Y-111254428D01*
X163916666Y-114000000D02*
X163216666Y-114000000D01*
X163716666Y-114233333D01*
X163216666Y-114466666D01*
X163916666Y-114466666D01*
X163916666Y-114800000D02*
X163216666Y-114800000D01*
X163883333Y-115100000D02*
X163916666Y-115200000D01*
X163916666Y-115366666D01*
X163883333Y-115433333D01*
X163850000Y-115466666D01*
X163783333Y-115500000D01*
X163716666Y-115500000D01*
X163650000Y-115466666D01*
X163616666Y-115433333D01*
X163583333Y-115366666D01*
X163550000Y-115233333D01*
X163516666Y-115166666D01*
X163483333Y-115133333D01*
X163416666Y-115100000D01*
X163350000Y-115100000D01*
X163283333Y-115133333D01*
X163250000Y-115166666D01*
X163216666Y-115233333D01*
X163216666Y-115400000D01*
X163250000Y-115500000D01*
X163216666Y-115933333D02*
X163216666Y-116066666D01*
X163250000Y-116133333D01*
X163316666Y-116200000D01*
X163450000Y-116233333D01*
X163683333Y-116233333D01*
X163816666Y-116200000D01*
X163883333Y-116133333D01*
X163916666Y-116066666D01*
X163916666Y-115933333D01*
X163883333Y-115866666D01*
X163816666Y-115800000D01*
X163683333Y-115766666D01*
X163450000Y-115766666D01*
X163316666Y-115800000D01*
X163250000Y-115866666D01*
X163216666Y-115933333D01*
X181557142Y-106800000D02*
X181614285Y-106771428D01*
X181700000Y-106771428D01*
X181785714Y-106800000D01*
X181842857Y-106857142D01*
X181871428Y-106914285D01*
X181900000Y-107028571D01*
X181900000Y-107114285D01*
X181871428Y-107228571D01*
X181842857Y-107285714D01*
X181785714Y-107342857D01*
X181700000Y-107371428D01*
X181642857Y-107371428D01*
X181557142Y-107342857D01*
X181528571Y-107314285D01*
X181528571Y-107114285D01*
X181642857Y-107114285D01*
X181271428Y-107371428D02*
X181271428Y-106771428D01*
X180928571Y-107371428D01*
X180928571Y-106771428D01*
X180642857Y-107371428D02*
X180642857Y-106771428D01*
X180500000Y-106771428D01*
X180414285Y-106800000D01*
X180357142Y-106857142D01*
X180328571Y-106914285D01*
X180300000Y-107028571D01*
X180300000Y-107114285D01*
X180328571Y-107228571D01*
X180357142Y-107285714D01*
X180414285Y-107342857D01*
X180500000Y-107371428D01*
X180642857Y-107371428D01*
X194514285Y-110488428D02*
X194514285Y-109888428D01*
X194114285Y-109888428D02*
X194000000Y-109888428D01*
X193942857Y-109917000D01*
X193885714Y-109974142D01*
X193857142Y-110088428D01*
X193857142Y-110288428D01*
X193885714Y-110402714D01*
X193942857Y-110459857D01*
X194000000Y-110488428D01*
X194114285Y-110488428D01*
X194171428Y-110459857D01*
X194228571Y-110402714D01*
X194257142Y-110288428D01*
X194257142Y-110088428D01*
X194228571Y-109974142D01*
X194171428Y-109917000D01*
X194114285Y-109888428D01*
X194314285Y-111454428D02*
X194657142Y-111454428D01*
X194485714Y-111454428D02*
X194485714Y-110854428D01*
X194542857Y-110940142D01*
X194600000Y-110997285D01*
X194657142Y-111025857D01*
X194114285Y-110854428D02*
X193742857Y-110854428D01*
X193942857Y-111083000D01*
X193857142Y-111083000D01*
X193800000Y-111111571D01*
X193771428Y-111140142D01*
X193742857Y-111197285D01*
X193742857Y-111340142D01*
X193771428Y-111397285D01*
X193800000Y-111425857D01*
X193857142Y-111454428D01*
X194028571Y-111454428D01*
X194085714Y-111425857D01*
X194114285Y-111397285D01*
X171388428Y-111785714D02*
X170788428Y-111785714D01*
X171217000Y-111985714D01*
X170788428Y-112185714D01*
X171388428Y-112185714D01*
X170788428Y-112585714D02*
X170788428Y-112700000D01*
X170817000Y-112757142D01*
X170874142Y-112814285D01*
X170988428Y-112842857D01*
X171188428Y-112842857D01*
X171302714Y-112814285D01*
X171359857Y-112757142D01*
X171388428Y-112700000D01*
X171388428Y-112585714D01*
X171359857Y-112528571D01*
X171302714Y-112471428D01*
X171188428Y-112442857D01*
X170988428Y-112442857D01*
X170874142Y-112471428D01*
X170817000Y-112528571D01*
X170788428Y-112585714D01*
X172325857Y-111985714D02*
X172354428Y-112071428D01*
X172354428Y-112214285D01*
X172325857Y-112271428D01*
X172297285Y-112300000D01*
X172240142Y-112328571D01*
X172183000Y-112328571D01*
X172125857Y-112300000D01*
X172097285Y-112271428D01*
X172068714Y-112214285D01*
X172040142Y-112100000D01*
X172011571Y-112042857D01*
X171983000Y-112014285D01*
X171925857Y-111985714D01*
X171868714Y-111985714D01*
X171811571Y-112014285D01*
X171783000Y-112042857D01*
X171754428Y-112100000D01*
X171754428Y-112242857D01*
X171783000Y-112328571D01*
X172354428Y-112585714D02*
X171754428Y-112585714D01*
X160650000Y-107466666D02*
X160616666Y-107400000D01*
X160616666Y-107300000D01*
X160650000Y-107200000D01*
X160716666Y-107133333D01*
X160783333Y-107100000D01*
X160916666Y-107066666D01*
X161016666Y-107066666D01*
X161150000Y-107100000D01*
X161216666Y-107133333D01*
X161283333Y-107200000D01*
X161316666Y-107300000D01*
X161316666Y-107366666D01*
X161283333Y-107466666D01*
X161250000Y-107500000D01*
X161016666Y-107500000D01*
X161016666Y-107366666D01*
X161316666Y-107800000D02*
X160616666Y-107800000D01*
X160616666Y-108066666D01*
X160650000Y-108133333D01*
X160683333Y-108166666D01*
X160750000Y-108200000D01*
X160850000Y-108200000D01*
X160916666Y-108166666D01*
X160950000Y-108133333D01*
X160983333Y-108066666D01*
X160983333Y-107800000D01*
X161316666Y-108500000D02*
X160616666Y-108500000D01*
X160616666Y-108966666D02*
X160616666Y-109100000D01*
X160650000Y-109166666D01*
X160716666Y-109233333D01*
X160850000Y-109266666D01*
X161083333Y-109266666D01*
X161216666Y-109233333D01*
X161283333Y-109166666D01*
X161316666Y-109100000D01*
X161316666Y-108966666D01*
X161283333Y-108900000D01*
X161216666Y-108833333D01*
X161083333Y-108800000D01*
X160850000Y-108800000D01*
X160716666Y-108833333D01*
X160650000Y-108900000D01*
X160616666Y-108966666D01*
X161316666Y-110466666D02*
X161316666Y-110066666D01*
X161316666Y-110266666D02*
X160616666Y-110266666D01*
X160716666Y-110200000D01*
X160783333Y-110133333D01*
X160816666Y-110066666D01*
X160850000Y-111066666D02*
X161316666Y-111066666D01*
X160583333Y-110900000D02*
X161083333Y-110733333D01*
X161083333Y-111166666D01*
X196914285Y-109871428D02*
X196542857Y-109871428D01*
X196742857Y-110100000D01*
X196657142Y-110100000D01*
X196600000Y-110128571D01*
X196571428Y-110157142D01*
X196542857Y-110214285D01*
X196542857Y-110357142D01*
X196571428Y-110414285D01*
X196600000Y-110442857D01*
X196657142Y-110471428D01*
X196828571Y-110471428D01*
X196885714Y-110442857D01*
X196914285Y-110414285D01*
X196342857Y-110071428D02*
X196200000Y-110471428D01*
X196057142Y-110071428D01*
X195885714Y-109871428D02*
X195514285Y-109871428D01*
X195714285Y-110100000D01*
X195628571Y-110100000D01*
X195571428Y-110128571D01*
X195542857Y-110157142D01*
X195514285Y-110214285D01*
X195514285Y-110357142D01*
X195542857Y-110414285D01*
X195571428Y-110442857D01*
X195628571Y-110471428D01*
X195800000Y-110471428D01*
X195857142Y-110442857D01*
X195885714Y-110414285D01*
X163250000Y-107466666D02*
X163216666Y-107400000D01*
X163216666Y-107300000D01*
X163250000Y-107200000D01*
X163316666Y-107133333D01*
X163383333Y-107100000D01*
X163516666Y-107066666D01*
X163616666Y-107066666D01*
X163750000Y-107100000D01*
X163816666Y-107133333D01*
X163883333Y-107200000D01*
X163916666Y-107300000D01*
X163916666Y-107366666D01*
X163883333Y-107466666D01*
X163850000Y-107500000D01*
X163616666Y-107500000D01*
X163616666Y-107366666D01*
X163916666Y-107800000D02*
X163216666Y-107800000D01*
X163216666Y-108066666D01*
X163250000Y-108133333D01*
X163283333Y-108166666D01*
X163350000Y-108200000D01*
X163450000Y-108200000D01*
X163516666Y-108166666D01*
X163550000Y-108133333D01*
X163583333Y-108066666D01*
X163583333Y-107800000D01*
X163916666Y-108500000D02*
X163216666Y-108500000D01*
X163216666Y-108966666D02*
X163216666Y-109100000D01*
X163250000Y-109166666D01*
X163316666Y-109233333D01*
X163450000Y-109266666D01*
X163683333Y-109266666D01*
X163816666Y-109233333D01*
X163883333Y-109166666D01*
X163916666Y-109100000D01*
X163916666Y-108966666D01*
X163883333Y-108900000D01*
X163816666Y-108833333D01*
X163683333Y-108800000D01*
X163450000Y-108800000D01*
X163316666Y-108833333D01*
X163250000Y-108900000D01*
X163216666Y-108966666D01*
X163916666Y-110466666D02*
X163916666Y-110066666D01*
X163916666Y-110266666D02*
X163216666Y-110266666D01*
X163316666Y-110200000D01*
X163383333Y-110133333D01*
X163416666Y-110066666D01*
X163283333Y-110733333D02*
X163250000Y-110766666D01*
X163216666Y-110833333D01*
X163216666Y-111000000D01*
X163250000Y-111066666D01*
X163283333Y-111100000D01*
X163350000Y-111133333D01*
X163416666Y-111133333D01*
X163516666Y-111100000D01*
X163916666Y-110700000D01*
X163916666Y-111133333D01*
X166616666Y-114050000D02*
X165916666Y-114050000D01*
X165916666Y-114216666D01*
X165950000Y-114316666D01*
X166016666Y-114383333D01*
X166083333Y-114416666D01*
X166216666Y-114450000D01*
X166316666Y-114450000D01*
X166450000Y-114416666D01*
X166516666Y-114383333D01*
X166583333Y-114316666D01*
X166616666Y-114216666D01*
X166616666Y-114050000D01*
X166616666Y-114750000D02*
X165916666Y-114750000D01*
X165916666Y-115216666D02*
X165916666Y-115350000D01*
X165950000Y-115416666D01*
X166016666Y-115483333D01*
X166150000Y-115516666D01*
X166383333Y-115516666D01*
X166516666Y-115483333D01*
X166583333Y-115416666D01*
X166616666Y-115350000D01*
X166616666Y-115216666D01*
X166583333Y-115150000D01*
X166516666Y-115083333D01*
X166383333Y-115050000D01*
X166150000Y-115050000D01*
X166016666Y-115083333D01*
X165950000Y-115150000D01*
X165916666Y-115216666D01*
X165916666Y-115950000D02*
X165916666Y-116016666D01*
X165950000Y-116083333D01*
X165983333Y-116116666D01*
X166050000Y-116150000D01*
X166183333Y-116183333D01*
X166350000Y-116183333D01*
X166483333Y-116150000D01*
X166550000Y-116116666D01*
X166583333Y-116083333D01*
X166616666Y-116016666D01*
X166616666Y-115950000D01*
X166583333Y-115883333D01*
X166550000Y-115850000D01*
X166483333Y-115816666D01*
X166350000Y-115783333D01*
X166183333Y-115783333D01*
X166050000Y-115816666D01*
X165983333Y-115850000D01*
X165950000Y-115883333D01*
X165916666Y-115950000D01*
X189214285Y-96614285D02*
X189242857Y-96642857D01*
X189328571Y-96671428D01*
X189385714Y-96671428D01*
X189471428Y-96642857D01*
X189528571Y-96585714D01*
X189557142Y-96528571D01*
X189585714Y-96414285D01*
X189585714Y-96328571D01*
X189557142Y-96214285D01*
X189528571Y-96157142D01*
X189471428Y-96100000D01*
X189385714Y-96071428D01*
X189328571Y-96071428D01*
X189242857Y-96100000D01*
X189214285Y-96128571D01*
X188957142Y-96671428D02*
X188957142Y-96071428D01*
X188957142Y-96357142D02*
X188614285Y-96357142D01*
X188614285Y-96671428D02*
X188614285Y-96071428D01*
X188214285Y-96071428D02*
X188157142Y-96071428D01*
X188100000Y-96100000D01*
X188071428Y-96128571D01*
X188042857Y-96185714D01*
X188014285Y-96300000D01*
X188014285Y-96442857D01*
X188042857Y-96557142D01*
X188071428Y-96614285D01*
X188100000Y-96642857D01*
X188157142Y-96671428D01*
X188214285Y-96671428D01*
X188271428Y-96642857D01*
X188300000Y-96614285D01*
X188328571Y-96557142D01*
X188357142Y-96442857D01*
X188357142Y-96300000D01*
X188328571Y-96185714D01*
X188300000Y-96128571D01*
X188271428Y-96100000D01*
X188214285Y-96071428D01*
X183842857Y-96500000D02*
X183557142Y-96500000D01*
X183900000Y-96671428D02*
X183700000Y-96071428D01*
X183500000Y-96671428D01*
X171396428Y-107457142D02*
X170796428Y-107457142D01*
X171396428Y-107800000D01*
X170796428Y-107800000D01*
X171367857Y-108057142D02*
X171396428Y-108142857D01*
X171396428Y-108285714D01*
X171367857Y-108342857D01*
X171339285Y-108371428D01*
X171282142Y-108400000D01*
X171225000Y-108400000D01*
X171167857Y-108371428D01*
X171139285Y-108342857D01*
X171110714Y-108285714D01*
X171082142Y-108171428D01*
X171053571Y-108114285D01*
X171025000Y-108085714D01*
X170967857Y-108057142D01*
X170910714Y-108057142D01*
X170853571Y-108085714D01*
X170825000Y-108114285D01*
X170796428Y-108171428D01*
X170796428Y-108314285D01*
X170825000Y-108400000D01*
X171367857Y-108628571D02*
X171396428Y-108714285D01*
X171396428Y-108857142D01*
X171367857Y-108914285D01*
X171339285Y-108942857D01*
X171282142Y-108971428D01*
X171225000Y-108971428D01*
X171167857Y-108942857D01*
X171139285Y-108914285D01*
X171110714Y-108857142D01*
X171082142Y-108742857D01*
X171053571Y-108685714D01*
X171025000Y-108657142D01*
X170967857Y-108628571D01*
X170910714Y-108628571D01*
X170853571Y-108657142D01*
X170825000Y-108685714D01*
X170796428Y-108742857D01*
X170796428Y-108885714D01*
X170825000Y-108971428D01*
X153988428Y-111685714D02*
X153388428Y-111685714D01*
X153388428Y-111828571D01*
X153417000Y-111914285D01*
X153474142Y-111971428D01*
X153531285Y-112000000D01*
X153645571Y-112028571D01*
X153731285Y-112028571D01*
X153845571Y-112000000D01*
X153902714Y-111971428D01*
X153959857Y-111914285D01*
X153988428Y-111828571D01*
X153988428Y-111685714D01*
X153988428Y-112285714D02*
X153388428Y-112285714D01*
X153388428Y-112685714D02*
X153388428Y-112800000D01*
X153417000Y-112857142D01*
X153474142Y-112914285D01*
X153588428Y-112942857D01*
X153788428Y-112942857D01*
X153902714Y-112914285D01*
X153959857Y-112857142D01*
X153988428Y-112800000D01*
X153988428Y-112685714D01*
X153959857Y-112628571D01*
X153902714Y-112571428D01*
X153788428Y-112542857D01*
X153588428Y-112542857D01*
X153474142Y-112571428D01*
X153417000Y-112628571D01*
X153388428Y-112685714D01*
X154354428Y-112271428D02*
X154354428Y-112328571D01*
X154383000Y-112385714D01*
X154411571Y-112414285D01*
X154468714Y-112442857D01*
X154583000Y-112471428D01*
X154725857Y-112471428D01*
X154840142Y-112442857D01*
X154897285Y-112414285D01*
X154925857Y-112385714D01*
X154954428Y-112328571D01*
X154954428Y-112271428D01*
X154925857Y-112214285D01*
X154897285Y-112185714D01*
X154840142Y-112157142D01*
X154725857Y-112128571D01*
X154583000Y-112128571D01*
X154468714Y-112157142D01*
X154411571Y-112185714D01*
X154383000Y-112214285D01*
X154354428Y-112271428D01*
X154775000Y-101614285D02*
X154775000Y-101900000D01*
X154946428Y-101557142D02*
X154346428Y-101757142D01*
X154946428Y-101957142D01*
X154946428Y-102157142D02*
X154346428Y-102157142D01*
X154946428Y-102500000D01*
X154346428Y-102500000D01*
X154346428Y-102700000D02*
X154346428Y-103042857D01*
X154946428Y-102871428D02*
X154346428Y-102871428D01*
X161283333Y-114200000D02*
X161316666Y-114300000D01*
X161316666Y-114466666D01*
X161283333Y-114533333D01*
X161250000Y-114566666D01*
X161183333Y-114600000D01*
X161116666Y-114600000D01*
X161050000Y-114566666D01*
X161016666Y-114533333D01*
X160983333Y-114466666D01*
X160950000Y-114333333D01*
X160916666Y-114266666D01*
X160883333Y-114233333D01*
X160816666Y-114200000D01*
X160750000Y-114200000D01*
X160683333Y-114233333D01*
X160650000Y-114266666D01*
X160616666Y-114333333D01*
X160616666Y-114500000D01*
X160650000Y-114600000D01*
X161250000Y-115300000D02*
X161283333Y-115266666D01*
X161316666Y-115166666D01*
X161316666Y-115100000D01*
X161283333Y-115000000D01*
X161216666Y-114933333D01*
X161150000Y-114900000D01*
X161016666Y-114866666D01*
X160916666Y-114866666D01*
X160783333Y-114900000D01*
X160716666Y-114933333D01*
X160650000Y-115000000D01*
X160616666Y-115100000D01*
X160616666Y-115166666D01*
X160650000Y-115266666D01*
X160683333Y-115300000D01*
X161316666Y-115600000D02*
X160616666Y-115600000D01*
X161316666Y-116000000D02*
X160916666Y-115700000D01*
X160616666Y-116000000D02*
X161016666Y-115600000D01*
D11*
X159861904Y-113328571D02*
X159480952Y-113061904D01*
X159861904Y-112871428D02*
X159061904Y-112871428D01*
X159061904Y-113176190D01*
X159100000Y-113252380D01*
X159138095Y-113290476D01*
X159214285Y-113328571D01*
X159328571Y-113328571D01*
X159404761Y-113290476D01*
X159442857Y-113252380D01*
X159480952Y-113176190D01*
X159480952Y-112871428D01*
X159442857Y-113938095D02*
X159442857Y-113671428D01*
X159861904Y-113671428D02*
X159061904Y-113671428D01*
X159061904Y-114052380D01*
X159861904Y-114357142D02*
X159061904Y-114357142D01*
X159633333Y-114623809D01*
X159061904Y-114890476D01*
X159861904Y-114890476D01*
X159861904Y-115309523D02*
X159861904Y-115461904D01*
X159823809Y-115538095D01*
X159785714Y-115576190D01*
X159671428Y-115652380D01*
X159519047Y-115690476D01*
X159214285Y-115690476D01*
X159138095Y-115652380D01*
X159100000Y-115614285D01*
X159061904Y-115538095D01*
X159061904Y-115385714D01*
X159100000Y-115309523D01*
X159138095Y-115271428D01*
X159214285Y-115233333D01*
X159404761Y-115233333D01*
X159480952Y-115271428D01*
X159519047Y-115309523D01*
X159557142Y-115385714D01*
X159557142Y-115538095D01*
X159519047Y-115614285D01*
X159480952Y-115652380D01*
X159404761Y-115690476D01*
X159061904Y-116414285D02*
X159061904Y-116033333D01*
X159442857Y-115995238D01*
X159404761Y-116033333D01*
X159366666Y-116109523D01*
X159366666Y-116300000D01*
X159404761Y-116376190D01*
X159442857Y-116414285D01*
X159519047Y-116452380D01*
X159709523Y-116452380D01*
X159785714Y-116414285D01*
X159823809Y-116376190D01*
X159861904Y-116300000D01*
X159861904Y-116109523D01*
X159823809Y-116033333D01*
X159785714Y-115995238D01*
X159061904Y-116719047D02*
X159861904Y-116909523D01*
X159290476Y-117061904D01*
X159861904Y-117214285D01*
X159061904Y-117404761D01*
D10*
X154346428Y-109585714D02*
X154346428Y-109957142D01*
X154575000Y-109757142D01*
X154575000Y-109842857D01*
X154603571Y-109900000D01*
X154632142Y-109928571D01*
X154689285Y-109957142D01*
X154832142Y-109957142D01*
X154889285Y-109928571D01*
X154917857Y-109900000D01*
X154946428Y-109842857D01*
X154946428Y-109671428D01*
X154917857Y-109614285D01*
X154889285Y-109585714D01*
X154546428Y-110157142D02*
X154946428Y-110300000D01*
X154546428Y-110442857D01*
X154346428Y-110614285D02*
X154346428Y-110985714D01*
X154575000Y-110785714D01*
X154575000Y-110871428D01*
X154603571Y-110928571D01*
X154632142Y-110957142D01*
X154689285Y-110985714D01*
X154832142Y-110985714D01*
X154889285Y-110957142D01*
X154917857Y-110928571D01*
X154946428Y-110871428D01*
X154946428Y-110700000D01*
X154917857Y-110642857D01*
X154889285Y-110614285D01*
X184328571Y-107371428D02*
X184328571Y-106771428D01*
X184042857Y-107371428D02*
X184042857Y-106771428D01*
X183700000Y-107371428D01*
X183700000Y-106771428D01*
X183414285Y-107371428D02*
X183414285Y-106771428D01*
X183414285Y-107057142D02*
X183071428Y-107057142D01*
X183071428Y-107371428D02*
X183071428Y-106771428D01*
X188514285Y-110488428D02*
X188514285Y-109888428D01*
X188114285Y-109888428D02*
X188000000Y-109888428D01*
X187942857Y-109917000D01*
X187885714Y-109974142D01*
X187857142Y-110088428D01*
X187857142Y-110288428D01*
X187885714Y-110402714D01*
X187942857Y-110459857D01*
X188000000Y-110488428D01*
X188114285Y-110488428D01*
X188171428Y-110459857D01*
X188228571Y-110402714D01*
X188257142Y-110288428D01*
X188257142Y-110088428D01*
X188228571Y-109974142D01*
X188171428Y-109917000D01*
X188114285Y-109888428D01*
X188314285Y-111454428D02*
X188657142Y-111454428D01*
X188485714Y-111454428D02*
X188485714Y-110854428D01*
X188542857Y-110940142D01*
X188600000Y-110997285D01*
X188657142Y-111025857D01*
X187800000Y-110854428D02*
X187914285Y-110854428D01*
X187971428Y-110883000D01*
X188000000Y-110911571D01*
X188057142Y-110997285D01*
X188085714Y-111111571D01*
X188085714Y-111340142D01*
X188057142Y-111397285D01*
X188028571Y-111425857D01*
X187971428Y-111454428D01*
X187857142Y-111454428D01*
X187800000Y-111425857D01*
X187771428Y-111397285D01*
X187742857Y-111340142D01*
X187742857Y-111197285D01*
X187771428Y-111140142D01*
X187800000Y-111111571D01*
X187857142Y-111083000D01*
X187971428Y-111083000D01*
X188028571Y-111111571D01*
X188057142Y-111140142D01*
X188085714Y-111197285D01*
X197114285Y-96071428D02*
X196742857Y-96071428D01*
X196942857Y-96300000D01*
X196857142Y-96300000D01*
X196800000Y-96328571D01*
X196771428Y-96357142D01*
X196742857Y-96414285D01*
X196742857Y-96557142D01*
X196771428Y-96614285D01*
X196800000Y-96642857D01*
X196857142Y-96671428D01*
X197028571Y-96671428D01*
X197085714Y-96642857D01*
X197114285Y-96614285D01*
X196542857Y-96271428D02*
X196400000Y-96671428D01*
X196257142Y-96271428D01*
X196085714Y-96071428D02*
X195714285Y-96071428D01*
X195914285Y-96300000D01*
X195828571Y-96300000D01*
X195771428Y-96328571D01*
X195742857Y-96357142D01*
X195714285Y-96414285D01*
X195714285Y-96557142D01*
X195742857Y-96614285D01*
X195771428Y-96642857D01*
X195828571Y-96671428D01*
X196000000Y-96671428D01*
X196057142Y-96642857D01*
X196085714Y-96614285D01*
D12*
X175541714Y-101547619D02*
X175579809Y-101509523D01*
X175617904Y-101395238D01*
X175617904Y-101319047D01*
X175579809Y-101204761D01*
X175503619Y-101128571D01*
X175427428Y-101090476D01*
X175275047Y-101052380D01*
X175160761Y-101052380D01*
X175008380Y-101090476D01*
X174932190Y-101128571D01*
X174856000Y-101204761D01*
X174817904Y-101319047D01*
X174817904Y-101395238D01*
X174856000Y-101509523D01*
X174894095Y-101547619D01*
X175617904Y-101890476D02*
X174817904Y-101890476D01*
X174817904Y-102080952D01*
X174856000Y-102195238D01*
X174932190Y-102271428D01*
X175008380Y-102309523D01*
X175160761Y-102347619D01*
X175275047Y-102347619D01*
X175427428Y-102309523D01*
X175503619Y-102271428D01*
X175579809Y-102195238D01*
X175617904Y-102080952D01*
X175617904Y-101890476D01*
X176372571Y-100309523D02*
X176905904Y-100309523D01*
X176067809Y-100119047D02*
X176639238Y-99928571D01*
X176639238Y-100423809D01*
X176105904Y-100880952D02*
X176105904Y-100957142D01*
X176144000Y-101033333D01*
X176182095Y-101071428D01*
X176258285Y-101109523D01*
X176410666Y-101147619D01*
X176601142Y-101147619D01*
X176753523Y-101109523D01*
X176829714Y-101071428D01*
X176867809Y-101033333D01*
X176905904Y-100957142D01*
X176905904Y-100880952D01*
X176867809Y-100804761D01*
X176829714Y-100766666D01*
X176753523Y-100728571D01*
X176601142Y-100690476D01*
X176410666Y-100690476D01*
X176258285Y-100728571D01*
X176182095Y-100766666D01*
X176144000Y-100804761D01*
X176105904Y-100880952D01*
X176105904Y-101871428D02*
X176105904Y-101490476D01*
X176486857Y-101452380D01*
X176448761Y-101490476D01*
X176410666Y-101566666D01*
X176410666Y-101757142D01*
X176448761Y-101833333D01*
X176486857Y-101871428D01*
X176563047Y-101909523D01*
X176753523Y-101909523D01*
X176829714Y-101871428D01*
X176867809Y-101833333D01*
X176905904Y-101757142D01*
X176905904Y-101566666D01*
X176867809Y-101490476D01*
X176829714Y-101452380D01*
X176905904Y-102671428D02*
X176905904Y-102214285D01*
X176905904Y-102442857D02*
X176105904Y-102442857D01*
X176220190Y-102366666D01*
X176296380Y-102290476D01*
X176334476Y-102214285D01*
X176486857Y-103280952D02*
X176524952Y-103395238D01*
X176563047Y-103433333D01*
X176639238Y-103471428D01*
X176753523Y-103471428D01*
X176829714Y-103433333D01*
X176867809Y-103395238D01*
X176905904Y-103319047D01*
X176905904Y-103014285D01*
X176105904Y-103014285D01*
X176105904Y-103280952D01*
X176144000Y-103357142D01*
X176182095Y-103395238D01*
X176258285Y-103433333D01*
X176334476Y-103433333D01*
X176410666Y-103395238D01*
X176448761Y-103357142D01*
X176486857Y-103280952D01*
X176486857Y-103014285D01*
D10*
X179057142Y-106800000D02*
X179114285Y-106771428D01*
X179200000Y-106771428D01*
X179285714Y-106800000D01*
X179342857Y-106857142D01*
X179371428Y-106914285D01*
X179400000Y-107028571D01*
X179400000Y-107114285D01*
X179371428Y-107228571D01*
X179342857Y-107285714D01*
X179285714Y-107342857D01*
X179200000Y-107371428D01*
X179142857Y-107371428D01*
X179057142Y-107342857D01*
X179028571Y-107314285D01*
X179028571Y-107114285D01*
X179142857Y-107114285D01*
X178771428Y-107371428D02*
X178771428Y-106771428D01*
X178428571Y-107371428D01*
X178428571Y-106771428D01*
X178142857Y-107371428D02*
X178142857Y-106771428D01*
X178000000Y-106771428D01*
X177914285Y-106800000D01*
X177857142Y-106857142D01*
X177828571Y-106914285D01*
X177800000Y-107028571D01*
X177800000Y-107114285D01*
X177828571Y-107228571D01*
X177857142Y-107285714D01*
X177914285Y-107342857D01*
X178000000Y-107371428D01*
X178142857Y-107371428D01*
D11*
X191919047Y-101252380D02*
X191919047Y-101966666D01*
X191966666Y-102109523D01*
X192061904Y-102204761D01*
X192204761Y-102252380D01*
X192300000Y-102252380D01*
X190966666Y-102252380D02*
X191442857Y-102252380D01*
X191442857Y-101252380D01*
X190061904Y-102157142D02*
X190109523Y-102204761D01*
X190252380Y-102252380D01*
X190347619Y-102252380D01*
X190490476Y-102204761D01*
X190585714Y-102109523D01*
X190633333Y-102014285D01*
X190680952Y-101823809D01*
X190680952Y-101680952D01*
X190633333Y-101490476D01*
X190585714Y-101395238D01*
X190490476Y-101300000D01*
X190347619Y-101252380D01*
X190252380Y-101252380D01*
X190109523Y-101300000D01*
X190061904Y-101347619D01*
X189347619Y-101252380D02*
X189347619Y-101966666D01*
X189395238Y-102109523D01*
X189490476Y-102204761D01*
X189633333Y-102252380D01*
X189728571Y-102252380D01*
X188395238Y-102252380D02*
X188871428Y-102252380D01*
X188871428Y-101252380D01*
X187490476Y-102157142D02*
X187538095Y-102204761D01*
X187680952Y-102252380D01*
X187776190Y-102252380D01*
X187919047Y-102204761D01*
X188014285Y-102109523D01*
X188061904Y-102014285D01*
X188109523Y-101823809D01*
X188109523Y-101680952D01*
X188061904Y-101490476D01*
X188014285Y-101395238D01*
X187919047Y-101300000D01*
X187776190Y-101252380D01*
X187680952Y-101252380D01*
X187538095Y-101300000D01*
X187490476Y-101347619D01*
X186776190Y-101252380D02*
X186776190Y-101966666D01*
X186823809Y-102109523D01*
X186919047Y-102204761D01*
X187061904Y-102252380D01*
X187157142Y-102252380D01*
X185823809Y-102252380D02*
X186300000Y-102252380D01*
X186300000Y-101252380D01*
X184919047Y-102157142D02*
X184966666Y-102204761D01*
X185109523Y-102252380D01*
X185204761Y-102252380D01*
X185347619Y-102204761D01*
X185442857Y-102109523D01*
X185490476Y-102014285D01*
X185538095Y-101823809D01*
X185538095Y-101680952D01*
X185490476Y-101490476D01*
X185442857Y-101395238D01*
X185347619Y-101300000D01*
X185204761Y-101252380D01*
X185109523Y-101252380D01*
X184966666Y-101300000D01*
X184919047Y-101347619D01*
X184204761Y-101252380D02*
X184204761Y-101966666D01*
X184252380Y-102109523D01*
X184347619Y-102204761D01*
X184490476Y-102252380D01*
X184585714Y-102252380D01*
X183252380Y-102252380D02*
X183728571Y-102252380D01*
X183728571Y-101252380D01*
X182347619Y-102157142D02*
X182395238Y-102204761D01*
X182538095Y-102252380D01*
X182633333Y-102252380D01*
X182776190Y-102204761D01*
X182871428Y-102109523D01*
X182919047Y-102014285D01*
X182966666Y-101823809D01*
X182966666Y-101680952D01*
X182919047Y-101490476D01*
X182871428Y-101395238D01*
X182776190Y-101300000D01*
X182633333Y-101252380D01*
X182538095Y-101252380D01*
X182395238Y-101300000D01*
X182347619Y-101347619D01*
D10*
X165216666Y-114233333D02*
X164516666Y-114233333D01*
X165216666Y-114633333D01*
X164516666Y-114633333D01*
X165183333Y-114933333D02*
X165216666Y-115033333D01*
X165216666Y-115200000D01*
X165183333Y-115266666D01*
X165150000Y-115300000D01*
X165083333Y-115333333D01*
X165016666Y-115333333D01*
X164950000Y-115300000D01*
X164916666Y-115266666D01*
X164883333Y-115200000D01*
X164850000Y-115066666D01*
X164816666Y-115000000D01*
X164783333Y-114966666D01*
X164716666Y-114933333D01*
X164650000Y-114933333D01*
X164583333Y-114966666D01*
X164550000Y-115000000D01*
X164516666Y-115066666D01*
X164516666Y-115233333D01*
X164550000Y-115333333D01*
X165183333Y-115600000D02*
X165216666Y-115700000D01*
X165216666Y-115866666D01*
X165183333Y-115933333D01*
X165150000Y-115966666D01*
X165083333Y-116000000D01*
X165016666Y-116000000D01*
X164950000Y-115966666D01*
X164916666Y-115933333D01*
X164883333Y-115866666D01*
X164850000Y-115733333D01*
X164816666Y-115666666D01*
X164783333Y-115633333D01*
X164716666Y-115600000D01*
X164650000Y-115600000D01*
X164583333Y-115633333D01*
X164550000Y-115666666D01*
X164516666Y-115733333D01*
X164516666Y-115900000D01*
X164550000Y-116000000D01*
X191900000Y-106771428D02*
X191785714Y-106771428D01*
X191728571Y-106800000D01*
X191671428Y-106857142D01*
X191642857Y-106971428D01*
X191642857Y-107171428D01*
X191671428Y-107285714D01*
X191728571Y-107342857D01*
X191785714Y-107371428D01*
X191900000Y-107371428D01*
X191957142Y-107342857D01*
X192014285Y-107285714D01*
X192042857Y-107171428D01*
X192042857Y-106971428D01*
X192014285Y-106857142D01*
X191957142Y-106800000D01*
X191900000Y-106771428D01*
X191385714Y-106771428D02*
X191385714Y-107257142D01*
X191357142Y-107314285D01*
X191328571Y-107342857D01*
X191271428Y-107371428D01*
X191157142Y-107371428D01*
X191100000Y-107342857D01*
X191071428Y-107314285D01*
X191042857Y-107257142D01*
X191042857Y-106771428D01*
X190842857Y-106771428D02*
X190500000Y-106771428D01*
X190671428Y-107371428D02*
X190671428Y-106771428D01*
X170825000Y-101842857D02*
X170796428Y-101785714D01*
X170796428Y-101700000D01*
X170825000Y-101614285D01*
X170882142Y-101557142D01*
X170939285Y-101528571D01*
X171053571Y-101500000D01*
X171139285Y-101500000D01*
X171253571Y-101528571D01*
X171310714Y-101557142D01*
X171367857Y-101614285D01*
X171396428Y-101700000D01*
X171396428Y-101757142D01*
X171367857Y-101842857D01*
X171339285Y-101871428D01*
X171139285Y-101871428D01*
X171139285Y-101757142D01*
X171396428Y-102128571D02*
X170796428Y-102128571D01*
X171396428Y-102471428D01*
X170796428Y-102471428D01*
X171396428Y-102757142D02*
X170796428Y-102757142D01*
X170796428Y-102900000D01*
X170825000Y-102985714D01*
X170882142Y-103042857D01*
X170939285Y-103071428D01*
X171053571Y-103100000D01*
X171139285Y-103100000D01*
X171253571Y-103071428D01*
X171310714Y-103042857D01*
X171367857Y-102985714D01*
X171396428Y-102900000D01*
X171396428Y-102757142D01*
X181107142Y-96357142D02*
X181021428Y-96385714D01*
X180992857Y-96414285D01*
X180964285Y-96471428D01*
X180964285Y-96557142D01*
X180992857Y-96614285D01*
X181021428Y-96642857D01*
X181078571Y-96671428D01*
X181307142Y-96671428D01*
X181307142Y-96071428D01*
X181107142Y-96071428D01*
X181050000Y-96100000D01*
X181021428Y-96128571D01*
X180992857Y-96185714D01*
X180992857Y-96242857D01*
X181021428Y-96300000D01*
X181050000Y-96328571D01*
X181107142Y-96357142D01*
X181307142Y-96357142D01*
X202416666Y-99183333D02*
X202083333Y-98950000D01*
X202416666Y-98783333D02*
X201716666Y-98783333D01*
X201716666Y-99050000D01*
X201750000Y-99116666D01*
X201783333Y-99150000D01*
X201850000Y-99183333D01*
X201950000Y-99183333D01*
X202016666Y-99150000D01*
X202050000Y-99116666D01*
X202083333Y-99050000D01*
X202083333Y-98783333D01*
X201783333Y-99450000D02*
X201750000Y-99483333D01*
X201716666Y-99550000D01*
X201716666Y-99716666D01*
X201750000Y-99783333D01*
X201783333Y-99816666D01*
X201850000Y-99850000D01*
X201916666Y-99850000D01*
X202016666Y-99816666D01*
X202416666Y-99416666D01*
X202416666Y-99850000D01*
X200716666Y-101116666D02*
X201116666Y-101116666D01*
X200916666Y-101116666D02*
X200916666Y-100416666D01*
X200983333Y-100516666D01*
X201050000Y-100583333D01*
X201116666Y-100616666D01*
X200283333Y-100416666D02*
X200216666Y-100416666D01*
X200150000Y-100450000D01*
X200116666Y-100483333D01*
X200083333Y-100550000D01*
X200050000Y-100683333D01*
X200050000Y-100850000D01*
X200083333Y-100983333D01*
X200116666Y-101050000D01*
X200150000Y-101083333D01*
X200216666Y-101116666D01*
X200283333Y-101116666D01*
X200350000Y-101083333D01*
X200383333Y-101050000D01*
X200416666Y-100983333D01*
X200450000Y-100850000D01*
X200450000Y-100683333D01*
X200416666Y-100550000D01*
X200383333Y-100483333D01*
X200350000Y-100450000D01*
X200283333Y-100416666D01*
X199750000Y-101116666D02*
X199750000Y-100416666D01*
X199683333Y-100850000D02*
X199483333Y-101116666D01*
X199483333Y-100650000D02*
X199750000Y-100916666D01*
X199216666Y-101116666D02*
X199050000Y-101116666D01*
X199050000Y-100983333D01*
X199116666Y-100950000D01*
X199183333Y-100883333D01*
X199216666Y-100783333D01*
X199216666Y-100616666D01*
X199183333Y-100516666D01*
X199116666Y-100450000D01*
X199016666Y-100416666D01*
X198883333Y-100416666D01*
X198783333Y-100450000D01*
X198716666Y-100516666D01*
X198683333Y-100616666D01*
X198683333Y-100783333D01*
X198716666Y-100883333D01*
X198783333Y-100950000D01*
X198850000Y-100983333D01*
X198850000Y-101116666D01*
X198683333Y-101116666D01*
X177250000Y-94183333D02*
X177283333Y-94150000D01*
X177316666Y-94050000D01*
X177316666Y-93983333D01*
X177283333Y-93883333D01*
X177216666Y-93816666D01*
X177150000Y-93783333D01*
X177016666Y-93750000D01*
X176916666Y-93750000D01*
X176783333Y-93783333D01*
X176716666Y-93816666D01*
X176650000Y-93883333D01*
X176616666Y-93983333D01*
X176616666Y-94050000D01*
X176650000Y-94150000D01*
X176683333Y-94183333D01*
X176616666Y-94416666D02*
X176616666Y-94850000D01*
X176883333Y-94616666D01*
X176883333Y-94716666D01*
X176916666Y-94783333D01*
X176950000Y-94816666D01*
X177016666Y-94850000D01*
X177183333Y-94850000D01*
X177250000Y-94816666D01*
X177283333Y-94783333D01*
X177316666Y-94716666D01*
X177316666Y-94516666D01*
X177283333Y-94450000D01*
X177250000Y-94416666D01*
X175600000Y-93016666D02*
X176000000Y-93016666D01*
X175800000Y-93016666D02*
X175800000Y-92316666D01*
X175866666Y-92416666D01*
X175933333Y-92483333D01*
X176000000Y-92516666D01*
X175166666Y-92316666D02*
X175100000Y-92316666D01*
X175033333Y-92350000D01*
X175000000Y-92383333D01*
X174966666Y-92450000D01*
X174933333Y-92583333D01*
X174933333Y-92750000D01*
X174966666Y-92883333D01*
X175000000Y-92950000D01*
X175033333Y-92983333D01*
X175100000Y-93016666D01*
X175166666Y-93016666D01*
X175233333Y-92983333D01*
X175266666Y-92950000D01*
X175300000Y-92883333D01*
X175333333Y-92750000D01*
X175333333Y-92583333D01*
X175300000Y-92450000D01*
X175266666Y-92383333D01*
X175233333Y-92350000D01*
X175166666Y-92316666D01*
X174633333Y-92550000D02*
X174633333Y-93250000D01*
X174300000Y-92916666D02*
X174266666Y-92983333D01*
X174200000Y-93016666D01*
X174633333Y-92916666D02*
X174600000Y-92983333D01*
X174533333Y-93016666D01*
X174400000Y-93016666D01*
X174333333Y-92983333D01*
X174300000Y-92916666D01*
X174300000Y-92550000D01*
X173666666Y-92650000D02*
X173900000Y-92650000D01*
X173900000Y-93016666D02*
X173900000Y-92316666D01*
X173566666Y-92316666D01*
D13*
X198071428Y-103242857D02*
X198557142Y-103242857D01*
X198614285Y-103271428D01*
X198642857Y-103300000D01*
X198671428Y-103357142D01*
X198671428Y-103471428D01*
X198642857Y-103528571D01*
X198614285Y-103557142D01*
X198557142Y-103585714D01*
X198071428Y-103585714D01*
X198271428Y-104128571D02*
X198671428Y-104128571D01*
X198042857Y-103985714D02*
X198471428Y-103842857D01*
X198471428Y-104214285D01*
D10*
X177016666Y-108683333D02*
X176683333Y-108450000D01*
X177016666Y-108283333D02*
X176316666Y-108283333D01*
X176316666Y-108550000D01*
X176350000Y-108616666D01*
X176383333Y-108650000D01*
X176450000Y-108683333D01*
X176550000Y-108683333D01*
X176616666Y-108650000D01*
X176650000Y-108616666D01*
X176683333Y-108550000D01*
X176683333Y-108283333D01*
X176316666Y-109283333D02*
X176316666Y-109150000D01*
X176350000Y-109083333D01*
X176383333Y-109050000D01*
X176483333Y-108983333D01*
X176616666Y-108950000D01*
X176883333Y-108950000D01*
X176950000Y-108983333D01*
X176983333Y-109016666D01*
X177016666Y-109083333D01*
X177016666Y-109216666D01*
X176983333Y-109283333D01*
X176950000Y-109316666D01*
X176883333Y-109350000D01*
X176716666Y-109350000D01*
X176650000Y-109316666D01*
X176616666Y-109283333D01*
X176583333Y-109216666D01*
X176583333Y-109083333D01*
X176616666Y-109016666D01*
X176650000Y-108983333D01*
X176716666Y-108950000D01*
X179950000Y-110616666D02*
X180350000Y-110616666D01*
X180150000Y-110616666D02*
X180150000Y-109916666D01*
X180216666Y-110016666D01*
X180283333Y-110083333D01*
X180350000Y-110116666D01*
X179516666Y-109916666D02*
X179450000Y-109916666D01*
X179383333Y-109950000D01*
X179350000Y-109983333D01*
X179316666Y-110050000D01*
X179283333Y-110183333D01*
X179283333Y-110350000D01*
X179316666Y-110483333D01*
X179350000Y-110550000D01*
X179383333Y-110583333D01*
X179450000Y-110616666D01*
X179516666Y-110616666D01*
X179583333Y-110583333D01*
X179616666Y-110550000D01*
X179650000Y-110483333D01*
X179683333Y-110350000D01*
X179683333Y-110183333D01*
X179650000Y-110050000D01*
X179616666Y-109983333D01*
X179583333Y-109950000D01*
X179516666Y-109916666D01*
X178850000Y-109916666D02*
X178783333Y-109916666D01*
X178716666Y-109950000D01*
X178683333Y-109983333D01*
X178650000Y-110050000D01*
X178616666Y-110183333D01*
X178616666Y-110350000D01*
X178650000Y-110483333D01*
X178683333Y-110550000D01*
X178716666Y-110583333D01*
X178783333Y-110616666D01*
X178850000Y-110616666D01*
X178916666Y-110583333D01*
X178950000Y-110550000D01*
X178983333Y-110483333D01*
X179016666Y-110350000D01*
X179016666Y-110183333D01*
X178983333Y-110050000D01*
X178950000Y-109983333D01*
X178916666Y-109950000D01*
X178850000Y-109916666D01*
X178316666Y-110616666D02*
X178316666Y-109916666D01*
X178250000Y-110350000D02*
X178050000Y-110616666D01*
X178050000Y-110150000D02*
X178316666Y-110416666D01*
X177783333Y-110616666D02*
X177616666Y-110616666D01*
X177616666Y-110483333D01*
X177683333Y-110450000D01*
X177750000Y-110383333D01*
X177783333Y-110283333D01*
X177783333Y-110116666D01*
X177750000Y-110016666D01*
X177683333Y-109950000D01*
X177583333Y-109916666D01*
X177450000Y-109916666D01*
X177350000Y-109950000D01*
X177283333Y-110016666D01*
X177250000Y-110116666D01*
X177250000Y-110283333D01*
X177283333Y-110383333D01*
X177350000Y-110450000D01*
X177416666Y-110483333D01*
X177416666Y-110616666D01*
X177250000Y-110616666D01*
X175716666Y-107829166D02*
X175950000Y-107495833D01*
X176116666Y-107829166D02*
X176116666Y-107129166D01*
X175850000Y-107129166D01*
X175783333Y-107162500D01*
X175750000Y-107195833D01*
X175716666Y-107262500D01*
X175716666Y-107362500D01*
X175750000Y-107429166D01*
X175783333Y-107462500D01*
X175850000Y-107495833D01*
X176116666Y-107495833D01*
X175083333Y-107129166D02*
X175416666Y-107129166D01*
X175450000Y-107462500D01*
X175416666Y-107429166D01*
X175350000Y-107395833D01*
X175183333Y-107395833D01*
X175116666Y-107429166D01*
X175083333Y-107462500D01*
X175050000Y-107529166D01*
X175050000Y-107695833D01*
X175083333Y-107762500D01*
X175116666Y-107795833D01*
X175183333Y-107829166D01*
X175350000Y-107829166D01*
X175416666Y-107795833D01*
X175450000Y-107762500D01*
X173883333Y-103762500D02*
X173850000Y-103795833D01*
X173816666Y-103862500D01*
X173816666Y-104029166D01*
X173850000Y-104095833D01*
X173883333Y-104129166D01*
X173950000Y-104162500D01*
X174016666Y-104162500D01*
X174116666Y-104129166D01*
X174516666Y-103729166D01*
X174516666Y-104162500D01*
X173883333Y-104429166D02*
X173850000Y-104462500D01*
X173816666Y-104529166D01*
X173816666Y-104695833D01*
X173850000Y-104762500D01*
X173883333Y-104795833D01*
X173950000Y-104829166D01*
X174016666Y-104829166D01*
X174116666Y-104795833D01*
X174516666Y-104395833D01*
X174516666Y-104829166D01*
X173816666Y-105262500D02*
X173816666Y-105329166D01*
X173850000Y-105395833D01*
X173883333Y-105429166D01*
X173950000Y-105462500D01*
X174083333Y-105495833D01*
X174250000Y-105495833D01*
X174383333Y-105462500D01*
X174450000Y-105429166D01*
X174483333Y-105395833D01*
X174516666Y-105329166D01*
X174516666Y-105262500D01*
X174483333Y-105195833D01*
X174450000Y-105162500D01*
X174383333Y-105129166D01*
X174250000Y-105095833D01*
X174083333Y-105095833D01*
X173950000Y-105129166D01*
X173883333Y-105162500D01*
X173850000Y-105195833D01*
X173816666Y-105262500D01*
X174516666Y-105795833D02*
X173816666Y-105795833D01*
X174250000Y-105862500D02*
X174516666Y-106062500D01*
X174050000Y-106062500D02*
X174316666Y-105795833D01*
X174516666Y-106329166D02*
X174516666Y-106495833D01*
X174383333Y-106495833D01*
X174350000Y-106429166D01*
X174283333Y-106362500D01*
X174183333Y-106329166D01*
X174016666Y-106329166D01*
X173916666Y-106362500D01*
X173850000Y-106429166D01*
X173816666Y-106529166D01*
X173816666Y-106662500D01*
X173850000Y-106762500D01*
X173916666Y-106829166D01*
X174016666Y-106862500D01*
X174183333Y-106862500D01*
X174283333Y-106829166D01*
X174350000Y-106762500D01*
X174383333Y-106695833D01*
X174516666Y-106695833D01*
X174516666Y-106862500D01*
X177316666Y-96483333D02*
X176983333Y-96250000D01*
X177316666Y-96083333D02*
X176616666Y-96083333D01*
X176616666Y-96350000D01*
X176650000Y-96416666D01*
X176683333Y-96450000D01*
X176750000Y-96483333D01*
X176850000Y-96483333D01*
X176916666Y-96450000D01*
X176950000Y-96416666D01*
X176983333Y-96350000D01*
X176983333Y-96083333D01*
X176916666Y-96883333D02*
X176883333Y-96816666D01*
X176850000Y-96783333D01*
X176783333Y-96750000D01*
X176750000Y-96750000D01*
X176683333Y-96783333D01*
X176650000Y-96816666D01*
X176616666Y-96883333D01*
X176616666Y-97016666D01*
X176650000Y-97083333D01*
X176683333Y-97116666D01*
X176750000Y-97150000D01*
X176783333Y-97150000D01*
X176850000Y-97116666D01*
X176883333Y-97083333D01*
X176916666Y-97016666D01*
X176916666Y-96883333D01*
X176950000Y-96816666D01*
X176983333Y-96783333D01*
X177050000Y-96750000D01*
X177183333Y-96750000D01*
X177250000Y-96783333D01*
X177283333Y-96816666D01*
X177316666Y-96883333D01*
X177316666Y-97016666D01*
X177283333Y-97083333D01*
X177250000Y-97116666D01*
X177183333Y-97150000D01*
X177050000Y-97150000D01*
X176983333Y-97116666D01*
X176950000Y-97083333D01*
X176916666Y-97016666D01*
X175616666Y-98416666D02*
X176016666Y-98416666D01*
X175816666Y-98416666D02*
X175816666Y-97716666D01*
X175883333Y-97816666D01*
X175950000Y-97883333D01*
X176016666Y-97916666D01*
X175183333Y-97716666D02*
X175116666Y-97716666D01*
X175050000Y-97750000D01*
X175016666Y-97783333D01*
X174983333Y-97850000D01*
X174950000Y-97983333D01*
X174950000Y-98150000D01*
X174983333Y-98283333D01*
X175016666Y-98350000D01*
X175050000Y-98383333D01*
X175116666Y-98416666D01*
X175183333Y-98416666D01*
X175250000Y-98383333D01*
X175283333Y-98350000D01*
X175316666Y-98283333D01*
X175350000Y-98150000D01*
X175350000Y-97983333D01*
X175316666Y-97850000D01*
X175283333Y-97783333D01*
X175250000Y-97750000D01*
X175183333Y-97716666D01*
X174650000Y-98416666D02*
X174650000Y-97716666D01*
X174583333Y-98150000D02*
X174383333Y-98416666D01*
X174383333Y-97950000D02*
X174650000Y-98216666D01*
X174116666Y-98416666D02*
X173950000Y-98416666D01*
X173950000Y-98283333D01*
X174016666Y-98250000D01*
X174083333Y-98183333D01*
X174116666Y-98083333D01*
X174116666Y-97916666D01*
X174083333Y-97816666D01*
X174016666Y-97750000D01*
X173916666Y-97716666D01*
X173783333Y-97716666D01*
X173683333Y-97750000D01*
X173616666Y-97816666D01*
X173583333Y-97916666D01*
X173583333Y-98083333D01*
X173616666Y-98183333D01*
X173683333Y-98250000D01*
X173750000Y-98283333D01*
X173750000Y-98416666D01*
X173583333Y-98416666D01*
X199672936Y-98565000D02*
X200127064Y-98565000D01*
X199672936Y-100035000D02*
X200127064Y-100035000D01*
X175061252Y-93565000D02*
X174538748Y-93565000D01*
X175061252Y-95035000D02*
X174538748Y-95035000D01*
X197730000Y-102690000D02*
X197730000Y-104340000D01*
X177290000Y-99040000D02*
X197730000Y-99040000D01*
X197730000Y-99040000D02*
X197730000Y-100690000D01*
X177290000Y-104340000D02*
X177290000Y-99040000D01*
X197730000Y-104340000D02*
X177290000Y-104340000D01*
X197730000Y-100690000D02*
G75*
G03*
X197730000Y-102690000I0J-1000000D01*
G01*
X179027064Y-108065000D02*
X178572936Y-108065000D01*
X179027064Y-109535000D02*
X178572936Y-109535000D01*
X176335000Y-105085436D02*
X176335000Y-105539564D01*
X174865000Y-105085436D02*
X174865000Y-105539564D01*
X174572936Y-95865000D02*
X175027064Y-95865000D01*
X174572936Y-97335000D02*
X175027064Y-97335000D01*
G36*
X164872031Y-103333017D02*
G01*
X164901366Y-103367809D01*
X164934480Y-103421637D01*
X164938482Y-103428974D01*
X164949466Y-103452942D01*
X164947451Y-103467140D01*
X164932036Y-103481352D01*
X164921498Y-103488776D01*
X164883015Y-103511118D01*
X164829738Y-103538382D01*
X164767660Y-103567784D01*
X164702771Y-103596539D01*
X164641063Y-103621865D01*
X164588527Y-103640975D01*
X164533519Y-103656947D01*
X164452929Y-103676193D01*
X164365204Y-103693834D01*
X164280030Y-103707950D01*
X164207090Y-103716621D01*
X164170906Y-103719451D01*
X164118977Y-103722134D01*
X164072012Y-103721844D01*
X164020105Y-103718385D01*
X163953347Y-103711559D01*
X163814832Y-103691285D01*
X163671077Y-103659276D01*
X163543145Y-103618782D01*
X163541313Y-103618091D01*
X163477791Y-103592427D01*
X163416274Y-103564626D01*
X163361018Y-103536940D01*
X163316280Y-103511622D01*
X163286315Y-103490923D01*
X163275381Y-103477096D01*
X163279508Y-103462573D01*
X163296328Y-103431694D01*
X163321804Y-103394781D01*
X163351264Y-103359100D01*
X163361445Y-103349734D01*
X163373987Y-103346087D01*
X163393238Y-103350264D01*
X163424385Y-103363451D01*
X163472616Y-103386833D01*
X163496698Y-103398176D01*
X163562205Y-103425868D01*
X163634823Y-103453353D01*
X163702794Y-103476072D01*
X163706683Y-103477256D01*
X163757783Y-103492087D01*
X163802199Y-103502807D01*
X163846270Y-103510276D01*
X163896335Y-103515354D01*
X163958734Y-103518899D01*
X164039806Y-103521772D01*
X164126138Y-103523593D01*
X164217877Y-103522532D01*
X164296549Y-103517018D01*
X164368713Y-103506290D01*
X164440925Y-103489588D01*
X164519744Y-103466152D01*
X164528462Y-103463291D01*
X164583186Y-103443298D01*
X164644534Y-103418240D01*
X164706486Y-103390859D01*
X164763025Y-103363895D01*
X164808130Y-103340092D01*
X164835785Y-103322190D01*
X164848156Y-103318956D01*
X164872031Y-103333017D01*
G37*
G36*
X164266494Y-100549845D02*
G01*
X164273033Y-100550528D01*
X164387666Y-100565806D01*
X164497549Y-100586315D01*
X164595933Y-100610612D01*
X164676071Y-100637259D01*
X164706261Y-100649026D01*
X164744723Y-100663331D01*
X164769867Y-100671833D01*
X164785169Y-100677237D01*
X164801132Y-100686403D01*
X164811731Y-100693834D01*
X164839086Y-100709785D01*
X164876169Y-100729867D01*
X164908409Y-100747243D01*
X164939666Y-100765151D01*
X164956006Y-100775914D01*
X164955292Y-100789351D01*
X164942173Y-100816897D01*
X164919261Y-100852297D01*
X164895502Y-100885353D01*
X164876799Y-100911419D01*
X164868565Y-100922957D01*
X164861836Y-100921453D01*
X164836682Y-100911292D01*
X164797461Y-100893701D01*
X164748982Y-100870778D01*
X164689222Y-100843646D01*
X164517521Y-100783545D01*
X164340354Y-100746207D01*
X164160485Y-100731571D01*
X163980675Y-100739576D01*
X163803688Y-100770162D01*
X163632284Y-100823269D01*
X163469227Y-100898835D01*
X163457853Y-100905065D01*
X163417881Y-100926650D01*
X163388344Y-100942119D01*
X163374957Y-100948463D01*
X163374021Y-100948269D01*
X163362390Y-100936366D01*
X163342912Y-100910870D01*
X163320031Y-100878275D01*
X163298187Y-100845078D01*
X163281823Y-100817773D01*
X163275381Y-100802857D01*
X163276217Y-100799473D01*
X163286518Y-100788322D01*
X163310837Y-100771854D01*
X163352028Y-100748261D01*
X163412949Y-100715734D01*
X163430400Y-100706767D01*
X163585836Y-100640337D01*
X163753528Y-100590192D01*
X163927112Y-100557571D01*
X164100222Y-100543709D01*
X164266494Y-100549845D01*
G37*
G36*
X165130728Y-102270586D02*
G01*
X165127663Y-102322084D01*
X165122504Y-102364857D01*
X165114758Y-102404438D01*
X165103932Y-102446357D01*
X165102432Y-102451692D01*
X165084232Y-102511129D01*
X165064237Y-102568732D01*
X165044606Y-102618946D01*
X165027496Y-102656220D01*
X165015067Y-102675000D01*
X165014899Y-102675143D01*
X165004102Y-102690162D01*
X164989078Y-102716820D01*
X164985520Y-102723013D01*
X164964393Y-102752802D01*
X164932966Y-102791792D01*
X164896625Y-102833203D01*
X164836426Y-102893074D01*
X164717482Y-102984024D01*
X164583251Y-103055267D01*
X164433906Y-103106718D01*
X164269621Y-103138292D01*
X164168338Y-103145274D01*
X164045289Y-103141696D01*
X163919040Y-103127094D01*
X163796421Y-103102574D01*
X163684265Y-103069242D01*
X163589402Y-103028204D01*
X163547334Y-103004821D01*
X163426268Y-102922424D01*
X163324945Y-102827074D01*
X163241701Y-102716685D01*
X163174874Y-102589169D01*
X163122800Y-102442437D01*
X163121713Y-102438649D01*
X163111358Y-102399348D01*
X163104020Y-102362058D01*
X163099235Y-102321378D01*
X163096539Y-102271909D01*
X163095470Y-102208249D01*
X163095564Y-102125000D01*
X163095688Y-102109901D01*
X163663286Y-102109901D01*
X163664267Y-102153525D01*
X163670876Y-102236534D01*
X163682645Y-102318386D01*
X163698316Y-102391148D01*
X163716635Y-102446883D01*
X163749014Y-102511550D01*
X163801347Y-102582013D01*
X163866766Y-102635340D01*
X163949503Y-102675690D01*
X163949873Y-102675830D01*
X164034691Y-102696690D01*
X164127397Y-102700542D01*
X164220709Y-102688334D01*
X164307347Y-102661016D01*
X164380031Y-102619537D01*
X164391221Y-102610600D01*
X164452891Y-102543930D01*
X164501678Y-102460376D01*
X164537447Y-102363931D01*
X164560063Y-102258583D01*
X164569394Y-102148326D01*
X164565306Y-102037149D01*
X164547665Y-101929044D01*
X164516337Y-101828001D01*
X164471188Y-101738011D01*
X164412085Y-101663067D01*
X164395334Y-101647503D01*
X164320235Y-101598280D01*
X164231393Y-101566938D01*
X164132767Y-101554519D01*
X164028317Y-101562067D01*
X163957513Y-101579886D01*
X163870240Y-101622279D01*
X163797488Y-101684209D01*
X163739837Y-101764806D01*
X163697866Y-101863201D01*
X163672156Y-101978523D01*
X163663286Y-102109901D01*
X163095688Y-102109901D01*
X163095964Y-102076373D01*
X163097537Y-102000489D01*
X163100583Y-101941204D01*
X163105583Y-101893028D01*
X163113019Y-101850470D01*
X163123373Y-101808040D01*
X163129348Y-101786856D01*
X163183686Y-101643435D01*
X163258316Y-101514623D01*
X163353322Y-101400293D01*
X163468790Y-101300322D01*
X163511779Y-101270291D01*
X163588715Y-101225677D01*
X163674326Y-101188210D01*
X163776777Y-101154013D01*
X163803167Y-101146281D01*
X163843901Y-101135483D01*
X163881515Y-101127959D01*
X163921635Y-101123121D01*
X163969888Y-101120382D01*
X164031899Y-101119153D01*
X164113294Y-101118847D01*
X164163505Y-101118901D01*
X164232778Y-101119603D01*
X164285936Y-101121576D01*
X164328592Y-101125406D01*
X164366361Y-101131677D01*
X164404855Y-101140973D01*
X164449687Y-101153880D01*
X164480764Y-101163449D01*
X164583585Y-101200706D01*
X164673443Y-101244355D01*
X164759257Y-101299216D01*
X164849950Y-101370108D01*
X164852649Y-101372427D01*
X164884799Y-101405400D01*
X164923773Y-101452248D01*
X164964285Y-101505991D01*
X165001050Y-101559651D01*
X165028784Y-101606250D01*
X165036048Y-101621073D01*
X165056215Y-101669063D01*
X165077765Y-101727698D01*
X165097123Y-101787500D01*
X165105284Y-101815342D01*
X165116077Y-101856086D01*
X165123582Y-101893667D01*
X165128390Y-101933716D01*
X165131093Y-101981866D01*
X165132281Y-102043750D01*
X165132545Y-102125000D01*
X165132442Y-102148326D01*
X165132191Y-102204832D01*
X165130728Y-102270586D01*
G37*
G36*
X165492195Y-104212716D02*
G01*
X165513453Y-104240200D01*
X165541052Y-104278247D01*
X165571489Y-104321724D01*
X165601261Y-104365495D01*
X165626864Y-104404427D01*
X165644795Y-104433386D01*
X165651551Y-104447236D01*
X165651285Y-104448553D01*
X165637709Y-104463035D01*
X165606401Y-104486198D01*
X165561265Y-104515663D01*
X165506207Y-104549050D01*
X165445131Y-104583980D01*
X165381944Y-104618072D01*
X165320551Y-104648947D01*
X165259073Y-104677755D01*
X165090784Y-104748198D01*
X164921659Y-104805778D01*
X164745863Y-104852111D01*
X164557558Y-104888813D01*
X164350911Y-104917500D01*
X164327416Y-104919401D01*
X164271338Y-104921218D01*
X164198448Y-104921497D01*
X164113827Y-104920406D01*
X164022557Y-104918109D01*
X163929719Y-104914774D01*
X163840394Y-104910568D01*
X163759664Y-104905655D01*
X163692610Y-104900202D01*
X163644313Y-104894377D01*
X163592001Y-104885282D01*
X163408168Y-104843240D01*
X163217969Y-104785633D01*
X163028932Y-104715188D01*
X162848588Y-104634634D01*
X162684465Y-104546698D01*
X162651968Y-104527189D01*
X162612283Y-104502368D01*
X162585142Y-104484111D01*
X162575102Y-104475388D01*
X162575590Y-104473613D01*
X162585378Y-104455821D01*
X162605184Y-104424320D01*
X162631635Y-104384068D01*
X162661357Y-104340020D01*
X162690978Y-104297133D01*
X162717125Y-104260363D01*
X162736425Y-104234666D01*
X162745504Y-104225000D01*
X162752692Y-104228197D01*
X162777949Y-104241316D01*
X162816735Y-104262229D01*
X162864293Y-104288396D01*
X162933562Y-104325979D01*
X163041574Y-104380104D01*
X163146782Y-104426298D01*
X163259720Y-104469383D01*
X163284755Y-104478202D01*
X163518095Y-104545951D01*
X163756432Y-104590080D01*
X163997636Y-104610803D01*
X164239575Y-104608334D01*
X164480117Y-104582888D01*
X164717132Y-104534679D01*
X164948488Y-104463921D01*
X165172053Y-104370829D01*
X165385696Y-104255617D01*
X165405317Y-104244045D01*
X165445300Y-104222722D01*
X165474868Y-104210099D01*
X165488717Y-104208598D01*
X165492195Y-104212716D01*
G37*
G36*
X164294444Y-99337767D02*
G01*
X164336732Y-99341225D01*
X164520053Y-99360869D01*
X164686332Y-99387384D01*
X164841665Y-99422087D01*
X164992149Y-99466296D01*
X165143880Y-99521327D01*
X165197765Y-99543324D01*
X165277148Y-99578060D01*
X165356662Y-99615220D01*
X165433005Y-99653050D01*
X165502874Y-99689798D01*
X165562966Y-99723710D01*
X165609978Y-99753031D01*
X165640607Y-99776008D01*
X165651551Y-99790888D01*
X165648017Y-99799136D01*
X165632591Y-99824732D01*
X165607729Y-99862365D01*
X165576514Y-99907252D01*
X165553902Y-99939630D01*
X165526839Y-99980229D01*
X165508333Y-100010353D01*
X165501477Y-100025141D01*
X165500728Y-100030746D01*
X165494117Y-100035776D01*
X165478168Y-100032667D01*
X165449864Y-100020218D01*
X165406192Y-99997229D01*
X165344134Y-99962500D01*
X165342301Y-99961459D01*
X165291088Y-99932701D01*
X165248269Y-99909189D01*
X165218275Y-99893322D01*
X165205542Y-99887500D01*
X165205407Y-99887493D01*
X165191000Y-99882298D01*
X165160578Y-99869270D01*
X165120530Y-99851141D01*
X165084293Y-99835490D01*
X165013198Y-99808207D01*
X164930026Y-99779194D01*
X164842205Y-99750903D01*
X164757162Y-99725791D01*
X164682324Y-99706311D01*
X164622022Y-99693394D01*
X164468804Y-99669932D01*
X164303782Y-99655972D01*
X164132817Y-99651418D01*
X163961770Y-99656175D01*
X163796501Y-99670148D01*
X163642873Y-99693242D01*
X163506745Y-99725363D01*
X163453123Y-99741690D01*
X163335150Y-99781692D01*
X163214452Y-99827505D01*
X163096441Y-99876811D01*
X162986530Y-99927293D01*
X162890130Y-99976635D01*
X162812654Y-100022518D01*
X162789886Y-100036525D01*
X162761893Y-100050750D01*
X162747184Y-100054074D01*
X162745243Y-100052435D01*
X162730792Y-100035334D01*
X162707312Y-100004444D01*
X162678827Y-99965003D01*
X162670169Y-99952781D01*
X162643204Y-99915177D01*
X162622853Y-99887489D01*
X162612981Y-99875000D01*
X162606965Y-99868246D01*
X162592186Y-99843901D01*
X162581734Y-99817847D01*
X162580520Y-99801244D01*
X162580802Y-99800842D01*
X162595910Y-99789143D01*
X162628364Y-99768529D01*
X162673682Y-99741568D01*
X162727381Y-99710830D01*
X162784979Y-99678883D01*
X162841994Y-99648296D01*
X162893944Y-99621636D01*
X162898325Y-99619465D01*
X162989970Y-99576925D01*
X163099504Y-99530674D01*
X163220958Y-99483237D01*
X163325282Y-99448325D01*
X163476346Y-99409027D01*
X163640250Y-99376904D01*
X163810504Y-99352837D01*
X163980615Y-99337705D01*
X164144092Y-99332389D01*
X164294444Y-99337767D01*
G37*
G36*
X166989709Y-103087500D02*
G01*
X165339863Y-103087500D01*
X165336253Y-102824879D01*
X165335939Y-102800709D01*
X165335194Y-102723850D01*
X165334916Y-102656454D01*
X165335099Y-102602405D01*
X165335734Y-102565585D01*
X165336812Y-102549879D01*
X165341462Y-102547917D01*
X165368747Y-102544828D01*
X165419597Y-102542251D01*
X165493088Y-102540206D01*
X165588298Y-102538718D01*
X165704304Y-102537808D01*
X165840185Y-102537500D01*
X166339389Y-102537500D01*
X166339389Y-100512500D01*
X166989709Y-100512500D01*
X166989709Y-103087500D01*
G37*
G36*
X162725228Y-103087070D02*
G01*
X162409389Y-103090410D01*
X162337890Y-103090990D01*
X162257931Y-103091184D01*
X162189134Y-103090850D01*
X162134959Y-103090023D01*
X162098870Y-103088739D01*
X162084329Y-103087033D01*
X162084319Y-103087026D01*
X162082125Y-103073308D01*
X162079941Y-103037428D01*
X162077841Y-102982215D01*
X162075903Y-102910492D01*
X162074203Y-102825087D01*
X162072817Y-102728825D01*
X162071823Y-102624533D01*
X162068537Y-102168750D01*
X161872660Y-102165313D01*
X161676784Y-102161876D01*
X161633471Y-102234063D01*
X161626162Y-102246386D01*
X161597350Y-102296539D01*
X161564567Y-102355343D01*
X161533578Y-102412500D01*
X161495258Y-102484290D01*
X161436277Y-102593979D01*
X161386584Y-102685277D01*
X161347227Y-102756250D01*
X161330890Y-102785738D01*
X161303871Y-102835315D01*
X161272455Y-102893552D01*
X161240608Y-102953125D01*
X161169141Y-103087500D01*
X160434648Y-103087500D01*
X160475091Y-103015625D01*
X160485535Y-102997154D01*
X160514300Y-102946752D01*
X160547869Y-102888374D01*
X160580942Y-102831250D01*
X160589120Y-102817172D01*
X160637577Y-102733372D01*
X160688509Y-102644709D01*
X160740420Y-102553838D01*
X160791819Y-102463412D01*
X160841210Y-102376085D01*
X160887101Y-102294510D01*
X160927998Y-102221342D01*
X160962406Y-102159234D01*
X160988833Y-102110840D01*
X161005785Y-102078815D01*
X161011767Y-102065811D01*
X161007612Y-102060354D01*
X160985846Y-102047563D01*
X160951683Y-102033343D01*
X160895509Y-102009380D01*
X160797098Y-101949419D01*
X160706183Y-101871661D01*
X160627814Y-101780729D01*
X160567045Y-101681250D01*
X160554587Y-101654897D01*
X160527912Y-101585910D01*
X160510835Y-101515339D01*
X160501851Y-101435552D01*
X160499451Y-101338918D01*
X160499459Y-101337500D01*
X161155639Y-101337500D01*
X161155771Y-101370467D01*
X161157359Y-101428556D01*
X161161313Y-101469893D01*
X161168344Y-101500151D01*
X161179164Y-101525000D01*
X161202232Y-101560606D01*
X161259619Y-101617382D01*
X161329459Y-101655860D01*
X161340815Y-101659462D01*
X161367363Y-101664869D01*
X161404487Y-101669131D01*
X161455072Y-101672414D01*
X161522006Y-101674883D01*
X161608177Y-101676703D01*
X161716470Y-101678039D01*
X161805720Y-101678634D01*
X161887062Y-101678681D01*
X161956914Y-101678216D01*
X162011895Y-101677277D01*
X162048626Y-101675903D01*
X162063728Y-101674131D01*
X162066179Y-101665541D01*
X162068855Y-101634300D01*
X162070830Y-101582988D01*
X162072037Y-101514405D01*
X162072408Y-101431353D01*
X162071876Y-101336631D01*
X162068537Y-101006250D01*
X161755883Y-101002380D01*
X161715777Y-101001937D01*
X161598975Y-101001638D01*
X161503421Y-101003655D01*
X161426260Y-101008690D01*
X161364634Y-101017446D01*
X161315687Y-101030625D01*
X161276563Y-101048930D01*
X161244405Y-101073062D01*
X161216356Y-101103725D01*
X161189559Y-101141621D01*
X161182421Y-101152838D01*
X161170039Y-101175665D01*
X161162205Y-101199563D01*
X161157885Y-101230514D01*
X161156041Y-101274499D01*
X161155639Y-101337500D01*
X160499459Y-101337500D01*
X160499485Y-101332921D01*
X160510168Y-101176432D01*
X160539634Y-101036393D01*
X160587863Y-100912835D01*
X160654834Y-100805793D01*
X160740527Y-100715298D01*
X160844921Y-100641385D01*
X160967996Y-100584087D01*
X160999004Y-100572719D01*
X161031928Y-100561300D01*
X161063727Y-100551618D01*
X161096579Y-100543528D01*
X161132664Y-100536887D01*
X161174159Y-100531554D01*
X161223241Y-100527384D01*
X161282089Y-100524234D01*
X161352882Y-100521962D01*
X161437796Y-100520424D01*
X161539010Y-100519477D01*
X161658703Y-100518977D01*
X161799052Y-100518783D01*
X161962235Y-100518750D01*
X162718857Y-100518750D01*
X162721121Y-101431353D01*
X162722043Y-101802910D01*
X162725228Y-103087070D01*
G37*
G36*
X160240003Y-102653158D02*
G01*
X160213813Y-102764107D01*
X160166582Y-102865712D01*
X160099160Y-102954720D01*
X160058022Y-102994070D01*
X159961248Y-103061309D01*
X159849132Y-103108931D01*
X159721468Y-103137037D01*
X159615167Y-103143700D01*
X159493173Y-103134691D01*
X159372619Y-103109827D01*
X159258897Y-103070620D01*
X159157399Y-103018584D01*
X159073517Y-102955230D01*
X159014354Y-102899918D01*
X159006726Y-102972867D01*
X159003917Y-103002669D01*
X159000464Y-103033007D01*
X158994288Y-103055146D01*
X158982204Y-103070367D01*
X158961031Y-103079949D01*
X158927587Y-103085173D01*
X158878689Y-103087319D01*
X158811155Y-103087668D01*
X158721803Y-103087500D01*
X158635525Y-103087214D01*
X158565654Y-103086186D01*
X158515792Y-103084256D01*
X158483364Y-103081265D01*
X158465796Y-103077057D01*
X158460512Y-103071474D01*
X158462228Y-103059142D01*
X158469502Y-103027436D01*
X158480540Y-102987099D01*
X158483641Y-102975071D01*
X158487654Y-102953293D01*
X158491137Y-102924639D01*
X158494164Y-102887097D01*
X158496808Y-102838652D01*
X158499141Y-102777291D01*
X158501235Y-102700999D01*
X158503163Y-102607763D01*
X158504998Y-102495568D01*
X158506812Y-102362402D01*
X158508293Y-102238459D01*
X159061654Y-102238459D01*
X159063424Y-102309375D01*
X159064354Y-102331577D01*
X159068430Y-102396409D01*
X159074479Y-102444182D01*
X159083507Y-102481084D01*
X159096515Y-102513301D01*
X159119915Y-102553194D01*
X159167900Y-102610874D01*
X159224506Y-102659467D01*
X159281962Y-102691505D01*
X159338337Y-102707856D01*
X159414071Y-102717623D01*
X159489931Y-102716286D01*
X159558291Y-102704082D01*
X159611528Y-102681250D01*
X159626226Y-102670162D01*
X159663471Y-102624018D01*
X159686770Y-102565993D01*
X159693706Y-102504160D01*
X159681857Y-102446594D01*
X159677971Y-102437844D01*
X159646739Y-102389912D01*
X159599895Y-102347962D01*
X159535090Y-102310594D01*
X159449973Y-102276406D01*
X159342196Y-102243996D01*
X159311537Y-102235642D01*
X159249312Y-102217793D01*
X159192697Y-102200501D01*
X159151008Y-102186564D01*
X159123301Y-102176900D01*
X159089868Y-102166527D01*
X159071303Y-102162500D01*
X159067032Y-102166788D01*
X159062838Y-102191291D01*
X159061654Y-102238459D01*
X158508293Y-102238459D01*
X158508678Y-102206250D01*
X158516789Y-101493750D01*
X158556122Y-101418750D01*
X158562284Y-101407293D01*
X158612502Y-101332312D01*
X158674206Y-101271082D01*
X158750648Y-101221426D01*
X158845081Y-101181170D01*
X158960758Y-101148138D01*
X158977516Y-101144473D01*
X159052077Y-101132837D01*
X159141839Y-101124333D01*
X159241091Y-101119010D01*
X159344123Y-101116917D01*
X159445227Y-101118105D01*
X159538691Y-101122623D01*
X159618806Y-101130523D01*
X159679862Y-101141852D01*
X159755027Y-101164693D01*
X159870918Y-101215514D01*
X159966534Y-101280291D01*
X160042462Y-101359460D01*
X160099288Y-101453458D01*
X160101463Y-101458222D01*
X160118780Y-101504015D01*
X160134045Y-101556850D01*
X160146058Y-101610585D01*
X160153617Y-101659078D01*
X160155522Y-101696187D01*
X160150573Y-101715770D01*
X160148088Y-101716772D01*
X160125496Y-101719302D01*
X160083008Y-101721191D01*
X160024427Y-101722350D01*
X159953557Y-101722692D01*
X159874203Y-101722130D01*
X159607577Y-101718750D01*
X159592725Y-101660256D01*
X159589389Y-101648276D01*
X159559581Y-101581963D01*
X159515958Y-101527627D01*
X159463384Y-101491611D01*
X159423705Y-101479070D01*
X159357122Y-101470362D01*
X159284308Y-101470844D01*
X159214946Y-101480296D01*
X159158723Y-101498501D01*
X159123348Y-101518951D01*
X159092748Y-101548731D01*
X159073564Y-101588532D01*
X159063637Y-101643183D01*
X159060807Y-101717514D01*
X159061003Y-101738198D01*
X159062960Y-101782618D01*
X159066570Y-101813453D01*
X159071276Y-101825000D01*
X159077537Y-101825563D01*
X159104798Y-101829127D01*
X159147445Y-101835247D01*
X159199464Y-101843075D01*
X159203194Y-101843648D01*
X159370545Y-101871105D01*
X159515469Y-101898869D01*
X159640492Y-101927870D01*
X159748141Y-101959039D01*
X159840939Y-101993306D01*
X159921413Y-102031601D01*
X159992087Y-102074853D01*
X160055488Y-102123993D01*
X160114141Y-102179952D01*
X160129107Y-102197130D01*
X160171094Y-102263636D01*
X160206276Y-102347867D01*
X160232302Y-102444558D01*
X160240115Y-102504160D01*
X160244304Y-102536116D01*
X160240003Y-102653158D01*
G37*
G36*
X165171019Y-103755209D02*
G01*
X165184227Y-103773534D01*
X165207189Y-103805158D01*
X165236420Y-103845278D01*
X165249157Y-103862964D01*
X165275888Y-103901816D01*
X165294436Y-103931299D01*
X165301378Y-103946105D01*
X165293357Y-103956784D01*
X165265907Y-103977342D01*
X165222282Y-104004705D01*
X165165955Y-104036819D01*
X165100399Y-104071631D01*
X165029090Y-104107087D01*
X165012850Y-104114812D01*
X164903490Y-104162418D01*
X164791282Y-104202982D01*
X164670688Y-104238144D01*
X164536166Y-104269548D01*
X164382176Y-104298835D01*
X164338750Y-104304146D01*
X164269857Y-104308442D01*
X164187308Y-104310711D01*
X164097184Y-104311007D01*
X164005561Y-104309383D01*
X163918520Y-104305894D01*
X163842138Y-104300593D01*
X163782495Y-104293533D01*
X163754383Y-104288817D01*
X163642061Y-104266646D01*
X163528350Y-104239536D01*
X163422030Y-104209711D01*
X163331882Y-104179394D01*
X163321013Y-104175237D01*
X163260559Y-104150318D01*
X163195328Y-104120970D01*
X163129278Y-104089258D01*
X163066364Y-104057241D01*
X163010544Y-104026985D01*
X162965773Y-104000550D01*
X162936009Y-103980000D01*
X162925209Y-103967397D01*
X162926911Y-103961941D01*
X162939308Y-103940647D01*
X162958329Y-103913443D01*
X162977516Y-103889274D01*
X162990414Y-103877083D01*
X162993237Y-103875285D01*
X163000641Y-103858333D01*
X163001175Y-103855327D01*
X163012300Y-103834318D01*
X163033200Y-103807175D01*
X163034611Y-103805573D01*
X163056604Y-103783574D01*
X163072868Y-103778499D01*
X163092209Y-103787396D01*
X163121554Y-103804673D01*
X163187999Y-103839542D01*
X163266474Y-103876945D01*
X163349480Y-103913504D01*
X163429516Y-103945844D01*
X163499084Y-103970587D01*
X163614388Y-104003910D01*
X163830280Y-104047000D01*
X164046314Y-104065275D01*
X164261664Y-104058829D01*
X164475506Y-104027756D01*
X164687012Y-103972151D01*
X164895358Y-103892108D01*
X165099718Y-103787721D01*
X165131629Y-103769907D01*
X165158160Y-103756399D01*
X165169200Y-103752605D01*
X165171019Y-103755209D01*
G37*
G36*
X164165033Y-99950004D02*
G01*
X164335921Y-99955782D01*
X164493143Y-99973390D01*
X164645498Y-100004191D01*
X164801785Y-100049550D01*
X164867443Y-100072827D01*
X164939345Y-100101132D01*
X165013499Y-100132600D01*
X165086258Y-100165476D01*
X165153970Y-100198007D01*
X165212987Y-100228441D01*
X165259661Y-100255022D01*
X165290341Y-100275999D01*
X165301378Y-100289616D01*
X165301099Y-100291229D01*
X165292091Y-100309443D01*
X165273227Y-100340336D01*
X165248366Y-100378267D01*
X165221364Y-100417591D01*
X165196080Y-100452667D01*
X165176372Y-100477851D01*
X165166097Y-100487500D01*
X165164370Y-100487127D01*
X165145721Y-100478567D01*
X165112843Y-100460998D01*
X165071556Y-100437500D01*
X165060672Y-100431169D01*
X165021638Y-100408941D01*
X164992986Y-100393368D01*
X164980283Y-100387500D01*
X164971830Y-100384737D01*
X164945910Y-100374013D01*
X164909760Y-100357970D01*
X164727691Y-100287798D01*
X164531114Y-100236639D01*
X164327441Y-100206404D01*
X164120233Y-100197249D01*
X163913049Y-100209325D01*
X163709451Y-100242787D01*
X163512998Y-100297789D01*
X163467183Y-100314283D01*
X163375401Y-100351053D01*
X163283601Y-100392044D01*
X163199813Y-100433583D01*
X163132066Y-100471999D01*
X163104107Y-100488208D01*
X163075142Y-100501750D01*
X163059955Y-100504506D01*
X163056646Y-100501359D01*
X163040762Y-100481394D01*
X163016482Y-100447898D01*
X162987571Y-100406000D01*
X162925273Y-100313723D01*
X162965886Y-100282930D01*
X162995397Y-100263350D01*
X163046843Y-100233909D01*
X163111196Y-100200074D01*
X163182922Y-100164571D01*
X163256487Y-100130130D01*
X163326358Y-100099478D01*
X163387002Y-100075342D01*
X163492347Y-100039550D01*
X163645613Y-99998917D01*
X163803913Y-99971094D01*
X163973225Y-99955111D01*
X164159525Y-99950000D01*
X164165033Y-99950004D01*
G37*
%LPC*%
D14*
X182200000Y-108750000D03*
D15*
X184200000Y-108750000D03*
X186200000Y-108750000D03*
X188200000Y-108750000D03*
X190200000Y-108750000D03*
X192200000Y-108750000D03*
X194200000Y-108750000D03*
X196200000Y-108750000D03*
X196200000Y-94750000D03*
X194200000Y-94750000D03*
X192200000Y-94750000D03*
X190200000Y-94750000D03*
X188200000Y-94750000D03*
X186200000Y-94750000D03*
X184200000Y-94750000D03*
D16*
X182200000Y-94750000D03*
D17*
X200300000Y-115170000D03*
D18*
X200300000Y-112630000D03*
D19*
X156050000Y-92800000D03*
X153233274Y-91633274D03*
D20*
X154400000Y-92800000D03*
D19*
X152750000Y-92800000D03*
X155566726Y-91633274D03*
X154400000Y-94450000D03*
X155566726Y-93966726D03*
X153233274Y-93966726D03*
X154400000Y-91150000D03*
X177700000Y-114650000D03*
X176050000Y-116300000D03*
X178866726Y-117466726D03*
X176533274Y-117466726D03*
X176533274Y-115133274D03*
X177700000Y-117950000D03*
D20*
X177700000Y-116300000D03*
D19*
X179350000Y-116300000D03*
X178866726Y-115133274D03*
D14*
X169582500Y-116300000D03*
D16*
X169582500Y-114300000D03*
X169582500Y-112300000D03*
X169582500Y-110300000D03*
X169582500Y-108300000D03*
X169582500Y-106300000D03*
X169582500Y-104300000D03*
X169582500Y-102300000D03*
X156182500Y-102300000D03*
X156182500Y-104300000D03*
X156182500Y-106300000D03*
X156182500Y-108300000D03*
X156182500Y-110300000D03*
X156182500Y-112300000D03*
X156182500Y-114300000D03*
X156182500Y-116300000D03*
D21*
X161500000Y-94200000D03*
X164040000Y-91660000D03*
X158960000Y-96740000D03*
X164040000Y-96740000D03*
X158960000Y-91660000D03*
D20*
X200900000Y-92800000D03*
D19*
X200900000Y-94450000D03*
X199733274Y-91633274D03*
X202066726Y-93966726D03*
X200900000Y-91150000D03*
X202066726Y-91633274D03*
X199733274Y-93966726D03*
X199250000Y-92800000D03*
X202550000Y-92800000D03*
D22*
X169125000Y-96850000D03*
D23*
X169125000Y-94310000D03*
X171665000Y-96850000D03*
X171665000Y-94310000D03*
D24*
X198987500Y-99300000D03*
X200812500Y-99300000D03*
D25*
X175750000Y-94300000D03*
X173850000Y-94300000D03*
D26*
X196400000Y-105500000D03*
D27*
X193860000Y-105500000D03*
X191320000Y-105500000D03*
X188780000Y-105500000D03*
X186240000Y-105500000D03*
X183700000Y-105500000D03*
X181160000Y-105500000D03*
X178620000Y-105500000D03*
X178620000Y-97880000D03*
X181160000Y-97880000D03*
X183700000Y-97880000D03*
X186240000Y-97880000D03*
X188780000Y-97880000D03*
X191320000Y-97880000D03*
X193860000Y-97880000D03*
X196400000Y-97880000D03*
D28*
X179712500Y-108800000D03*
X177887500Y-108800000D03*
D29*
X175600000Y-104400000D03*
X175600000Y-106225000D03*
D24*
X173887500Y-96600000D03*
X175712500Y-96600000D03*
M02*
