G04 #@! TF.GenerationSoftware,KiCad,Pcbnew,(6.0.2)*
G04 #@! TF.CreationDate,2022-09-28T01:25:07+02:00*
G04 #@! TF.ProjectId,Washing-Machine-Sensor,57617368-696e-4672-9d4d-616368696e65,rev?*
G04 #@! TF.SameCoordinates,Original*
G04 #@! TF.FileFunction,Soldermask,Bot*
G04 #@! TF.FilePolarity,Negative*
%FSLAX46Y46*%
G04 Gerber Fmt 4.6, Leading zero omitted, Abs format (unit mm)*
G04 Created by KiCad (PCBNEW (6.0.2)) date 2022-09-28 01:25:07*
%MOMM*%
%LPD*%
G01*
G04 APERTURE LIST*
G04 Aperture macros list*
%AMRoundRect*
0 Rectangle with rounded corners*
0 $1 Rounding radius*
0 $2 $3 $4 $5 $6 $7 $8 $9 X,Y pos of 4 corners*
0 Add a 4 corners polygon primitive as box body*
4,1,4,$2,$3,$4,$5,$6,$7,$8,$9,$2,$3,0*
0 Add four circle primitives for the rounded corners*
1,1,$1+$1,$2,$3*
1,1,$1+$1,$4,$5*
1,1,$1+$1,$6,$7*
1,1,$1+$1,$8,$9*
0 Add four rect primitives between the rounded corners*
20,1,$1+$1,$2,$3,$4,$5,0*
20,1,$1+$1,$4,$5,$6,$7,0*
20,1,$1+$1,$6,$7,$8,$9,0*
20,1,$1+$1,$8,$9,$2,$3,0*%
G04 Aperture macros list end*
%ADD10R,1.350000X1.350000*%
%ADD11O,1.350000X1.350000*%
%ADD12C,1.350000*%
%ADD13R,2.200000X2.200000*%
%ADD14C,2.200000*%
%ADD15C,0.700000*%
%ADD16C,4.400000*%
%ADD17C,2.250000*%
%ADD18R,1.700000X1.700000*%
%ADD19O,1.700000X1.700000*%
%ADD20RoundRect,0.250000X-0.262500X-0.450000X0.262500X-0.450000X0.262500X0.450000X-0.262500X0.450000X0*%
%ADD21RoundRect,0.250000X0.250000X0.475000X-0.250000X0.475000X-0.250000X-0.475000X0.250000X-0.475000X0*%
%ADD22R,1.600000X1.600000*%
%ADD23O,1.600000X1.600000*%
%ADD24RoundRect,0.250000X0.262500X0.450000X-0.262500X0.450000X-0.262500X-0.450000X0.262500X-0.450000X0*%
%ADD25RoundRect,0.250000X-0.450000X0.262500X-0.450000X-0.262500X0.450000X-0.262500X0.450000X0.262500X0*%
G04 APERTURE END LIST*
D10*
X182200000Y-108750000D03*
D11*
X184200000Y-108750000D03*
X186200000Y-108750000D03*
X188200000Y-108750000D03*
X190200000Y-108750000D03*
X192200000Y-108750000D03*
X194200000Y-108750000D03*
X196200000Y-108750000D03*
X196200000Y-94750000D03*
X194200000Y-94750000D03*
X192200000Y-94750000D03*
X190200000Y-94750000D03*
X188200000Y-94750000D03*
X186200000Y-94750000D03*
X184200000Y-94750000D03*
D12*
X182200000Y-94750000D03*
D13*
X200300000Y-115170000D03*
D14*
X200300000Y-112630000D03*
D15*
X156050000Y-92800000D03*
X153233274Y-91633274D03*
D16*
X154400000Y-92800000D03*
D15*
X152750000Y-92800000D03*
X155566726Y-91633274D03*
X154400000Y-94450000D03*
X155566726Y-93966726D03*
X153233274Y-93966726D03*
X154400000Y-91150000D03*
X177700000Y-114650000D03*
X176050000Y-116300000D03*
X178866726Y-117466726D03*
X176533274Y-117466726D03*
X176533274Y-115133274D03*
X177700000Y-117950000D03*
D16*
X177700000Y-116300000D03*
D15*
X179350000Y-116300000D03*
X178866726Y-115133274D03*
D10*
X169582500Y-116300000D03*
D12*
X169582500Y-114300000D03*
X169582500Y-112300000D03*
X169582500Y-110300000D03*
X169582500Y-108300000D03*
X169582500Y-106300000D03*
X169582500Y-104300000D03*
X169582500Y-102300000D03*
X156182500Y-102300000D03*
X156182500Y-104300000D03*
X156182500Y-106300000D03*
X156182500Y-108300000D03*
X156182500Y-110300000D03*
X156182500Y-112300000D03*
X156182500Y-114300000D03*
X156182500Y-116300000D03*
D17*
X161500000Y-94200000D03*
X164040000Y-91660000D03*
X158960000Y-96740000D03*
X164040000Y-96740000D03*
X158960000Y-91660000D03*
D16*
X200900000Y-92800000D03*
D15*
X200900000Y-94450000D03*
X199733274Y-91633274D03*
X202066726Y-93966726D03*
X200900000Y-91150000D03*
X202066726Y-91633274D03*
X199733274Y-93966726D03*
X199250000Y-92800000D03*
X202550000Y-92800000D03*
D18*
X169125000Y-96850000D03*
D19*
X169125000Y-94310000D03*
X171665000Y-96850000D03*
X171665000Y-94310000D03*
D20*
X198987500Y-99300000D03*
X200812500Y-99300000D03*
D21*
X175750000Y-94300000D03*
X173850000Y-94300000D03*
D22*
X196400000Y-105500000D03*
D23*
X193860000Y-105500000D03*
X191320000Y-105500000D03*
X188780000Y-105500000D03*
X186240000Y-105500000D03*
X183700000Y-105500000D03*
X181160000Y-105500000D03*
X178620000Y-105500000D03*
X178620000Y-97880000D03*
X181160000Y-97880000D03*
X183700000Y-97880000D03*
X186240000Y-97880000D03*
X188780000Y-97880000D03*
X191320000Y-97880000D03*
X193860000Y-97880000D03*
X196400000Y-97880000D03*
D24*
X179712500Y-108800000D03*
X177887500Y-108800000D03*
D25*
X175600000Y-104400000D03*
X175600000Y-106225000D03*
D20*
X173887500Y-96600000D03*
X175712500Y-96600000D03*
M02*
