G04 #@! TF.GenerationSoftware,KiCad,Pcbnew,(6.0.2)*
G04 #@! TF.CreationDate,2022-09-28T01:25:07+02:00*
G04 #@! TF.ProjectId,Washing-Machine-Sensor,57617368-696e-4672-9d4d-616368696e65,rev?*
G04 #@! TF.SameCoordinates,Original*
G04 #@! TF.FileFunction,Copper,L2,Bot*
G04 #@! TF.FilePolarity,Positive*
%FSLAX46Y46*%
G04 Gerber Fmt 4.6, Leading zero omitted, Abs format (unit mm)*
G04 Created by KiCad (PCBNEW (6.0.2)) date 2022-09-28 01:25:07*
%MOMM*%
%LPD*%
G01*
G04 APERTURE LIST*
G04 Aperture macros list*
%AMRoundRect*
0 Rectangle with rounded corners*
0 $1 Rounding radius*
0 $2 $3 $4 $5 $6 $7 $8 $9 X,Y pos of 4 corners*
0 Add a 4 corners polygon primitive as box body*
4,1,4,$2,$3,$4,$5,$6,$7,$8,$9,$2,$3,0*
0 Add four circle primitives for the rounded corners*
1,1,$1+$1,$2,$3*
1,1,$1+$1,$4,$5*
1,1,$1+$1,$6,$7*
1,1,$1+$1,$8,$9*
0 Add four rect primitives between the rounded corners*
20,1,$1+$1,$2,$3,$4,$5,0*
20,1,$1+$1,$4,$5,$6,$7,0*
20,1,$1+$1,$6,$7,$8,$9,0*
20,1,$1+$1,$8,$9,$2,$3,0*%
G04 Aperture macros list end*
G04 #@! TA.AperFunction,ComponentPad*
%ADD10R,1.350000X1.350000*%
G04 #@! TD*
G04 #@! TA.AperFunction,ComponentPad*
%ADD11O,1.350000X1.350000*%
G04 #@! TD*
G04 #@! TA.AperFunction,ComponentPad*
%ADD12C,1.350000*%
G04 #@! TD*
G04 #@! TA.AperFunction,ComponentPad*
%ADD13R,2.200000X2.200000*%
G04 #@! TD*
G04 #@! TA.AperFunction,ComponentPad*
%ADD14C,2.200000*%
G04 #@! TD*
G04 #@! TA.AperFunction,ComponentPad*
%ADD15C,0.700000*%
G04 #@! TD*
G04 #@! TA.AperFunction,ComponentPad*
%ADD16C,4.400000*%
G04 #@! TD*
G04 #@! TA.AperFunction,ComponentPad*
%ADD17C,2.250000*%
G04 #@! TD*
G04 #@! TA.AperFunction,ComponentPad*
%ADD18R,1.700000X1.700000*%
G04 #@! TD*
G04 #@! TA.AperFunction,ComponentPad*
%ADD19O,1.700000X1.700000*%
G04 #@! TD*
G04 #@! TA.AperFunction,SMDPad,CuDef*
%ADD20RoundRect,0.250000X-0.262500X-0.450000X0.262500X-0.450000X0.262500X0.450000X-0.262500X0.450000X0*%
G04 #@! TD*
G04 #@! TA.AperFunction,SMDPad,CuDef*
%ADD21RoundRect,0.250000X0.250000X0.475000X-0.250000X0.475000X-0.250000X-0.475000X0.250000X-0.475000X0*%
G04 #@! TD*
G04 #@! TA.AperFunction,ComponentPad*
%ADD22R,1.600000X1.600000*%
G04 #@! TD*
G04 #@! TA.AperFunction,ComponentPad*
%ADD23O,1.600000X1.600000*%
G04 #@! TD*
G04 #@! TA.AperFunction,SMDPad,CuDef*
%ADD24RoundRect,0.250000X0.262500X0.450000X-0.262500X0.450000X-0.262500X-0.450000X0.262500X-0.450000X0*%
G04 #@! TD*
G04 #@! TA.AperFunction,SMDPad,CuDef*
%ADD25RoundRect,0.250000X-0.450000X0.262500X-0.450000X-0.262500X0.450000X-0.262500X0.450000X0.262500X0*%
G04 #@! TD*
G04 #@! TA.AperFunction,ViaPad*
%ADD26C,0.600000*%
G04 #@! TD*
G04 #@! TA.AperFunction,Conductor*
%ADD27C,0.500000*%
G04 #@! TD*
G04 APERTURE END LIST*
D10*
X182200000Y-108750000D03*
D11*
X184200000Y-108750000D03*
X186200000Y-108750000D03*
X188200000Y-108750000D03*
X190200000Y-108750000D03*
X192200000Y-108750000D03*
X194200000Y-108750000D03*
X196200000Y-108750000D03*
X196200000Y-94750000D03*
X194200000Y-94750000D03*
X192200000Y-94750000D03*
X190200000Y-94750000D03*
X188200000Y-94750000D03*
X186200000Y-94750000D03*
X184200000Y-94750000D03*
D12*
X182200000Y-94750000D03*
D13*
X200300000Y-115170000D03*
D14*
X200300000Y-112630000D03*
D15*
X156050000Y-92800000D03*
X153233274Y-91633274D03*
D16*
X154400000Y-92800000D03*
D15*
X152750000Y-92800000D03*
X155566726Y-91633274D03*
X154400000Y-94450000D03*
X155566726Y-93966726D03*
X153233274Y-93966726D03*
X154400000Y-91150000D03*
X177700000Y-114650000D03*
X176050000Y-116300000D03*
X178866726Y-117466726D03*
X176533274Y-117466726D03*
X176533274Y-115133274D03*
X177700000Y-117950000D03*
D16*
X177700000Y-116300000D03*
D15*
X179350000Y-116300000D03*
X178866726Y-115133274D03*
D10*
X169582500Y-116300000D03*
D12*
X169582500Y-114300000D03*
X169582500Y-112300000D03*
X169582500Y-110300000D03*
X169582500Y-108300000D03*
X169582500Y-106300000D03*
X169582500Y-104300000D03*
X169582500Y-102300000D03*
X156182500Y-102300000D03*
X156182500Y-104300000D03*
X156182500Y-106300000D03*
X156182500Y-108300000D03*
X156182500Y-110300000D03*
X156182500Y-112300000D03*
X156182500Y-114300000D03*
X156182500Y-116300000D03*
D17*
X161500000Y-94200000D03*
X164040000Y-91660000D03*
X158960000Y-96740000D03*
X164040000Y-96740000D03*
X158960000Y-91660000D03*
D16*
X200900000Y-92800000D03*
D15*
X200900000Y-94450000D03*
X199733274Y-91633274D03*
X202066726Y-93966726D03*
X200900000Y-91150000D03*
X202066726Y-91633274D03*
X199733274Y-93966726D03*
X199250000Y-92800000D03*
X202550000Y-92800000D03*
D18*
X169125000Y-96850000D03*
D19*
X169125000Y-94310000D03*
X171665000Y-96850000D03*
X171665000Y-94310000D03*
D20*
X198987500Y-99300000D03*
X200812500Y-99300000D03*
D21*
X175750000Y-94300000D03*
X173850000Y-94300000D03*
D22*
X196400000Y-105500000D03*
D23*
X193860000Y-105500000D03*
X191320000Y-105500000D03*
X188780000Y-105500000D03*
X186240000Y-105500000D03*
X183700000Y-105500000D03*
X181160000Y-105500000D03*
X178620000Y-105500000D03*
X178620000Y-97880000D03*
X181160000Y-97880000D03*
X183700000Y-97880000D03*
X186240000Y-97880000D03*
X188780000Y-97880000D03*
X191320000Y-97880000D03*
X193860000Y-97880000D03*
X196400000Y-97880000D03*
D24*
X179712500Y-108800000D03*
X177887500Y-108800000D03*
D25*
X175600000Y-104400000D03*
X175600000Y-106225000D03*
D20*
X173887500Y-96600000D03*
X175712500Y-96600000D03*
D26*
X190800000Y-118700000D03*
X194400000Y-119000000D03*
X182500000Y-118500000D03*
X178600000Y-102700000D03*
X196900000Y-116900000D03*
X196700000Y-118700000D03*
X183600000Y-116900000D03*
X188700000Y-118100000D03*
X186900000Y-118800000D03*
X185200000Y-117900000D03*
X192500000Y-117500000D03*
X182100000Y-115100000D03*
X172600000Y-111300000D03*
D27*
X171675000Y-94300000D02*
X171665000Y-94310000D01*
X173850000Y-96562500D02*
X173887500Y-96600000D01*
X173850000Y-94300000D02*
X173850000Y-96562500D01*
X173850000Y-94300000D02*
X171675000Y-94300000D01*
X195064213Y-95614213D02*
X194200000Y-94750000D01*
X198987500Y-99300000D02*
X174628427Y-99300000D01*
X198987500Y-99300000D02*
X198987500Y-98515927D01*
X173214213Y-99885787D02*
X171785786Y-101314214D01*
X198401713Y-97101713D02*
X198085786Y-96785786D01*
X196671573Y-96200000D02*
X196478427Y-96200000D01*
X171200000Y-102728427D02*
X171200000Y-105854073D01*
X170614213Y-107268287D02*
X169582500Y-108300000D01*
X171199999Y-105854073D02*
G75*
G02*
X170614212Y-107268286I-1999999J0D01*
G01*
X173214213Y-99885787D02*
G75*
G02*
X174628427Y-99300000I1414214J-1414213D01*
G01*
X198401713Y-97101713D02*
G75*
G02*
X198987500Y-98515927I-1414213J-1414214D01*
G01*
X171200001Y-102728427D02*
G75*
G02*
X171785787Y-101314215I1999999J0D01*
G01*
X198085786Y-96785786D02*
G75*
G03*
X196671573Y-96200000I-1414213J-1414214D01*
G01*
X195064213Y-95614213D02*
G75*
G03*
X196478427Y-96200000I1414214J1414213D01*
G01*
X169582500Y-110300000D02*
X169590000Y-110307500D01*
X189228287Y-109721713D02*
X190200000Y-108750000D01*
X169590000Y-110307500D02*
X187814073Y-110307500D01*
X187814073Y-110307499D02*
G75*
G03*
X189228286Y-109721712I0J1999999D01*
G01*
X172600000Y-111300000D02*
X188821573Y-111300000D01*
X190235787Y-110714213D02*
X192200000Y-108750000D01*
X190235787Y-110714213D02*
G75*
G02*
X188821573Y-111300000I-1414214J1414213D01*
G01*
X169582500Y-112300000D02*
X169590000Y-112307500D01*
X169590000Y-112307500D02*
X189814073Y-112307500D01*
X191228287Y-111721713D02*
X194200000Y-108750000D01*
X191228287Y-111721713D02*
G75*
G02*
X189814073Y-112307500I-1414214J1414213D01*
G01*
X192200000Y-94750000D02*
X191335786Y-95614214D01*
X189921573Y-96200000D02*
X181128427Y-96200000D01*
X179714213Y-96785787D02*
X178620000Y-97880000D01*
X179714213Y-96785787D02*
G75*
G02*
X181128427Y-96200000I1414214J-1414213D01*
G01*
X191335786Y-95614214D02*
G75*
G02*
X189921573Y-96200000I-1414213J1414214D01*
G01*
X177807107Y-104092893D02*
X177792893Y-104107107D01*
X177085786Y-104400000D02*
X175600000Y-104400000D01*
X191320000Y-105500000D02*
X190205786Y-104385786D01*
X188791573Y-103800000D02*
X178514214Y-103800000D01*
X188791573Y-103800001D02*
G75*
G02*
X190205785Y-104385787I0J-1999999D01*
G01*
X177807107Y-104092893D02*
G75*
G02*
X178514214Y-103800000I707106J-707106D01*
G01*
X177792893Y-104107107D02*
G75*
G02*
X177085786Y-104400000I-707106J707106D01*
G01*
X184200000Y-108500000D02*
X183585786Y-107885786D01*
X180626713Y-107885787D02*
X179712500Y-108800000D01*
X175600000Y-106225000D02*
X176309073Y-106225000D01*
X177723287Y-106810787D02*
X179712500Y-108800000D01*
X182171573Y-107300000D02*
X182040927Y-107300000D01*
X184200000Y-108750000D02*
X184200000Y-108500000D01*
X177723287Y-106810787D02*
G75*
G03*
X176309073Y-106225000I-1414214J-1414213D01*
G01*
X182171573Y-107300001D02*
G75*
G02*
X183585785Y-107885787I0J-1999999D01*
G01*
X182040927Y-107300001D02*
G75*
G03*
X180626714Y-107885788I0J-1999999D01*
G01*
X154000000Y-102728427D02*
X154000000Y-109289073D01*
X154585787Y-110703287D02*
X156182500Y-112300000D01*
X166300000Y-95028427D02*
X166300000Y-96971573D01*
X167214213Y-93285787D02*
X166885786Y-93614214D01*
X181321573Y-92700000D02*
X168628427Y-92700000D01*
X184200000Y-94750000D02*
X182735786Y-93285786D01*
X162971573Y-100300000D02*
X156428427Y-100300000D01*
X165714213Y-98385787D02*
X164385786Y-99714214D01*
X155014213Y-100885787D02*
X154585786Y-101314214D01*
X155014213Y-100885787D02*
G75*
G02*
X156428427Y-100300000I1414214J-1414213D01*
G01*
X168628427Y-92700001D02*
G75*
G03*
X167214214Y-93285788I0J-1999999D01*
G01*
X154585787Y-110703287D02*
G75*
G02*
X154000000Y-109289073I1414213J1414214D01*
G01*
X162971573Y-100299999D02*
G75*
G03*
X164385785Y-99714213I0J1999999D01*
G01*
X154585786Y-101314214D02*
G75*
G03*
X154000000Y-102728427I1414214J-1414213D01*
G01*
X165714213Y-98385787D02*
G75*
G03*
X166300000Y-96971573I-1414213J1414214D01*
G01*
X166885786Y-93614214D02*
G75*
G03*
X166300000Y-95028427I1414214J-1414213D01*
G01*
X181321573Y-92700001D02*
G75*
G02*
X182735785Y-93285787I0J-1999999D01*
G01*
G04 #@! TA.AperFunction,Conductor*
G36*
X157541952Y-90628002D02*
G01*
X157588445Y-90681658D01*
X157598549Y-90751932D01*
X157581264Y-90799835D01*
X157510223Y-90915764D01*
X157505742Y-90924558D01*
X157411648Y-91151722D01*
X157408599Y-91161107D01*
X157351198Y-91400195D01*
X157349655Y-91409942D01*
X157330363Y-91655070D01*
X157330363Y-91664930D01*
X157349655Y-91910061D01*
X157351198Y-91919801D01*
X157402792Y-92134704D01*
X157409813Y-92146932D01*
X157410587Y-92146860D01*
X157416120Y-92143220D01*
X158870905Y-90688435D01*
X158933217Y-90654409D01*
X159004032Y-90659474D01*
X159049095Y-90688435D01*
X160500167Y-92139507D01*
X160512547Y-92146267D01*
X160513167Y-92145803D01*
X160515982Y-92139810D01*
X160568802Y-91919801D01*
X160570345Y-91910061D01*
X160589637Y-91664930D01*
X160589637Y-91655070D01*
X160570345Y-91409942D01*
X160568802Y-91400195D01*
X160511401Y-91161107D01*
X160508352Y-91151722D01*
X160414258Y-90924558D01*
X160409777Y-90915764D01*
X160338736Y-90799835D01*
X160320198Y-90731301D01*
X160341655Y-90663624D01*
X160396294Y-90618291D01*
X160446169Y-90608000D01*
X162553831Y-90608000D01*
X162621952Y-90628002D01*
X162668445Y-90681658D01*
X162678549Y-90751932D01*
X162661264Y-90799835D01*
X162590223Y-90915764D01*
X162585742Y-90924558D01*
X162491648Y-91151722D01*
X162488599Y-91161107D01*
X162431198Y-91400195D01*
X162429655Y-91409942D01*
X162410363Y-91655070D01*
X162410363Y-91664930D01*
X162429655Y-91910061D01*
X162431198Y-91919801D01*
X162482792Y-92134704D01*
X162489813Y-92146932D01*
X162490587Y-92146860D01*
X162496120Y-92143220D01*
X163950905Y-90688435D01*
X164013217Y-90654409D01*
X164084032Y-90659474D01*
X164129095Y-90688435D01*
X165580167Y-92139507D01*
X165592547Y-92146267D01*
X165593167Y-92145803D01*
X165595982Y-92139810D01*
X165648802Y-91919801D01*
X165650345Y-91910061D01*
X165669637Y-91664930D01*
X165669637Y-91655070D01*
X165650345Y-91409942D01*
X165648802Y-91400195D01*
X165591401Y-91161107D01*
X165588352Y-91151722D01*
X165494258Y-90924558D01*
X165489777Y-90915764D01*
X165418736Y-90799835D01*
X165400198Y-90731301D01*
X165421655Y-90663624D01*
X165476294Y-90618291D01*
X165526169Y-90608000D01*
X198958217Y-90608000D01*
X199026338Y-90628002D01*
X199072831Y-90681658D01*
X199082935Y-90751932D01*
X199053441Y-90816512D01*
X199046610Y-90823792D01*
X198944249Y-90924558D01*
X198883513Y-90984347D01*
X198881149Y-90987314D01*
X198881146Y-90987317D01*
X198864220Y-91008558D01*
X198679991Y-91239751D01*
X198508626Y-91517757D01*
X198371902Y-91814336D01*
X198370741Y-91817940D01*
X198370741Y-91817941D01*
X198362196Y-91844477D01*
X198271797Y-92125192D01*
X198271079Y-92128903D01*
X198271078Y-92128907D01*
X198210482Y-92442105D01*
X198210481Y-92442114D01*
X198209763Y-92445824D01*
X198209496Y-92449600D01*
X198209495Y-92449605D01*
X198188286Y-92749150D01*
X198186698Y-92771585D01*
X198186887Y-92775377D01*
X198202538Y-93089756D01*
X198202936Y-93097759D01*
X198203577Y-93101490D01*
X198203578Y-93101498D01*
X198234050Y-93278833D01*
X198258241Y-93419619D01*
X198259329Y-93423258D01*
X198259330Y-93423261D01*
X198350022Y-93726511D01*
X198351814Y-93732504D01*
X198353327Y-93735975D01*
X198353329Y-93735981D01*
X198386499Y-93812084D01*
X198482297Y-94031881D01*
X198484220Y-94035152D01*
X198484222Y-94035156D01*
X198526584Y-94107215D01*
X198647802Y-94313414D01*
X198650103Y-94316429D01*
X198843631Y-94570012D01*
X198843636Y-94570017D01*
X198845931Y-94573025D01*
X198906908Y-94635620D01*
X199071156Y-94804224D01*
X199073814Y-94806953D01*
X199146635Y-94865607D01*
X199325196Y-95009431D01*
X199325201Y-95009435D01*
X199328149Y-95011809D01*
X199605253Y-95184627D01*
X199901112Y-95322903D01*
X199996494Y-95354171D01*
X200134907Y-95399545D01*
X200211440Y-95424634D01*
X200215154Y-95425373D01*
X200215155Y-95425373D01*
X200233088Y-95428940D01*
X200531742Y-95488346D01*
X200535514Y-95488633D01*
X200535522Y-95488634D01*
X200853602Y-95512829D01*
X200853607Y-95512829D01*
X200857379Y-95513116D01*
X201183633Y-95498586D01*
X201243425Y-95488634D01*
X201502037Y-95445590D01*
X201502042Y-95445589D01*
X201505778Y-95444967D01*
X201819149Y-95353034D01*
X201822616Y-95351544D01*
X201822620Y-95351543D01*
X202115721Y-95225616D01*
X202115723Y-95225615D01*
X202119205Y-95224119D01*
X202401601Y-95060091D01*
X202662245Y-94863324D01*
X202878552Y-94654804D01*
X202941478Y-94621926D01*
X203012189Y-94628288D01*
X203068235Y-94671869D01*
X203092000Y-94745517D01*
X203092000Y-116850672D01*
X203090500Y-116870056D01*
X203086814Y-116893730D01*
X203088454Y-116906270D01*
X203089059Y-116910897D01*
X203089892Y-116934839D01*
X203074290Y-117192770D01*
X203072456Y-117207874D01*
X203067305Y-117235981D01*
X203021358Y-117486714D01*
X203020962Y-117488873D01*
X203017322Y-117503641D01*
X202932326Y-117776404D01*
X202926931Y-117790627D01*
X202883850Y-117886351D01*
X202809686Y-118051136D01*
X202802615Y-118064609D01*
X202654818Y-118309095D01*
X202646175Y-118321617D01*
X202469984Y-118546507D01*
X202459894Y-118557895D01*
X202257895Y-118759894D01*
X202246507Y-118769984D01*
X202021617Y-118946175D01*
X202009095Y-118954818D01*
X201764609Y-119102615D01*
X201751140Y-119109684D01*
X201490630Y-119226930D01*
X201476408Y-119232325D01*
X201203641Y-119317322D01*
X201188879Y-119320960D01*
X200978648Y-119359486D01*
X200907874Y-119372456D01*
X200892770Y-119374290D01*
X200642071Y-119389455D01*
X200615361Y-119388198D01*
X200615141Y-119388195D01*
X200606270Y-119386814D01*
X200597368Y-119387978D01*
X200597365Y-119387978D01*
X200574749Y-119390936D01*
X200558411Y-119392000D01*
X154849328Y-119392000D01*
X154829943Y-119390500D01*
X154815142Y-119388195D01*
X154815139Y-119388195D01*
X154806270Y-119386814D01*
X154789101Y-119389059D01*
X154765161Y-119389892D01*
X154507230Y-119374290D01*
X154492126Y-119372456D01*
X154421352Y-119359486D01*
X154211121Y-119320960D01*
X154196359Y-119317322D01*
X153923592Y-119232325D01*
X153909370Y-119226930D01*
X153648860Y-119109684D01*
X153635391Y-119102615D01*
X153390905Y-118954818D01*
X153378383Y-118946175D01*
X153153493Y-118769984D01*
X153142105Y-118759894D01*
X152940106Y-118557895D01*
X152930016Y-118546507D01*
X152753825Y-118321617D01*
X152745182Y-118309095D01*
X152597385Y-118064609D01*
X152590314Y-118051136D01*
X152516151Y-117886351D01*
X152473069Y-117790627D01*
X152467674Y-117776404D01*
X152382678Y-117503641D01*
X152379038Y-117488873D01*
X152378643Y-117486714D01*
X152332695Y-117235981D01*
X152327544Y-117207874D01*
X152325710Y-117192770D01*
X152310545Y-116942071D01*
X152311802Y-116915361D01*
X152311805Y-116915141D01*
X152313186Y-116906270D01*
X152311547Y-116893730D01*
X152309064Y-116874749D01*
X152308000Y-116858411D01*
X152308000Y-109278416D01*
X153236775Y-109278416D01*
X153238232Y-109293276D01*
X153238677Y-109299334D01*
X153243558Y-109398690D01*
X153249384Y-109517271D01*
X153251472Y-109559780D01*
X153291241Y-109827879D01*
X153357096Y-110090789D01*
X153448405Y-110345979D01*
X153449725Y-110348769D01*
X153449725Y-110348770D01*
X153557890Y-110577466D01*
X153564286Y-110590990D01*
X153703625Y-110823462D01*
X153705468Y-110825947D01*
X153814688Y-110973213D01*
X153865079Y-111041158D01*
X153954355Y-111139658D01*
X153978577Y-111166383D01*
X153982331Y-111170975D01*
X153983192Y-111172394D01*
X153990590Y-111180771D01*
X153999365Y-111189546D01*
X154003631Y-111194026D01*
X154012590Y-111203911D01*
X154019856Y-111212696D01*
X154028808Y-111224576D01*
X154028814Y-111224583D01*
X154031193Y-111227740D01*
X154033950Y-111230575D01*
X154033955Y-111230581D01*
X154043290Y-111240180D01*
X154046053Y-111243021D01*
X154049150Y-111245493D01*
X154074198Y-111265489D01*
X154084684Y-111274865D01*
X154960051Y-112150232D01*
X154994077Y-112212544D01*
X154996082Y-112254139D01*
X154995016Y-112263144D01*
X154995016Y-112263152D01*
X154994337Y-112268887D01*
X155008563Y-112485933D01*
X155009984Y-112491529D01*
X155009985Y-112491534D01*
X155046404Y-112634930D01*
X155062105Y-112696753D01*
X155153168Y-112894285D01*
X155278704Y-113071914D01*
X155282846Y-113075949D01*
X155422241Y-113211741D01*
X155457079Y-113273602D01*
X155452942Y-113344478D01*
X155417399Y-113396726D01*
X155320342Y-113481842D01*
X155316770Y-113486373D01*
X155221126Y-113607697D01*
X155185681Y-113652658D01*
X155084405Y-113845154D01*
X155082692Y-113850671D01*
X155030589Y-114018469D01*
X155019903Y-114052882D01*
X154994337Y-114268887D01*
X155008563Y-114485933D01*
X155009984Y-114491529D01*
X155009985Y-114491534D01*
X155060684Y-114691158D01*
X155062105Y-114696753D01*
X155153168Y-114894285D01*
X155156501Y-114899001D01*
X155260629Y-115046338D01*
X155278704Y-115071914D01*
X155421026Y-115210557D01*
X155422241Y-115211741D01*
X155457079Y-115273602D01*
X155452942Y-115344478D01*
X155417399Y-115396726D01*
X155320342Y-115481842D01*
X155316770Y-115486373D01*
X155207334Y-115625192D01*
X155185681Y-115652658D01*
X155084405Y-115845154D01*
X155082692Y-115850671D01*
X155054301Y-115942105D01*
X155019903Y-116052882D01*
X154994337Y-116268887D01*
X155008563Y-116485933D01*
X155009984Y-116491529D01*
X155009985Y-116491534D01*
X155057478Y-116678536D01*
X155062105Y-116696753D01*
X155064522Y-116701996D01*
X155136630Y-116858411D01*
X155153168Y-116894285D01*
X155156501Y-116899001D01*
X155246064Y-117025729D01*
X155278704Y-117071914D01*
X155434509Y-117223692D01*
X155615363Y-117344536D01*
X155620671Y-117346817D01*
X155620672Y-117346817D01*
X155809909Y-117428119D01*
X155809912Y-117428120D01*
X155815212Y-117430397D01*
X155820842Y-117431671D01*
X156012326Y-117475000D01*
X156027360Y-117478402D01*
X156033131Y-117478629D01*
X156033133Y-117478629D01*
X156106120Y-117481496D01*
X156244705Y-117486941D01*
X156459966Y-117455730D01*
X156465430Y-117453875D01*
X156465435Y-117453874D01*
X156660463Y-117387671D01*
X156660468Y-117387669D01*
X156665935Y-117385813D01*
X156855713Y-117279532D01*
X157022946Y-117140446D01*
X157124022Y-117018915D01*
X168407500Y-117018915D01*
X168407869Y-117025729D01*
X168413289Y-117075621D01*
X168416914Y-117090867D01*
X168461267Y-117209177D01*
X168469799Y-117224763D01*
X168544930Y-117325009D01*
X168557491Y-117337570D01*
X168657737Y-117412701D01*
X168673323Y-117421233D01*
X168791633Y-117465586D01*
X168806879Y-117469211D01*
X168856771Y-117474631D01*
X168863585Y-117475000D01*
X169064385Y-117475000D01*
X169079624Y-117470525D01*
X169080829Y-117469135D01*
X169082500Y-117461452D01*
X169082500Y-117456885D01*
X170082500Y-117456885D01*
X170086975Y-117472124D01*
X170088365Y-117473329D01*
X170096048Y-117475000D01*
X170301415Y-117475000D01*
X170308229Y-117474631D01*
X170358121Y-117469211D01*
X170373367Y-117465586D01*
X170491677Y-117421233D01*
X170507263Y-117412701D01*
X170607509Y-117337570D01*
X170620070Y-117325009D01*
X170695201Y-117224763D01*
X170703733Y-117209177D01*
X170748086Y-117090867D01*
X170751711Y-117075621D01*
X170757131Y-117025729D01*
X170757500Y-117018915D01*
X170757500Y-116818115D01*
X170753025Y-116802876D01*
X170751635Y-116801671D01*
X170743952Y-116800000D01*
X170100615Y-116800000D01*
X170085376Y-116804475D01*
X170084171Y-116805865D01*
X170082500Y-116813548D01*
X170082500Y-117456885D01*
X169082500Y-117456885D01*
X169082500Y-116818115D01*
X169078025Y-116802876D01*
X169076635Y-116801671D01*
X169068952Y-116800000D01*
X168425615Y-116800000D01*
X168410376Y-116804475D01*
X168409171Y-116805865D01*
X168407500Y-116813548D01*
X168407500Y-117018915D01*
X157124022Y-117018915D01*
X157162032Y-116973213D01*
X157256530Y-116804475D01*
X157265489Y-116788478D01*
X157265490Y-116788476D01*
X157268313Y-116783435D01*
X157270169Y-116777968D01*
X157270171Y-116777963D01*
X157336374Y-116582935D01*
X157336375Y-116582930D01*
X157338230Y-116577466D01*
X157369441Y-116362205D01*
X157371070Y-116300000D01*
X157368459Y-116271585D01*
X174986698Y-116271585D01*
X174990830Y-116354586D01*
X175001926Y-116577466D01*
X175002936Y-116597759D01*
X175003577Y-116601490D01*
X175003578Y-116601498D01*
X175054870Y-116900000D01*
X175058241Y-116919619D01*
X175059329Y-116923258D01*
X175059330Y-116923261D01*
X175150139Y-117226902D01*
X175151814Y-117232504D01*
X175153327Y-117235975D01*
X175153329Y-117235981D01*
X175184929Y-117308482D01*
X175282297Y-117531881D01*
X175284220Y-117535152D01*
X175284222Y-117535156D01*
X175326584Y-117607215D01*
X175447802Y-117813414D01*
X175450103Y-117816429D01*
X175643631Y-118070012D01*
X175643636Y-118070017D01*
X175645931Y-118073025D01*
X175873814Y-118306953D01*
X175946635Y-118365607D01*
X176125196Y-118509431D01*
X176125201Y-118509435D01*
X176128149Y-118511809D01*
X176405253Y-118684627D01*
X176701112Y-118822903D01*
X177011440Y-118924634D01*
X177331742Y-118988346D01*
X177335514Y-118988633D01*
X177335522Y-118988634D01*
X177653602Y-119012829D01*
X177653607Y-119012829D01*
X177657379Y-119013116D01*
X177983633Y-118998586D01*
X178043425Y-118988634D01*
X178302037Y-118945590D01*
X178302042Y-118945589D01*
X178305778Y-118944967D01*
X178619149Y-118853034D01*
X178622616Y-118851544D01*
X178622620Y-118851543D01*
X178915721Y-118725616D01*
X178915723Y-118725615D01*
X178919205Y-118724119D01*
X179201601Y-118560091D01*
X179462245Y-118363324D01*
X179697363Y-118136670D01*
X179903549Y-117883410D01*
X180077815Y-117607215D01*
X180135190Y-117486112D01*
X180203784Y-117341326D01*
X180217638Y-117312084D01*
X180218840Y-117308482D01*
X180319790Y-117005897D01*
X180319792Y-117005891D01*
X180320992Y-117002293D01*
X180386381Y-116682329D01*
X180389935Y-116638642D01*
X180404798Y-116455899D01*
X180412856Y-116356826D01*
X180413261Y-116318134D01*
X198691500Y-116318134D01*
X198698255Y-116380316D01*
X198749385Y-116516705D01*
X198836739Y-116633261D01*
X198953295Y-116720615D01*
X199089684Y-116771745D01*
X199151866Y-116778500D01*
X201448134Y-116778500D01*
X201510316Y-116771745D01*
X201646705Y-116720615D01*
X201763261Y-116633261D01*
X201850615Y-116516705D01*
X201901745Y-116380316D01*
X201908500Y-116318134D01*
X201908500Y-114021866D01*
X201901745Y-113959684D01*
X201850615Y-113823295D01*
X201763261Y-113706739D01*
X201733127Y-113684155D01*
X201686123Y-113648927D01*
X201643608Y-113592068D01*
X201638582Y-113521249D01*
X201654255Y-113482266D01*
X201727433Y-113362851D01*
X201731914Y-113354057D01*
X201824502Y-113130529D01*
X201827551Y-113121144D01*
X201884033Y-112885882D01*
X201885576Y-112876135D01*
X201904560Y-112634930D01*
X201904560Y-112625070D01*
X201885576Y-112383865D01*
X201884033Y-112374118D01*
X201827551Y-112138856D01*
X201824502Y-112129471D01*
X201738627Y-111922150D01*
X201729778Y-111911169D01*
X201724622Y-111912485D01*
X200389095Y-113248012D01*
X200326783Y-113282038D01*
X200255968Y-113276973D01*
X200210905Y-113248012D01*
X198881118Y-111918225D01*
X198868738Y-111911465D01*
X198864478Y-111914654D01*
X198775498Y-112129471D01*
X198772449Y-112138856D01*
X198715967Y-112374118D01*
X198714424Y-112383865D01*
X198695440Y-112625070D01*
X198695440Y-112634930D01*
X198714424Y-112876135D01*
X198715967Y-112885882D01*
X198772449Y-113121144D01*
X198775498Y-113130529D01*
X198868086Y-113354057D01*
X198872567Y-113362851D01*
X198945745Y-113482266D01*
X198964283Y-113550799D01*
X198942827Y-113618476D01*
X198913877Y-113648927D01*
X198866873Y-113684155D01*
X198836739Y-113706739D01*
X198749385Y-113823295D01*
X198698255Y-113959684D01*
X198691500Y-114021866D01*
X198691500Y-116318134D01*
X180413261Y-116318134D01*
X180413451Y-116300000D01*
X180411510Y-116267796D01*
X180394026Y-115977793D01*
X180394026Y-115977789D01*
X180393798Y-115974015D01*
X180388650Y-115945824D01*
X180335805Y-115656473D01*
X180335804Y-115656469D01*
X180335125Y-115652751D01*
X180333689Y-115648124D01*
X180239404Y-115344477D01*
X180238282Y-115340863D01*
X180104670Y-115042869D01*
X179936226Y-114763084D01*
X179933899Y-114760100D01*
X179933894Y-114760093D01*
X179737726Y-114508558D01*
X179737724Y-114508556D01*
X179735390Y-114505563D01*
X179505070Y-114274034D01*
X179248603Y-114071852D01*
X178969705Y-113901945D01*
X178966261Y-113900379D01*
X178966257Y-113900377D01*
X178833563Y-113840045D01*
X178672414Y-113766775D01*
X178361037Y-113668300D01*
X178096087Y-113618476D01*
X178043809Y-113608645D01*
X178043807Y-113608645D01*
X178040086Y-113607945D01*
X177714208Y-113586586D01*
X177710428Y-113586794D01*
X177710427Y-113586794D01*
X177614598Y-113592068D01*
X177388124Y-113604532D01*
X177384397Y-113605193D01*
X177384393Y-113605193D01*
X177227340Y-113633027D01*
X177066557Y-113661522D01*
X177062941Y-113662624D01*
X177062933Y-113662626D01*
X176757789Y-113755627D01*
X176754167Y-113756731D01*
X176455477Y-113888781D01*
X176430041Y-113903914D01*
X176178074Y-114053817D01*
X176178068Y-114053821D01*
X176174814Y-114055757D01*
X176171812Y-114058073D01*
X176131522Y-114089157D01*
X175916244Y-114255243D01*
X175683513Y-114484347D01*
X175681149Y-114487314D01*
X175681146Y-114487317D01*
X175482356Y-114736783D01*
X175479991Y-114739751D01*
X175308626Y-115017757D01*
X175307037Y-115021204D01*
X175190681Y-115273602D01*
X175171902Y-115314336D01*
X175170741Y-115317940D01*
X175170741Y-115317941D01*
X175162196Y-115344477D01*
X175071797Y-115625192D01*
X175071079Y-115628903D01*
X175071078Y-115628907D01*
X175010482Y-115942105D01*
X175010481Y-115942114D01*
X175009763Y-115945824D01*
X175009496Y-115949600D01*
X175009495Y-115949605D01*
X174987295Y-116263152D01*
X174986698Y-116271585D01*
X157368459Y-116271585D01*
X157351167Y-116083400D01*
X157292126Y-115874055D01*
X157195923Y-115678974D01*
X157176342Y-115652751D01*
X157069233Y-115509315D01*
X157069232Y-115509314D01*
X157065780Y-115504691D01*
X156943578Y-115391729D01*
X156907133Y-115330800D01*
X156909414Y-115259840D01*
X156948538Y-115202330D01*
X156983660Y-115173120D01*
X157022946Y-115140446D01*
X157162032Y-114973213D01*
X157268313Y-114783435D01*
X157270169Y-114777968D01*
X157270171Y-114777963D01*
X157336374Y-114582935D01*
X157336375Y-114582930D01*
X157338230Y-114577466D01*
X157369441Y-114362205D01*
X157371070Y-114300000D01*
X157351167Y-114083400D01*
X157348571Y-114074193D01*
X157299992Y-113901945D01*
X157292126Y-113874055D01*
X157195923Y-113678974D01*
X157183716Y-113662626D01*
X157069233Y-113509315D01*
X157069232Y-113509314D01*
X157065780Y-113504691D01*
X156943578Y-113391729D01*
X156907133Y-113330800D01*
X156909414Y-113259840D01*
X156948538Y-113202330D01*
X157018508Y-113144137D01*
X157022946Y-113140446D01*
X157162032Y-112973213D01*
X157268313Y-112783435D01*
X157270169Y-112777968D01*
X157270171Y-112777963D01*
X157336374Y-112582935D01*
X157336375Y-112582930D01*
X157338230Y-112577466D01*
X157369441Y-112362205D01*
X157371070Y-112300000D01*
X157351167Y-112083400D01*
X157292126Y-111874055D01*
X157195923Y-111678974D01*
X157065780Y-111504691D01*
X157061540Y-111500771D01*
X156943578Y-111391729D01*
X156907133Y-111330800D01*
X156909414Y-111259840D01*
X156948538Y-111202330D01*
X156961272Y-111191740D01*
X157022946Y-111140446D01*
X157162032Y-110973213D01*
X157268313Y-110783435D01*
X157270169Y-110777968D01*
X157270171Y-110777963D01*
X157336374Y-110582935D01*
X157336375Y-110582930D01*
X157338230Y-110577466D01*
X157369441Y-110362205D01*
X157371070Y-110300000D01*
X157351167Y-110083400D01*
X157292126Y-109874055D01*
X157195923Y-109678974D01*
X157191252Y-109672718D01*
X157069233Y-109509315D01*
X157069232Y-109509314D01*
X157065780Y-109504691D01*
X157061540Y-109500771D01*
X156943578Y-109391729D01*
X156907133Y-109330800D01*
X156909414Y-109259840D01*
X156948538Y-109202330D01*
X156982602Y-109174000D01*
X157022946Y-109140446D01*
X157162032Y-108973213D01*
X157239015Y-108835750D01*
X157265489Y-108788478D01*
X157265490Y-108788476D01*
X157268313Y-108783435D01*
X157270169Y-108777968D01*
X157270171Y-108777963D01*
X157336374Y-108582935D01*
X157336375Y-108582930D01*
X157338230Y-108577466D01*
X157369441Y-108362205D01*
X157371070Y-108300000D01*
X157351167Y-108083400D01*
X157292126Y-107874055D01*
X157195923Y-107678974D01*
X157186750Y-107666689D01*
X157069233Y-107509315D01*
X157069232Y-107509314D01*
X157065780Y-107504691D01*
X156943578Y-107391729D01*
X156907133Y-107330800D01*
X156909414Y-107259840D01*
X156948538Y-107202330D01*
X156973743Y-107181368D01*
X157022946Y-107140446D01*
X157162032Y-106973213D01*
X157254483Y-106808131D01*
X157265489Y-106788478D01*
X157265490Y-106788476D01*
X157268313Y-106783435D01*
X157270169Y-106777968D01*
X157270171Y-106777963D01*
X157336374Y-106582935D01*
X157336375Y-106582930D01*
X157338230Y-106577466D01*
X157369441Y-106362205D01*
X157371070Y-106300000D01*
X157351167Y-106083400D01*
X157345769Y-106064258D01*
X157309965Y-105937309D01*
X157292126Y-105874055D01*
X157195923Y-105678974D01*
X157191765Y-105673405D01*
X157069233Y-105509315D01*
X157069232Y-105509314D01*
X157065780Y-105504691D01*
X157061544Y-105500775D01*
X156910296Y-105360963D01*
X156910293Y-105360961D01*
X156906056Y-105357044D01*
X156722099Y-105240976D01*
X156520072Y-105160376D01*
X156327491Y-105122069D01*
X156262978Y-105087585D01*
X156195312Y-105019919D01*
X156181368Y-105012305D01*
X156179535Y-105012436D01*
X156172920Y-105016687D01*
X156099762Y-105089845D01*
X156032005Y-105124930D01*
X155998891Y-105130620D01*
X155880565Y-105150952D01*
X155880562Y-105150953D01*
X155874875Y-105151930D01*
X155670807Y-105227214D01*
X155483876Y-105338427D01*
X155320342Y-105481842D01*
X155316770Y-105486373D01*
X155200759Y-105633532D01*
X155185681Y-105652658D01*
X155084405Y-105845154D01*
X155082692Y-105850671D01*
X155022616Y-106044146D01*
X155019903Y-106052882D01*
X155016291Y-106083400D01*
X155009627Y-106139703D01*
X154981756Y-106205000D01*
X154923008Y-106244864D01*
X154852034Y-106246638D01*
X154791367Y-106209759D01*
X154760269Y-106145935D01*
X154758500Y-106124893D01*
X154758500Y-104389642D01*
X154778502Y-104321521D01*
X154810558Y-104293744D01*
X154806972Y-104291564D01*
X154960764Y-104291564D01*
X154967012Y-104294418D01*
X155005396Y-104354144D01*
X155010230Y-104381401D01*
X155016616Y-104478830D01*
X155018417Y-104490200D01*
X155068682Y-104688120D01*
X155075417Y-104695837D01*
X155081310Y-104694083D01*
X155462581Y-104312812D01*
X155468959Y-104301132D01*
X156894805Y-104301132D01*
X156894936Y-104302965D01*
X156899187Y-104309580D01*
X157275341Y-104685734D01*
X157287721Y-104692494D01*
X157290782Y-104690203D01*
X157291353Y-104689118D01*
X157328074Y-104580942D01*
X157330759Y-104569759D01*
X157360384Y-104365432D01*
X157361014Y-104358049D01*
X157362437Y-104303704D01*
X157362194Y-104296305D01*
X157343303Y-104090710D01*
X157341206Y-104079395D01*
X157295308Y-103916655D01*
X157287810Y-103904709D01*
X157285742Y-103904984D01*
X157282174Y-103907433D01*
X156902419Y-104287188D01*
X156894805Y-104301132D01*
X155468959Y-104301132D01*
X155470195Y-104298868D01*
X155470064Y-104297035D01*
X155465813Y-104290420D01*
X155088878Y-103913485D01*
X155076498Y-103906725D01*
X155074131Y-103908497D01*
X155072868Y-103910971D01*
X155029966Y-104049140D01*
X155027574Y-104060394D01*
X155009627Y-104212022D01*
X154981756Y-104277320D01*
X154960764Y-104291564D01*
X154806972Y-104291564D01*
X154791367Y-104282078D01*
X154760269Y-104218254D01*
X154758500Y-104197212D01*
X154758500Y-102790578D01*
X154759726Y-102773042D01*
X154762452Y-102753648D01*
X154762452Y-102753645D01*
X154763001Y-102749740D01*
X154763299Y-102728427D01*
X154761819Y-102715231D01*
X154761422Y-102691302D01*
X154772351Y-102552435D01*
X154797636Y-102486094D01*
X154854774Y-102443954D01*
X154925625Y-102439395D01*
X154987692Y-102473864D01*
X155020086Y-102531305D01*
X155048517Y-102643252D01*
X155062105Y-102696753D01*
X155064522Y-102701996D01*
X155099543Y-102777963D01*
X155153168Y-102894285D01*
X155156501Y-102899001D01*
X155265198Y-103052803D01*
X155278704Y-103071914D01*
X155434509Y-103223692D01*
X155615363Y-103344536D01*
X155620671Y-103346817D01*
X155620672Y-103346817D01*
X155809909Y-103428119D01*
X155809912Y-103428120D01*
X155815212Y-103430397D01*
X156027360Y-103478402D01*
X156031606Y-103478569D01*
X156096079Y-103507089D01*
X156103802Y-103514195D01*
X156169688Y-103580081D01*
X156183632Y-103587695D01*
X156185465Y-103587564D01*
X156192080Y-103583313D01*
X156266275Y-103509118D01*
X156328587Y-103475092D01*
X156337290Y-103473517D01*
X156454252Y-103456559D01*
X156454257Y-103456558D01*
X156459966Y-103455730D01*
X156465430Y-103453875D01*
X156465435Y-103453874D01*
X156660463Y-103387671D01*
X156660468Y-103387669D01*
X156665935Y-103385813D01*
X156678101Y-103379000D01*
X156745372Y-103341326D01*
X156855713Y-103279532D01*
X157022946Y-103140446D01*
X157162032Y-102973213D01*
X157268313Y-102783435D01*
X157270169Y-102777968D01*
X157270171Y-102777963D01*
X157336374Y-102582935D01*
X157336375Y-102582930D01*
X157338230Y-102577466D01*
X157369441Y-102362205D01*
X157371070Y-102300000D01*
X157368761Y-102274876D01*
X168403248Y-102274876D01*
X168416616Y-102478830D01*
X168418417Y-102490200D01*
X168468682Y-102688120D01*
X168475417Y-102695837D01*
X168481310Y-102694083D01*
X168862581Y-102312812D01*
X168870195Y-102298868D01*
X168870064Y-102297035D01*
X168865813Y-102290420D01*
X168488878Y-101913485D01*
X168476498Y-101906725D01*
X168474131Y-101908497D01*
X168472868Y-101910971D01*
X168429966Y-102049140D01*
X168427574Y-102060394D01*
X168403549Y-102263375D01*
X168403248Y-102274876D01*
X157368761Y-102274876D01*
X157351167Y-102083400D01*
X157329661Y-102007143D01*
X157307823Y-101929712D01*
X157292126Y-101874055D01*
X157195923Y-101678974D01*
X157188274Y-101668730D01*
X157069233Y-101509315D01*
X157069232Y-101509314D01*
X157065780Y-101504691D01*
X156984215Y-101429293D01*
X156910296Y-101360963D01*
X156910293Y-101360961D01*
X156906056Y-101357044D01*
X156801481Y-101291062D01*
X156754542Y-101237795D01*
X156748272Y-101196624D01*
X169189767Y-101196624D01*
X169190728Y-101201121D01*
X169569688Y-101580081D01*
X169583632Y-101587695D01*
X169585465Y-101587564D01*
X169592080Y-101583313D01*
X169968587Y-101206806D01*
X169975347Y-101194426D01*
X169972309Y-101190367D01*
X169923012Y-101170700D01*
X169911984Y-101167433D01*
X169711514Y-101127557D01*
X169700068Y-101126354D01*
X169495698Y-101123680D01*
X169484218Y-101124583D01*
X169282782Y-101159196D01*
X169271662Y-101162176D01*
X169201088Y-101188212D01*
X169189767Y-101196624D01*
X156748272Y-101196624D01*
X156743853Y-101167608D01*
X156772808Y-101102784D01*
X156832212Y-101063904D01*
X156868716Y-101058500D01*
X162909422Y-101058500D01*
X162926955Y-101059726D01*
X162933731Y-101060678D01*
X162946352Y-101062452D01*
X162946355Y-101062452D01*
X162950260Y-101063001D01*
X162958609Y-101063118D01*
X162967612Y-101063244D01*
X162967618Y-101063244D01*
X162971573Y-101063299D01*
X162991027Y-101061117D01*
X162998887Y-101060484D01*
X163039274Y-101058500D01*
X163239190Y-101048679D01*
X163239195Y-101048679D01*
X163242279Y-101048527D01*
X163510378Y-101008758D01*
X163534179Y-101002796D01*
X163770288Y-100943655D01*
X163770298Y-100943652D01*
X163773288Y-100942903D01*
X163776187Y-100941866D01*
X163776196Y-100941863D01*
X164025571Y-100852635D01*
X164028478Y-100851595D01*
X164031273Y-100850273D01*
X164031278Y-100850271D01*
X164197365Y-100771717D01*
X164273488Y-100735713D01*
X164505961Y-100596375D01*
X164508446Y-100594532D01*
X164721166Y-100436768D01*
X164721170Y-100436765D01*
X164723656Y-100434921D01*
X164848883Y-100321423D01*
X164853467Y-100317675D01*
X164854893Y-100316809D01*
X164863270Y-100309411D01*
X164872053Y-100300628D01*
X164876529Y-100296365D01*
X164886411Y-100287408D01*
X164895196Y-100280143D01*
X164910238Y-100268808D01*
X164925520Y-100253948D01*
X164947988Y-100225803D01*
X164957364Y-100215317D01*
X166206603Y-98966078D01*
X166219869Y-98954545D01*
X166220831Y-98953820D01*
X166238665Y-98940381D01*
X166253947Y-98925521D01*
X166266157Y-98910226D01*
X166271230Y-98904264D01*
X166434921Y-98723658D01*
X166596375Y-98505962D01*
X166610968Y-98481616D01*
X166722233Y-98295982D01*
X166735714Y-98273490D01*
X166740482Y-98263410D01*
X166850275Y-98031270D01*
X166850275Y-98031269D01*
X166851595Y-98028479D01*
X166942904Y-97773289D01*
X166951675Y-97738275D01*
X167008009Y-97513373D01*
X167008759Y-97510379D01*
X167048528Y-97242280D01*
X167049282Y-97226932D01*
X167056820Y-97073487D01*
X167057413Y-97067576D01*
X167057808Y-97065963D01*
X167058500Y-97054809D01*
X167058500Y-97042379D01*
X167058652Y-97036193D01*
X167059306Y-97022889D01*
X167060380Y-97011542D01*
X167062449Y-96996819D01*
X167062450Y-96996807D01*
X167063001Y-96992886D01*
X167063160Y-96981538D01*
X167063244Y-96975534D01*
X167063244Y-96975528D01*
X167063299Y-96971573D01*
X167059285Y-96935786D01*
X167058500Y-96921742D01*
X167058500Y-95090578D01*
X167059726Y-95073042D01*
X167062452Y-95053648D01*
X167062452Y-95053645D01*
X167063001Y-95049740D01*
X167063299Y-95028427D01*
X167061819Y-95015231D01*
X167061422Y-94991302D01*
X167065929Y-94934037D01*
X167073007Y-94844099D01*
X167076100Y-94824571D01*
X167080985Y-94804224D01*
X167116950Y-94654419D01*
X167123058Y-94635620D01*
X167126095Y-94628288D01*
X167190022Y-94473955D01*
X167198996Y-94456344D01*
X167290427Y-94307143D01*
X167302042Y-94291155D01*
X167394449Y-94182960D01*
X167407324Y-94170677D01*
X167407312Y-94170664D01*
X167412370Y-94165745D01*
X167417932Y-94161431D01*
X167436673Y-94138615D01*
X167444756Y-94128775D01*
X167453025Y-94119656D01*
X167565745Y-94006936D01*
X167628057Y-93972910D01*
X167698872Y-93977975D01*
X167755708Y-94020522D01*
X167780519Y-94087042D01*
X167780127Y-94109420D01*
X167774569Y-94161431D01*
X167762251Y-94276695D01*
X167762548Y-94281848D01*
X167762548Y-94281851D01*
X167769222Y-94397596D01*
X167775110Y-94499715D01*
X167776247Y-94504761D01*
X167776248Y-94504767D01*
X167782701Y-94533400D01*
X167824222Y-94717639D01*
X167908266Y-94924616D01*
X167947141Y-94988054D01*
X168022291Y-95110688D01*
X168024987Y-95115088D01*
X168171250Y-95283938D01*
X168175230Y-95287242D01*
X168179981Y-95291187D01*
X168219616Y-95350090D01*
X168221113Y-95421071D01*
X168183997Y-95481593D01*
X168143725Y-95506112D01*
X168090805Y-95525951D01*
X168028295Y-95549385D01*
X167911739Y-95636739D01*
X167824385Y-95753295D01*
X167773255Y-95889684D01*
X167766500Y-95951866D01*
X167766500Y-97748134D01*
X167773255Y-97810316D01*
X167824385Y-97946705D01*
X167911739Y-98063261D01*
X168028295Y-98150615D01*
X168164684Y-98201745D01*
X168226866Y-98208500D01*
X170023134Y-98208500D01*
X170085316Y-98201745D01*
X170221705Y-98150615D01*
X170338261Y-98063261D01*
X170425615Y-97946705D01*
X170452674Y-97874525D01*
X170469598Y-97829382D01*
X170512240Y-97772618D01*
X170578802Y-97747918D01*
X170648150Y-97763126D01*
X170682817Y-97791114D01*
X170711250Y-97823938D01*
X170883126Y-97966632D01*
X171076000Y-98079338D01*
X171284692Y-98159030D01*
X171289760Y-98160061D01*
X171289763Y-98160062D01*
X171397017Y-98181883D01*
X171503597Y-98203567D01*
X171508772Y-98203757D01*
X171508774Y-98203757D01*
X171721673Y-98211564D01*
X171721677Y-98211564D01*
X171726837Y-98211753D01*
X171731957Y-98211097D01*
X171731959Y-98211097D01*
X171943288Y-98184025D01*
X171943289Y-98184025D01*
X171948416Y-98183368D01*
X171953366Y-98181883D01*
X172157429Y-98120661D01*
X172157434Y-98120659D01*
X172162384Y-98119174D01*
X172362994Y-98020896D01*
X172544860Y-97891173D01*
X172561578Y-97874514D01*
X172645268Y-97791115D01*
X172703096Y-97733489D01*
X172718798Y-97711638D01*
X172757776Y-97657393D01*
X172833453Y-97552077D01*
X172833867Y-97551240D01*
X172885194Y-97503986D01*
X172955132Y-97491772D01*
X173020571Y-97519309D01*
X173029980Y-97527800D01*
X173151697Y-97649305D01*
X173157927Y-97653145D01*
X173157928Y-97653146D01*
X173295090Y-97737694D01*
X173302262Y-97742115D01*
X173365609Y-97763126D01*
X173463611Y-97795632D01*
X173463613Y-97795632D01*
X173470139Y-97797797D01*
X173476975Y-97798497D01*
X173476978Y-97798498D01*
X173520031Y-97802909D01*
X173574600Y-97808500D01*
X174200400Y-97808500D01*
X174203646Y-97808163D01*
X174203650Y-97808163D01*
X174299308Y-97798238D01*
X174299312Y-97798237D01*
X174306166Y-97797526D01*
X174312702Y-97795345D01*
X174312704Y-97795345D01*
X174464453Y-97744717D01*
X174473946Y-97741550D01*
X174624348Y-97648478D01*
X174629521Y-97643296D01*
X174629526Y-97643292D01*
X174716789Y-97555876D01*
X174779071Y-97521796D01*
X174849891Y-97526799D01*
X174894980Y-97555720D01*
X174976820Y-97637418D01*
X174988232Y-97646430D01*
X175124646Y-97730516D01*
X175137827Y-97736663D01*
X175195306Y-97755728D01*
X175209399Y-97756217D01*
X175212500Y-97750006D01*
X175212500Y-97743315D01*
X176212500Y-97743315D01*
X176216473Y-97756846D01*
X176223299Y-97757827D01*
X176288372Y-97736117D01*
X176301541Y-97729948D01*
X176437804Y-97645626D01*
X176449205Y-97636590D01*
X176562418Y-97523179D01*
X176571430Y-97511768D01*
X176655516Y-97375354D01*
X176661663Y-97362173D01*
X176712251Y-97209657D01*
X176715118Y-97196281D01*
X176723136Y-97118023D01*
X176720408Y-97103324D01*
X176708173Y-97100000D01*
X176230615Y-97100000D01*
X176215376Y-97104475D01*
X176214171Y-97105865D01*
X176212500Y-97113548D01*
X176212500Y-97743315D01*
X175212500Y-97743315D01*
X175212500Y-96081885D01*
X176212500Y-96081885D01*
X176216975Y-96097124D01*
X176218365Y-96098329D01*
X176226048Y-96100000D01*
X176706867Y-96100000D01*
X176721184Y-96095796D01*
X176723243Y-96083239D01*
X176714860Y-96002441D01*
X176711968Y-95989047D01*
X176661118Y-95836632D01*
X176654944Y-95823453D01*
X176570626Y-95687196D01*
X176561590Y-95675795D01*
X176447638Y-95562042D01*
X176413559Y-95499760D01*
X176418562Y-95428940D01*
X176458393Y-95374122D01*
X176474205Y-95361590D01*
X176587418Y-95248179D01*
X176596430Y-95236768D01*
X176680516Y-95100354D01*
X176686663Y-95087173D01*
X176737251Y-94934657D01*
X176740118Y-94921281D01*
X176749672Y-94828034D01*
X176750000Y-94821618D01*
X176750000Y-94818115D01*
X176745525Y-94802876D01*
X176744135Y-94801671D01*
X176736452Y-94800000D01*
X176268115Y-94800000D01*
X176252876Y-94804475D01*
X176251671Y-94805865D01*
X176250000Y-94813548D01*
X176250000Y-95482521D01*
X176229998Y-95550642D01*
X176219224Y-95565034D01*
X176214171Y-95570865D01*
X176212500Y-95578548D01*
X176212500Y-96081885D01*
X175212500Y-96081885D01*
X175212500Y-95442479D01*
X175232502Y-95374358D01*
X175243276Y-95359966D01*
X175248329Y-95354135D01*
X175250000Y-95346452D01*
X175250000Y-93926000D01*
X175270002Y-93857879D01*
X175323658Y-93811386D01*
X175376000Y-93800000D01*
X176731884Y-93800000D01*
X176747123Y-93795525D01*
X176748328Y-93794135D01*
X176749999Y-93786452D01*
X176749999Y-93778433D01*
X176749661Y-93771913D01*
X176739860Y-93677440D01*
X176736969Y-93664048D01*
X176723733Y-93624376D01*
X176721149Y-93553426D01*
X176757333Y-93492342D01*
X176820797Y-93460518D01*
X176843257Y-93458500D01*
X181265590Y-93458500D01*
X181281383Y-93459494D01*
X181310916Y-93463225D01*
X181320463Y-93462289D01*
X181331307Y-93461226D01*
X181353487Y-93461013D01*
X181505901Y-93473008D01*
X181525429Y-93476101D01*
X181580977Y-93489437D01*
X181642546Y-93524789D01*
X181675229Y-93587816D01*
X181668648Y-93658507D01*
X181624894Y-93714418D01*
X181615990Y-93720238D01*
X181501376Y-93788427D01*
X181337842Y-93931842D01*
X181334270Y-93936373D01*
X181215492Y-94087042D01*
X181203181Y-94102658D01*
X181101905Y-94295154D01*
X181096235Y-94313414D01*
X181040572Y-94492677D01*
X181037403Y-94502882D01*
X181011837Y-94718887D01*
X181026063Y-94935933D01*
X181027484Y-94941529D01*
X181027485Y-94941534D01*
X181070446Y-95110689D01*
X181079605Y-95146753D01*
X181082023Y-95151998D01*
X181082024Y-95152001D01*
X181133942Y-95264622D01*
X181144297Y-95334859D01*
X181115034Y-95399545D01*
X181055445Y-95438141D01*
X181025701Y-95443220D01*
X180919800Y-95448422D01*
X180860810Y-95451320D01*
X180860806Y-95451320D01*
X180857720Y-95451472D01*
X180589621Y-95491241D01*
X180326711Y-95557096D01*
X180071521Y-95648405D01*
X180068732Y-95649724D01*
X180068730Y-95649725D01*
X179843055Y-95756461D01*
X179826510Y-95764286D01*
X179823868Y-95765869D01*
X179823869Y-95765869D01*
X179711887Y-95832989D01*
X179594038Y-95903625D01*
X179591554Y-95905467D01*
X179591553Y-95905468D01*
X179378834Y-96063231D01*
X179376342Y-96065079D01*
X179259198Y-96171253D01*
X179251117Y-96178577D01*
X179246525Y-96182331D01*
X179245106Y-96183192D01*
X179236729Y-96190590D01*
X179227954Y-96199365D01*
X179223474Y-96203631D01*
X179213589Y-96212590D01*
X179204804Y-96219856D01*
X179192924Y-96228808D01*
X179192917Y-96228814D01*
X179189760Y-96231193D01*
X179186925Y-96233950D01*
X179186919Y-96233955D01*
X179177320Y-96243290D01*
X179174479Y-96246053D01*
X179152767Y-96273251D01*
X179152011Y-96274198D01*
X179142635Y-96284684D01*
X178882990Y-96544329D01*
X178820678Y-96578355D01*
X178782913Y-96580755D01*
X178625475Y-96566981D01*
X178620000Y-96566502D01*
X178391913Y-96586457D01*
X178386600Y-96587881D01*
X178386598Y-96587881D01*
X178176067Y-96644293D01*
X178176065Y-96644294D01*
X178170757Y-96645716D01*
X178165776Y-96648039D01*
X178165775Y-96648039D01*
X177968238Y-96740151D01*
X177968233Y-96740154D01*
X177963251Y-96742477D01*
X177858389Y-96815902D01*
X177780211Y-96870643D01*
X177780208Y-96870645D01*
X177775700Y-96873802D01*
X177613802Y-97035700D01*
X177610645Y-97040208D01*
X177610643Y-97040211D01*
X177568498Y-97100400D01*
X177482477Y-97223251D01*
X177480154Y-97228233D01*
X177480151Y-97228238D01*
X177406504Y-97386177D01*
X177385716Y-97430757D01*
X177384294Y-97436065D01*
X177384293Y-97436067D01*
X177327926Y-97646430D01*
X177326457Y-97651913D01*
X177306502Y-97880000D01*
X177326457Y-98108087D01*
X177327881Y-98113400D01*
X177327881Y-98113402D01*
X177376811Y-98296008D01*
X177385716Y-98329243D01*
X177388039Y-98334225D01*
X177388041Y-98334230D01*
X177401107Y-98362251D01*
X177411768Y-98432443D01*
X177382787Y-98497255D01*
X177323367Y-98536111D01*
X177286912Y-98541500D01*
X174690578Y-98541500D01*
X174673045Y-98540274D01*
X174664051Y-98539010D01*
X174653648Y-98537548D01*
X174653645Y-98537548D01*
X174649740Y-98536999D01*
X174641497Y-98536884D01*
X174632389Y-98536756D01*
X174632383Y-98536756D01*
X174628427Y-98536701D01*
X174608983Y-98538882D01*
X174601137Y-98539514D01*
X174495611Y-98544698D01*
X174360809Y-98551320D01*
X174360804Y-98551320D01*
X174357720Y-98551472D01*
X174089621Y-98591241D01*
X173826711Y-98657096D01*
X173571521Y-98748405D01*
X173568731Y-98749725D01*
X173568730Y-98749725D01*
X173463278Y-98799600D01*
X173326510Y-98864286D01*
X173094038Y-99003625D01*
X173091553Y-99005468D01*
X172898361Y-99148749D01*
X172876342Y-99165079D01*
X172874054Y-99167153D01*
X172751117Y-99278577D01*
X172746525Y-99282331D01*
X172745106Y-99283192D01*
X172736729Y-99290590D01*
X172727954Y-99299365D01*
X172723474Y-99303631D01*
X172713589Y-99312590D01*
X172704804Y-99319856D01*
X172692924Y-99328808D01*
X172692917Y-99328814D01*
X172689760Y-99331193D01*
X172686925Y-99333950D01*
X172686919Y-99333955D01*
X172677320Y-99343290D01*
X172674479Y-99346053D01*
X172672007Y-99349150D01*
X172652011Y-99374198D01*
X172642635Y-99384684D01*
X171293399Y-100733920D01*
X171280133Y-100745453D01*
X171261333Y-100759620D01*
X171258498Y-100762377D01*
X171258492Y-100762382D01*
X171248893Y-100771717D01*
X171246052Y-100774480D01*
X171233838Y-100789781D01*
X171228749Y-100795763D01*
X171065079Y-100976344D01*
X171063238Y-100978827D01*
X171063235Y-100978830D01*
X170929466Y-101159196D01*
X170903625Y-101194039D01*
X170764287Y-101426512D01*
X170762960Y-101429318D01*
X170688053Y-101587695D01*
X170648405Y-101671522D01*
X170647365Y-101674429D01*
X170558138Y-101923803D01*
X170557097Y-101926712D01*
X170556348Y-101929702D01*
X170556345Y-101929712D01*
X170530212Y-102034044D01*
X170497083Y-102092524D01*
X169499762Y-103089845D01*
X169432005Y-103124930D01*
X169388100Y-103132474D01*
X169280565Y-103150952D01*
X169280562Y-103150953D01*
X169274875Y-103151930D01*
X169070807Y-103227214D01*
X168883876Y-103338427D01*
X168720342Y-103481842D01*
X168716770Y-103486373D01*
X168596920Y-103638402D01*
X168585681Y-103652658D01*
X168484405Y-103845154D01*
X168482692Y-103850671D01*
X168439591Y-103989478D01*
X168419903Y-104052882D01*
X168394337Y-104268887D01*
X168408563Y-104485933D01*
X168409984Y-104491529D01*
X168409985Y-104491534D01*
X168459912Y-104688120D01*
X168462105Y-104696753D01*
X168464522Y-104701996D01*
X168508829Y-104798106D01*
X168553168Y-104894285D01*
X168556501Y-104899001D01*
X168663752Y-105050757D01*
X168678704Y-105071914D01*
X168682846Y-105075949D01*
X168822241Y-105211741D01*
X168857079Y-105273602D01*
X168852942Y-105344478D01*
X168817399Y-105396726D01*
X168720342Y-105481842D01*
X168716770Y-105486373D01*
X168600759Y-105633532D01*
X168585681Y-105652658D01*
X168484405Y-105845154D01*
X168482692Y-105850671D01*
X168422616Y-106044146D01*
X168419903Y-106052882D01*
X168394337Y-106268887D01*
X168408563Y-106485933D01*
X168409984Y-106491529D01*
X168409985Y-106491534D01*
X168452443Y-106658711D01*
X168462105Y-106696753D01*
X168553168Y-106894285D01*
X168556501Y-106899001D01*
X168641818Y-107019721D01*
X168678704Y-107071914D01*
X168682846Y-107075949D01*
X168822241Y-107211741D01*
X168857079Y-107273602D01*
X168852942Y-107344478D01*
X168817399Y-107396726D01*
X168720342Y-107481842D01*
X168716770Y-107486373D01*
X168619014Y-107610376D01*
X168585681Y-107652658D01*
X168484405Y-107845154D01*
X168482692Y-107850671D01*
X168424578Y-108037827D01*
X168419903Y-108052882D01*
X168394337Y-108268887D01*
X168408563Y-108485933D01*
X168409984Y-108491529D01*
X168409985Y-108491534D01*
X168437500Y-108599871D01*
X168462105Y-108696753D01*
X168464522Y-108701996D01*
X168526183Y-108835750D01*
X168553168Y-108894285D01*
X168678704Y-109071914D01*
X168682846Y-109075949D01*
X168822241Y-109211741D01*
X168857079Y-109273602D01*
X168852942Y-109344478D01*
X168817399Y-109396726D01*
X168720342Y-109481842D01*
X168716770Y-109486373D01*
X168661336Y-109556691D01*
X168585681Y-109652658D01*
X168484405Y-109845154D01*
X168482692Y-109850671D01*
X168455975Y-109936714D01*
X168419903Y-110052882D01*
X168394337Y-110268887D01*
X168408563Y-110485933D01*
X168409984Y-110491529D01*
X168409985Y-110491534D01*
X168434538Y-110588208D01*
X168462105Y-110696753D01*
X168553168Y-110894285D01*
X168678704Y-111071914D01*
X168775680Y-111166383D01*
X168822241Y-111211741D01*
X168857079Y-111273602D01*
X168852942Y-111344478D01*
X168817399Y-111396726D01*
X168720342Y-111481842D01*
X168716770Y-111486373D01*
X168705420Y-111500771D01*
X168585681Y-111652658D01*
X168484405Y-111845154D01*
X168419903Y-112052882D01*
X168394337Y-112268887D01*
X168408563Y-112485933D01*
X168409984Y-112491529D01*
X168409985Y-112491534D01*
X168446404Y-112634930D01*
X168462105Y-112696753D01*
X168553168Y-112894285D01*
X168678704Y-113071914D01*
X168682846Y-113075949D01*
X168822241Y-113211741D01*
X168857079Y-113273602D01*
X168852942Y-113344478D01*
X168817399Y-113396726D01*
X168720342Y-113481842D01*
X168716770Y-113486373D01*
X168621126Y-113607697D01*
X168585681Y-113652658D01*
X168484405Y-113845154D01*
X168482692Y-113850671D01*
X168430589Y-114018469D01*
X168419903Y-114052882D01*
X168394337Y-114268887D01*
X168408563Y-114485933D01*
X168409984Y-114491529D01*
X168409985Y-114491534D01*
X168460684Y-114691158D01*
X168462105Y-114696753D01*
X168553168Y-114894285D01*
X168556501Y-114899001D01*
X168654037Y-115037011D01*
X168677018Y-115104185D01*
X168660034Y-115173120D01*
X168626705Y-115210557D01*
X168557491Y-115262430D01*
X168544930Y-115274991D01*
X168469799Y-115375237D01*
X168461267Y-115390823D01*
X168416914Y-115509133D01*
X168413289Y-115524379D01*
X168407869Y-115574271D01*
X168407500Y-115581085D01*
X168407500Y-115781885D01*
X168411975Y-115797124D01*
X168413365Y-115798329D01*
X168421048Y-115800000D01*
X170739385Y-115800000D01*
X170754624Y-115795525D01*
X170755829Y-115794135D01*
X170757500Y-115786452D01*
X170757500Y-115581085D01*
X170757131Y-115574271D01*
X170751711Y-115524379D01*
X170748086Y-115509133D01*
X170703733Y-115390823D01*
X170695201Y-115375237D01*
X170620070Y-115274991D01*
X170607509Y-115262430D01*
X170537380Y-115209871D01*
X170494865Y-115153012D01*
X170489839Y-115082193D01*
X170516070Y-115028476D01*
X170527671Y-115014528D01*
X170562032Y-114973213D01*
X170668313Y-114783435D01*
X170670169Y-114777968D01*
X170670171Y-114777963D01*
X170736374Y-114582935D01*
X170736375Y-114582930D01*
X170738230Y-114577466D01*
X170769441Y-114362205D01*
X170771070Y-114300000D01*
X170751167Y-114083400D01*
X170748571Y-114074193D01*
X170699992Y-113901945D01*
X170692126Y-113874055D01*
X170595923Y-113678974D01*
X170583716Y-113662626D01*
X170469233Y-113509315D01*
X170469232Y-113509314D01*
X170465780Y-113504691D01*
X170343578Y-113391729D01*
X170307133Y-113330800D01*
X170309414Y-113259840D01*
X170348538Y-113202330D01*
X170418508Y-113144137D01*
X170422946Y-113140446D01*
X170447077Y-113111431D01*
X170506013Y-113071847D01*
X170543951Y-113066000D01*
X189751922Y-113066000D01*
X189769455Y-113067226D01*
X189776245Y-113068180D01*
X189788852Y-113069952D01*
X189788855Y-113069952D01*
X189792760Y-113070501D01*
X189801003Y-113070616D01*
X189810111Y-113070744D01*
X189810117Y-113070744D01*
X189814073Y-113070799D01*
X189833517Y-113068618D01*
X189841363Y-113067986D01*
X189946889Y-113062802D01*
X190081691Y-113056180D01*
X190081696Y-113056180D01*
X190084780Y-113056028D01*
X190352879Y-113016259D01*
X190615789Y-112950404D01*
X190870979Y-112859095D01*
X191020287Y-112788478D01*
X191113208Y-112744530D01*
X191113212Y-112744528D01*
X191115990Y-112743214D01*
X191348462Y-112603875D01*
X191376696Y-112582935D01*
X191563672Y-112444265D01*
X191563675Y-112444262D01*
X191566158Y-112442421D01*
X191691388Y-112328919D01*
X191695975Y-112325169D01*
X191697394Y-112324308D01*
X191705771Y-112316910D01*
X191714546Y-112308135D01*
X191719026Y-112303869D01*
X191728911Y-112294910D01*
X191737696Y-112287644D01*
X191749576Y-112278692D01*
X191749583Y-112278686D01*
X191752740Y-112276307D01*
X191755575Y-112273550D01*
X191755581Y-112273545D01*
X191765180Y-112264210D01*
X191765182Y-112264208D01*
X191768021Y-112261447D01*
X191790489Y-112233302D01*
X191799865Y-112222816D01*
X192822459Y-111200222D01*
X199581169Y-111200222D01*
X199582485Y-111205378D01*
X200287188Y-111910081D01*
X200301132Y-111917695D01*
X200302965Y-111917564D01*
X200309580Y-111913313D01*
X201011775Y-111211118D01*
X201018535Y-111198738D01*
X201015346Y-111194478D01*
X200800529Y-111105498D01*
X200791144Y-111102449D01*
X200555882Y-111045967D01*
X200546135Y-111044424D01*
X200304930Y-111025440D01*
X200295070Y-111025440D01*
X200053865Y-111044424D01*
X200044118Y-111045967D01*
X199808856Y-111102449D01*
X199799471Y-111105498D01*
X199592150Y-111191373D01*
X199581169Y-111200222D01*
X192822459Y-111200222D01*
X192920232Y-111102449D01*
X194053438Y-109969242D01*
X194115750Y-109935217D01*
X194147479Y-109932434D01*
X194207262Y-109934782D01*
X194262205Y-109936941D01*
X194477466Y-109905730D01*
X194482930Y-109903875D01*
X194482935Y-109903874D01*
X194677963Y-109837671D01*
X194677968Y-109837669D01*
X194683435Y-109835813D01*
X194703058Y-109824824D01*
X194762872Y-109791326D01*
X194873213Y-109729532D01*
X195040446Y-109590446D01*
X195100252Y-109518537D01*
X195159189Y-109478953D01*
X195230171Y-109477517D01*
X195292913Y-109517258D01*
X195296204Y-109521914D01*
X195300347Y-109525950D01*
X195300348Y-109525951D01*
X195366554Y-109590446D01*
X195452009Y-109673692D01*
X195632863Y-109794536D01*
X195638171Y-109796817D01*
X195638172Y-109796817D01*
X195827409Y-109878119D01*
X195827412Y-109878120D01*
X195832712Y-109880397D01*
X195838342Y-109881671D01*
X195936464Y-109903874D01*
X196044860Y-109928402D01*
X196050631Y-109928629D01*
X196050633Y-109928629D01*
X196123620Y-109931496D01*
X196262205Y-109936941D01*
X196477466Y-109905730D01*
X196482930Y-109903875D01*
X196482935Y-109903874D01*
X196677963Y-109837671D01*
X196677968Y-109837669D01*
X196683435Y-109835813D01*
X196703058Y-109824824D01*
X196762872Y-109791326D01*
X196873213Y-109729532D01*
X197040446Y-109590446D01*
X197179532Y-109423213D01*
X197264539Y-109271422D01*
X197282989Y-109238478D01*
X197282990Y-109238476D01*
X197285813Y-109233435D01*
X197287669Y-109227968D01*
X197287671Y-109227963D01*
X197353874Y-109032935D01*
X197353875Y-109032930D01*
X197355730Y-109027466D01*
X197386941Y-108812205D01*
X197388570Y-108750000D01*
X197368667Y-108533400D01*
X197362287Y-108510776D01*
X197333717Y-108409476D01*
X197309626Y-108324055D01*
X197213423Y-108128974D01*
X197145361Y-108037827D01*
X197086733Y-107959315D01*
X197086732Y-107959314D01*
X197083280Y-107954691D01*
X197011385Y-107888232D01*
X196927796Y-107810963D01*
X196927793Y-107810961D01*
X196923556Y-107807044D01*
X196739599Y-107690976D01*
X196537572Y-107610376D01*
X196324239Y-107567941D01*
X196318464Y-107567865D01*
X196318460Y-107567865D01*
X196209419Y-107566438D01*
X196106746Y-107565094D01*
X196101049Y-107566073D01*
X196101048Y-107566073D01*
X195898065Y-107600952D01*
X195898062Y-107600953D01*
X195892375Y-107601930D01*
X195688307Y-107677214D01*
X195659997Y-107694057D01*
X195543426Y-107763410D01*
X195501376Y-107788427D01*
X195337842Y-107931842D01*
X195334270Y-107936372D01*
X195334269Y-107936374D01*
X195300007Y-107979834D01*
X195242125Y-108020947D01*
X195171205Y-108024239D01*
X195109763Y-107988667D01*
X195100100Y-107977215D01*
X195086737Y-107959319D01*
X195086730Y-107959312D01*
X195083280Y-107954691D01*
X195011385Y-107888232D01*
X194927796Y-107810963D01*
X194927793Y-107810961D01*
X194923556Y-107807044D01*
X194739599Y-107690976D01*
X194537572Y-107610376D01*
X194324239Y-107567941D01*
X194318464Y-107567865D01*
X194318460Y-107567865D01*
X194209419Y-107566438D01*
X194106746Y-107565094D01*
X194101049Y-107566073D01*
X194101048Y-107566073D01*
X193898065Y-107600952D01*
X193898062Y-107600953D01*
X193892375Y-107601930D01*
X193688307Y-107677214D01*
X193659997Y-107694057D01*
X193543426Y-107763410D01*
X193501376Y-107788427D01*
X193337842Y-107931842D01*
X193334270Y-107936372D01*
X193334269Y-107936374D01*
X193300007Y-107979834D01*
X193242125Y-108020947D01*
X193171205Y-108024239D01*
X193109763Y-107988667D01*
X193100100Y-107977215D01*
X193086737Y-107959319D01*
X193086730Y-107959312D01*
X193083280Y-107954691D01*
X193011385Y-107888232D01*
X192927796Y-107810963D01*
X192927793Y-107810961D01*
X192923556Y-107807044D01*
X192739599Y-107690976D01*
X192537572Y-107610376D01*
X192324239Y-107567941D01*
X192318464Y-107567865D01*
X192318460Y-107567865D01*
X192209419Y-107566438D01*
X192106746Y-107565094D01*
X192101049Y-107566073D01*
X192101048Y-107566073D01*
X191898065Y-107600952D01*
X191898062Y-107600953D01*
X191892375Y-107601930D01*
X191688307Y-107677214D01*
X191659997Y-107694057D01*
X191543426Y-107763410D01*
X191501376Y-107788427D01*
X191337842Y-107931842D01*
X191334270Y-107936372D01*
X191334269Y-107936374D01*
X191300007Y-107979834D01*
X191242125Y-108020947D01*
X191171205Y-108024239D01*
X191109763Y-107988667D01*
X191100100Y-107977215D01*
X191086737Y-107959319D01*
X191086730Y-107959312D01*
X191083280Y-107954691D01*
X191011385Y-107888232D01*
X190927796Y-107810963D01*
X190927793Y-107810961D01*
X190923556Y-107807044D01*
X190739599Y-107690976D01*
X190537572Y-107610376D01*
X190324239Y-107567941D01*
X190318464Y-107567865D01*
X190318460Y-107567865D01*
X190209419Y-107566438D01*
X190106746Y-107565094D01*
X190101049Y-107566073D01*
X190101048Y-107566073D01*
X189898065Y-107600952D01*
X189898062Y-107600953D01*
X189892375Y-107601930D01*
X189688307Y-107677214D01*
X189659997Y-107694057D01*
X189543426Y-107763410D01*
X189501376Y-107788427D01*
X189337842Y-107931842D01*
X189334270Y-107936372D01*
X189334269Y-107936374D01*
X189300007Y-107979834D01*
X189242125Y-108020947D01*
X189171205Y-108024239D01*
X189109763Y-107988667D01*
X189100100Y-107977215D01*
X189086737Y-107959319D01*
X189086730Y-107959312D01*
X189083280Y-107954691D01*
X189011385Y-107888232D01*
X188927796Y-107810963D01*
X188927793Y-107810961D01*
X188923556Y-107807044D01*
X188739599Y-107690976D01*
X188537572Y-107610376D01*
X188324239Y-107567941D01*
X188318464Y-107567865D01*
X188318460Y-107567865D01*
X188209419Y-107566438D01*
X188106746Y-107565094D01*
X188101049Y-107566073D01*
X188101048Y-107566073D01*
X187898065Y-107600952D01*
X187898062Y-107600953D01*
X187892375Y-107601930D01*
X187688307Y-107677214D01*
X187659997Y-107694057D01*
X187543426Y-107763410D01*
X187501376Y-107788427D01*
X187337842Y-107931842D01*
X187334270Y-107936372D01*
X187334269Y-107936374D01*
X187300007Y-107979834D01*
X187242125Y-108020947D01*
X187171205Y-108024239D01*
X187109763Y-107988667D01*
X187100100Y-107977215D01*
X187086737Y-107959319D01*
X187086730Y-107959312D01*
X187083280Y-107954691D01*
X187011385Y-107888232D01*
X186927796Y-107810963D01*
X186927793Y-107810961D01*
X186923556Y-107807044D01*
X186739599Y-107690976D01*
X186537572Y-107610376D01*
X186324239Y-107567941D01*
X186318464Y-107567865D01*
X186318460Y-107567865D01*
X186209419Y-107566438D01*
X186106746Y-107565094D01*
X186101049Y-107566073D01*
X186101048Y-107566073D01*
X185898065Y-107600952D01*
X185898062Y-107600953D01*
X185892375Y-107601930D01*
X185688307Y-107677214D01*
X185659997Y-107694057D01*
X185543426Y-107763410D01*
X185501376Y-107788427D01*
X185337842Y-107931842D01*
X185334270Y-107936372D01*
X185334269Y-107936374D01*
X185300007Y-107979834D01*
X185242125Y-108020947D01*
X185171205Y-108024239D01*
X185109763Y-107988667D01*
X185100100Y-107977215D01*
X185086737Y-107959319D01*
X185086730Y-107959312D01*
X185083280Y-107954691D01*
X185011385Y-107888232D01*
X184927796Y-107810963D01*
X184927793Y-107810961D01*
X184923556Y-107807044D01*
X184739599Y-107690976D01*
X184537572Y-107610376D01*
X184442677Y-107591500D01*
X184382175Y-107579465D01*
X184317662Y-107544981D01*
X184166080Y-107393399D01*
X184154547Y-107380133D01*
X184142762Y-107364494D01*
X184140380Y-107361333D01*
X184137623Y-107358498D01*
X184137618Y-107358492D01*
X184128282Y-107348892D01*
X184128280Y-107348890D01*
X184125520Y-107346052D01*
X184110219Y-107333838D01*
X184104237Y-107328749D01*
X183923656Y-107165079D01*
X183911400Y-107155989D01*
X183742711Y-107030880D01*
X183699911Y-106974234D01*
X183694530Y-106903442D01*
X183728277Y-106840979D01*
X183790437Y-106806676D01*
X183806784Y-106804156D01*
X183849057Y-106800457D01*
X183922606Y-106794023D01*
X183922611Y-106794022D01*
X183928087Y-106793543D01*
X183933400Y-106792119D01*
X183933402Y-106792119D01*
X184143933Y-106735707D01*
X184143935Y-106735706D01*
X184149243Y-106734284D01*
X184163384Y-106727690D01*
X184351762Y-106639849D01*
X184351767Y-106639846D01*
X184356749Y-106637523D01*
X184476188Y-106553891D01*
X184539789Y-106509357D01*
X184539792Y-106509355D01*
X184544300Y-106506198D01*
X184706198Y-106344300D01*
X184712827Y-106334834D01*
X184834366Y-106161257D01*
X184837523Y-106156749D01*
X184839846Y-106151767D01*
X184839849Y-106151762D01*
X184855805Y-106117543D01*
X184902722Y-106064258D01*
X184970999Y-106044797D01*
X185038959Y-106065339D01*
X185084195Y-106117543D01*
X185100151Y-106151762D01*
X185100154Y-106151767D01*
X185102477Y-106156749D01*
X185105634Y-106161257D01*
X185227174Y-106334834D01*
X185233802Y-106344300D01*
X185395700Y-106506198D01*
X185400208Y-106509355D01*
X185400211Y-106509357D01*
X185463812Y-106553891D01*
X185583251Y-106637523D01*
X185588233Y-106639846D01*
X185588238Y-106639849D01*
X185776616Y-106727690D01*
X185790757Y-106734284D01*
X185796065Y-106735706D01*
X185796067Y-106735707D01*
X186006598Y-106792119D01*
X186006600Y-106792119D01*
X186011913Y-106793543D01*
X186240000Y-106813498D01*
X186468087Y-106793543D01*
X186473400Y-106792119D01*
X186473402Y-106792119D01*
X186683933Y-106735707D01*
X186683935Y-106735706D01*
X186689243Y-106734284D01*
X186703384Y-106727690D01*
X186891762Y-106639849D01*
X186891767Y-106639846D01*
X186896749Y-106637523D01*
X187016188Y-106553891D01*
X187079789Y-106509357D01*
X187079792Y-106509355D01*
X187084300Y-106506198D01*
X187246198Y-106344300D01*
X187252827Y-106334834D01*
X187374366Y-106161257D01*
X187377523Y-106156749D01*
X187379846Y-106151767D01*
X187379849Y-106151762D01*
X187395805Y-106117543D01*
X187442722Y-106064258D01*
X187510999Y-106044797D01*
X187578959Y-106065339D01*
X187624195Y-106117543D01*
X187640151Y-106151762D01*
X187640154Y-106151767D01*
X187642477Y-106156749D01*
X187645634Y-106161257D01*
X187767174Y-106334834D01*
X187773802Y-106344300D01*
X187935700Y-106506198D01*
X187940208Y-106509355D01*
X187940211Y-106509357D01*
X188003812Y-106553891D01*
X188123251Y-106637523D01*
X188128233Y-106639846D01*
X188128238Y-106639849D01*
X188316616Y-106727690D01*
X188330757Y-106734284D01*
X188336065Y-106735706D01*
X188336067Y-106735707D01*
X188546598Y-106792119D01*
X188546600Y-106792119D01*
X188551913Y-106793543D01*
X188780000Y-106813498D01*
X189008087Y-106793543D01*
X189013400Y-106792119D01*
X189013402Y-106792119D01*
X189223933Y-106735707D01*
X189223935Y-106735706D01*
X189229243Y-106734284D01*
X189243384Y-106727690D01*
X189431762Y-106639849D01*
X189431767Y-106639846D01*
X189436749Y-106637523D01*
X189556188Y-106553891D01*
X189619789Y-106509357D01*
X189619792Y-106509355D01*
X189624300Y-106506198D01*
X189786198Y-106344300D01*
X189792827Y-106334834D01*
X189914366Y-106161257D01*
X189917523Y-106156749D01*
X189919846Y-106151767D01*
X189919849Y-106151762D01*
X189935805Y-106117543D01*
X189982722Y-106064258D01*
X190050999Y-106044797D01*
X190118959Y-106065339D01*
X190164195Y-106117543D01*
X190180151Y-106151762D01*
X190180154Y-106151767D01*
X190182477Y-106156749D01*
X190185634Y-106161257D01*
X190307174Y-106334834D01*
X190313802Y-106344300D01*
X190475700Y-106506198D01*
X190480208Y-106509355D01*
X190480211Y-106509357D01*
X190543812Y-106553891D01*
X190663251Y-106637523D01*
X190668233Y-106639846D01*
X190668238Y-106639849D01*
X190856616Y-106727690D01*
X190870757Y-106734284D01*
X190876065Y-106735706D01*
X190876067Y-106735707D01*
X191086598Y-106792119D01*
X191086600Y-106792119D01*
X191091913Y-106793543D01*
X191320000Y-106813498D01*
X191548087Y-106793543D01*
X191553400Y-106792119D01*
X191553402Y-106792119D01*
X191763933Y-106735707D01*
X191763935Y-106735706D01*
X191769243Y-106734284D01*
X191783384Y-106727690D01*
X191971762Y-106639849D01*
X191971767Y-106639846D01*
X191976749Y-106637523D01*
X192096188Y-106553891D01*
X192159789Y-106509357D01*
X192159792Y-106509355D01*
X192164300Y-106506198D01*
X192326198Y-106344300D01*
X192332827Y-106334834D01*
X192454366Y-106161257D01*
X192457523Y-106156749D01*
X192459846Y-106151767D01*
X192459849Y-106151762D01*
X192475805Y-106117543D01*
X192522722Y-106064258D01*
X192590999Y-106044797D01*
X192658959Y-106065339D01*
X192704195Y-106117543D01*
X192720151Y-106151762D01*
X192720154Y-106151767D01*
X192722477Y-106156749D01*
X192725634Y-106161257D01*
X192847174Y-106334834D01*
X192853802Y-106344300D01*
X193015700Y-106506198D01*
X193020208Y-106509355D01*
X193020211Y-106509357D01*
X193083812Y-106553891D01*
X193203251Y-106637523D01*
X193208233Y-106639846D01*
X193208238Y-106639849D01*
X193396616Y-106727690D01*
X193410757Y-106734284D01*
X193416065Y-106735706D01*
X193416067Y-106735707D01*
X193626598Y-106792119D01*
X193626600Y-106792119D01*
X193631913Y-106793543D01*
X193860000Y-106813498D01*
X194088087Y-106793543D01*
X194093400Y-106792119D01*
X194093402Y-106792119D01*
X194303933Y-106735707D01*
X194303935Y-106735706D01*
X194309243Y-106734284D01*
X194323384Y-106727690D01*
X194511762Y-106639849D01*
X194511767Y-106639846D01*
X194516749Y-106637523D01*
X194636188Y-106553891D01*
X194699789Y-106509357D01*
X194699792Y-106509355D01*
X194704300Y-106506198D01*
X194866198Y-106344300D01*
X194869357Y-106339789D01*
X194872892Y-106335576D01*
X194874026Y-106336527D01*
X194924071Y-106296529D01*
X194994690Y-106289224D01*
X195058049Y-106321258D01*
X195094030Y-106382462D01*
X195097082Y-106399517D01*
X195098255Y-106410316D01*
X195149385Y-106546705D01*
X195236739Y-106663261D01*
X195353295Y-106750615D01*
X195489684Y-106801745D01*
X195551866Y-106808500D01*
X197248134Y-106808500D01*
X197310316Y-106801745D01*
X197446705Y-106750615D01*
X197563261Y-106663261D01*
X197650615Y-106546705D01*
X197701745Y-106410316D01*
X197708500Y-106348134D01*
X197708500Y-104651866D01*
X197701745Y-104589684D01*
X197650615Y-104453295D01*
X197563261Y-104336739D01*
X197446705Y-104249385D01*
X197310316Y-104198255D01*
X197248134Y-104191500D01*
X195551866Y-104191500D01*
X195489684Y-104198255D01*
X195353295Y-104249385D01*
X195236739Y-104336739D01*
X195149385Y-104453295D01*
X195098255Y-104589684D01*
X195097083Y-104600474D01*
X195096197Y-104602606D01*
X195095575Y-104605222D01*
X195095152Y-104605121D01*
X195069845Y-104666035D01*
X195011483Y-104706463D01*
X194940529Y-104708922D01*
X194879510Y-104672629D01*
X194872511Y-104663969D01*
X194869354Y-104660207D01*
X194866198Y-104655700D01*
X194704300Y-104493802D01*
X194699792Y-104490645D01*
X194699789Y-104490643D01*
X194621611Y-104435902D01*
X194516749Y-104362477D01*
X194511767Y-104360154D01*
X194511762Y-104360151D01*
X194314225Y-104268039D01*
X194314224Y-104268039D01*
X194309243Y-104265716D01*
X194303935Y-104264294D01*
X194303933Y-104264293D01*
X194093402Y-104207881D01*
X194093400Y-104207881D01*
X194088087Y-104206457D01*
X193860000Y-104186502D01*
X193631913Y-104206457D01*
X193626600Y-104207881D01*
X193626598Y-104207881D01*
X193416067Y-104264293D01*
X193416065Y-104264294D01*
X193410757Y-104265716D01*
X193405776Y-104268039D01*
X193405775Y-104268039D01*
X193208238Y-104360151D01*
X193208233Y-104360154D01*
X193203251Y-104362477D01*
X193098389Y-104435902D01*
X193020211Y-104490643D01*
X193020208Y-104490645D01*
X193015700Y-104493802D01*
X192853802Y-104655700D01*
X192850645Y-104660208D01*
X192850643Y-104660211D01*
X192825056Y-104696753D01*
X192722477Y-104843251D01*
X192720154Y-104848233D01*
X192720151Y-104848238D01*
X192704195Y-104882457D01*
X192657278Y-104935742D01*
X192589001Y-104955203D01*
X192521041Y-104934661D01*
X192475805Y-104882457D01*
X192459849Y-104848238D01*
X192459846Y-104848233D01*
X192457523Y-104843251D01*
X192354944Y-104696753D01*
X192329357Y-104660211D01*
X192329355Y-104660208D01*
X192326198Y-104655700D01*
X192164300Y-104493802D01*
X192159792Y-104490645D01*
X192159789Y-104490643D01*
X192081611Y-104435902D01*
X191976749Y-104362477D01*
X191971767Y-104360154D01*
X191971762Y-104360151D01*
X191774225Y-104268039D01*
X191774224Y-104268039D01*
X191769243Y-104265716D01*
X191763935Y-104264294D01*
X191763933Y-104264293D01*
X191553402Y-104207881D01*
X191553400Y-104207881D01*
X191548087Y-104206457D01*
X191320000Y-104186502D01*
X191314525Y-104186981D01*
X191157087Y-104200755D01*
X191087482Y-104186766D01*
X191057010Y-104164329D01*
X190786080Y-103893399D01*
X190774547Y-103880133D01*
X190762762Y-103864494D01*
X190760380Y-103861333D01*
X190757623Y-103858498D01*
X190757618Y-103858492D01*
X190748282Y-103848892D01*
X190748280Y-103848890D01*
X190745520Y-103846052D01*
X190730219Y-103833838D01*
X190724237Y-103828749D01*
X190543656Y-103665079D01*
X190535483Y-103659017D01*
X190328446Y-103505468D01*
X190325961Y-103503625D01*
X190093488Y-103364287D01*
X189907076Y-103276120D01*
X189851278Y-103249729D01*
X189851273Y-103249727D01*
X189848478Y-103248405D01*
X189783666Y-103225215D01*
X189596196Y-103158137D01*
X189596187Y-103158134D01*
X189593288Y-103157097D01*
X189590298Y-103156348D01*
X189590288Y-103156345D01*
X189333372Y-103091992D01*
X189333373Y-103091992D01*
X189330378Y-103091242D01*
X189062279Y-103051473D01*
X189059193Y-103051321D01*
X189059189Y-103051321D01*
X188893489Y-103043180D01*
X188887580Y-103042587D01*
X188885963Y-103042192D01*
X188878369Y-103041721D01*
X188876748Y-103041620D01*
X188876738Y-103041620D01*
X188874809Y-103041500D01*
X188862369Y-103041500D01*
X188856187Y-103041348D01*
X188847910Y-103040941D01*
X188842895Y-103040695D01*
X188831545Y-103039621D01*
X188828133Y-103039142D01*
X188812886Y-103036999D01*
X188804321Y-103036879D01*
X188795534Y-103036756D01*
X188795528Y-103036756D01*
X188791573Y-103036701D01*
X188755965Y-103040695D01*
X188755787Y-103040715D01*
X188741742Y-103041500D01*
X178576366Y-103041500D01*
X178558833Y-103040274D01*
X178548663Y-103038845D01*
X178539436Y-103037548D01*
X178539433Y-103037548D01*
X178535528Y-103036999D01*
X178527386Y-103036885D01*
X178518178Y-103036756D01*
X178518171Y-103036756D01*
X178514215Y-103036701D01*
X178495090Y-103038846D01*
X178489303Y-103039359D01*
X178446086Y-103042192D01*
X178288304Y-103052533D01*
X178288297Y-103052534D01*
X178284192Y-103052803D01*
X178280159Y-103053605D01*
X178280153Y-103053606D01*
X178062155Y-103096969D01*
X178062149Y-103096971D01*
X178058105Y-103097775D01*
X178054196Y-103099102D01*
X178054192Y-103099103D01*
X177880284Y-103158137D01*
X177839822Y-103171872D01*
X177633078Y-103273826D01*
X177441410Y-103401894D01*
X177438305Y-103404617D01*
X177353865Y-103478670D01*
X177345472Y-103485419D01*
X177342800Y-103487385D01*
X177338000Y-103490298D01*
X177329624Y-103497696D01*
X177314723Y-103512597D01*
X177301457Y-103524130D01*
X177282654Y-103538299D01*
X177267373Y-103553159D01*
X177264902Y-103556255D01*
X177263641Y-103557645D01*
X177260747Y-103559890D01*
X177256280Y-103565328D01*
X177256275Y-103565333D01*
X177252914Y-103569425D01*
X177232258Y-103589409D01*
X177219695Y-103599048D01*
X177191208Y-103615494D01*
X177163611Y-103626924D01*
X177131844Y-103635436D01*
X177122927Y-103636610D01*
X177104720Y-103637676D01*
X177103432Y-103637658D01*
X177096444Y-103636775D01*
X177089437Y-103637462D01*
X177089433Y-103637462D01*
X177054385Y-103640899D01*
X177042089Y-103641500D01*
X176678915Y-103641500D01*
X176610794Y-103621498D01*
X176589897Y-103604673D01*
X176528483Y-103543366D01*
X176523303Y-103538195D01*
X176495526Y-103521073D01*
X176378968Y-103449225D01*
X176378966Y-103449224D01*
X176372738Y-103445385D01*
X176212254Y-103392155D01*
X176211389Y-103391868D01*
X176211387Y-103391868D01*
X176204861Y-103389703D01*
X176198025Y-103389003D01*
X176198022Y-103389002D01*
X176154969Y-103384591D01*
X176100400Y-103379000D01*
X175099600Y-103379000D01*
X175096354Y-103379337D01*
X175096350Y-103379337D01*
X175000692Y-103389262D01*
X175000688Y-103389263D01*
X174993834Y-103389974D01*
X174987298Y-103392155D01*
X174987296Y-103392155D01*
X174879500Y-103428119D01*
X174826054Y-103445950D01*
X174675652Y-103539022D01*
X174670479Y-103544204D01*
X174634142Y-103580604D01*
X174550695Y-103664197D01*
X174457885Y-103814762D01*
X174402203Y-103982639D01*
X174391500Y-104087100D01*
X174391500Y-104712900D01*
X174391837Y-104716146D01*
X174391837Y-104716150D01*
X174400341Y-104798106D01*
X174402474Y-104818666D01*
X174404655Y-104825202D01*
X174404655Y-104825204D01*
X174429276Y-104899001D01*
X174458450Y-104986446D01*
X174551522Y-105136848D01*
X174556704Y-105142021D01*
X174638109Y-105223284D01*
X174672188Y-105285566D01*
X174667185Y-105356386D01*
X174638264Y-105401475D01*
X174582798Y-105457038D01*
X174550695Y-105489197D01*
X174457885Y-105639762D01*
X174402203Y-105807639D01*
X174391500Y-105912100D01*
X174391500Y-106537900D01*
X174391837Y-106541146D01*
X174391837Y-106541150D01*
X174397035Y-106591242D01*
X174402474Y-106643666D01*
X174404655Y-106650202D01*
X174404655Y-106650204D01*
X174418941Y-106693024D01*
X174458450Y-106811446D01*
X174551522Y-106961848D01*
X174676697Y-107086805D01*
X174682927Y-107090645D01*
X174682928Y-107090646D01*
X174820090Y-107175194D01*
X174827262Y-107179615D01*
X174895746Y-107202330D01*
X174988611Y-107233132D01*
X174988613Y-107233132D01*
X174995139Y-107235297D01*
X175001975Y-107235997D01*
X175001978Y-107235998D01*
X175045031Y-107240409D01*
X175099600Y-107246000D01*
X176100400Y-107246000D01*
X176103646Y-107245663D01*
X176103650Y-107245663D01*
X176199308Y-107235738D01*
X176199312Y-107235737D01*
X176206166Y-107235026D01*
X176212702Y-107232845D01*
X176212704Y-107232845D01*
X176344806Y-107188772D01*
X176373946Y-107179050D01*
X176524348Y-107085978D01*
X176540587Y-107069710D01*
X176602871Y-107035632D01*
X176659171Y-107036210D01*
X176683070Y-107041947D01*
X176701878Y-107048058D01*
X176863542Y-107115023D01*
X176881157Y-107123998D01*
X177030354Y-107215425D01*
X177046347Y-107227044D01*
X177131677Y-107299923D01*
X177154546Y-107319455D01*
X177166828Y-107332330D01*
X177166841Y-107332317D01*
X177171754Y-107337369D01*
X177176070Y-107342933D01*
X177208734Y-107369763D01*
X177217844Y-107378025D01*
X177316545Y-107476726D01*
X177350571Y-107539038D01*
X177345506Y-107609853D01*
X177302959Y-107666689D01*
X177293752Y-107672966D01*
X177162194Y-107754376D01*
X177150795Y-107763410D01*
X177037582Y-107876821D01*
X177028570Y-107888232D01*
X176944484Y-108024646D01*
X176938337Y-108037827D01*
X176887749Y-108190343D01*
X176884882Y-108203719D01*
X176876864Y-108281977D01*
X176879592Y-108296676D01*
X176891827Y-108300000D01*
X178087629Y-108300000D01*
X178155750Y-108320002D01*
X178176724Y-108336905D01*
X178350595Y-108510776D01*
X178384621Y-108573088D01*
X178387500Y-108599871D01*
X178387500Y-109174000D01*
X178367498Y-109242121D01*
X178313842Y-109288614D01*
X178261500Y-109300000D01*
X176893133Y-109300000D01*
X176878816Y-109304204D01*
X176876757Y-109316761D01*
X176885851Y-109404416D01*
X176884294Y-109404578D01*
X176879716Y-109467216D01*
X176837081Y-109523985D01*
X176770523Y-109548693D01*
X176761729Y-109549000D01*
X170561064Y-109549000D01*
X170492943Y-109528998D01*
X170468272Y-109508029D01*
X170465780Y-109504691D01*
X170343578Y-109391729D01*
X170307133Y-109330800D01*
X170309414Y-109259840D01*
X170348538Y-109202330D01*
X170382602Y-109174000D01*
X170422946Y-109140446D01*
X170562032Y-108973213D01*
X170639015Y-108835750D01*
X170665489Y-108788478D01*
X170665490Y-108788476D01*
X170668313Y-108783435D01*
X170670169Y-108777968D01*
X170670171Y-108777963D01*
X170736374Y-108582935D01*
X170736375Y-108582930D01*
X170738230Y-108577466D01*
X170769441Y-108362205D01*
X170771070Y-108300000D01*
X170770731Y-108296305D01*
X170766724Y-108252706D01*
X170780408Y-108183041D01*
X170803100Y-108152081D01*
X171106603Y-107848578D01*
X171119869Y-107837045D01*
X171120831Y-107836320D01*
X171138665Y-107822881D01*
X171153947Y-107808021D01*
X171156414Y-107804930D01*
X171156419Y-107804925D01*
X171166148Y-107792737D01*
X171171260Y-107786728D01*
X171258045Y-107690976D01*
X171334920Y-107606158D01*
X171347927Y-107588621D01*
X171494531Y-107390947D01*
X171496374Y-107388462D01*
X171497957Y-107385821D01*
X171497963Y-107385812D01*
X171634130Y-107158630D01*
X171635713Y-107155989D01*
X171645164Y-107136008D01*
X171750274Y-106913770D01*
X171750274Y-106913769D01*
X171751594Y-106910979D01*
X171842903Y-106655789D01*
X171908758Y-106392879D01*
X171948527Y-106124779D01*
X171950560Y-106083400D01*
X171956820Y-105955989D01*
X171957413Y-105950080D01*
X171957808Y-105948463D01*
X171958500Y-105937309D01*
X171958500Y-105924869D01*
X171958652Y-105918685D01*
X171958818Y-105915317D01*
X171959305Y-105905395D01*
X171960379Y-105894045D01*
X171962451Y-105879299D01*
X171963001Y-105875386D01*
X171963299Y-105854073D01*
X171959285Y-105818286D01*
X171958500Y-105804242D01*
X171958500Y-102790578D01*
X171959726Y-102773042D01*
X171962452Y-102753648D01*
X171962452Y-102753645D01*
X171963001Y-102749740D01*
X171963299Y-102728427D01*
X171962104Y-102717770D01*
X171961820Y-102715240D01*
X171961422Y-102691304D01*
X171961434Y-102691158D01*
X171973008Y-102544099D01*
X171976101Y-102524571D01*
X171987082Y-102478830D01*
X172016951Y-102354419D01*
X172023059Y-102335620D01*
X172090023Y-102173955D01*
X172098997Y-102156344D01*
X172190428Y-102007143D01*
X172202049Y-101991148D01*
X172294452Y-101882958D01*
X172307326Y-101870677D01*
X172307313Y-101870663D01*
X172312369Y-101865746D01*
X172317932Y-101861431D01*
X172344756Y-101828775D01*
X172353025Y-101819656D01*
X173710957Y-100461723D01*
X173722826Y-100451258D01*
X173734613Y-100442115D01*
X173746359Y-100433004D01*
X173759370Y-100417164D01*
X173774898Y-100401335D01*
X173891154Y-100302043D01*
X173907143Y-100290427D01*
X174056343Y-100198998D01*
X174073958Y-100190022D01*
X174235621Y-100123058D01*
X174254426Y-100116948D01*
X174424571Y-100076100D01*
X174444099Y-100073007D01*
X174585946Y-100061843D01*
X174603737Y-100062263D01*
X174603737Y-100062243D01*
X174610777Y-100062341D01*
X174617770Y-100063225D01*
X174659828Y-100059101D01*
X174672125Y-100058500D01*
X197953689Y-100058500D01*
X198021810Y-100078502D01*
X198060833Y-100118196D01*
X198126522Y-100224348D01*
X198251697Y-100349305D01*
X198257927Y-100353145D01*
X198257928Y-100353146D01*
X198395090Y-100437694D01*
X198402262Y-100442115D01*
X198461379Y-100461723D01*
X198563611Y-100495632D01*
X198563613Y-100495632D01*
X198570139Y-100497797D01*
X198576975Y-100498497D01*
X198576978Y-100498498D01*
X198620031Y-100502909D01*
X198674600Y-100508500D01*
X199300400Y-100508500D01*
X199303646Y-100508163D01*
X199303650Y-100508163D01*
X199399308Y-100498238D01*
X199399312Y-100498237D01*
X199406166Y-100497526D01*
X199412702Y-100495345D01*
X199412704Y-100495345D01*
X199548600Y-100450006D01*
X199573946Y-100441550D01*
X199724348Y-100348478D01*
X199729521Y-100343296D01*
X199729526Y-100343292D01*
X199816789Y-100255876D01*
X199879071Y-100221796D01*
X199949891Y-100226799D01*
X199994980Y-100255720D01*
X200076820Y-100337418D01*
X200088232Y-100346430D01*
X200224646Y-100430516D01*
X200237827Y-100436663D01*
X200295306Y-100455728D01*
X200309399Y-100456217D01*
X200312500Y-100450006D01*
X200312500Y-100443315D01*
X201312500Y-100443315D01*
X201316473Y-100456846D01*
X201323299Y-100457827D01*
X201388372Y-100436117D01*
X201401541Y-100429948D01*
X201537804Y-100345626D01*
X201549205Y-100336590D01*
X201662418Y-100223179D01*
X201671430Y-100211768D01*
X201755516Y-100075354D01*
X201761663Y-100062173D01*
X201812251Y-99909657D01*
X201815118Y-99896281D01*
X201823136Y-99818023D01*
X201820408Y-99803324D01*
X201808173Y-99800000D01*
X201330615Y-99800000D01*
X201315376Y-99804475D01*
X201314171Y-99805865D01*
X201312500Y-99813548D01*
X201312500Y-100443315D01*
X200312500Y-100443315D01*
X200312500Y-98781885D01*
X201312500Y-98781885D01*
X201316975Y-98797124D01*
X201318365Y-98798329D01*
X201326048Y-98800000D01*
X201806867Y-98800000D01*
X201821184Y-98795796D01*
X201823243Y-98783239D01*
X201814860Y-98702441D01*
X201811968Y-98689047D01*
X201761118Y-98536632D01*
X201754944Y-98523453D01*
X201670626Y-98387196D01*
X201661590Y-98375795D01*
X201548179Y-98262582D01*
X201536768Y-98253570D01*
X201400354Y-98169484D01*
X201387173Y-98163337D01*
X201329694Y-98144272D01*
X201315601Y-98143783D01*
X201312500Y-98149994D01*
X201312500Y-98781885D01*
X200312500Y-98781885D01*
X200312500Y-98156685D01*
X200308527Y-98143154D01*
X200301701Y-98142173D01*
X200236628Y-98163883D01*
X200223459Y-98170052D01*
X200087196Y-98254374D01*
X200075795Y-98263410D01*
X199995232Y-98344114D01*
X199932950Y-98378193D01*
X199862130Y-98373190D01*
X199817042Y-98344270D01*
X199768695Y-98296008D01*
X199734615Y-98233726D01*
X199733076Y-98225322D01*
X199731064Y-98211753D01*
X199696259Y-97977121D01*
X199651517Y-97798498D01*
X199631157Y-97717217D01*
X199631157Y-97717216D01*
X199630404Y-97714211D01*
X199539095Y-97459021D01*
X199480534Y-97335203D01*
X199424530Y-97216792D01*
X199424528Y-97216788D01*
X199423214Y-97214010D01*
X199306814Y-97019809D01*
X199285464Y-96984189D01*
X199285464Y-96984188D01*
X199283875Y-96981538D01*
X199249944Y-96935787D01*
X199124268Y-96766332D01*
X199124265Y-96766328D01*
X199122421Y-96763842D01*
X199008915Y-96638607D01*
X199005172Y-96634029D01*
X199004308Y-96632605D01*
X198996910Y-96624229D01*
X198988135Y-96615454D01*
X198983869Y-96610974D01*
X198974910Y-96601089D01*
X198967644Y-96592304D01*
X198958692Y-96580424D01*
X198958686Y-96580417D01*
X198956307Y-96577260D01*
X198953550Y-96574425D01*
X198953545Y-96574419D01*
X198944210Y-96564820D01*
X198944208Y-96564818D01*
X198941447Y-96561979D01*
X198913302Y-96539511D01*
X198902816Y-96530135D01*
X198666080Y-96293399D01*
X198654547Y-96280133D01*
X198642762Y-96264494D01*
X198640380Y-96261333D01*
X198637623Y-96258498D01*
X198637618Y-96258492D01*
X198632343Y-96253068D01*
X198625520Y-96246052D01*
X198610225Y-96233842D01*
X198604263Y-96228769D01*
X198423657Y-96065078D01*
X198327596Y-95993834D01*
X198208446Y-95905467D01*
X198205961Y-95903624D01*
X198203312Y-95902036D01*
X198203311Y-95902035D01*
X197976130Y-95765869D01*
X197976131Y-95765869D01*
X197973489Y-95764286D01*
X197960949Y-95758355D01*
X197731270Y-95649724D01*
X197731261Y-95649720D01*
X197728478Y-95648404D01*
X197542324Y-95581797D01*
X197476197Y-95558136D01*
X197476188Y-95558133D01*
X197473289Y-95557096D01*
X197470299Y-95556347D01*
X197470289Y-95556344D01*
X197301199Y-95513990D01*
X197239979Y-95478035D01*
X197207917Y-95414691D01*
X197215191Y-95344068D01*
X197221879Y-95330200D01*
X197257943Y-95265803D01*
X197261087Y-95252060D01*
X197259428Y-95250790D01*
X197255180Y-95250000D01*
X195858649Y-95250000D01*
X195792815Y-95231433D01*
X195760166Y-95211426D01*
X195712534Y-95158779D01*
X195700000Y-95103993D01*
X195700000Y-94231885D01*
X196700000Y-94231885D01*
X196704475Y-94247124D01*
X196705865Y-94248329D01*
X196713548Y-94250000D01*
X197245513Y-94250000D01*
X197259044Y-94246027D01*
X197259588Y-94242242D01*
X197259226Y-94241073D01*
X197208699Y-94138615D01*
X197202689Y-94128807D01*
X197080389Y-93965027D01*
X197072699Y-93956487D01*
X196922599Y-93817735D01*
X196913474Y-93810734D01*
X196740608Y-93701664D01*
X196730357Y-93696441D01*
X196716829Y-93691044D01*
X196702786Y-93689720D01*
X196700000Y-93694559D01*
X196700000Y-94231885D01*
X195700000Y-94231885D01*
X195700000Y-93700076D01*
X195696027Y-93686545D01*
X195691242Y-93685857D01*
X195687020Y-93687871D01*
X195511361Y-93792377D01*
X195502049Y-93799141D01*
X195348375Y-93933911D01*
X195340458Y-93942254D01*
X195305274Y-93986885D01*
X195247393Y-94027998D01*
X195176473Y-94031292D01*
X195115030Y-93995721D01*
X195105366Y-93984267D01*
X195086737Y-93959319D01*
X195086730Y-93959312D01*
X195083280Y-93954691D01*
X195079044Y-93950775D01*
X194927796Y-93810963D01*
X194927793Y-93810961D01*
X194923556Y-93807044D01*
X194739599Y-93690976D01*
X194537572Y-93610376D01*
X194324239Y-93567941D01*
X194318464Y-93567865D01*
X194318460Y-93567865D01*
X194209419Y-93566438D01*
X194106746Y-93565094D01*
X194101049Y-93566073D01*
X194101048Y-93566073D01*
X193898065Y-93600952D01*
X193898062Y-93600953D01*
X193892375Y-93601930D01*
X193688307Y-93677214D01*
X193501376Y-93788427D01*
X193337842Y-93931842D01*
X193334270Y-93936372D01*
X193334269Y-93936374D01*
X193300007Y-93979834D01*
X193242125Y-94020947D01*
X193171205Y-94024239D01*
X193109763Y-93988667D01*
X193100100Y-93977215D01*
X193086737Y-93959319D01*
X193086730Y-93959312D01*
X193083280Y-93954691D01*
X193079044Y-93950775D01*
X192927796Y-93810963D01*
X192927793Y-93810961D01*
X192923556Y-93807044D01*
X192739599Y-93690976D01*
X192537572Y-93610376D01*
X192324239Y-93567941D01*
X192318464Y-93567865D01*
X192318460Y-93567865D01*
X192209419Y-93566438D01*
X192106746Y-93565094D01*
X192101049Y-93566073D01*
X192101048Y-93566073D01*
X191898065Y-93600952D01*
X191898062Y-93600953D01*
X191892375Y-93601930D01*
X191688307Y-93677214D01*
X191501376Y-93788427D01*
X191337842Y-93931842D01*
X191334270Y-93936372D01*
X191334269Y-93936374D01*
X191300007Y-93979834D01*
X191242125Y-94020947D01*
X191171205Y-94024239D01*
X191109763Y-93988667D01*
X191100100Y-93977215D01*
X191086737Y-93959319D01*
X191086730Y-93959312D01*
X191083280Y-93954691D01*
X191079044Y-93950775D01*
X190927796Y-93810963D01*
X190927793Y-93810961D01*
X190923556Y-93807044D01*
X190739599Y-93690976D01*
X190537572Y-93610376D01*
X190324239Y-93567941D01*
X190318464Y-93567865D01*
X190318460Y-93567865D01*
X190209419Y-93566438D01*
X190106746Y-93565094D01*
X190101049Y-93566073D01*
X190101048Y-93566073D01*
X189898065Y-93600952D01*
X189898062Y-93600953D01*
X189892375Y-93601930D01*
X189688307Y-93677214D01*
X189501376Y-93788427D01*
X189337842Y-93931842D01*
X189334270Y-93936372D01*
X189334269Y-93936374D01*
X189300007Y-93979834D01*
X189242125Y-94020947D01*
X189171205Y-94024239D01*
X189109763Y-93988667D01*
X189100100Y-93977215D01*
X189086737Y-93959319D01*
X189086730Y-93959312D01*
X189083280Y-93954691D01*
X189079044Y-93950775D01*
X188927796Y-93810963D01*
X188927793Y-93810961D01*
X188923556Y-93807044D01*
X188739599Y-93690976D01*
X188537572Y-93610376D01*
X188324239Y-93567941D01*
X188318464Y-93567865D01*
X188318460Y-93567865D01*
X188209419Y-93566438D01*
X188106746Y-93565094D01*
X188101049Y-93566073D01*
X188101048Y-93566073D01*
X187898065Y-93600952D01*
X187898062Y-93600953D01*
X187892375Y-93601930D01*
X187688307Y-93677214D01*
X187501376Y-93788427D01*
X187337842Y-93931842D01*
X187334270Y-93936372D01*
X187334269Y-93936374D01*
X187300007Y-93979834D01*
X187242125Y-94020947D01*
X187171205Y-94024239D01*
X187109763Y-93988667D01*
X187100100Y-93977215D01*
X187086737Y-93959319D01*
X187086730Y-93959312D01*
X187083280Y-93954691D01*
X187079044Y-93950775D01*
X186927796Y-93810963D01*
X186927793Y-93810961D01*
X186923556Y-93807044D01*
X186739599Y-93690976D01*
X186537572Y-93610376D01*
X186324239Y-93567941D01*
X186318464Y-93567865D01*
X186318460Y-93567865D01*
X186209419Y-93566438D01*
X186106746Y-93565094D01*
X186101049Y-93566073D01*
X186101048Y-93566073D01*
X185898065Y-93600952D01*
X185898062Y-93600953D01*
X185892375Y-93601930D01*
X185688307Y-93677214D01*
X185501376Y-93788427D01*
X185337842Y-93931842D01*
X185334270Y-93936372D01*
X185334269Y-93936374D01*
X185300007Y-93979834D01*
X185242125Y-94020947D01*
X185171205Y-94024239D01*
X185109763Y-93988667D01*
X185100100Y-93977215D01*
X185086737Y-93959319D01*
X185086730Y-93959312D01*
X185083280Y-93954691D01*
X185079044Y-93950775D01*
X184927796Y-93810963D01*
X184927793Y-93810961D01*
X184923556Y-93807044D01*
X184739599Y-93690976D01*
X184537572Y-93610376D01*
X184324239Y-93567941D01*
X184318464Y-93567865D01*
X184318460Y-93567865D01*
X184181535Y-93566073D01*
X184138746Y-93565513D01*
X184070893Y-93544621D01*
X184051300Y-93528619D01*
X183316080Y-92793399D01*
X183304547Y-92780133D01*
X183292762Y-92764494D01*
X183290380Y-92761333D01*
X183287623Y-92758498D01*
X183287618Y-92758492D01*
X183278282Y-92748892D01*
X183278280Y-92748890D01*
X183275520Y-92746052D01*
X183260219Y-92733838D01*
X183254237Y-92728749D01*
X183073656Y-92565079D01*
X182855961Y-92403625D01*
X182623488Y-92264287D01*
X182543082Y-92226257D01*
X182381278Y-92149729D01*
X182381271Y-92149726D01*
X182378478Y-92148405D01*
X182303546Y-92121594D01*
X182126196Y-92058137D01*
X182126187Y-92058134D01*
X182123288Y-92057097D01*
X182120298Y-92056348D01*
X182120288Y-92056345D01*
X181863372Y-91991992D01*
X181863373Y-91991992D01*
X181860378Y-91991242D01*
X181592279Y-91951473D01*
X181589193Y-91951321D01*
X181589189Y-91951321D01*
X181423489Y-91943180D01*
X181417580Y-91942587D01*
X181415963Y-91942192D01*
X181408369Y-91941721D01*
X181406748Y-91941620D01*
X181406738Y-91941620D01*
X181404809Y-91941500D01*
X181392369Y-91941500D01*
X181386187Y-91941348D01*
X181377910Y-91940941D01*
X181372895Y-91940695D01*
X181361545Y-91939621D01*
X181356293Y-91938883D01*
X181342886Y-91936999D01*
X181334321Y-91936879D01*
X181325534Y-91936756D01*
X181325528Y-91936756D01*
X181321573Y-91936701D01*
X181285965Y-91940695D01*
X181285787Y-91940715D01*
X181271742Y-91941500D01*
X168690578Y-91941500D01*
X168673045Y-91940274D01*
X168663146Y-91938883D01*
X168653648Y-91937548D01*
X168653645Y-91937548D01*
X168649740Y-91936999D01*
X168641391Y-91936882D01*
X168632388Y-91936756D01*
X168632382Y-91936756D01*
X168628427Y-91936701D01*
X168608974Y-91938883D01*
X168601113Y-91939516D01*
X168577112Y-91940695D01*
X168360810Y-91951321D01*
X168360805Y-91951321D01*
X168357721Y-91951473D01*
X168089621Y-91991242D01*
X167826711Y-92057097D01*
X167571521Y-92148406D01*
X167568731Y-92149726D01*
X167568730Y-92149726D01*
X167329317Y-92262960D01*
X167326511Y-92264287D01*
X167323869Y-92265870D01*
X167323870Y-92265870D01*
X167096688Y-92402037D01*
X167096679Y-92402043D01*
X167094038Y-92403626D01*
X167091554Y-92405468D01*
X167091553Y-92405469D01*
X166880715Y-92561837D01*
X166876342Y-92565080D01*
X166874045Y-92567162D01*
X166751127Y-92678568D01*
X166746526Y-92682330D01*
X166745106Y-92683192D01*
X166736729Y-92690590D01*
X166727950Y-92699369D01*
X166723472Y-92703633D01*
X166713594Y-92712586D01*
X166704805Y-92719856D01*
X166693017Y-92728739D01*
X166689760Y-92731193D01*
X166674479Y-92746053D01*
X166672007Y-92749150D01*
X166652011Y-92774198D01*
X166642635Y-92784684D01*
X166393399Y-93033920D01*
X166380133Y-93045453D01*
X166361333Y-93059620D01*
X166358498Y-93062377D01*
X166358492Y-93062382D01*
X166353601Y-93067139D01*
X166346052Y-93074480D01*
X166333842Y-93089775D01*
X166328769Y-93095737D01*
X166165078Y-93276343D01*
X166163234Y-93278829D01*
X166163231Y-93278833D01*
X166031752Y-93456113D01*
X166003624Y-93494039D01*
X166002041Y-93496680D01*
X166002035Y-93496689D01*
X165888653Y-93685857D01*
X165864286Y-93726511D01*
X165862972Y-93729290D01*
X165862970Y-93729293D01*
X165749724Y-93968730D01*
X165749720Y-93968739D01*
X165748404Y-93971522D01*
X165718689Y-94054570D01*
X165680454Y-94161431D01*
X165657096Y-94226711D01*
X165656347Y-94229701D01*
X165656344Y-94229711D01*
X165639952Y-94295154D01*
X165591241Y-94489622D01*
X165551472Y-94757721D01*
X165551320Y-94760807D01*
X165551320Y-94760811D01*
X165543179Y-94926520D01*
X165542587Y-94932422D01*
X165542192Y-94934037D01*
X165541500Y-94945191D01*
X165541500Y-94957611D01*
X165541348Y-94963795D01*
X165540156Y-94988054D01*
X165539315Y-94997660D01*
X165536775Y-95017770D01*
X165537462Y-95024777D01*
X165537462Y-95024780D01*
X165540899Y-95059829D01*
X165541500Y-95072125D01*
X165541500Y-96246970D01*
X165521498Y-96315091D01*
X165504595Y-96336065D01*
X163560493Y-98280167D01*
X163553733Y-98292547D01*
X163554197Y-98293167D01*
X163560190Y-98295982D01*
X163780199Y-98348802D01*
X163789939Y-98350345D01*
X164035070Y-98369637D01*
X164044930Y-98369637D01*
X164290058Y-98350345D01*
X164299805Y-98348802D01*
X164363745Y-98333451D01*
X164434653Y-98336998D01*
X164492387Y-98378318D01*
X164518617Y-98444292D01*
X164505014Y-98513973D01*
X164482254Y-98545065D01*
X163889034Y-99138285D01*
X163877172Y-99148743D01*
X163853640Y-99166997D01*
X163849165Y-99172445D01*
X163849164Y-99172446D01*
X163840637Y-99182827D01*
X163825104Y-99198662D01*
X163708846Y-99297956D01*
X163692857Y-99309573D01*
X163543650Y-99401007D01*
X163526045Y-99409977D01*
X163364375Y-99476943D01*
X163345581Y-99483049D01*
X163175429Y-99523899D01*
X163155901Y-99526992D01*
X163014046Y-99538156D01*
X162996259Y-99537737D01*
X162996259Y-99537757D01*
X162989225Y-99537659D01*
X162982230Y-99536775D01*
X162942390Y-99540681D01*
X162940171Y-99540899D01*
X162927875Y-99541500D01*
X156490578Y-99541500D01*
X156473045Y-99540274D01*
X156464051Y-99539010D01*
X156453648Y-99537548D01*
X156453645Y-99537548D01*
X156449740Y-99536999D01*
X156441497Y-99536884D01*
X156432389Y-99536756D01*
X156432383Y-99536756D01*
X156428427Y-99536701D01*
X156408983Y-99538882D01*
X156401137Y-99539514D01*
X156295611Y-99544698D01*
X156160809Y-99551320D01*
X156160804Y-99551320D01*
X156157720Y-99551472D01*
X155889621Y-99591241D01*
X155626711Y-99657096D01*
X155371521Y-99748405D01*
X155126510Y-99864286D01*
X154894038Y-100003625D01*
X154891553Y-100005468D01*
X154739557Y-100118196D01*
X154676342Y-100165079D01*
X154551107Y-100278585D01*
X154546529Y-100282328D01*
X154545105Y-100283192D01*
X154540904Y-100286903D01*
X154540902Y-100286904D01*
X154538204Y-100289287D01*
X154536729Y-100290590D01*
X154527954Y-100299365D01*
X154523474Y-100303631D01*
X154513589Y-100312590D01*
X154504804Y-100319856D01*
X154492924Y-100328808D01*
X154492917Y-100328814D01*
X154489760Y-100331193D01*
X154486925Y-100333950D01*
X154486919Y-100333955D01*
X154477320Y-100343290D01*
X154474479Y-100346053D01*
X154472007Y-100349150D01*
X154452011Y-100374198D01*
X154442635Y-100384684D01*
X154093399Y-100733920D01*
X154080133Y-100745453D01*
X154061333Y-100759620D01*
X154058498Y-100762377D01*
X154058492Y-100762382D01*
X154053601Y-100767139D01*
X154046052Y-100774480D01*
X154033842Y-100789775D01*
X154028769Y-100795737D01*
X153865078Y-100976343D01*
X153863234Y-100978829D01*
X153863231Y-100978833D01*
X153720933Y-101170700D01*
X153703624Y-101194039D01*
X153702041Y-101196680D01*
X153702035Y-101196689D01*
X153607770Y-101353962D01*
X153564286Y-101426511D01*
X153562972Y-101429290D01*
X153562970Y-101429293D01*
X153449724Y-101668730D01*
X153449720Y-101668739D01*
X153448404Y-101671522D01*
X153447364Y-101674429D01*
X153447364Y-101674430D01*
X153362728Y-101910971D01*
X153357096Y-101926711D01*
X153356347Y-101929701D01*
X153356344Y-101929711D01*
X153317848Y-102083400D01*
X153291241Y-102189622D01*
X153251472Y-102457721D01*
X153251320Y-102460807D01*
X153251320Y-102460811D01*
X153243179Y-102626520D01*
X153242587Y-102632422D01*
X153242192Y-102634037D01*
X153241500Y-102645191D01*
X153241500Y-102657611D01*
X153241348Y-102663795D01*
X153240156Y-102688054D01*
X153239315Y-102697660D01*
X153238605Y-102703284D01*
X153236775Y-102717770D01*
X153237462Y-102724777D01*
X153237462Y-102724780D01*
X153240899Y-102759829D01*
X153241500Y-102772125D01*
X153241500Y-109233090D01*
X153240506Y-109248882D01*
X153236775Y-109278416D01*
X152308000Y-109278416D01*
X152308000Y-98292547D01*
X158473733Y-98292547D01*
X158474197Y-98293167D01*
X158480190Y-98295982D01*
X158700199Y-98348802D01*
X158709939Y-98350345D01*
X158955070Y-98369637D01*
X158964930Y-98369637D01*
X159210061Y-98350345D01*
X159219801Y-98348802D01*
X159434704Y-98297208D01*
X159446932Y-98290187D01*
X159446860Y-98289413D01*
X159443220Y-98283880D01*
X158972812Y-97813472D01*
X158958868Y-97805858D01*
X158957035Y-97805989D01*
X158950420Y-97810240D01*
X158480493Y-98280167D01*
X158473733Y-98292547D01*
X152308000Y-98292547D01*
X152308000Y-96744930D01*
X157330363Y-96744930D01*
X157349655Y-96990061D01*
X157351198Y-96999801D01*
X157402792Y-97214704D01*
X157409813Y-97226932D01*
X157410587Y-97226860D01*
X157416120Y-97223220D01*
X157886528Y-96752812D01*
X157892906Y-96741132D01*
X160025858Y-96741132D01*
X160025989Y-96742965D01*
X160030240Y-96749580D01*
X160500167Y-97219507D01*
X160512547Y-97226267D01*
X160513167Y-97225803D01*
X160515982Y-97219810D01*
X160568802Y-96999801D01*
X160570345Y-96990061D01*
X160589637Y-96744930D01*
X162410363Y-96744930D01*
X162429655Y-96990061D01*
X162431198Y-96999801D01*
X162482792Y-97214704D01*
X162489813Y-97226932D01*
X162490587Y-97226860D01*
X162496120Y-97223220D01*
X162966528Y-96752812D01*
X162974142Y-96738868D01*
X162974011Y-96737035D01*
X162969760Y-96730420D01*
X162499833Y-96260493D01*
X162487453Y-96253733D01*
X162486833Y-96254197D01*
X162484018Y-96260190D01*
X162431198Y-96480199D01*
X162429655Y-96489939D01*
X162410363Y-96735070D01*
X162410363Y-96744930D01*
X160589637Y-96744930D01*
X160589637Y-96735070D01*
X160570345Y-96489939D01*
X160568802Y-96480199D01*
X160517208Y-96265296D01*
X160510187Y-96253068D01*
X160509413Y-96253140D01*
X160503880Y-96256780D01*
X160033472Y-96727188D01*
X160025858Y-96741132D01*
X157892906Y-96741132D01*
X157894142Y-96738868D01*
X157894011Y-96737035D01*
X157889760Y-96730420D01*
X157419833Y-96260493D01*
X157407453Y-96253733D01*
X157406833Y-96254197D01*
X157404018Y-96260190D01*
X157351198Y-96480199D01*
X157349655Y-96489939D01*
X157330363Y-96735070D01*
X157330363Y-96744930D01*
X152308000Y-96744930D01*
X152308000Y-94844000D01*
X152328002Y-94775879D01*
X152381658Y-94729386D01*
X152451932Y-94719282D01*
X152516512Y-94748776D01*
X152524254Y-94756079D01*
X152571155Y-94804224D01*
X152571160Y-94804228D01*
X152573814Y-94806953D01*
X152646635Y-94865607D01*
X152825196Y-95009431D01*
X152825201Y-95009435D01*
X152828149Y-95011809D01*
X153105253Y-95184627D01*
X153401112Y-95322903D01*
X153496494Y-95354171D01*
X153634907Y-95399545D01*
X153711440Y-95424634D01*
X153715154Y-95425373D01*
X153715155Y-95425373D01*
X153733088Y-95428940D01*
X154031742Y-95488346D01*
X154035514Y-95488633D01*
X154035522Y-95488634D01*
X154353602Y-95512829D01*
X154353607Y-95512829D01*
X154357379Y-95513116D01*
X154683633Y-95498586D01*
X154743425Y-95488634D01*
X155002037Y-95445590D01*
X155002042Y-95445589D01*
X155005778Y-95444967D01*
X155319149Y-95353034D01*
X155322616Y-95351544D01*
X155322620Y-95351543D01*
X155615721Y-95225616D01*
X155615723Y-95225615D01*
X155619205Y-95224119D01*
X155678267Y-95189813D01*
X158473068Y-95189813D01*
X158473140Y-95190587D01*
X158476780Y-95196120D01*
X158947188Y-95666528D01*
X158961132Y-95674142D01*
X158962965Y-95674011D01*
X158969580Y-95669760D01*
X159439507Y-95199833D01*
X159446267Y-95187453D01*
X159445803Y-95186833D01*
X159439810Y-95184018D01*
X159219801Y-95131198D01*
X159210061Y-95129655D01*
X158964930Y-95110363D01*
X158955070Y-95110363D01*
X158709939Y-95129655D01*
X158700199Y-95131198D01*
X158485296Y-95182792D01*
X158473068Y-95189813D01*
X155678267Y-95189813D01*
X155901601Y-95060091D01*
X156162245Y-94863324D01*
X156301185Y-94729386D01*
X156394632Y-94639303D01*
X156394635Y-94639300D01*
X156397363Y-94636670D01*
X156540268Y-94461139D01*
X156601155Y-94386351D01*
X156601158Y-94386347D01*
X156603549Y-94383410D01*
X156651670Y-94307143D01*
X156719272Y-94200000D01*
X159861449Y-94200000D01*
X159881622Y-94456326D01*
X159882776Y-94461133D01*
X159882777Y-94461139D01*
X159920796Y-94619498D01*
X159941645Y-94706340D01*
X159943538Y-94710911D01*
X159943539Y-94710913D01*
X160038133Y-94939282D01*
X160040040Y-94943887D01*
X160174384Y-95163116D01*
X160341369Y-95358631D01*
X160536884Y-95525616D01*
X160756113Y-95659960D01*
X160760683Y-95661853D01*
X160760687Y-95661855D01*
X160964095Y-95746109D01*
X160993660Y-95758355D01*
X161080502Y-95779204D01*
X161238861Y-95817223D01*
X161238867Y-95817224D01*
X161243674Y-95818378D01*
X161500000Y-95838551D01*
X161756326Y-95818378D01*
X161761133Y-95817224D01*
X161761139Y-95817223D01*
X161919498Y-95779204D01*
X162006340Y-95758355D01*
X162035905Y-95746109D01*
X162239313Y-95661855D01*
X162239317Y-95661853D01*
X162243887Y-95659960D01*
X162463116Y-95525616D01*
X162658631Y-95358631D01*
X162802815Y-95189813D01*
X163553068Y-95189813D01*
X163553140Y-95190587D01*
X163556780Y-95196120D01*
X164027188Y-95666528D01*
X164041132Y-95674142D01*
X164042965Y-95674011D01*
X164049580Y-95669760D01*
X164519507Y-95199833D01*
X164526267Y-95187453D01*
X164525803Y-95186833D01*
X164519810Y-95184018D01*
X164299801Y-95131198D01*
X164290061Y-95129655D01*
X164044930Y-95110363D01*
X164035070Y-95110363D01*
X163789939Y-95129655D01*
X163780199Y-95131198D01*
X163565296Y-95182792D01*
X163553068Y-95189813D01*
X162802815Y-95189813D01*
X162825616Y-95163116D01*
X162959960Y-94943887D01*
X162961868Y-94939282D01*
X163056461Y-94710913D01*
X163056462Y-94710911D01*
X163058355Y-94706340D01*
X163079204Y-94619498D01*
X163117223Y-94461139D01*
X163117224Y-94461133D01*
X163118378Y-94456326D01*
X163138551Y-94200000D01*
X163118378Y-93943674D01*
X163116626Y-93936374D01*
X163068515Y-93735981D01*
X163058355Y-93693660D01*
X163052766Y-93680167D01*
X162961855Y-93460687D01*
X162961853Y-93460683D01*
X162959960Y-93456113D01*
X162825616Y-93236884D01*
X162804830Y-93212547D01*
X163553733Y-93212547D01*
X163554197Y-93213167D01*
X163560190Y-93215982D01*
X163780199Y-93268802D01*
X163789939Y-93270345D01*
X164035070Y-93289637D01*
X164044930Y-93289637D01*
X164290061Y-93270345D01*
X164299801Y-93268802D01*
X164514704Y-93217208D01*
X164526932Y-93210187D01*
X164526860Y-93209413D01*
X164523220Y-93203880D01*
X164052812Y-92733472D01*
X164038868Y-92725858D01*
X164037035Y-92725989D01*
X164030420Y-92730240D01*
X163560493Y-93200167D01*
X163553733Y-93212547D01*
X162804830Y-93212547D01*
X162658631Y-93041369D01*
X162463116Y-92874384D01*
X162243887Y-92740040D01*
X162239317Y-92738147D01*
X162239313Y-92738145D01*
X162010913Y-92643539D01*
X162010911Y-92643538D01*
X162006340Y-92641645D01*
X161919498Y-92620796D01*
X161761139Y-92582777D01*
X161761133Y-92582776D01*
X161756326Y-92581622D01*
X161500000Y-92561449D01*
X161243674Y-92581622D01*
X161238867Y-92582776D01*
X161238861Y-92582777D01*
X161080502Y-92620796D01*
X160993660Y-92641645D01*
X160989089Y-92643538D01*
X160989087Y-92643539D01*
X160760687Y-92738145D01*
X160760683Y-92738147D01*
X160756113Y-92740040D01*
X160536884Y-92874384D01*
X160341369Y-93041369D01*
X160174384Y-93236884D01*
X160040040Y-93456113D01*
X160038147Y-93460683D01*
X160038145Y-93460687D01*
X159947234Y-93680167D01*
X159941645Y-93693660D01*
X159931485Y-93735981D01*
X159883375Y-93936374D01*
X159881622Y-93943674D01*
X159861449Y-94200000D01*
X156719272Y-94200000D01*
X156775788Y-94110428D01*
X156775790Y-94110425D01*
X156777815Y-94107215D01*
X156802757Y-94054570D01*
X156858754Y-93936373D01*
X156917638Y-93812084D01*
X156918840Y-93808482D01*
X157019790Y-93505897D01*
X157019792Y-93505891D01*
X157020992Y-93502293D01*
X157080206Y-93212547D01*
X158473733Y-93212547D01*
X158474197Y-93213167D01*
X158480190Y-93215982D01*
X158700199Y-93268802D01*
X158709939Y-93270345D01*
X158955070Y-93289637D01*
X158964930Y-93289637D01*
X159210061Y-93270345D01*
X159219801Y-93268802D01*
X159434704Y-93217208D01*
X159446932Y-93210187D01*
X159446860Y-93209413D01*
X159443220Y-93203880D01*
X158972812Y-92733472D01*
X158958868Y-92725858D01*
X158957035Y-92725989D01*
X158950420Y-92730240D01*
X158480493Y-93200167D01*
X158473733Y-93212547D01*
X157080206Y-93212547D01*
X157086381Y-93182329D01*
X157090111Y-93136477D01*
X157112674Y-92859061D01*
X157112856Y-92856826D01*
X157113451Y-92800000D01*
X157111896Y-92774198D01*
X157094026Y-92477793D01*
X157094026Y-92477789D01*
X157093798Y-92474015D01*
X157088650Y-92445824D01*
X157035805Y-92156473D01*
X157035804Y-92156469D01*
X157035125Y-92152751D01*
X157029522Y-92134704D01*
X156939404Y-91844477D01*
X156938282Y-91840863D01*
X156804670Y-91542869D01*
X156636226Y-91263084D01*
X156633899Y-91260100D01*
X156633894Y-91260093D01*
X156437726Y-91008558D01*
X156437724Y-91008556D01*
X156435390Y-91005563D01*
X156253643Y-90822862D01*
X156219781Y-90760461D01*
X156225031Y-90689659D01*
X156267726Y-90632934D01*
X156334311Y-90608298D01*
X156342971Y-90608000D01*
X157473831Y-90608000D01*
X157541952Y-90628002D01*
G37*
G04 #@! TD.AperFunction*
G04 #@! TA.AperFunction,Conductor*
G36*
X179962153Y-104996119D02*
G01*
X179968088Y-105000000D01*
X181534000Y-105000000D01*
X181602121Y-105020002D01*
X181648614Y-105073658D01*
X181660000Y-105126000D01*
X181660000Y-105874000D01*
X181639998Y-105942121D01*
X181586342Y-105988614D01*
X181534000Y-106000000D01*
X179976877Y-106000000D01*
X179931762Y-106013247D01*
X179922310Y-106019322D01*
X179851313Y-106019324D01*
X179817847Y-106003881D01*
X179811912Y-106000000D01*
X177981324Y-106000000D01*
X177913203Y-105979998D01*
X177906289Y-105975221D01*
X177843462Y-105928625D01*
X177610990Y-105789286D01*
X177365979Y-105673405D01*
X177110789Y-105582096D01*
X176847879Y-105516241D01*
X176687840Y-105492501D01*
X176623391Y-105462720D01*
X176617311Y-105457038D01*
X176561892Y-105401716D01*
X176527812Y-105339434D01*
X176532815Y-105268614D01*
X176561736Y-105223525D01*
X176589730Y-105195482D01*
X176652012Y-105161403D01*
X176678903Y-105158500D01*
X177023634Y-105158500D01*
X177041167Y-105159726D01*
X177049031Y-105160831D01*
X177060564Y-105162452D01*
X177060567Y-105162452D01*
X177064472Y-105163001D01*
X177072614Y-105163115D01*
X177081822Y-105163244D01*
X177081829Y-105163244D01*
X177085785Y-105163299D01*
X177104910Y-105161154D01*
X177110697Y-105160641D01*
X177155387Y-105157711D01*
X177311696Y-105147467D01*
X177311703Y-105147466D01*
X177315808Y-105147197D01*
X177319841Y-105146395D01*
X177319847Y-105146394D01*
X177537845Y-105103031D01*
X177537851Y-105103029D01*
X177541895Y-105102225D01*
X177545804Y-105100898D01*
X177545808Y-105100897D01*
X177756272Y-105029454D01*
X177756273Y-105029453D01*
X177760178Y-105028128D01*
X177790867Y-105012994D01*
X177846595Y-105000000D01*
X179803123Y-105000000D01*
X179848238Y-104986753D01*
X179857690Y-104980678D01*
X179928687Y-104980676D01*
X179962153Y-104996119D01*
G37*
G04 #@! TD.AperFunction*
M02*
