%FSLAX45Y45*%
G04 Gerber Fmt 4.5, Leading zero omitted, Abs format (unit mm)*
G04 Created by KiCad (PCBNEW (6.0.2)) date 2022-09-28 01:25:34*
%MOMM*%
%LPD*%
G01*
G04 APERTURE LIST*
%TA.AperFunction,Profile*%
%ADD10C,0.050000*%
%TD*%
%ADD11C,0.200000*%
G04 APERTURE END LIST*
D10*
X15180000Y-9310000D02*
X15180000Y-11690000D01*
X15480000Y-11990000D02*
X20060000Y-11990000D01*
X15480000Y-9010000D02*
G75*
G03*
X15180000Y-9310000I0J-300000D01*
G01*
X20360000Y-9310000D02*
G75*
G03*
X20060000Y-9010000I-300000J0D01*
G01*
X20060000Y-11990000D02*
G75*
G03*
X20360000Y-11690000I0J300000D01*
G01*
X20060000Y-9010000D02*
X15480000Y-9010000D01*
X15180000Y-11690000D02*
G75*
G03*
X15480000Y-11990000I300000J0D01*
G01*
X20360000Y-11690000D02*
X20360000Y-9310000D01*
D11*
X15435119Y-12302976D02*
X15435119Y-12102976D01*
X15482738Y-12102976D01*
X15511309Y-12112500D01*
X15530357Y-12131548D01*
X15539881Y-12150595D01*
X15549405Y-12188690D01*
X15549405Y-12217262D01*
X15539881Y-12255357D01*
X15530357Y-12274405D01*
X15511309Y-12293452D01*
X15482738Y-12302976D01*
X15435119Y-12302976D01*
X15635119Y-12302976D02*
X15635119Y-12169643D01*
X15635119Y-12207738D02*
X15644643Y-12188690D01*
X15654167Y-12179167D01*
X15673214Y-12169643D01*
X15692262Y-12169643D01*
X15758928Y-12302976D02*
X15758928Y-12169643D01*
X15758928Y-12102976D02*
X15749405Y-12112500D01*
X15758928Y-12122024D01*
X15768452Y-12112500D01*
X15758928Y-12102976D01*
X15758928Y-12122024D01*
X15882738Y-12302976D02*
X15863690Y-12293452D01*
X15854167Y-12274405D01*
X15854167Y-12102976D01*
X15987500Y-12302976D02*
X15968452Y-12293452D01*
X15958928Y-12274405D01*
X15958928Y-12102976D01*
X16216071Y-12302976D02*
X16216071Y-12102976D01*
X16282738Y-12245833D01*
X16349405Y-12102976D01*
X16349405Y-12302976D01*
X16530357Y-12302976D02*
X16530357Y-12198214D01*
X16520833Y-12179167D01*
X16501786Y-12169643D01*
X16463690Y-12169643D01*
X16444643Y-12179167D01*
X16530357Y-12293452D02*
X16511309Y-12302976D01*
X16463690Y-12302976D01*
X16444643Y-12293452D01*
X16435119Y-12274405D01*
X16435119Y-12255357D01*
X16444643Y-12236309D01*
X16463690Y-12226786D01*
X16511309Y-12226786D01*
X16530357Y-12217262D01*
X16625595Y-12169643D02*
X16625595Y-12369643D01*
X16625595Y-12179167D02*
X16644643Y-12169643D01*
X16682738Y-12169643D01*
X16701786Y-12179167D01*
X16711309Y-12188690D01*
X16720833Y-12207738D01*
X16720833Y-12264881D01*
X16711309Y-12283928D01*
X16701786Y-12293452D01*
X16682738Y-12302976D01*
X16644643Y-12302976D01*
X16625595Y-12293452D01*
X16806548Y-12283928D02*
X16816071Y-12293452D01*
X16806548Y-12302976D01*
X16797024Y-12293452D01*
X16806548Y-12283928D01*
X16806548Y-12302976D01*
X16806548Y-12179167D02*
X16816071Y-12188690D01*
X16806548Y-12198214D01*
X16797024Y-12188690D01*
X16806548Y-12179167D01*
X16806548Y-12198214D01*
M02*
