%FSLAX45Y45*%
G04 Gerber Fmt 4.5, Leading zero omitted, Abs format (unit mm)*
G04 Created by KiCad (PCBNEW (6.0.2)) date 2022-09-28 01:25:34*
%MOMM*%
%LPD*%
G01*
G04 APERTURE LIST*
%TA.AperFunction,Profile*%
%ADD10C,0.050000*%
%TD*%
%ADD11C,0.200000*%
%ADD12C,0.040000*%
%ADD13C,0.080000*%
%ADD14C,0.100000*%
%ADD15C,0.110000*%
%ADD16C,0.150000*%
%ADD17C,0.220000*%
G04 APERTURE END LIST*
D10*
X15180000Y-9310000D02*
X15180000Y-11690000D01*
X15480000Y-11990000D02*
X20060000Y-11990000D01*
X15480000Y-9010000D02*
G75*
G03*
X15180000Y-9310000I0J-300000D01*
G01*
X20360000Y-9310000D02*
G75*
G03*
X20060000Y-9010000I-300000J0D01*
G01*
X20060000Y-11990000D02*
G75*
G03*
X20360000Y-11690000I0J300000D01*
G01*
X20060000Y-9010000D02*
X15480000Y-9010000D01*
X15180000Y-11690000D02*
G75*
G03*
X15480000Y-11990000I300000J0D01*
G01*
X20360000Y-11690000D02*
X20360000Y-9310000D01*
D11*
D12*
X17240000Y-11110000D02*
X17280000Y-11150000D01*
X17280000Y-11110000D02*
X17240000Y-11150000D01*
X17840000Y-10250000D02*
X17880000Y-10290000D01*
X17880000Y-10250000D02*
X17840000Y-10290000D01*
X18190000Y-11490000D02*
X18230000Y-11530000D01*
X18230000Y-11490000D02*
X18190000Y-11530000D01*
X18230000Y-11830000D02*
X18270000Y-11870000D01*
X18270000Y-11830000D02*
X18230000Y-11870000D01*
X18340000Y-11670000D02*
X18380000Y-11710000D01*
X18380000Y-11670000D02*
X18340000Y-11710000D01*
X18500000Y-11770000D02*
X18540000Y-11810000D01*
X18540000Y-11770000D02*
X18500000Y-11810000D01*
X18670000Y-11860000D02*
X18710000Y-11900000D01*
X18710000Y-11860000D02*
X18670000Y-11900000D01*
X18850000Y-11790000D02*
X18890000Y-11830000D01*
X18890000Y-11790000D02*
X18850000Y-11830000D01*
X19060000Y-11850000D02*
X19100000Y-11890000D01*
X19100000Y-11850000D02*
X19060000Y-11890000D01*
X19230000Y-11730000D02*
X19270000Y-11770000D01*
X19270000Y-11730000D02*
X19230000Y-11770000D01*
X19420000Y-11880000D02*
X19460000Y-11920000D01*
X19460000Y-11880000D02*
X19420000Y-11920000D01*
X19650000Y-11850000D02*
X19690000Y-11890000D01*
X19690000Y-11850000D02*
X19650000Y-11890000D01*
X19670000Y-11670000D02*
X19710000Y-11710000D01*
X19710000Y-11670000D02*
X19670000Y-11710000D01*
X15295000Y-9280000D02*
G75*
G03*
X15295000Y-9280000I-20000J0D01*
G01*
X15343327Y-9163327D02*
G75*
G03*
X15343327Y-9163327I-20000J0D01*
G01*
X15343327Y-9396673D02*
G75*
G03*
X15343327Y-9396673I-20000J0D01*
G01*
X15460000Y-9115000D02*
G75*
G03*
X15460000Y-9115000I-20000J0D01*
G01*
X15460000Y-9445000D02*
G75*
G03*
X15460000Y-9445000I-20000J0D01*
G01*
X15576673Y-9163327D02*
G75*
G03*
X15576673Y-9163327I-20000J0D01*
G01*
X15576673Y-9396673D02*
G75*
G03*
X15576673Y-9396673I-20000J0D01*
G01*
X15625000Y-9280000D02*
G75*
G03*
X15625000Y-9280000I-20000J0D01*
G01*
X17625000Y-11630000D02*
G75*
G03*
X17625000Y-11630000I-20000J0D01*
G01*
X17673327Y-11513327D02*
G75*
G03*
X17673327Y-11513327I-20000J0D01*
G01*
X17673327Y-11746673D02*
G75*
G03*
X17673327Y-11746673I-20000J0D01*
G01*
X17790000Y-11465000D02*
G75*
G03*
X17790000Y-11465000I-20000J0D01*
G01*
X17790000Y-11795000D02*
G75*
G03*
X17790000Y-11795000I-20000J0D01*
G01*
X17906673Y-11513327D02*
G75*
G03*
X17906673Y-11513327I-20000J0D01*
G01*
X17906673Y-11746673D02*
G75*
G03*
X17906673Y-11746673I-20000J0D01*
G01*
X17955000Y-11630000D02*
G75*
G03*
X17955000Y-11630000I-20000J0D01*
G01*
X19945000Y-9280000D02*
G75*
G03*
X19945000Y-9280000I-20000J0D01*
G01*
X19993327Y-9163327D02*
G75*
G03*
X19993327Y-9163327I-20000J0D01*
G01*
X19993327Y-9396673D02*
G75*
G03*
X19993327Y-9396673I-20000J0D01*
G01*
X20110000Y-9115000D02*
G75*
G03*
X20110000Y-9115000I-20000J0D01*
G01*
X20110000Y-9445000D02*
G75*
G03*
X20110000Y-9445000I-20000J0D01*
G01*
X20226673Y-9163327D02*
G75*
G03*
X20226673Y-9163327I-20000J0D01*
G01*
X20226673Y-9396673D02*
G75*
G03*
X20226673Y-9396673I-20000J0D01*
G01*
X20275000Y-9280000D02*
G75*
G03*
X20275000Y-9280000I-20000J0D01*
G01*
D13*
X15618250Y-10190000D02*
X15618250Y-10270000D01*
X15578250Y-10230000D02*
X15658250Y-10230000D01*
X15618250Y-10390000D02*
X15618250Y-10470000D01*
X15578250Y-10430000D02*
X15658250Y-10430000D01*
X15618250Y-10590000D02*
X15618250Y-10670000D01*
X15578250Y-10630000D02*
X15658250Y-10630000D01*
X15618250Y-10790000D02*
X15618250Y-10870000D01*
X15578250Y-10830000D02*
X15658250Y-10830000D01*
X15618250Y-10990000D02*
X15618250Y-11070000D01*
X15578250Y-11030000D02*
X15658250Y-11030000D01*
X15618250Y-11190000D02*
X15618250Y-11270000D01*
X15578250Y-11230000D02*
X15658250Y-11230000D01*
X15618250Y-11390000D02*
X15618250Y-11470000D01*
X15578250Y-11430000D02*
X15658250Y-11430000D01*
X15618250Y-11590000D02*
X15618250Y-11670000D01*
X15578250Y-11630000D02*
X15658250Y-11630000D01*
X16958250Y-10190000D02*
X16958250Y-10270000D01*
X16918250Y-10230000D02*
X16998250Y-10230000D01*
X16958250Y-10390000D02*
X16958250Y-10470000D01*
X16918250Y-10430000D02*
X16998250Y-10430000D01*
X16958250Y-10590000D02*
X16958250Y-10670000D01*
X16918250Y-10630000D02*
X16998250Y-10630000D01*
X16958250Y-10790000D02*
X16958250Y-10870000D01*
X16918250Y-10830000D02*
X16998250Y-10830000D01*
X16958250Y-10990000D02*
X16958250Y-11070000D01*
X16918250Y-11030000D02*
X16998250Y-11030000D01*
X16958250Y-11190000D02*
X16958250Y-11270000D01*
X16918250Y-11230000D02*
X16998250Y-11230000D01*
X16958250Y-11390000D02*
X16958250Y-11470000D01*
X16918250Y-11430000D02*
X16998250Y-11430000D01*
X16958250Y-11590000D02*
X16958250Y-11670000D01*
X16918250Y-11630000D02*
X16998250Y-11630000D01*
X17862000Y-9748000D02*
X17862000Y-9828000D01*
X17822000Y-9788000D02*
X17902000Y-9788000D01*
X17862000Y-10510000D02*
X17862000Y-10590000D01*
X17822000Y-10550000D02*
X17902000Y-10550000D01*
X18116000Y-9748000D02*
X18116000Y-9828000D01*
X18076000Y-9788000D02*
X18156000Y-9788000D01*
X18116000Y-10510000D02*
X18116000Y-10590000D01*
X18076000Y-10550000D02*
X18156000Y-10550000D01*
X18220000Y-9435000D02*
X18220000Y-9515000D01*
X18180000Y-9475000D02*
X18260000Y-9475000D01*
X18220000Y-10835000D02*
X18220000Y-10915000D01*
X18180000Y-10875000D02*
X18260000Y-10875000D01*
X18370000Y-9748000D02*
X18370000Y-9828000D01*
X18330000Y-9788000D02*
X18410000Y-9788000D01*
X18370000Y-10510000D02*
X18370000Y-10590000D01*
X18330000Y-10550000D02*
X18410000Y-10550000D01*
X18420000Y-9435000D02*
X18420000Y-9515000D01*
X18380000Y-9475000D02*
X18460000Y-9475000D01*
X18420000Y-10835000D02*
X18420000Y-10915000D01*
X18380000Y-10875000D02*
X18460000Y-10875000D01*
X18620000Y-9435000D02*
X18620000Y-9515000D01*
X18580000Y-9475000D02*
X18660000Y-9475000D01*
X18620000Y-10835000D02*
X18620000Y-10915000D01*
X18580000Y-10875000D02*
X18660000Y-10875000D01*
X18624000Y-9748000D02*
X18624000Y-9828000D01*
X18584000Y-9788000D02*
X18664000Y-9788000D01*
X18624000Y-10510000D02*
X18624000Y-10590000D01*
X18584000Y-10550000D02*
X18664000Y-10550000D01*
X18820000Y-9435000D02*
X18820000Y-9515000D01*
X18780000Y-9475000D02*
X18860000Y-9475000D01*
X18820000Y-10835000D02*
X18820000Y-10915000D01*
X18780000Y-10875000D02*
X18860000Y-10875000D01*
X18878000Y-9748000D02*
X18878000Y-9828000D01*
X18838000Y-9788000D02*
X18918000Y-9788000D01*
X18878000Y-10510000D02*
X18878000Y-10590000D01*
X18838000Y-10550000D02*
X18918000Y-10550000D01*
X19020000Y-9435000D02*
X19020000Y-9515000D01*
X18980000Y-9475000D02*
X19060000Y-9475000D01*
X19020000Y-10835000D02*
X19020000Y-10915000D01*
X18980000Y-10875000D02*
X19060000Y-10875000D01*
X19132000Y-9748000D02*
X19132000Y-9828000D01*
X19092000Y-9788000D02*
X19172000Y-9788000D01*
X19132000Y-10510000D02*
X19132000Y-10590000D01*
X19092000Y-10550000D02*
X19172000Y-10550000D01*
X19220000Y-9435000D02*
X19220000Y-9515000D01*
X19180000Y-9475000D02*
X19260000Y-9475000D01*
X19220000Y-10835000D02*
X19220000Y-10915000D01*
X19180000Y-10875000D02*
X19260000Y-10875000D01*
X19386000Y-9748000D02*
X19386000Y-9828000D01*
X19346000Y-9788000D02*
X19426000Y-9788000D01*
X19386000Y-10510000D02*
X19386000Y-10590000D01*
X19346000Y-10550000D02*
X19426000Y-10550000D01*
X19420000Y-9435000D02*
X19420000Y-9515000D01*
X19380000Y-9475000D02*
X19460000Y-9475000D01*
X19420000Y-10835000D02*
X19420000Y-10915000D01*
X19380000Y-10875000D02*
X19460000Y-10875000D01*
X19620000Y-9435000D02*
X19620000Y-9515000D01*
X19580000Y-9475000D02*
X19660000Y-9475000D01*
X19620000Y-10835000D02*
X19620000Y-10915000D01*
X19580000Y-10875000D02*
X19660000Y-10875000D01*
X19640000Y-9748000D02*
X19640000Y-9828000D01*
X19600000Y-9788000D02*
X19680000Y-9788000D01*
X19640000Y-10510000D02*
X19640000Y-10590000D01*
X19600000Y-10550000D02*
X19680000Y-10550000D01*
D14*
X16947856Y-9466356D02*
X16947856Y-9395644D01*
X16877144Y-9395644D01*
X16877144Y-9466356D01*
X16947856Y-9466356D01*
X16947856Y-9720356D02*
X16947856Y-9649644D01*
X16877144Y-9649644D01*
X16877144Y-9720356D01*
X16947856Y-9720356D01*
X17201856Y-9466356D02*
X17201856Y-9395644D01*
X17131144Y-9395644D01*
X17131144Y-9466356D01*
X17201856Y-9466356D01*
X17201856Y-9720356D02*
X17201856Y-9649644D01*
X17131144Y-9649644D01*
X17131144Y-9720356D01*
X17201856Y-9720356D01*
D15*
X20030000Y-11318000D02*
X20085000Y-11263000D01*
X20030000Y-11208000D01*
X19975000Y-11263000D01*
X20030000Y-11318000D01*
X20030000Y-11572000D02*
X20085000Y-11517000D01*
X20030000Y-11462000D01*
X19975000Y-11517000D01*
X20030000Y-11572000D01*
D16*
X15821000Y-9091000D02*
X15971000Y-9241000D01*
X15971000Y-9091000D02*
X15821000Y-9241000D01*
X15971000Y-9166000D02*
G75*
G03*
X15971000Y-9166000I-75000J0D01*
G01*
X15821000Y-9599000D02*
X15971000Y-9749000D01*
X15971000Y-9599000D02*
X15821000Y-9749000D01*
X15971000Y-9674000D02*
G75*
G03*
X15971000Y-9674000I-75000J0D01*
G01*
X16075000Y-9345000D02*
X16225000Y-9495000D01*
X16225000Y-9345000D02*
X16075000Y-9495000D01*
X16225000Y-9420000D02*
G75*
G03*
X16225000Y-9420000I-75000J0D01*
G01*
X16329000Y-9091000D02*
X16479000Y-9241000D01*
X16479000Y-9091000D02*
X16329000Y-9241000D01*
X16479000Y-9166000D02*
G75*
G03*
X16479000Y-9166000I-75000J0D01*
G01*
X16329000Y-9599000D02*
X16479000Y-9749000D01*
X16479000Y-9599000D02*
X16329000Y-9749000D01*
X16479000Y-9674000D02*
G75*
G03*
X16479000Y-9674000I-75000J0D01*
G01*
D17*
X15330000Y-9170000D02*
X15550000Y-9390000D01*
X15550000Y-9170000D02*
X15330000Y-9390000D01*
X15440000Y-9170000D02*
X15440000Y-9390000D01*
X15330000Y-9280000D02*
X15550000Y-9280000D01*
X17660000Y-11520000D02*
X17880000Y-11740000D01*
X17880000Y-11520000D02*
X17660000Y-11740000D01*
X17770000Y-11520000D02*
X17770000Y-11740000D01*
X17660000Y-11630000D02*
X17880000Y-11630000D01*
X19980000Y-9170000D02*
X20200000Y-9390000D01*
X20200000Y-9170000D02*
X19980000Y-9390000D01*
X20090000Y-9170000D02*
X20090000Y-9390000D01*
X19980000Y-9280000D02*
X20200000Y-9280000D01*
D11*
X15435119Y-12302976D02*
X15435119Y-12102976D01*
X15482738Y-12102976D01*
X15511309Y-12112500D01*
X15530357Y-12131548D01*
X15539881Y-12150595D01*
X15549405Y-12188690D01*
X15549405Y-12217262D01*
X15539881Y-12255357D01*
X15530357Y-12274405D01*
X15511309Y-12293452D01*
X15482738Y-12302976D01*
X15435119Y-12302976D01*
X15635119Y-12302976D02*
X15635119Y-12169643D01*
X15635119Y-12207738D02*
X15644643Y-12188690D01*
X15654167Y-12179167D01*
X15673214Y-12169643D01*
X15692262Y-12169643D01*
X15758928Y-12302976D02*
X15758928Y-12169643D01*
X15758928Y-12102976D02*
X15749405Y-12112500D01*
X15758928Y-12122024D01*
X15768452Y-12112500D01*
X15758928Y-12102976D01*
X15758928Y-12122024D01*
X15882738Y-12302976D02*
X15863690Y-12293452D01*
X15854167Y-12274405D01*
X15854167Y-12102976D01*
X15987500Y-12302976D02*
X15968452Y-12293452D01*
X15958928Y-12274405D01*
X15958928Y-12102976D01*
X16216071Y-12302976D02*
X16216071Y-12102976D01*
X16282738Y-12245833D01*
X16349405Y-12102976D01*
X16349405Y-12302976D01*
X16530357Y-12302976D02*
X16530357Y-12198214D01*
X16520833Y-12179167D01*
X16501786Y-12169643D01*
X16463690Y-12169643D01*
X16444643Y-12179167D01*
X16530357Y-12293452D02*
X16511309Y-12302976D01*
X16463690Y-12302976D01*
X16444643Y-12293452D01*
X16435119Y-12274405D01*
X16435119Y-12255357D01*
X16444643Y-12236309D01*
X16463690Y-12226786D01*
X16511309Y-12226786D01*
X16530357Y-12217262D01*
X16625595Y-12169643D02*
X16625595Y-12369643D01*
X16625595Y-12179167D02*
X16644643Y-12169643D01*
X16682738Y-12169643D01*
X16701786Y-12179167D01*
X16711309Y-12188690D01*
X16720833Y-12207738D01*
X16720833Y-12264881D01*
X16711309Y-12283928D01*
X16701786Y-12293452D01*
X16682738Y-12302976D01*
X16644643Y-12302976D01*
X16625595Y-12293452D01*
X16806548Y-12283928D02*
X16816071Y-12293452D01*
X16806548Y-12302976D01*
X16797024Y-12293452D01*
X16806548Y-12283928D01*
X16806548Y-12302976D01*
X16806548Y-12179167D02*
X16816071Y-12188690D01*
X16806548Y-12198214D01*
X16797024Y-12188690D01*
X16806548Y-12179167D01*
X16806548Y-12198214D01*
D12*
X15137500Y-12612500D02*
X15177500Y-12652500D01*
X15177500Y-12612500D02*
X15137500Y-12652500D01*
D11*
X15473214Y-12522976D02*
X15492262Y-12522976D01*
X15511309Y-12532500D01*
X15520833Y-12542024D01*
X15530357Y-12561071D01*
X15539881Y-12599167D01*
X15539881Y-12646786D01*
X15530357Y-12684881D01*
X15520833Y-12703928D01*
X15511309Y-12713452D01*
X15492262Y-12722976D01*
X15473214Y-12722976D01*
X15454167Y-12713452D01*
X15444643Y-12703928D01*
X15435119Y-12684881D01*
X15425595Y-12646786D01*
X15425595Y-12599167D01*
X15435119Y-12561071D01*
X15444643Y-12542024D01*
X15454167Y-12532500D01*
X15473214Y-12522976D01*
X15625595Y-12703928D02*
X15635119Y-12713452D01*
X15625595Y-12722976D01*
X15616071Y-12713452D01*
X15625595Y-12703928D01*
X15625595Y-12722976D01*
X15806548Y-12589643D02*
X15806548Y-12722976D01*
X15758928Y-12513452D02*
X15711309Y-12656309D01*
X15835119Y-12656309D01*
X15949405Y-12522976D02*
X15968452Y-12522976D01*
X15987500Y-12532500D01*
X15997024Y-12542024D01*
X16006548Y-12561071D01*
X16016071Y-12599167D01*
X16016071Y-12646786D01*
X16006548Y-12684881D01*
X15997024Y-12703928D01*
X15987500Y-12713452D01*
X15968452Y-12722976D01*
X15949405Y-12722976D01*
X15930357Y-12713452D01*
X15920833Y-12703928D01*
X15911309Y-12684881D01*
X15901786Y-12646786D01*
X15901786Y-12599167D01*
X15911309Y-12561071D01*
X15920833Y-12542024D01*
X15930357Y-12532500D01*
X15949405Y-12522976D01*
X16139881Y-12522976D02*
X16158928Y-12522976D01*
X16177976Y-12532500D01*
X16187500Y-12542024D01*
X16197024Y-12561071D01*
X16206548Y-12599167D01*
X16206548Y-12646786D01*
X16197024Y-12684881D01*
X16187500Y-12703928D01*
X16177976Y-12713452D01*
X16158928Y-12722976D01*
X16139881Y-12722976D01*
X16120833Y-12713452D01*
X16111309Y-12703928D01*
X16101786Y-12684881D01*
X16092262Y-12646786D01*
X16092262Y-12599167D01*
X16101786Y-12561071D01*
X16111309Y-12542024D01*
X16120833Y-12532500D01*
X16139881Y-12522976D01*
X16292262Y-12722976D02*
X16292262Y-12589643D01*
X16292262Y-12608690D02*
X16301786Y-12599167D01*
X16320833Y-12589643D01*
X16349405Y-12589643D01*
X16368452Y-12599167D01*
X16377976Y-12618214D01*
X16377976Y-12722976D01*
X16377976Y-12618214D02*
X16387500Y-12599167D01*
X16406548Y-12589643D01*
X16435119Y-12589643D01*
X16454167Y-12599167D01*
X16463690Y-12618214D01*
X16463690Y-12722976D01*
X16558928Y-12722976D02*
X16558928Y-12589643D01*
X16558928Y-12608690D02*
X16568452Y-12599167D01*
X16587500Y-12589643D01*
X16616071Y-12589643D01*
X16635119Y-12599167D01*
X16644643Y-12618214D01*
X16644643Y-12722976D01*
X16644643Y-12618214D02*
X16654167Y-12599167D01*
X16673214Y-12589643D01*
X16701786Y-12589643D01*
X16720833Y-12599167D01*
X16730357Y-12618214D01*
X16730357Y-12722976D01*
X17120833Y-12513452D02*
X16949405Y-12770595D01*
X17377976Y-12522976D02*
X17397024Y-12522976D01*
X17416071Y-12532500D01*
X17425595Y-12542024D01*
X17435119Y-12561071D01*
X17444643Y-12599167D01*
X17444643Y-12646786D01*
X17435119Y-12684881D01*
X17425595Y-12703928D01*
X17416071Y-12713452D01*
X17397024Y-12722976D01*
X17377976Y-12722976D01*
X17358929Y-12713452D01*
X17349405Y-12703928D01*
X17339881Y-12684881D01*
X17330357Y-12646786D01*
X17330357Y-12599167D01*
X17339881Y-12561071D01*
X17349405Y-12542024D01*
X17358929Y-12532500D01*
X17377976Y-12522976D01*
X17530357Y-12703928D02*
X17539881Y-12713452D01*
X17530357Y-12722976D01*
X17520833Y-12713452D01*
X17530357Y-12703928D01*
X17530357Y-12722976D01*
X17663690Y-12522976D02*
X17682738Y-12522976D01*
X17701786Y-12532500D01*
X17711310Y-12542024D01*
X17720833Y-12561071D01*
X17730357Y-12599167D01*
X17730357Y-12646786D01*
X17720833Y-12684881D01*
X17711310Y-12703928D01*
X17701786Y-12713452D01*
X17682738Y-12722976D01*
X17663690Y-12722976D01*
X17644643Y-12713452D01*
X17635119Y-12703928D01*
X17625595Y-12684881D01*
X17616071Y-12646786D01*
X17616071Y-12599167D01*
X17625595Y-12561071D01*
X17635119Y-12542024D01*
X17644643Y-12532500D01*
X17663690Y-12522976D01*
X17920833Y-12722976D02*
X17806548Y-12722976D01*
X17863690Y-12722976D02*
X17863690Y-12522976D01*
X17844643Y-12551548D01*
X17825595Y-12570595D01*
X17806548Y-12580119D01*
X18101786Y-12522976D02*
X18006548Y-12522976D01*
X17997024Y-12618214D01*
X18006548Y-12608690D01*
X18025595Y-12599167D01*
X18073214Y-12599167D01*
X18092262Y-12608690D01*
X18101786Y-12618214D01*
X18111310Y-12637262D01*
X18111310Y-12684881D01*
X18101786Y-12703928D01*
X18092262Y-12713452D01*
X18073214Y-12722976D01*
X18025595Y-12722976D01*
X18006548Y-12713452D01*
X17997024Y-12703928D01*
X18177976Y-12522976D02*
X18311310Y-12522976D01*
X18225595Y-12722976D01*
X18377976Y-12522976D02*
X18377976Y-12561071D01*
X18454167Y-12522976D02*
X18454167Y-12561071D01*
X18749405Y-12799167D02*
X18739881Y-12789643D01*
X18720833Y-12761071D01*
X18711310Y-12742024D01*
X18701786Y-12713452D01*
X18692262Y-12665833D01*
X18692262Y-12627738D01*
X18701786Y-12580119D01*
X18711310Y-12551548D01*
X18720833Y-12532500D01*
X18739881Y-12503928D01*
X18749405Y-12494405D01*
X18930357Y-12722976D02*
X18816071Y-12722976D01*
X18873214Y-12722976D02*
X18873214Y-12522976D01*
X18854167Y-12551548D01*
X18835119Y-12570595D01*
X18816071Y-12580119D01*
X18997024Y-12522976D02*
X19120833Y-12522976D01*
X19054167Y-12599167D01*
X19082738Y-12599167D01*
X19101786Y-12608690D01*
X19111310Y-12618214D01*
X19120833Y-12637262D01*
X19120833Y-12684881D01*
X19111310Y-12703928D01*
X19101786Y-12713452D01*
X19082738Y-12722976D01*
X19025595Y-12722976D01*
X19006548Y-12713452D01*
X18997024Y-12703928D01*
X19358929Y-12722976D02*
X19358929Y-12522976D01*
X19444643Y-12722976D02*
X19444643Y-12618214D01*
X19435119Y-12599167D01*
X19416071Y-12589643D01*
X19387500Y-12589643D01*
X19368452Y-12599167D01*
X19358929Y-12608690D01*
X19568452Y-12722976D02*
X19549405Y-12713452D01*
X19539881Y-12703928D01*
X19530357Y-12684881D01*
X19530357Y-12627738D01*
X19539881Y-12608690D01*
X19549405Y-12599167D01*
X19568452Y-12589643D01*
X19597024Y-12589643D01*
X19616071Y-12599167D01*
X19625595Y-12608690D01*
X19635119Y-12627738D01*
X19635119Y-12684881D01*
X19625595Y-12703928D01*
X19616071Y-12713452D01*
X19597024Y-12722976D01*
X19568452Y-12722976D01*
X19749405Y-12722976D02*
X19730357Y-12713452D01*
X19720833Y-12694405D01*
X19720833Y-12522976D01*
X19901786Y-12713452D02*
X19882738Y-12722976D01*
X19844643Y-12722976D01*
X19825595Y-12713452D01*
X19816071Y-12694405D01*
X19816071Y-12618214D01*
X19825595Y-12599167D01*
X19844643Y-12589643D01*
X19882738Y-12589643D01*
X19901786Y-12599167D01*
X19911310Y-12618214D01*
X19911310Y-12637262D01*
X19816071Y-12656309D01*
X19987500Y-12713452D02*
X20006548Y-12722976D01*
X20044643Y-12722976D01*
X20063690Y-12713452D01*
X20073214Y-12694405D01*
X20073214Y-12684881D01*
X20063690Y-12665833D01*
X20044643Y-12656309D01*
X20016071Y-12656309D01*
X19997024Y-12646786D01*
X19987500Y-12627738D01*
X19987500Y-12618214D01*
X19997024Y-12599167D01*
X20016071Y-12589643D01*
X20044643Y-12589643D01*
X20063690Y-12599167D01*
X20139881Y-12799167D02*
X20149405Y-12789643D01*
X20168452Y-12761071D01*
X20177976Y-12742024D01*
X20187500Y-12713452D01*
X20197024Y-12665833D01*
X20197024Y-12627738D01*
X20187500Y-12580119D01*
X20177976Y-12551548D01*
X20168452Y-12532500D01*
X20149405Y-12503928D01*
X20139881Y-12494405D01*
D12*
X15177500Y-12896500D02*
G75*
G03*
X15177500Y-12896500I-20000J0D01*
G01*
D11*
X15473214Y-12786976D02*
X15492262Y-12786976D01*
X15511309Y-12796500D01*
X15520833Y-12806024D01*
X15530357Y-12825071D01*
X15539881Y-12863167D01*
X15539881Y-12910786D01*
X15530357Y-12948881D01*
X15520833Y-12967928D01*
X15511309Y-12977452D01*
X15492262Y-12986976D01*
X15473214Y-12986976D01*
X15454167Y-12977452D01*
X15444643Y-12967928D01*
X15435119Y-12948881D01*
X15425595Y-12910786D01*
X15425595Y-12863167D01*
X15435119Y-12825071D01*
X15444643Y-12806024D01*
X15454167Y-12796500D01*
X15473214Y-12786976D01*
X15625595Y-12967928D02*
X15635119Y-12977452D01*
X15625595Y-12986976D01*
X15616071Y-12977452D01*
X15625595Y-12967928D01*
X15625595Y-12986976D01*
X15806548Y-12853643D02*
X15806548Y-12986976D01*
X15758928Y-12777452D02*
X15711309Y-12920309D01*
X15835119Y-12920309D01*
X15949405Y-12786976D02*
X15968452Y-12786976D01*
X15987500Y-12796500D01*
X15997024Y-12806024D01*
X16006548Y-12825071D01*
X16016071Y-12863167D01*
X16016071Y-12910786D01*
X16006548Y-12948881D01*
X15997024Y-12967928D01*
X15987500Y-12977452D01*
X15968452Y-12986976D01*
X15949405Y-12986976D01*
X15930357Y-12977452D01*
X15920833Y-12967928D01*
X15911309Y-12948881D01*
X15901786Y-12910786D01*
X15901786Y-12863167D01*
X15911309Y-12825071D01*
X15920833Y-12806024D01*
X15930357Y-12796500D01*
X15949405Y-12786976D01*
X16139881Y-12786976D02*
X16158928Y-12786976D01*
X16177976Y-12796500D01*
X16187500Y-12806024D01*
X16197024Y-12825071D01*
X16206548Y-12863167D01*
X16206548Y-12910786D01*
X16197024Y-12948881D01*
X16187500Y-12967928D01*
X16177976Y-12977452D01*
X16158928Y-12986976D01*
X16139881Y-12986976D01*
X16120833Y-12977452D01*
X16111309Y-12967928D01*
X16101786Y-12948881D01*
X16092262Y-12910786D01*
X16092262Y-12863167D01*
X16101786Y-12825071D01*
X16111309Y-12806024D01*
X16120833Y-12796500D01*
X16139881Y-12786976D01*
X16292262Y-12986976D02*
X16292262Y-12853643D01*
X16292262Y-12872690D02*
X16301786Y-12863167D01*
X16320833Y-12853643D01*
X16349405Y-12853643D01*
X16368452Y-12863167D01*
X16377976Y-12882214D01*
X16377976Y-12986976D01*
X16377976Y-12882214D02*
X16387500Y-12863167D01*
X16406548Y-12853643D01*
X16435119Y-12853643D01*
X16454167Y-12863167D01*
X16463690Y-12882214D01*
X16463690Y-12986976D01*
X16558928Y-12986976D02*
X16558928Y-12853643D01*
X16558928Y-12872690D02*
X16568452Y-12863167D01*
X16587500Y-12853643D01*
X16616071Y-12853643D01*
X16635119Y-12863167D01*
X16644643Y-12882214D01*
X16644643Y-12986976D01*
X16644643Y-12882214D02*
X16654167Y-12863167D01*
X16673214Y-12853643D01*
X16701786Y-12853643D01*
X16720833Y-12863167D01*
X16730357Y-12882214D01*
X16730357Y-12986976D01*
X17120833Y-12777452D02*
X16949405Y-13034595D01*
X17377976Y-12786976D02*
X17397024Y-12786976D01*
X17416071Y-12796500D01*
X17425595Y-12806024D01*
X17435119Y-12825071D01*
X17444643Y-12863167D01*
X17444643Y-12910786D01*
X17435119Y-12948881D01*
X17425595Y-12967928D01*
X17416071Y-12977452D01*
X17397024Y-12986976D01*
X17377976Y-12986976D01*
X17358929Y-12977452D01*
X17349405Y-12967928D01*
X17339881Y-12948881D01*
X17330357Y-12910786D01*
X17330357Y-12863167D01*
X17339881Y-12825071D01*
X17349405Y-12806024D01*
X17358929Y-12796500D01*
X17377976Y-12786976D01*
X17530357Y-12967928D02*
X17539881Y-12977452D01*
X17530357Y-12986976D01*
X17520833Y-12977452D01*
X17530357Y-12967928D01*
X17530357Y-12986976D01*
X17663690Y-12786976D02*
X17682738Y-12786976D01*
X17701786Y-12796500D01*
X17711310Y-12806024D01*
X17720833Y-12825071D01*
X17730357Y-12863167D01*
X17730357Y-12910786D01*
X17720833Y-12948881D01*
X17711310Y-12967928D01*
X17701786Y-12977452D01*
X17682738Y-12986976D01*
X17663690Y-12986976D01*
X17644643Y-12977452D01*
X17635119Y-12967928D01*
X17625595Y-12948881D01*
X17616071Y-12910786D01*
X17616071Y-12863167D01*
X17625595Y-12825071D01*
X17635119Y-12806024D01*
X17644643Y-12796500D01*
X17663690Y-12786976D01*
X17920833Y-12986976D02*
X17806548Y-12986976D01*
X17863690Y-12986976D02*
X17863690Y-12786976D01*
X17844643Y-12815548D01*
X17825595Y-12834595D01*
X17806548Y-12844119D01*
X18101786Y-12786976D02*
X18006548Y-12786976D01*
X17997024Y-12882214D01*
X18006548Y-12872690D01*
X18025595Y-12863167D01*
X18073214Y-12863167D01*
X18092262Y-12872690D01*
X18101786Y-12882214D01*
X18111310Y-12901262D01*
X18111310Y-12948881D01*
X18101786Y-12967928D01*
X18092262Y-12977452D01*
X18073214Y-12986976D01*
X18025595Y-12986976D01*
X18006548Y-12977452D01*
X17997024Y-12967928D01*
X18177976Y-12786976D02*
X18311310Y-12786976D01*
X18225595Y-12986976D01*
X18377976Y-12786976D02*
X18377976Y-12825071D01*
X18454167Y-12786976D02*
X18454167Y-12825071D01*
X18749405Y-13063167D02*
X18739881Y-13053643D01*
X18720833Y-13025071D01*
X18711310Y-13006024D01*
X18701786Y-12977452D01*
X18692262Y-12929833D01*
X18692262Y-12891738D01*
X18701786Y-12844119D01*
X18711310Y-12815548D01*
X18720833Y-12796500D01*
X18739881Y-12767928D01*
X18749405Y-12758405D01*
X18816071Y-12806024D02*
X18825595Y-12796500D01*
X18844643Y-12786976D01*
X18892262Y-12786976D01*
X18911310Y-12796500D01*
X18920833Y-12806024D01*
X18930357Y-12825071D01*
X18930357Y-12844119D01*
X18920833Y-12872690D01*
X18806548Y-12986976D01*
X18930357Y-12986976D01*
X19101786Y-12853643D02*
X19101786Y-12986976D01*
X19054167Y-12777452D02*
X19006548Y-12920309D01*
X19130357Y-12920309D01*
X19358929Y-12986976D02*
X19358929Y-12786976D01*
X19444643Y-12986976D02*
X19444643Y-12882214D01*
X19435119Y-12863167D01*
X19416071Y-12853643D01*
X19387500Y-12853643D01*
X19368452Y-12863167D01*
X19358929Y-12872690D01*
X19568452Y-12986976D02*
X19549405Y-12977452D01*
X19539881Y-12967928D01*
X19530357Y-12948881D01*
X19530357Y-12891738D01*
X19539881Y-12872690D01*
X19549405Y-12863167D01*
X19568452Y-12853643D01*
X19597024Y-12853643D01*
X19616071Y-12863167D01*
X19625595Y-12872690D01*
X19635119Y-12891738D01*
X19635119Y-12948881D01*
X19625595Y-12967928D01*
X19616071Y-12977452D01*
X19597024Y-12986976D01*
X19568452Y-12986976D01*
X19749405Y-12986976D02*
X19730357Y-12977452D01*
X19720833Y-12958405D01*
X19720833Y-12786976D01*
X19901786Y-12977452D02*
X19882738Y-12986976D01*
X19844643Y-12986976D01*
X19825595Y-12977452D01*
X19816071Y-12958405D01*
X19816071Y-12882214D01*
X19825595Y-12863167D01*
X19844643Y-12853643D01*
X19882738Y-12853643D01*
X19901786Y-12863167D01*
X19911310Y-12882214D01*
X19911310Y-12901262D01*
X19816071Y-12920309D01*
X19987500Y-12977452D02*
X20006548Y-12986976D01*
X20044643Y-12986976D01*
X20063690Y-12977452D01*
X20073214Y-12958405D01*
X20073214Y-12948881D01*
X20063690Y-12929833D01*
X20044643Y-12920309D01*
X20016071Y-12920309D01*
X19997024Y-12910786D01*
X19987500Y-12891738D01*
X19987500Y-12882214D01*
X19997024Y-12863167D01*
X20016071Y-12853643D01*
X20044643Y-12853643D01*
X20063690Y-12863167D01*
X20139881Y-13063167D02*
X20149405Y-13053643D01*
X20168452Y-13025071D01*
X20177976Y-13006024D01*
X20187500Y-12977452D01*
X20197024Y-12929833D01*
X20197024Y-12891738D01*
X20187500Y-12844119D01*
X20177976Y-12815548D01*
X20168452Y-12796500D01*
X20149405Y-12767928D01*
X20139881Y-12758405D01*
D13*
X15137500Y-13120500D02*
X15137500Y-13200500D01*
X15097500Y-13160500D02*
X15177500Y-13160500D01*
D11*
X15473214Y-13050976D02*
X15492262Y-13050976D01*
X15511309Y-13060500D01*
X15520833Y-13070024D01*
X15530357Y-13089071D01*
X15539881Y-13127167D01*
X15539881Y-13174786D01*
X15530357Y-13212881D01*
X15520833Y-13231928D01*
X15511309Y-13241452D01*
X15492262Y-13250976D01*
X15473214Y-13250976D01*
X15454167Y-13241452D01*
X15444643Y-13231928D01*
X15435119Y-13212881D01*
X15425595Y-13174786D01*
X15425595Y-13127167D01*
X15435119Y-13089071D01*
X15444643Y-13070024D01*
X15454167Y-13060500D01*
X15473214Y-13050976D01*
X15625595Y-13231928D02*
X15635119Y-13241452D01*
X15625595Y-13250976D01*
X15616071Y-13241452D01*
X15625595Y-13231928D01*
X15625595Y-13250976D01*
X15749405Y-13136690D02*
X15730357Y-13127167D01*
X15720833Y-13117643D01*
X15711309Y-13098595D01*
X15711309Y-13089071D01*
X15720833Y-13070024D01*
X15730357Y-13060500D01*
X15749405Y-13050976D01*
X15787500Y-13050976D01*
X15806548Y-13060500D01*
X15816071Y-13070024D01*
X15825595Y-13089071D01*
X15825595Y-13098595D01*
X15816071Y-13117643D01*
X15806548Y-13127167D01*
X15787500Y-13136690D01*
X15749405Y-13136690D01*
X15730357Y-13146214D01*
X15720833Y-13155738D01*
X15711309Y-13174786D01*
X15711309Y-13212881D01*
X15720833Y-13231928D01*
X15730357Y-13241452D01*
X15749405Y-13250976D01*
X15787500Y-13250976D01*
X15806548Y-13241452D01*
X15816071Y-13231928D01*
X15825595Y-13212881D01*
X15825595Y-13174786D01*
X15816071Y-13155738D01*
X15806548Y-13146214D01*
X15787500Y-13136690D01*
X15949405Y-13050976D02*
X15968452Y-13050976D01*
X15987500Y-13060500D01*
X15997024Y-13070024D01*
X16006548Y-13089071D01*
X16016071Y-13127167D01*
X16016071Y-13174786D01*
X16006548Y-13212881D01*
X15997024Y-13231928D01*
X15987500Y-13241452D01*
X15968452Y-13250976D01*
X15949405Y-13250976D01*
X15930357Y-13241452D01*
X15920833Y-13231928D01*
X15911309Y-13212881D01*
X15901786Y-13174786D01*
X15901786Y-13127167D01*
X15911309Y-13089071D01*
X15920833Y-13070024D01*
X15930357Y-13060500D01*
X15949405Y-13050976D01*
X16139881Y-13050976D02*
X16158928Y-13050976D01*
X16177976Y-13060500D01*
X16187500Y-13070024D01*
X16197024Y-13089071D01*
X16206548Y-13127167D01*
X16206548Y-13174786D01*
X16197024Y-13212881D01*
X16187500Y-13231928D01*
X16177976Y-13241452D01*
X16158928Y-13250976D01*
X16139881Y-13250976D01*
X16120833Y-13241452D01*
X16111309Y-13231928D01*
X16101786Y-13212881D01*
X16092262Y-13174786D01*
X16092262Y-13127167D01*
X16101786Y-13089071D01*
X16111309Y-13070024D01*
X16120833Y-13060500D01*
X16139881Y-13050976D01*
X16292262Y-13250976D02*
X16292262Y-13117643D01*
X16292262Y-13136690D02*
X16301786Y-13127167D01*
X16320833Y-13117643D01*
X16349405Y-13117643D01*
X16368452Y-13127167D01*
X16377976Y-13146214D01*
X16377976Y-13250976D01*
X16377976Y-13146214D02*
X16387500Y-13127167D01*
X16406548Y-13117643D01*
X16435119Y-13117643D01*
X16454167Y-13127167D01*
X16463690Y-13146214D01*
X16463690Y-13250976D01*
X16558928Y-13250976D02*
X16558928Y-13117643D01*
X16558928Y-13136690D02*
X16568452Y-13127167D01*
X16587500Y-13117643D01*
X16616071Y-13117643D01*
X16635119Y-13127167D01*
X16644643Y-13146214D01*
X16644643Y-13250976D01*
X16644643Y-13146214D02*
X16654167Y-13127167D01*
X16673214Y-13117643D01*
X16701786Y-13117643D01*
X16720833Y-13127167D01*
X16730357Y-13146214D01*
X16730357Y-13250976D01*
X17120833Y-13041452D02*
X16949405Y-13298595D01*
X17377976Y-13050976D02*
X17397024Y-13050976D01*
X17416071Y-13060500D01*
X17425595Y-13070024D01*
X17435119Y-13089071D01*
X17444643Y-13127167D01*
X17444643Y-13174786D01*
X17435119Y-13212881D01*
X17425595Y-13231928D01*
X17416071Y-13241452D01*
X17397024Y-13250976D01*
X17377976Y-13250976D01*
X17358929Y-13241452D01*
X17349405Y-13231928D01*
X17339881Y-13212881D01*
X17330357Y-13174786D01*
X17330357Y-13127167D01*
X17339881Y-13089071D01*
X17349405Y-13070024D01*
X17358929Y-13060500D01*
X17377976Y-13050976D01*
X17530357Y-13231928D02*
X17539881Y-13241452D01*
X17530357Y-13250976D01*
X17520833Y-13241452D01*
X17530357Y-13231928D01*
X17530357Y-13250976D01*
X17663690Y-13050976D02*
X17682738Y-13050976D01*
X17701786Y-13060500D01*
X17711310Y-13070024D01*
X17720833Y-13089071D01*
X17730357Y-13127167D01*
X17730357Y-13174786D01*
X17720833Y-13212881D01*
X17711310Y-13231928D01*
X17701786Y-13241452D01*
X17682738Y-13250976D01*
X17663690Y-13250976D01*
X17644643Y-13241452D01*
X17635119Y-13231928D01*
X17625595Y-13212881D01*
X17616071Y-13174786D01*
X17616071Y-13127167D01*
X17625595Y-13089071D01*
X17635119Y-13070024D01*
X17644643Y-13060500D01*
X17663690Y-13050976D01*
X17797024Y-13050976D02*
X17920833Y-13050976D01*
X17854167Y-13127167D01*
X17882738Y-13127167D01*
X17901786Y-13136690D01*
X17911310Y-13146214D01*
X17920833Y-13165262D01*
X17920833Y-13212881D01*
X17911310Y-13231928D01*
X17901786Y-13241452D01*
X17882738Y-13250976D01*
X17825595Y-13250976D01*
X17806548Y-13241452D01*
X17797024Y-13231928D01*
X18111310Y-13250976D02*
X17997024Y-13250976D01*
X18054167Y-13250976D02*
X18054167Y-13050976D01*
X18035119Y-13079548D01*
X18016071Y-13098595D01*
X17997024Y-13108119D01*
X18292262Y-13050976D02*
X18197024Y-13050976D01*
X18187500Y-13146214D01*
X18197024Y-13136690D01*
X18216071Y-13127167D01*
X18263690Y-13127167D01*
X18282738Y-13136690D01*
X18292262Y-13146214D01*
X18301786Y-13165262D01*
X18301786Y-13212881D01*
X18292262Y-13231928D01*
X18282738Y-13241452D01*
X18263690Y-13250976D01*
X18216071Y-13250976D01*
X18197024Y-13241452D01*
X18187500Y-13231928D01*
X18377976Y-13050976D02*
X18377976Y-13089071D01*
X18454167Y-13050976D02*
X18454167Y-13089071D01*
X18749405Y-13327167D02*
X18739881Y-13317643D01*
X18720833Y-13289071D01*
X18711310Y-13270024D01*
X18701786Y-13241452D01*
X18692262Y-13193833D01*
X18692262Y-13155738D01*
X18701786Y-13108119D01*
X18711310Y-13079548D01*
X18720833Y-13060500D01*
X18739881Y-13031928D01*
X18749405Y-13022405D01*
X18911310Y-13117643D02*
X18911310Y-13250976D01*
X18863690Y-13041452D02*
X18816071Y-13184309D01*
X18939881Y-13184309D01*
X19044643Y-13136690D02*
X19025595Y-13127167D01*
X19016071Y-13117643D01*
X19006548Y-13098595D01*
X19006548Y-13089071D01*
X19016071Y-13070024D01*
X19025595Y-13060500D01*
X19044643Y-13050976D01*
X19082738Y-13050976D01*
X19101786Y-13060500D01*
X19111310Y-13070024D01*
X19120833Y-13089071D01*
X19120833Y-13098595D01*
X19111310Y-13117643D01*
X19101786Y-13127167D01*
X19082738Y-13136690D01*
X19044643Y-13136690D01*
X19025595Y-13146214D01*
X19016071Y-13155738D01*
X19006548Y-13174786D01*
X19006548Y-13212881D01*
X19016071Y-13231928D01*
X19025595Y-13241452D01*
X19044643Y-13250976D01*
X19082738Y-13250976D01*
X19101786Y-13241452D01*
X19111310Y-13231928D01*
X19120833Y-13212881D01*
X19120833Y-13174786D01*
X19111310Y-13155738D01*
X19101786Y-13146214D01*
X19082738Y-13136690D01*
X19358929Y-13250976D02*
X19358929Y-13050976D01*
X19444643Y-13250976D02*
X19444643Y-13146214D01*
X19435119Y-13127167D01*
X19416071Y-13117643D01*
X19387500Y-13117643D01*
X19368452Y-13127167D01*
X19358929Y-13136690D01*
X19568452Y-13250976D02*
X19549405Y-13241452D01*
X19539881Y-13231928D01*
X19530357Y-13212881D01*
X19530357Y-13155738D01*
X19539881Y-13136690D01*
X19549405Y-13127167D01*
X19568452Y-13117643D01*
X19597024Y-13117643D01*
X19616071Y-13127167D01*
X19625595Y-13136690D01*
X19635119Y-13155738D01*
X19635119Y-13212881D01*
X19625595Y-13231928D01*
X19616071Y-13241452D01*
X19597024Y-13250976D01*
X19568452Y-13250976D01*
X19749405Y-13250976D02*
X19730357Y-13241452D01*
X19720833Y-13222405D01*
X19720833Y-13050976D01*
X19901786Y-13241452D02*
X19882738Y-13250976D01*
X19844643Y-13250976D01*
X19825595Y-13241452D01*
X19816071Y-13222405D01*
X19816071Y-13146214D01*
X19825595Y-13127167D01*
X19844643Y-13117643D01*
X19882738Y-13117643D01*
X19901786Y-13127167D01*
X19911310Y-13146214D01*
X19911310Y-13165262D01*
X19816071Y-13184309D01*
X19987500Y-13241452D02*
X20006548Y-13250976D01*
X20044643Y-13250976D01*
X20063690Y-13241452D01*
X20073214Y-13222405D01*
X20073214Y-13212881D01*
X20063690Y-13193833D01*
X20044643Y-13184309D01*
X20016071Y-13184309D01*
X19997024Y-13174786D01*
X19987500Y-13155738D01*
X19987500Y-13146214D01*
X19997024Y-13127167D01*
X20016071Y-13117643D01*
X20044643Y-13117643D01*
X20063690Y-13127167D01*
X20139881Y-13327167D02*
X20149405Y-13317643D01*
X20168452Y-13289071D01*
X20177976Y-13270024D01*
X20187500Y-13241452D01*
X20197024Y-13193833D01*
X20197024Y-13155738D01*
X20187500Y-13108119D01*
X20177976Y-13079548D01*
X20168452Y-13060500D01*
X20149405Y-13031928D01*
X20139881Y-13022405D01*
D14*
X15162856Y-13459856D02*
X15162856Y-13389144D01*
X15092144Y-13389144D01*
X15092144Y-13459856D01*
X15162856Y-13459856D01*
D11*
X15539881Y-13514976D02*
X15425595Y-13514976D01*
X15482738Y-13514976D02*
X15482738Y-13314976D01*
X15463690Y-13343548D01*
X15444643Y-13362595D01*
X15425595Y-13372119D01*
X15625595Y-13495928D02*
X15635119Y-13505452D01*
X15625595Y-13514976D01*
X15616071Y-13505452D01*
X15625595Y-13495928D01*
X15625595Y-13514976D01*
X15758928Y-13314976D02*
X15777976Y-13314976D01*
X15797024Y-13324500D01*
X15806548Y-13334024D01*
X15816071Y-13353071D01*
X15825595Y-13391167D01*
X15825595Y-13438786D01*
X15816071Y-13476881D01*
X15806548Y-13495928D01*
X15797024Y-13505452D01*
X15777976Y-13514976D01*
X15758928Y-13514976D01*
X15739881Y-13505452D01*
X15730357Y-13495928D01*
X15720833Y-13476881D01*
X15711309Y-13438786D01*
X15711309Y-13391167D01*
X15720833Y-13353071D01*
X15730357Y-13334024D01*
X15739881Y-13324500D01*
X15758928Y-13314976D01*
X15949405Y-13314976D02*
X15968452Y-13314976D01*
X15987500Y-13324500D01*
X15997024Y-13334024D01*
X16006548Y-13353071D01*
X16016071Y-13391167D01*
X16016071Y-13438786D01*
X16006548Y-13476881D01*
X15997024Y-13495928D01*
X15987500Y-13505452D01*
X15968452Y-13514976D01*
X15949405Y-13514976D01*
X15930357Y-13505452D01*
X15920833Y-13495928D01*
X15911309Y-13476881D01*
X15901786Y-13438786D01*
X15901786Y-13391167D01*
X15911309Y-13353071D01*
X15920833Y-13334024D01*
X15930357Y-13324500D01*
X15949405Y-13314976D01*
X16139881Y-13314976D02*
X16158928Y-13314976D01*
X16177976Y-13324500D01*
X16187500Y-13334024D01*
X16197024Y-13353071D01*
X16206548Y-13391167D01*
X16206548Y-13438786D01*
X16197024Y-13476881D01*
X16187500Y-13495928D01*
X16177976Y-13505452D01*
X16158928Y-13514976D01*
X16139881Y-13514976D01*
X16120833Y-13505452D01*
X16111309Y-13495928D01*
X16101786Y-13476881D01*
X16092262Y-13438786D01*
X16092262Y-13391167D01*
X16101786Y-13353071D01*
X16111309Y-13334024D01*
X16120833Y-13324500D01*
X16139881Y-13314976D01*
X16292262Y-13514976D02*
X16292262Y-13381643D01*
X16292262Y-13400690D02*
X16301786Y-13391167D01*
X16320833Y-13381643D01*
X16349405Y-13381643D01*
X16368452Y-13391167D01*
X16377976Y-13410214D01*
X16377976Y-13514976D01*
X16377976Y-13410214D02*
X16387500Y-13391167D01*
X16406548Y-13381643D01*
X16435119Y-13381643D01*
X16454167Y-13391167D01*
X16463690Y-13410214D01*
X16463690Y-13514976D01*
X16558928Y-13514976D02*
X16558928Y-13381643D01*
X16558928Y-13400690D02*
X16568452Y-13391167D01*
X16587500Y-13381643D01*
X16616071Y-13381643D01*
X16635119Y-13391167D01*
X16644643Y-13410214D01*
X16644643Y-13514976D01*
X16644643Y-13410214D02*
X16654167Y-13391167D01*
X16673214Y-13381643D01*
X16701786Y-13381643D01*
X16720833Y-13391167D01*
X16730357Y-13410214D01*
X16730357Y-13514976D01*
X17120833Y-13305452D02*
X16949405Y-13562595D01*
X17377976Y-13314976D02*
X17397024Y-13314976D01*
X17416071Y-13324500D01*
X17425595Y-13334024D01*
X17435119Y-13353071D01*
X17444643Y-13391167D01*
X17444643Y-13438786D01*
X17435119Y-13476881D01*
X17425595Y-13495928D01*
X17416071Y-13505452D01*
X17397024Y-13514976D01*
X17377976Y-13514976D01*
X17358929Y-13505452D01*
X17349405Y-13495928D01*
X17339881Y-13476881D01*
X17330357Y-13438786D01*
X17330357Y-13391167D01*
X17339881Y-13353071D01*
X17349405Y-13334024D01*
X17358929Y-13324500D01*
X17377976Y-13314976D01*
X17530357Y-13495928D02*
X17539881Y-13505452D01*
X17530357Y-13514976D01*
X17520833Y-13505452D01*
X17530357Y-13495928D01*
X17530357Y-13514976D01*
X17663690Y-13314976D02*
X17682738Y-13314976D01*
X17701786Y-13324500D01*
X17711310Y-13334024D01*
X17720833Y-13353071D01*
X17730357Y-13391167D01*
X17730357Y-13438786D01*
X17720833Y-13476881D01*
X17711310Y-13495928D01*
X17701786Y-13505452D01*
X17682738Y-13514976D01*
X17663690Y-13514976D01*
X17644643Y-13505452D01*
X17635119Y-13495928D01*
X17625595Y-13476881D01*
X17616071Y-13438786D01*
X17616071Y-13391167D01*
X17625595Y-13353071D01*
X17635119Y-13334024D01*
X17644643Y-13324500D01*
X17663690Y-13314976D01*
X17797024Y-13314976D02*
X17920833Y-13314976D01*
X17854167Y-13391167D01*
X17882738Y-13391167D01*
X17901786Y-13400690D01*
X17911310Y-13410214D01*
X17920833Y-13429262D01*
X17920833Y-13476881D01*
X17911310Y-13495928D01*
X17901786Y-13505452D01*
X17882738Y-13514976D01*
X17825595Y-13514976D01*
X17806548Y-13505452D01*
X17797024Y-13495928D01*
X18016071Y-13514976D02*
X18054167Y-13514976D01*
X18073214Y-13505452D01*
X18082738Y-13495928D01*
X18101786Y-13467357D01*
X18111310Y-13429262D01*
X18111310Y-13353071D01*
X18101786Y-13334024D01*
X18092262Y-13324500D01*
X18073214Y-13314976D01*
X18035119Y-13314976D01*
X18016071Y-13324500D01*
X18006548Y-13334024D01*
X17997024Y-13353071D01*
X17997024Y-13400690D01*
X18006548Y-13419738D01*
X18016071Y-13429262D01*
X18035119Y-13438786D01*
X18073214Y-13438786D01*
X18092262Y-13429262D01*
X18101786Y-13419738D01*
X18111310Y-13400690D01*
X18282738Y-13381643D02*
X18282738Y-13514976D01*
X18235119Y-13305452D02*
X18187500Y-13448309D01*
X18311310Y-13448309D01*
X18377976Y-13314976D02*
X18377976Y-13353071D01*
X18454167Y-13314976D02*
X18454167Y-13353071D01*
X18749405Y-13591167D02*
X18739881Y-13581643D01*
X18720833Y-13553071D01*
X18711310Y-13534024D01*
X18701786Y-13505452D01*
X18692262Y-13457833D01*
X18692262Y-13419738D01*
X18701786Y-13372119D01*
X18711310Y-13343548D01*
X18720833Y-13324500D01*
X18739881Y-13295928D01*
X18749405Y-13286405D01*
X18911310Y-13381643D02*
X18911310Y-13514976D01*
X18863690Y-13305452D02*
X18816071Y-13448309D01*
X18939881Y-13448309D01*
X19168452Y-13514976D02*
X19168452Y-13314976D01*
X19254167Y-13514976D02*
X19254167Y-13410214D01*
X19244643Y-13391167D01*
X19225595Y-13381643D01*
X19197024Y-13381643D01*
X19177976Y-13391167D01*
X19168452Y-13400690D01*
X19377976Y-13514976D02*
X19358929Y-13505452D01*
X19349405Y-13495928D01*
X19339881Y-13476881D01*
X19339881Y-13419738D01*
X19349405Y-13400690D01*
X19358929Y-13391167D01*
X19377976Y-13381643D01*
X19406548Y-13381643D01*
X19425595Y-13391167D01*
X19435119Y-13400690D01*
X19444643Y-13419738D01*
X19444643Y-13476881D01*
X19435119Y-13495928D01*
X19425595Y-13505452D01*
X19406548Y-13514976D01*
X19377976Y-13514976D01*
X19558929Y-13514976D02*
X19539881Y-13505452D01*
X19530357Y-13486405D01*
X19530357Y-13314976D01*
X19711310Y-13505452D02*
X19692262Y-13514976D01*
X19654167Y-13514976D01*
X19635119Y-13505452D01*
X19625595Y-13486405D01*
X19625595Y-13410214D01*
X19635119Y-13391167D01*
X19654167Y-13381643D01*
X19692262Y-13381643D01*
X19711310Y-13391167D01*
X19720833Y-13410214D01*
X19720833Y-13429262D01*
X19625595Y-13448309D01*
X19797024Y-13505452D02*
X19816071Y-13514976D01*
X19854167Y-13514976D01*
X19873214Y-13505452D01*
X19882738Y-13486405D01*
X19882738Y-13476881D01*
X19873214Y-13457833D01*
X19854167Y-13448309D01*
X19825595Y-13448309D01*
X19806548Y-13438786D01*
X19797024Y-13419738D01*
X19797024Y-13410214D01*
X19806548Y-13391167D01*
X19825595Y-13381643D01*
X19854167Y-13381643D01*
X19873214Y-13391167D01*
X19949405Y-13591167D02*
X19958929Y-13581643D01*
X19977976Y-13553071D01*
X19987500Y-13534024D01*
X19997024Y-13505452D01*
X20006548Y-13457833D01*
X20006548Y-13419738D01*
X19997024Y-13372119D01*
X19987500Y-13343548D01*
X19977976Y-13324500D01*
X19958929Y-13295928D01*
X19949405Y-13286405D01*
D15*
X15122500Y-13743500D02*
X15177500Y-13688500D01*
X15122500Y-13633500D01*
X15067500Y-13688500D01*
X15122500Y-13743500D01*
D11*
X15539881Y-13778976D02*
X15425595Y-13778976D01*
X15482738Y-13778976D02*
X15482738Y-13578976D01*
X15463690Y-13607548D01*
X15444643Y-13626595D01*
X15425595Y-13636119D01*
X15625595Y-13759928D02*
X15635119Y-13769452D01*
X15625595Y-13778976D01*
X15616071Y-13769452D01*
X15625595Y-13759928D01*
X15625595Y-13778976D01*
X15825595Y-13778976D02*
X15711309Y-13778976D01*
X15768452Y-13778976D02*
X15768452Y-13578976D01*
X15749405Y-13607548D01*
X15730357Y-13626595D01*
X15711309Y-13636119D01*
X15949405Y-13578976D02*
X15968452Y-13578976D01*
X15987500Y-13588500D01*
X15997024Y-13598024D01*
X16006548Y-13617071D01*
X16016071Y-13655167D01*
X16016071Y-13702786D01*
X16006548Y-13740881D01*
X15997024Y-13759928D01*
X15987500Y-13769452D01*
X15968452Y-13778976D01*
X15949405Y-13778976D01*
X15930357Y-13769452D01*
X15920833Y-13759928D01*
X15911309Y-13740881D01*
X15901786Y-13702786D01*
X15901786Y-13655167D01*
X15911309Y-13617071D01*
X15920833Y-13598024D01*
X15930357Y-13588500D01*
X15949405Y-13578976D01*
X16139881Y-13578976D02*
X16158928Y-13578976D01*
X16177976Y-13588500D01*
X16187500Y-13598024D01*
X16197024Y-13617071D01*
X16206548Y-13655167D01*
X16206548Y-13702786D01*
X16197024Y-13740881D01*
X16187500Y-13759928D01*
X16177976Y-13769452D01*
X16158928Y-13778976D01*
X16139881Y-13778976D01*
X16120833Y-13769452D01*
X16111309Y-13759928D01*
X16101786Y-13740881D01*
X16092262Y-13702786D01*
X16092262Y-13655167D01*
X16101786Y-13617071D01*
X16111309Y-13598024D01*
X16120833Y-13588500D01*
X16139881Y-13578976D01*
X16292262Y-13778976D02*
X16292262Y-13645643D01*
X16292262Y-13664690D02*
X16301786Y-13655167D01*
X16320833Y-13645643D01*
X16349405Y-13645643D01*
X16368452Y-13655167D01*
X16377976Y-13674214D01*
X16377976Y-13778976D01*
X16377976Y-13674214D02*
X16387500Y-13655167D01*
X16406548Y-13645643D01*
X16435119Y-13645643D01*
X16454167Y-13655167D01*
X16463690Y-13674214D01*
X16463690Y-13778976D01*
X16558928Y-13778976D02*
X16558928Y-13645643D01*
X16558928Y-13664690D02*
X16568452Y-13655167D01*
X16587500Y-13645643D01*
X16616071Y-13645643D01*
X16635119Y-13655167D01*
X16644643Y-13674214D01*
X16644643Y-13778976D01*
X16644643Y-13674214D02*
X16654167Y-13655167D01*
X16673214Y-13645643D01*
X16701786Y-13645643D01*
X16720833Y-13655167D01*
X16730357Y-13674214D01*
X16730357Y-13778976D01*
X17120833Y-13569452D02*
X16949405Y-13826595D01*
X17377976Y-13578976D02*
X17397024Y-13578976D01*
X17416071Y-13588500D01*
X17425595Y-13598024D01*
X17435119Y-13617071D01*
X17444643Y-13655167D01*
X17444643Y-13702786D01*
X17435119Y-13740881D01*
X17425595Y-13759928D01*
X17416071Y-13769452D01*
X17397024Y-13778976D01*
X17377976Y-13778976D01*
X17358929Y-13769452D01*
X17349405Y-13759928D01*
X17339881Y-13740881D01*
X17330357Y-13702786D01*
X17330357Y-13655167D01*
X17339881Y-13617071D01*
X17349405Y-13598024D01*
X17358929Y-13588500D01*
X17377976Y-13578976D01*
X17530357Y-13759928D02*
X17539881Y-13769452D01*
X17530357Y-13778976D01*
X17520833Y-13769452D01*
X17530357Y-13759928D01*
X17530357Y-13778976D01*
X17663690Y-13578976D02*
X17682738Y-13578976D01*
X17701786Y-13588500D01*
X17711310Y-13598024D01*
X17720833Y-13617071D01*
X17730357Y-13655167D01*
X17730357Y-13702786D01*
X17720833Y-13740881D01*
X17711310Y-13759928D01*
X17701786Y-13769452D01*
X17682738Y-13778976D01*
X17663690Y-13778976D01*
X17644643Y-13769452D01*
X17635119Y-13759928D01*
X17625595Y-13740881D01*
X17616071Y-13702786D01*
X17616071Y-13655167D01*
X17625595Y-13617071D01*
X17635119Y-13598024D01*
X17644643Y-13588500D01*
X17663690Y-13578976D01*
X17901786Y-13645643D02*
X17901786Y-13778976D01*
X17854167Y-13569452D02*
X17806548Y-13712309D01*
X17930357Y-13712309D01*
X17987500Y-13578976D02*
X18111310Y-13578976D01*
X18044643Y-13655167D01*
X18073214Y-13655167D01*
X18092262Y-13664690D01*
X18101786Y-13674214D01*
X18111310Y-13693262D01*
X18111310Y-13740881D01*
X18101786Y-13759928D01*
X18092262Y-13769452D01*
X18073214Y-13778976D01*
X18016071Y-13778976D01*
X17997024Y-13769452D01*
X17987500Y-13759928D01*
X18177976Y-13578976D02*
X18301786Y-13578976D01*
X18235119Y-13655167D01*
X18263690Y-13655167D01*
X18282738Y-13664690D01*
X18292262Y-13674214D01*
X18301786Y-13693262D01*
X18301786Y-13740881D01*
X18292262Y-13759928D01*
X18282738Y-13769452D01*
X18263690Y-13778976D01*
X18206548Y-13778976D01*
X18187500Y-13769452D01*
X18177976Y-13759928D01*
X18377976Y-13578976D02*
X18377976Y-13617071D01*
X18454167Y-13578976D02*
X18454167Y-13617071D01*
X18749405Y-13855167D02*
X18739881Y-13845643D01*
X18720833Y-13817071D01*
X18711310Y-13798024D01*
X18701786Y-13769452D01*
X18692262Y-13721833D01*
X18692262Y-13683738D01*
X18701786Y-13636119D01*
X18711310Y-13607548D01*
X18720833Y-13588500D01*
X18739881Y-13559928D01*
X18749405Y-13550405D01*
X18816071Y-13598024D02*
X18825595Y-13588500D01*
X18844643Y-13578976D01*
X18892262Y-13578976D01*
X18911310Y-13588500D01*
X18920833Y-13598024D01*
X18930357Y-13617071D01*
X18930357Y-13636119D01*
X18920833Y-13664690D01*
X18806548Y-13778976D01*
X18930357Y-13778976D01*
X19168452Y-13778976D02*
X19168452Y-13578976D01*
X19254167Y-13778976D02*
X19254167Y-13674214D01*
X19244643Y-13655167D01*
X19225595Y-13645643D01*
X19197024Y-13645643D01*
X19177976Y-13655167D01*
X19168452Y-13664690D01*
X19377976Y-13778976D02*
X19358929Y-13769452D01*
X19349405Y-13759928D01*
X19339881Y-13740881D01*
X19339881Y-13683738D01*
X19349405Y-13664690D01*
X19358929Y-13655167D01*
X19377976Y-13645643D01*
X19406548Y-13645643D01*
X19425595Y-13655167D01*
X19435119Y-13664690D01*
X19444643Y-13683738D01*
X19444643Y-13740881D01*
X19435119Y-13759928D01*
X19425595Y-13769452D01*
X19406548Y-13778976D01*
X19377976Y-13778976D01*
X19558929Y-13778976D02*
X19539881Y-13769452D01*
X19530357Y-13750405D01*
X19530357Y-13578976D01*
X19711310Y-13769452D02*
X19692262Y-13778976D01*
X19654167Y-13778976D01*
X19635119Y-13769452D01*
X19625595Y-13750405D01*
X19625595Y-13674214D01*
X19635119Y-13655167D01*
X19654167Y-13645643D01*
X19692262Y-13645643D01*
X19711310Y-13655167D01*
X19720833Y-13674214D01*
X19720833Y-13693262D01*
X19625595Y-13712309D01*
X19797024Y-13769452D02*
X19816071Y-13778976D01*
X19854167Y-13778976D01*
X19873214Y-13769452D01*
X19882738Y-13750405D01*
X19882738Y-13740881D01*
X19873214Y-13721833D01*
X19854167Y-13712309D01*
X19825595Y-13712309D01*
X19806548Y-13702786D01*
X19797024Y-13683738D01*
X19797024Y-13674214D01*
X19806548Y-13655167D01*
X19825595Y-13645643D01*
X19854167Y-13645643D01*
X19873214Y-13655167D01*
X19949405Y-13855167D02*
X19958929Y-13845643D01*
X19977976Y-13817071D01*
X19987500Y-13798024D01*
X19997024Y-13769452D01*
X20006548Y-13721833D01*
X20006548Y-13683738D01*
X19997024Y-13636119D01*
X19987500Y-13607548D01*
X19977976Y-13588500D01*
X19958929Y-13559928D01*
X19949405Y-13550405D01*
D16*
X15027500Y-13877500D02*
X15177500Y-14027500D01*
X15177500Y-13877500D02*
X15027500Y-14027500D01*
X15177500Y-13952500D02*
G75*
G03*
X15177500Y-13952500I-75000J0D01*
G01*
D11*
X15539881Y-14042976D02*
X15425595Y-14042976D01*
X15482738Y-14042976D02*
X15482738Y-13842976D01*
X15463690Y-13871548D01*
X15444643Y-13890595D01*
X15425595Y-13900119D01*
X15625595Y-14023928D02*
X15635119Y-14033452D01*
X15625595Y-14042976D01*
X15616071Y-14033452D01*
X15625595Y-14023928D01*
X15625595Y-14042976D01*
X15816071Y-13842976D02*
X15720833Y-13842976D01*
X15711309Y-13938214D01*
X15720833Y-13928690D01*
X15739881Y-13919167D01*
X15787500Y-13919167D01*
X15806548Y-13928690D01*
X15816071Y-13938214D01*
X15825595Y-13957262D01*
X15825595Y-14004881D01*
X15816071Y-14023928D01*
X15806548Y-14033452D01*
X15787500Y-14042976D01*
X15739881Y-14042976D01*
X15720833Y-14033452D01*
X15711309Y-14023928D01*
X15949405Y-13842976D02*
X15968452Y-13842976D01*
X15987500Y-13852500D01*
X15997024Y-13862024D01*
X16006548Y-13881071D01*
X16016071Y-13919167D01*
X16016071Y-13966786D01*
X16006548Y-14004881D01*
X15997024Y-14023928D01*
X15987500Y-14033452D01*
X15968452Y-14042976D01*
X15949405Y-14042976D01*
X15930357Y-14033452D01*
X15920833Y-14023928D01*
X15911309Y-14004881D01*
X15901786Y-13966786D01*
X15901786Y-13919167D01*
X15911309Y-13881071D01*
X15920833Y-13862024D01*
X15930357Y-13852500D01*
X15949405Y-13842976D01*
X16139881Y-13842976D02*
X16158928Y-13842976D01*
X16177976Y-13852500D01*
X16187500Y-13862024D01*
X16197024Y-13881071D01*
X16206548Y-13919167D01*
X16206548Y-13966786D01*
X16197024Y-14004881D01*
X16187500Y-14023928D01*
X16177976Y-14033452D01*
X16158928Y-14042976D01*
X16139881Y-14042976D01*
X16120833Y-14033452D01*
X16111309Y-14023928D01*
X16101786Y-14004881D01*
X16092262Y-13966786D01*
X16092262Y-13919167D01*
X16101786Y-13881071D01*
X16111309Y-13862024D01*
X16120833Y-13852500D01*
X16139881Y-13842976D01*
X16292262Y-14042976D02*
X16292262Y-13909643D01*
X16292262Y-13928690D02*
X16301786Y-13919167D01*
X16320833Y-13909643D01*
X16349405Y-13909643D01*
X16368452Y-13919167D01*
X16377976Y-13938214D01*
X16377976Y-14042976D01*
X16377976Y-13938214D02*
X16387500Y-13919167D01*
X16406548Y-13909643D01*
X16435119Y-13909643D01*
X16454167Y-13919167D01*
X16463690Y-13938214D01*
X16463690Y-14042976D01*
X16558928Y-14042976D02*
X16558928Y-13909643D01*
X16558928Y-13928690D02*
X16568452Y-13919167D01*
X16587500Y-13909643D01*
X16616071Y-13909643D01*
X16635119Y-13919167D01*
X16644643Y-13938214D01*
X16644643Y-14042976D01*
X16644643Y-13938214D02*
X16654167Y-13919167D01*
X16673214Y-13909643D01*
X16701786Y-13909643D01*
X16720833Y-13919167D01*
X16730357Y-13938214D01*
X16730357Y-14042976D01*
X17120833Y-13833452D02*
X16949405Y-14090595D01*
X17377976Y-13842976D02*
X17397024Y-13842976D01*
X17416071Y-13852500D01*
X17425595Y-13862024D01*
X17435119Y-13881071D01*
X17444643Y-13919167D01*
X17444643Y-13966786D01*
X17435119Y-14004881D01*
X17425595Y-14023928D01*
X17416071Y-14033452D01*
X17397024Y-14042976D01*
X17377976Y-14042976D01*
X17358929Y-14033452D01*
X17349405Y-14023928D01*
X17339881Y-14004881D01*
X17330357Y-13966786D01*
X17330357Y-13919167D01*
X17339881Y-13881071D01*
X17349405Y-13862024D01*
X17358929Y-13852500D01*
X17377976Y-13842976D01*
X17530357Y-14023928D02*
X17539881Y-14033452D01*
X17530357Y-14042976D01*
X17520833Y-14033452D01*
X17530357Y-14023928D01*
X17530357Y-14042976D01*
X17663690Y-13842976D02*
X17682738Y-13842976D01*
X17701786Y-13852500D01*
X17711310Y-13862024D01*
X17720833Y-13881071D01*
X17730357Y-13919167D01*
X17730357Y-13966786D01*
X17720833Y-14004881D01*
X17711310Y-14023928D01*
X17701786Y-14033452D01*
X17682738Y-14042976D01*
X17663690Y-14042976D01*
X17644643Y-14033452D01*
X17635119Y-14023928D01*
X17625595Y-14004881D01*
X17616071Y-13966786D01*
X17616071Y-13919167D01*
X17625595Y-13881071D01*
X17635119Y-13862024D01*
X17644643Y-13852500D01*
X17663690Y-13842976D01*
X17911310Y-13842976D02*
X17816071Y-13842976D01*
X17806548Y-13938214D01*
X17816071Y-13928690D01*
X17835119Y-13919167D01*
X17882738Y-13919167D01*
X17901786Y-13928690D01*
X17911310Y-13938214D01*
X17920833Y-13957262D01*
X17920833Y-14004881D01*
X17911310Y-14023928D01*
X17901786Y-14033452D01*
X17882738Y-14042976D01*
X17835119Y-14042976D01*
X17816071Y-14033452D01*
X17806548Y-14023928D01*
X18016071Y-14042976D02*
X18054167Y-14042976D01*
X18073214Y-14033452D01*
X18082738Y-14023928D01*
X18101786Y-13995357D01*
X18111310Y-13957262D01*
X18111310Y-13881071D01*
X18101786Y-13862024D01*
X18092262Y-13852500D01*
X18073214Y-13842976D01*
X18035119Y-13842976D01*
X18016071Y-13852500D01*
X18006548Y-13862024D01*
X17997024Y-13881071D01*
X17997024Y-13928690D01*
X18006548Y-13947738D01*
X18016071Y-13957262D01*
X18035119Y-13966786D01*
X18073214Y-13966786D01*
X18092262Y-13957262D01*
X18101786Y-13947738D01*
X18111310Y-13928690D01*
X18301786Y-14042976D02*
X18187500Y-14042976D01*
X18244643Y-14042976D02*
X18244643Y-13842976D01*
X18225595Y-13871548D01*
X18206548Y-13890595D01*
X18187500Y-13900119D01*
X18377976Y-13842976D02*
X18377976Y-13881071D01*
X18454167Y-13842976D02*
X18454167Y-13881071D01*
X18749405Y-14119167D02*
X18739881Y-14109643D01*
X18720833Y-14081071D01*
X18711310Y-14062024D01*
X18701786Y-14033452D01*
X18692262Y-13985833D01*
X18692262Y-13947738D01*
X18701786Y-13900119D01*
X18711310Y-13871548D01*
X18720833Y-13852500D01*
X18739881Y-13823928D01*
X18749405Y-13814405D01*
X18920833Y-13842976D02*
X18825595Y-13842976D01*
X18816071Y-13938214D01*
X18825595Y-13928690D01*
X18844643Y-13919167D01*
X18892262Y-13919167D01*
X18911310Y-13928690D01*
X18920833Y-13938214D01*
X18930357Y-13957262D01*
X18930357Y-14004881D01*
X18920833Y-14023928D01*
X18911310Y-14033452D01*
X18892262Y-14042976D01*
X18844643Y-14042976D01*
X18825595Y-14033452D01*
X18816071Y-14023928D01*
X19168452Y-14042976D02*
X19168452Y-13842976D01*
X19254167Y-14042976D02*
X19254167Y-13938214D01*
X19244643Y-13919167D01*
X19225595Y-13909643D01*
X19197024Y-13909643D01*
X19177976Y-13919167D01*
X19168452Y-13928690D01*
X19377976Y-14042976D02*
X19358929Y-14033452D01*
X19349405Y-14023928D01*
X19339881Y-14004881D01*
X19339881Y-13947738D01*
X19349405Y-13928690D01*
X19358929Y-13919167D01*
X19377976Y-13909643D01*
X19406548Y-13909643D01*
X19425595Y-13919167D01*
X19435119Y-13928690D01*
X19444643Y-13947738D01*
X19444643Y-14004881D01*
X19435119Y-14023928D01*
X19425595Y-14033452D01*
X19406548Y-14042976D01*
X19377976Y-14042976D01*
X19558929Y-14042976D02*
X19539881Y-14033452D01*
X19530357Y-14014405D01*
X19530357Y-13842976D01*
X19711310Y-14033452D02*
X19692262Y-14042976D01*
X19654167Y-14042976D01*
X19635119Y-14033452D01*
X19625595Y-14014405D01*
X19625595Y-13938214D01*
X19635119Y-13919167D01*
X19654167Y-13909643D01*
X19692262Y-13909643D01*
X19711310Y-13919167D01*
X19720833Y-13938214D01*
X19720833Y-13957262D01*
X19625595Y-13976309D01*
X19797024Y-14033452D02*
X19816071Y-14042976D01*
X19854167Y-14042976D01*
X19873214Y-14033452D01*
X19882738Y-14014405D01*
X19882738Y-14004881D01*
X19873214Y-13985833D01*
X19854167Y-13976309D01*
X19825595Y-13976309D01*
X19806548Y-13966786D01*
X19797024Y-13947738D01*
X19797024Y-13938214D01*
X19806548Y-13919167D01*
X19825595Y-13909643D01*
X19854167Y-13909643D01*
X19873214Y-13919167D01*
X19949405Y-14119167D02*
X19958929Y-14109643D01*
X19977976Y-14081071D01*
X19987500Y-14062024D01*
X19997024Y-14033452D01*
X20006548Y-13985833D01*
X20006548Y-13947738D01*
X19997024Y-13900119D01*
X19987500Y-13871548D01*
X19977976Y-13852500D01*
X19958929Y-13823928D01*
X19949405Y-13814405D01*
X14977500Y-14122500D02*
X15177500Y-14322500D01*
X15177500Y-14122500D02*
X14977500Y-14322500D01*
X15077500Y-14122500D02*
X15077500Y-14322500D01*
X14977500Y-14222500D02*
X15177500Y-14222500D01*
X15425595Y-14132024D02*
X15435119Y-14122500D01*
X15454167Y-14112976D01*
X15501786Y-14112976D01*
X15520833Y-14122500D01*
X15530357Y-14132024D01*
X15539881Y-14151071D01*
X15539881Y-14170119D01*
X15530357Y-14198690D01*
X15416071Y-14312976D01*
X15539881Y-14312976D01*
X15625595Y-14293928D02*
X15635119Y-14303452D01*
X15625595Y-14312976D01*
X15616071Y-14303452D01*
X15625595Y-14293928D01*
X15625595Y-14312976D01*
X15711309Y-14132024D02*
X15720833Y-14122500D01*
X15739881Y-14112976D01*
X15787500Y-14112976D01*
X15806548Y-14122500D01*
X15816071Y-14132024D01*
X15825595Y-14151071D01*
X15825595Y-14170119D01*
X15816071Y-14198690D01*
X15701786Y-14312976D01*
X15825595Y-14312976D01*
X15949405Y-14112976D02*
X15968452Y-14112976D01*
X15987500Y-14122500D01*
X15997024Y-14132024D01*
X16006548Y-14151071D01*
X16016071Y-14189167D01*
X16016071Y-14236786D01*
X16006548Y-14274881D01*
X15997024Y-14293928D01*
X15987500Y-14303452D01*
X15968452Y-14312976D01*
X15949405Y-14312976D01*
X15930357Y-14303452D01*
X15920833Y-14293928D01*
X15911309Y-14274881D01*
X15901786Y-14236786D01*
X15901786Y-14189167D01*
X15911309Y-14151071D01*
X15920833Y-14132024D01*
X15930357Y-14122500D01*
X15949405Y-14112976D01*
X16139881Y-14112976D02*
X16158928Y-14112976D01*
X16177976Y-14122500D01*
X16187500Y-14132024D01*
X16197024Y-14151071D01*
X16206548Y-14189167D01*
X16206548Y-14236786D01*
X16197024Y-14274881D01*
X16187500Y-14293928D01*
X16177976Y-14303452D01*
X16158928Y-14312976D01*
X16139881Y-14312976D01*
X16120833Y-14303452D01*
X16111309Y-14293928D01*
X16101786Y-14274881D01*
X16092262Y-14236786D01*
X16092262Y-14189167D01*
X16101786Y-14151071D01*
X16111309Y-14132024D01*
X16120833Y-14122500D01*
X16139881Y-14112976D01*
X16292262Y-14312976D02*
X16292262Y-14179643D01*
X16292262Y-14198690D02*
X16301786Y-14189167D01*
X16320833Y-14179643D01*
X16349405Y-14179643D01*
X16368452Y-14189167D01*
X16377976Y-14208214D01*
X16377976Y-14312976D01*
X16377976Y-14208214D02*
X16387500Y-14189167D01*
X16406548Y-14179643D01*
X16435119Y-14179643D01*
X16454167Y-14189167D01*
X16463690Y-14208214D01*
X16463690Y-14312976D01*
X16558928Y-14312976D02*
X16558928Y-14179643D01*
X16558928Y-14198690D02*
X16568452Y-14189167D01*
X16587500Y-14179643D01*
X16616071Y-14179643D01*
X16635119Y-14189167D01*
X16644643Y-14208214D01*
X16644643Y-14312976D01*
X16644643Y-14208214D02*
X16654167Y-14189167D01*
X16673214Y-14179643D01*
X16701786Y-14179643D01*
X16720833Y-14189167D01*
X16730357Y-14208214D01*
X16730357Y-14312976D01*
X17120833Y-14103452D02*
X16949405Y-14360595D01*
X17377976Y-14112976D02*
X17397024Y-14112976D01*
X17416071Y-14122500D01*
X17425595Y-14132024D01*
X17435119Y-14151071D01*
X17444643Y-14189167D01*
X17444643Y-14236786D01*
X17435119Y-14274881D01*
X17425595Y-14293928D01*
X17416071Y-14303452D01*
X17397024Y-14312976D01*
X17377976Y-14312976D01*
X17358929Y-14303452D01*
X17349405Y-14293928D01*
X17339881Y-14274881D01*
X17330357Y-14236786D01*
X17330357Y-14189167D01*
X17339881Y-14151071D01*
X17349405Y-14132024D01*
X17358929Y-14122500D01*
X17377976Y-14112976D01*
X17530357Y-14293928D02*
X17539881Y-14303452D01*
X17530357Y-14312976D01*
X17520833Y-14303452D01*
X17530357Y-14293928D01*
X17530357Y-14312976D01*
X17663690Y-14112976D02*
X17682738Y-14112976D01*
X17701786Y-14122500D01*
X17711310Y-14132024D01*
X17720833Y-14151071D01*
X17730357Y-14189167D01*
X17730357Y-14236786D01*
X17720833Y-14274881D01*
X17711310Y-14293928D01*
X17701786Y-14303452D01*
X17682738Y-14312976D01*
X17663690Y-14312976D01*
X17644643Y-14303452D01*
X17635119Y-14293928D01*
X17625595Y-14274881D01*
X17616071Y-14236786D01*
X17616071Y-14189167D01*
X17625595Y-14151071D01*
X17635119Y-14132024D01*
X17644643Y-14122500D01*
X17663690Y-14112976D01*
X17844643Y-14198690D02*
X17825595Y-14189167D01*
X17816071Y-14179643D01*
X17806548Y-14160595D01*
X17806548Y-14151071D01*
X17816071Y-14132024D01*
X17825595Y-14122500D01*
X17844643Y-14112976D01*
X17882738Y-14112976D01*
X17901786Y-14122500D01*
X17911310Y-14132024D01*
X17920833Y-14151071D01*
X17920833Y-14160595D01*
X17911310Y-14179643D01*
X17901786Y-14189167D01*
X17882738Y-14198690D01*
X17844643Y-14198690D01*
X17825595Y-14208214D01*
X17816071Y-14217738D01*
X17806548Y-14236786D01*
X17806548Y-14274881D01*
X17816071Y-14293928D01*
X17825595Y-14303452D01*
X17844643Y-14312976D01*
X17882738Y-14312976D01*
X17901786Y-14303452D01*
X17911310Y-14293928D01*
X17920833Y-14274881D01*
X17920833Y-14236786D01*
X17911310Y-14217738D01*
X17901786Y-14208214D01*
X17882738Y-14198690D01*
X18092262Y-14112976D02*
X18054167Y-14112976D01*
X18035119Y-14122500D01*
X18025595Y-14132024D01*
X18006548Y-14160595D01*
X17997024Y-14198690D01*
X17997024Y-14274881D01*
X18006548Y-14293928D01*
X18016071Y-14303452D01*
X18035119Y-14312976D01*
X18073214Y-14312976D01*
X18092262Y-14303452D01*
X18101786Y-14293928D01*
X18111310Y-14274881D01*
X18111310Y-14227262D01*
X18101786Y-14208214D01*
X18092262Y-14198690D01*
X18073214Y-14189167D01*
X18035119Y-14189167D01*
X18016071Y-14198690D01*
X18006548Y-14208214D01*
X17997024Y-14227262D01*
X18282738Y-14112976D02*
X18244643Y-14112976D01*
X18225595Y-14122500D01*
X18216071Y-14132024D01*
X18197024Y-14160595D01*
X18187500Y-14198690D01*
X18187500Y-14274881D01*
X18197024Y-14293928D01*
X18206548Y-14303452D01*
X18225595Y-14312976D01*
X18263690Y-14312976D01*
X18282738Y-14303452D01*
X18292262Y-14293928D01*
X18301786Y-14274881D01*
X18301786Y-14227262D01*
X18292262Y-14208214D01*
X18282738Y-14198690D01*
X18263690Y-14189167D01*
X18225595Y-14189167D01*
X18206548Y-14198690D01*
X18197024Y-14208214D01*
X18187500Y-14227262D01*
X18377976Y-14112976D02*
X18377976Y-14151071D01*
X18454167Y-14112976D02*
X18454167Y-14151071D01*
X18749405Y-14389167D02*
X18739881Y-14379643D01*
X18720833Y-14351071D01*
X18711310Y-14332024D01*
X18701786Y-14303452D01*
X18692262Y-14255833D01*
X18692262Y-14217738D01*
X18701786Y-14170119D01*
X18711310Y-14141548D01*
X18720833Y-14122500D01*
X18739881Y-14093928D01*
X18749405Y-14084405D01*
X18806548Y-14112976D02*
X18930357Y-14112976D01*
X18863690Y-14189167D01*
X18892262Y-14189167D01*
X18911310Y-14198690D01*
X18920833Y-14208214D01*
X18930357Y-14227262D01*
X18930357Y-14274881D01*
X18920833Y-14293928D01*
X18911310Y-14303452D01*
X18892262Y-14312976D01*
X18835119Y-14312976D01*
X18816071Y-14303452D01*
X18806548Y-14293928D01*
X19168452Y-14312976D02*
X19168452Y-14112976D01*
X19254167Y-14312976D02*
X19254167Y-14208214D01*
X19244643Y-14189167D01*
X19225595Y-14179643D01*
X19197024Y-14179643D01*
X19177976Y-14189167D01*
X19168452Y-14198690D01*
X19377976Y-14312976D02*
X19358929Y-14303452D01*
X19349405Y-14293928D01*
X19339881Y-14274881D01*
X19339881Y-14217738D01*
X19349405Y-14198690D01*
X19358929Y-14189167D01*
X19377976Y-14179643D01*
X19406548Y-14179643D01*
X19425595Y-14189167D01*
X19435119Y-14198690D01*
X19444643Y-14217738D01*
X19444643Y-14274881D01*
X19435119Y-14293928D01*
X19425595Y-14303452D01*
X19406548Y-14312976D01*
X19377976Y-14312976D01*
X19558929Y-14312976D02*
X19539881Y-14303452D01*
X19530357Y-14284405D01*
X19530357Y-14112976D01*
X19711310Y-14303452D02*
X19692262Y-14312976D01*
X19654167Y-14312976D01*
X19635119Y-14303452D01*
X19625595Y-14284405D01*
X19625595Y-14208214D01*
X19635119Y-14189167D01*
X19654167Y-14179643D01*
X19692262Y-14179643D01*
X19711310Y-14189167D01*
X19720833Y-14208214D01*
X19720833Y-14227262D01*
X19625595Y-14246309D01*
X19797024Y-14303452D02*
X19816071Y-14312976D01*
X19854167Y-14312976D01*
X19873214Y-14303452D01*
X19882738Y-14284405D01*
X19882738Y-14274881D01*
X19873214Y-14255833D01*
X19854167Y-14246309D01*
X19825595Y-14246309D01*
X19806548Y-14236786D01*
X19797024Y-14217738D01*
X19797024Y-14208214D01*
X19806548Y-14189167D01*
X19825595Y-14179643D01*
X19854167Y-14179643D01*
X19873214Y-14189167D01*
X19949405Y-14389167D02*
X19958929Y-14379643D01*
X19977976Y-14351071D01*
X19987500Y-14332024D01*
X19997024Y-14303452D01*
X20006548Y-14255833D01*
X20006548Y-14217738D01*
X19997024Y-14170119D01*
X19987500Y-14141548D01*
X19977976Y-14122500D01*
X19958929Y-14093928D01*
X19949405Y-14084405D01*
M02*
