G04 #@! TF.GenerationSoftware,KiCad,Pcbnew,(6.0.2)*
G04 #@! TF.CreationDate,2022-09-28T01:25:07+02:00*
G04 #@! TF.ProjectId,Washing-Machine-Sensor,57617368-696e-4672-9d4d-616368696e65,rev?*
G04 #@! TF.SameCoordinates,Original*
G04 #@! TF.FileFunction,Copper,L1,Top*
G04 #@! TF.FilePolarity,Positive*
%FSLAX46Y46*%
G04 Gerber Fmt 4.6, Leading zero omitted, Abs format (unit mm)*
G04 Created by KiCad (PCBNEW (6.0.2)) date 2022-09-28 01:25:07*
%MOMM*%
%LPD*%
G01*
G04 APERTURE LIST*
G04 Aperture macros list*
%AMRoundRect*
0 Rectangle with rounded corners*
0 $1 Rounding radius*
0 $2 $3 $4 $5 $6 $7 $8 $9 X,Y pos of 4 corners*
0 Add a 4 corners polygon primitive as box body*
4,1,4,$2,$3,$4,$5,$6,$7,$8,$9,$2,$3,0*
0 Add four circle primitives for the rounded corners*
1,1,$1+$1,$2,$3*
1,1,$1+$1,$4,$5*
1,1,$1+$1,$6,$7*
1,1,$1+$1,$8,$9*
0 Add four rect primitives between the rounded corners*
20,1,$1+$1,$2,$3,$4,$5,0*
20,1,$1+$1,$4,$5,$6,$7,0*
20,1,$1+$1,$6,$7,$8,$9,0*
20,1,$1+$1,$8,$9,$2,$3,0*%
G04 Aperture macros list end*
G04 #@! TA.AperFunction,ComponentPad*
%ADD10R,1.350000X1.350000*%
G04 #@! TD*
G04 #@! TA.AperFunction,ComponentPad*
%ADD11O,1.350000X1.350000*%
G04 #@! TD*
G04 #@! TA.AperFunction,ComponentPad*
%ADD12C,1.350000*%
G04 #@! TD*
G04 #@! TA.AperFunction,SMDPad,CuDef*
%ADD13RoundRect,0.250000X0.250000X0.475000X-0.250000X0.475000X-0.250000X-0.475000X0.250000X-0.475000X0*%
G04 #@! TD*
G04 #@! TA.AperFunction,SMDPad,CuDef*
%ADD14RoundRect,0.250000X0.450000X-0.262500X0.450000X0.262500X-0.450000X0.262500X-0.450000X-0.262500X0*%
G04 #@! TD*
G04 #@! TA.AperFunction,ComponentPad*
%ADD15R,2.200000X2.200000*%
G04 #@! TD*
G04 #@! TA.AperFunction,ComponentPad*
%ADD16C,2.200000*%
G04 #@! TD*
G04 #@! TA.AperFunction,ComponentPad*
%ADD17C,0.700000*%
G04 #@! TD*
G04 #@! TA.AperFunction,ComponentPad*
%ADD18C,4.400000*%
G04 #@! TD*
G04 #@! TA.AperFunction,SMDPad,CuDef*
%ADD19RoundRect,0.250000X-0.450000X0.262500X-0.450000X-0.262500X0.450000X-0.262500X0.450000X0.262500X0*%
G04 #@! TD*
G04 #@! TA.AperFunction,SMDPad,CuDef*
%ADD20R,2.000000X1.500000*%
G04 #@! TD*
G04 #@! TA.AperFunction,SMDPad,CuDef*
%ADD21R,2.000000X3.800000*%
G04 #@! TD*
G04 #@! TA.AperFunction,ComponentPad*
%ADD22C,2.250000*%
G04 #@! TD*
G04 #@! TA.AperFunction,ComponentPad*
%ADD23R,1.700000X1.700000*%
G04 #@! TD*
G04 #@! TA.AperFunction,ComponentPad*
%ADD24O,1.700000X1.700000*%
G04 #@! TD*
G04 #@! TA.AperFunction,ComponentPad*
%ADD25R,1.600000X1.600000*%
G04 #@! TD*
G04 #@! TA.AperFunction,ComponentPad*
%ADD26O,1.600000X1.600000*%
G04 #@! TD*
G04 #@! TA.AperFunction,ViaPad*
%ADD27C,0.600000*%
G04 #@! TD*
G04 #@! TA.AperFunction,Conductor*
%ADD28C,1.000000*%
G04 #@! TD*
G04 #@! TA.AperFunction,Conductor*
%ADD29C,0.500000*%
G04 #@! TD*
G04 #@! TA.AperFunction,Conductor*
%ADD30C,1.350000*%
G04 #@! TD*
G04 APERTURE END LIST*
D10*
X182200000Y-108750000D03*
D11*
X184200000Y-108750000D03*
X186200000Y-108750000D03*
X188200000Y-108750000D03*
X190200000Y-108750000D03*
X192200000Y-108750000D03*
X194200000Y-108750000D03*
X196200000Y-108750000D03*
X196200000Y-94750000D03*
X194200000Y-94750000D03*
X192200000Y-94750000D03*
X190200000Y-94750000D03*
X188200000Y-94750000D03*
X186200000Y-94750000D03*
X184200000Y-94750000D03*
D12*
X182200000Y-94750000D03*
D13*
X200300000Y-118300000D03*
X198400000Y-118300000D03*
D14*
X175500000Y-109512500D03*
X175500000Y-107687500D03*
D15*
X200300000Y-115170000D03*
D16*
X200300000Y-112630000D03*
D14*
X178900000Y-109512500D03*
X178900000Y-107687500D03*
D17*
X156050000Y-92800000D03*
X153233274Y-91633274D03*
D18*
X154400000Y-92800000D03*
D17*
X152750000Y-92800000D03*
X155566726Y-91633274D03*
X154400000Y-94450000D03*
X155566726Y-93966726D03*
X153233274Y-93966726D03*
X154400000Y-91150000D03*
X177700000Y-114650000D03*
X176050000Y-116300000D03*
X178866726Y-117466726D03*
X176533274Y-117466726D03*
X176533274Y-115133274D03*
X177700000Y-117950000D03*
D18*
X177700000Y-116300000D03*
D17*
X179350000Y-116300000D03*
X178866726Y-115133274D03*
D19*
X175500000Y-93987500D03*
X175500000Y-95812500D03*
D10*
X169582500Y-116300000D03*
D12*
X169582500Y-114300000D03*
X169582500Y-112300000D03*
X169582500Y-110300000D03*
X169582500Y-108300000D03*
X169582500Y-106300000D03*
X169582500Y-104300000D03*
X169582500Y-102300000D03*
X156182500Y-102300000D03*
X156182500Y-104300000D03*
X156182500Y-106300000D03*
X156182500Y-108300000D03*
X156182500Y-110300000D03*
X156182500Y-112300000D03*
X156182500Y-114300000D03*
X156182500Y-116300000D03*
D20*
X194700000Y-117400000D03*
D21*
X188400000Y-115100000D03*
D20*
X194700000Y-115100000D03*
X194700000Y-112800000D03*
D22*
X161500000Y-94200000D03*
X164040000Y-91660000D03*
X158960000Y-96740000D03*
X164040000Y-96740000D03*
X158960000Y-91660000D03*
D13*
X185950000Y-115100000D03*
X184050000Y-115100000D03*
D18*
X200900000Y-92800000D03*
D17*
X200900000Y-94450000D03*
X199733274Y-91633274D03*
X202066726Y-93966726D03*
X200900000Y-91150000D03*
X202066726Y-91633274D03*
X199733274Y-93966726D03*
X199250000Y-92800000D03*
X202550000Y-92800000D03*
D23*
X169125000Y-96850000D03*
D24*
X169125000Y-94310000D03*
X171665000Y-96850000D03*
X171665000Y-94310000D03*
D14*
X178900000Y-95812500D03*
X178900000Y-93987500D03*
D25*
X196400000Y-105500000D03*
D26*
X193860000Y-105500000D03*
X191320000Y-105500000D03*
X188780000Y-105500000D03*
X186240000Y-105500000D03*
X183700000Y-105500000D03*
X181160000Y-105500000D03*
X178620000Y-105500000D03*
X178620000Y-97880000D03*
X181160000Y-97880000D03*
X183700000Y-97880000D03*
X186240000Y-97880000D03*
X188780000Y-97880000D03*
X191320000Y-97880000D03*
X193860000Y-97880000D03*
X196400000Y-97880000D03*
D27*
X190800000Y-118700000D03*
X194400000Y-119000000D03*
X182500000Y-118500000D03*
X178600000Y-102700000D03*
X196900000Y-116900000D03*
X196700000Y-118700000D03*
X183600000Y-116900000D03*
X188700000Y-118100000D03*
X186900000Y-118800000D03*
X185200000Y-117900000D03*
X192500000Y-117500000D03*
X182100000Y-115100000D03*
X172600000Y-111300000D03*
D28*
X200300000Y-115170000D02*
X200300000Y-118300000D01*
X194700000Y-112800000D02*
X195571573Y-112800000D01*
X196985787Y-113385787D02*
X198184214Y-114584214D01*
X199598427Y-115170000D02*
X200300000Y-115170000D01*
X195571573Y-112800001D02*
G75*
G02*
X196985786Y-113385788I0J-1999999D01*
G01*
X199598427Y-115169999D02*
G75*
G02*
X198184215Y-114584213I0J1999999D01*
G01*
D29*
X178600000Y-105480000D02*
X178620000Y-105500000D01*
X178600000Y-102700000D02*
X178600000Y-105480000D01*
X173726713Y-95226713D02*
X173395786Y-94895786D01*
X175500000Y-95812500D02*
X175140927Y-95812500D01*
X171665000Y-94310000D02*
X169125000Y-94310000D01*
X171981573Y-94310000D02*
X171665000Y-94310000D01*
X173395786Y-94895786D02*
G75*
G03*
X171981573Y-94310000I-1414213J-1414214D01*
G01*
X173726713Y-95226713D02*
G75*
G03*
X175140927Y-95812500I1414214J1414213D01*
G01*
X188200000Y-94750000D02*
X186818629Y-96131371D01*
X184511371Y-97068629D02*
X183700000Y-97880000D01*
X185687258Y-96600000D02*
X185642742Y-96600000D01*
X185642742Y-96600001D02*
G75*
G03*
X184511371Y-97068629I0J-1600001D01*
G01*
X185687258Y-96599999D02*
G75*
G03*
X186818629Y-96131371I0J1600001D01*
G01*
X184221573Y-95900000D02*
X183968427Y-95900000D01*
X186200000Y-94750000D02*
X185635786Y-95314214D01*
X182554213Y-96485787D02*
X181160000Y-97880000D01*
X185635786Y-95314214D02*
G75*
G02*
X184221573Y-95900000I-1414213J1414214D01*
G01*
X182554213Y-96485787D02*
G75*
G02*
X183968427Y-95900000I1414214J-1414213D01*
G01*
X171665000Y-96850000D02*
X173429214Y-98614214D01*
X188045787Y-98614213D02*
X188780000Y-97880000D01*
X174843427Y-99200000D02*
X186631573Y-99200000D01*
X174843427Y-99199999D02*
G75*
G02*
X173429215Y-98614213I0J1999999D01*
G01*
X186631573Y-99199999D02*
G75*
G03*
X188045786Y-98614212I0J1999999D01*
G01*
X183700000Y-105900000D02*
X184414214Y-106614214D01*
X183700000Y-105500000D02*
X183700000Y-105900000D01*
X187585787Y-107785787D02*
X188200000Y-108400000D01*
X185828427Y-107200000D02*
X186171573Y-107200000D01*
X188200000Y-108400000D02*
X188200000Y-108750000D01*
X186171573Y-107200001D02*
G75*
G02*
X187585786Y-107785788I0J-1999999D01*
G01*
X184414214Y-106614214D02*
G75*
G03*
X185828427Y-107200000I1414213J1414214D01*
G01*
X169125000Y-96850000D02*
X171689214Y-99414214D01*
X173103427Y-100000000D02*
X188371573Y-100000000D01*
X189785787Y-99414213D02*
X191320000Y-97880000D01*
X173103427Y-99999999D02*
G75*
G02*
X171689215Y-99414213I0J1999999D01*
G01*
X188371573Y-99999999D02*
G75*
G03*
X189785786Y-99414212I0J1999999D01*
G01*
X172600000Y-111300000D02*
X169600000Y-114300000D01*
X169600000Y-114300000D02*
X169582500Y-114300000D01*
X177415927Y-110600000D02*
X183521573Y-110600000D01*
X175500000Y-109512500D02*
X176001714Y-110014214D01*
X184935787Y-110014213D02*
X186200000Y-108750000D01*
X184935787Y-110014213D02*
G75*
G02*
X183521573Y-110600000I-1414214J1414213D01*
G01*
X177415927Y-110599999D02*
G75*
G02*
X176001715Y-110014213I0J1999999D01*
G01*
D30*
X161500000Y-96199310D02*
X161500000Y-94200000D01*
X156182500Y-102300000D02*
X156227737Y-102300000D01*
X156227737Y-102300000D02*
X160914214Y-97613523D01*
X161499999Y-96199310D02*
G75*
G02*
X160914213Y-97613522I-1999999J0D01*
G01*
D29*
X178900000Y-107687500D02*
X180309073Y-107687500D01*
X181723287Y-108273287D02*
X182200000Y-108750000D01*
X181723287Y-108273287D02*
G75*
G03*
X180309073Y-107687500I-1414214J-1414213D01*
G01*
X178900000Y-93987500D02*
X178901714Y-93985786D01*
X180315927Y-93400000D02*
X188021573Y-93400000D01*
X189435787Y-93985787D02*
X190200000Y-94750000D01*
X180315927Y-93400001D02*
G75*
G03*
X178901715Y-93985787I0J-1999999D01*
G01*
X189435787Y-93985787D02*
G75*
G03*
X188021573Y-93400000I-1414214J-1414213D01*
G01*
G04 #@! TA.AperFunction,Conductor*
G36*
X183319926Y-113820002D02*
G01*
X183366419Y-113873658D01*
X183376523Y-113943932D01*
X183347029Y-114008512D01*
X183330069Y-114024746D01*
X183320793Y-114032098D01*
X183206261Y-114146829D01*
X183197249Y-114158240D01*
X183112184Y-114296243D01*
X183106037Y-114309424D01*
X183054862Y-114463710D01*
X183051995Y-114477086D01*
X183042328Y-114571438D01*
X183042000Y-114577855D01*
X183042000Y-114581885D01*
X183046475Y-114597124D01*
X183047865Y-114598329D01*
X183055548Y-114600000D01*
X184424000Y-114600000D01*
X184492121Y-114620002D01*
X184538614Y-114673658D01*
X184550000Y-114726000D01*
X184550000Y-116272578D01*
X184553973Y-116286109D01*
X184560799Y-116287090D01*
X184616784Y-116268412D01*
X184629962Y-116262239D01*
X184767807Y-116176937D01*
X184779208Y-116167901D01*
X184784826Y-116162273D01*
X184847108Y-116128193D01*
X184917929Y-116133196D01*
X184974802Y-116175692D01*
X184999671Y-116242191D01*
X185000000Y-116251290D01*
X185000000Y-116300000D01*
X185016542Y-116307519D01*
X185016543Y-116307520D01*
X185919204Y-116717820D01*
X186874472Y-117152033D01*
X186928209Y-117198430D01*
X186940314Y-117222509D01*
X186949385Y-117246705D01*
X187036739Y-117363261D01*
X187153295Y-117450615D01*
X187289684Y-117501745D01*
X187351866Y-117508500D01*
X189448134Y-117508500D01*
X189510316Y-117501745D01*
X189646705Y-117450615D01*
X189763261Y-117363261D01*
X189834200Y-117268608D01*
X189891060Y-117226093D01*
X189903731Y-117222121D01*
X193040709Y-116417767D01*
X193111663Y-116420223D01*
X193170026Y-116460650D01*
X193197267Y-116526212D01*
X193197267Y-116553427D01*
X193192369Y-116598514D01*
X193192000Y-116605328D01*
X193192000Y-116881885D01*
X193196475Y-116897124D01*
X193197865Y-116898329D01*
X193205548Y-116900000D01*
X196189884Y-116900000D01*
X196205123Y-116895525D01*
X196206328Y-116894135D01*
X196207999Y-116886452D01*
X196207999Y-116605331D01*
X196207629Y-116598510D01*
X196202105Y-116547648D01*
X196198478Y-116532394D01*
X196175174Y-116470229D01*
X196169991Y-116399422D01*
X196203912Y-116337053D01*
X196266167Y-116302924D01*
X196293156Y-116300000D01*
X198580818Y-116300000D01*
X198648939Y-116320002D01*
X198695432Y-116373658D01*
X198698800Y-116381770D01*
X198712295Y-116417767D01*
X198749385Y-116516705D01*
X198836739Y-116633261D01*
X198843919Y-116638642D01*
X198843920Y-116638643D01*
X198949565Y-116717820D01*
X198992080Y-116774680D01*
X199000000Y-116818646D01*
X199000000Y-116976341D01*
X198979998Y-117044462D01*
X198926342Y-117090955D01*
X198856068Y-117101059D01*
X198834331Y-117095934D01*
X198811419Y-117088334D01*
X198803322Y-117089838D01*
X198800000Y-117102069D01*
X198800000Y-118574000D01*
X198779998Y-118642121D01*
X198726342Y-118688614D01*
X198674000Y-118700000D01*
X197418116Y-118700000D01*
X197402877Y-118704475D01*
X197401672Y-118705865D01*
X197400001Y-118713548D01*
X197400001Y-118821567D01*
X197400339Y-118828087D01*
X197410140Y-118922560D01*
X197413031Y-118935951D01*
X197463882Y-119088368D01*
X197470056Y-119101547D01*
X197530793Y-119199697D01*
X197549631Y-119268149D01*
X197528470Y-119335919D01*
X197474029Y-119381490D01*
X197423649Y-119392000D01*
X181626000Y-119392000D01*
X181557879Y-119371998D01*
X181511386Y-119318342D01*
X181500000Y-119266000D01*
X181500000Y-118194669D01*
X193192001Y-118194669D01*
X193192371Y-118201490D01*
X193197895Y-118252352D01*
X193201521Y-118267604D01*
X193246676Y-118388054D01*
X193255214Y-118403649D01*
X193331715Y-118505724D01*
X193344276Y-118518285D01*
X193446351Y-118594786D01*
X193461946Y-118603324D01*
X193582394Y-118648478D01*
X193597649Y-118652105D01*
X193648514Y-118657631D01*
X193655328Y-118658000D01*
X194181885Y-118658000D01*
X194197124Y-118653525D01*
X194198329Y-118652135D01*
X194200000Y-118644452D01*
X194200000Y-118639884D01*
X195200000Y-118639884D01*
X195204475Y-118655123D01*
X195205865Y-118656328D01*
X195213548Y-118657999D01*
X195744669Y-118657999D01*
X195751490Y-118657629D01*
X195802352Y-118652105D01*
X195817604Y-118648479D01*
X195938054Y-118603324D01*
X195953649Y-118594786D01*
X196055724Y-118518285D01*
X196068285Y-118505724D01*
X196144786Y-118403649D01*
X196153324Y-118388054D01*
X196198478Y-118267606D01*
X196202105Y-118252351D01*
X196207631Y-118201486D01*
X196208000Y-118194672D01*
X196208000Y-117918115D01*
X196203525Y-117902876D01*
X196202135Y-117901671D01*
X196194452Y-117900000D01*
X195218115Y-117900000D01*
X195202876Y-117904475D01*
X195201671Y-117905865D01*
X195200000Y-117913548D01*
X195200000Y-118639884D01*
X194200000Y-118639884D01*
X194200000Y-117918115D01*
X194195525Y-117902876D01*
X194194135Y-117901671D01*
X194186452Y-117900000D01*
X193210116Y-117900000D01*
X193194877Y-117904475D01*
X193193672Y-117905865D01*
X193192001Y-117913548D01*
X193192001Y-118194669D01*
X181500000Y-118194669D01*
X181500000Y-117881885D01*
X197400000Y-117881885D01*
X197404475Y-117897124D01*
X197405865Y-117898329D01*
X197413548Y-117900000D01*
X197981885Y-117900000D01*
X197997124Y-117895525D01*
X197998329Y-117894135D01*
X198000000Y-117886452D01*
X198000000Y-117103508D01*
X197995796Y-117089190D01*
X197988944Y-117088066D01*
X197836632Y-117138882D01*
X197823453Y-117145056D01*
X197687196Y-117229374D01*
X197675795Y-117238410D01*
X197562582Y-117351821D01*
X197553570Y-117363232D01*
X197469484Y-117499646D01*
X197463337Y-117512827D01*
X197412749Y-117665343D01*
X197409882Y-117678719D01*
X197400328Y-117771966D01*
X197400000Y-117778383D01*
X197400000Y-117881885D01*
X181500000Y-117881885D01*
X181500000Y-115622095D01*
X183042001Y-115622095D01*
X183042338Y-115628614D01*
X183052257Y-115724206D01*
X183055149Y-115737600D01*
X183106588Y-115891784D01*
X183112761Y-115904962D01*
X183198063Y-116042807D01*
X183207099Y-116054208D01*
X183321829Y-116168739D01*
X183333240Y-116177751D01*
X183471243Y-116262816D01*
X183484424Y-116268963D01*
X183532806Y-116285011D01*
X183546899Y-116285500D01*
X183550000Y-116279289D01*
X183550000Y-115618115D01*
X183545525Y-115602876D01*
X183544135Y-115601671D01*
X183536452Y-115600000D01*
X183060116Y-115600000D01*
X183044877Y-115604475D01*
X183043672Y-115605865D01*
X183042001Y-115613548D01*
X183042001Y-115622095D01*
X181500000Y-115622095D01*
X181500000Y-113926000D01*
X181520002Y-113857879D01*
X181573658Y-113811386D01*
X181626000Y-113800000D01*
X183251805Y-113800000D01*
X183319926Y-113820002D01*
G37*
G04 #@! TD.AperFunction*
G04 #@! TA.AperFunction,Conductor*
G36*
X157531983Y-90628002D02*
G01*
X157578476Y-90681658D01*
X157588580Y-90751932D01*
X157571295Y-90799835D01*
X157527156Y-90871864D01*
X157500040Y-90916113D01*
X157498147Y-90920683D01*
X157498145Y-90920687D01*
X157461748Y-91008558D01*
X157401645Y-91153660D01*
X157341622Y-91403674D01*
X157321449Y-91660000D01*
X157341622Y-91916326D01*
X157401645Y-92166340D01*
X157500040Y-92403887D01*
X157634384Y-92623116D01*
X157801369Y-92818631D01*
X157996884Y-92985616D01*
X158216113Y-93119960D01*
X158220683Y-93121853D01*
X158220687Y-93121855D01*
X158449087Y-93216461D01*
X158453660Y-93218355D01*
X158515157Y-93233119D01*
X158698861Y-93277223D01*
X158698867Y-93277224D01*
X158703674Y-93278378D01*
X158960000Y-93298551D01*
X159216326Y-93278378D01*
X159221133Y-93277224D01*
X159221139Y-93277223D01*
X159404843Y-93233119D01*
X159466340Y-93218355D01*
X159470913Y-93216461D01*
X159699313Y-93121855D01*
X159699317Y-93121853D01*
X159703887Y-93119960D01*
X159923116Y-92985616D01*
X160118631Y-92818631D01*
X160285616Y-92623116D01*
X160419960Y-92403887D01*
X160518355Y-92166340D01*
X160578378Y-91916326D01*
X160598551Y-91660000D01*
X160578378Y-91403674D01*
X160518355Y-91153660D01*
X160458252Y-91008558D01*
X160421855Y-90920687D01*
X160421853Y-90920683D01*
X160419960Y-90916113D01*
X160392844Y-90871864D01*
X160348705Y-90799835D01*
X160330167Y-90731301D01*
X160351624Y-90663624D01*
X160406263Y-90618291D01*
X160456138Y-90608000D01*
X162543862Y-90608000D01*
X162611983Y-90628002D01*
X162658476Y-90681658D01*
X162668580Y-90751932D01*
X162651295Y-90799835D01*
X162607156Y-90871864D01*
X162580040Y-90916113D01*
X162578147Y-90920683D01*
X162578145Y-90920687D01*
X162541748Y-91008558D01*
X162481645Y-91153660D01*
X162421622Y-91403674D01*
X162401449Y-91660000D01*
X162421622Y-91916326D01*
X162481645Y-92166340D01*
X162580040Y-92403887D01*
X162714384Y-92623116D01*
X162881369Y-92818631D01*
X163076884Y-92985616D01*
X163296113Y-93119960D01*
X163300683Y-93121853D01*
X163300687Y-93121855D01*
X163529087Y-93216461D01*
X163533660Y-93218355D01*
X163595157Y-93233119D01*
X163778861Y-93277223D01*
X163778867Y-93277224D01*
X163783674Y-93278378D01*
X164040000Y-93298551D01*
X164296326Y-93278378D01*
X164301133Y-93277224D01*
X164301139Y-93277223D01*
X164484843Y-93233119D01*
X164546340Y-93218355D01*
X164550913Y-93216461D01*
X164779313Y-93121855D01*
X164779317Y-93121853D01*
X164783887Y-93119960D01*
X165003116Y-92985616D01*
X165198631Y-92818631D01*
X165365616Y-92623116D01*
X165499960Y-92403887D01*
X165598355Y-92166340D01*
X165658378Y-91916326D01*
X165678551Y-91660000D01*
X165658378Y-91403674D01*
X165598355Y-91153660D01*
X165538252Y-91008558D01*
X165501855Y-90920687D01*
X165501853Y-90920683D01*
X165499960Y-90916113D01*
X165472844Y-90871864D01*
X165428705Y-90799835D01*
X165410167Y-90731301D01*
X165431624Y-90663624D01*
X165486263Y-90618291D01*
X165536138Y-90608000D01*
X198958217Y-90608000D01*
X199026338Y-90628002D01*
X199072831Y-90681658D01*
X199082935Y-90751932D01*
X199053441Y-90816512D01*
X199046613Y-90823789D01*
X198883513Y-90984347D01*
X198881149Y-90987314D01*
X198881146Y-90987317D01*
X198864220Y-91008558D01*
X198679991Y-91239751D01*
X198508626Y-91517757D01*
X198371902Y-91814336D01*
X198370741Y-91817940D01*
X198370741Y-91817941D01*
X198362196Y-91844477D01*
X198271797Y-92125192D01*
X198271079Y-92128903D01*
X198271078Y-92128907D01*
X198210482Y-92442105D01*
X198210481Y-92442114D01*
X198209763Y-92445824D01*
X198209496Y-92449600D01*
X198209495Y-92449605D01*
X198188931Y-92740040D01*
X198186698Y-92771585D01*
X198190471Y-92847365D01*
X198201815Y-93075237D01*
X198202936Y-93097759D01*
X198203577Y-93101490D01*
X198203578Y-93101498D01*
X198256282Y-93408216D01*
X198258241Y-93419619D01*
X198259329Y-93423258D01*
X198259330Y-93423261D01*
X198335669Y-93678518D01*
X198351814Y-93732504D01*
X198353327Y-93735975D01*
X198353329Y-93735981D01*
X198382959Y-93803962D01*
X198482297Y-94031881D01*
X198484220Y-94035152D01*
X198484222Y-94035156D01*
X198526584Y-94107215D01*
X198647802Y-94313414D01*
X198650103Y-94316429D01*
X198843631Y-94570012D01*
X198843636Y-94570017D01*
X198845931Y-94573025D01*
X198907931Y-94636670D01*
X199071156Y-94804224D01*
X199073814Y-94806953D01*
X199146635Y-94865607D01*
X199325196Y-95009431D01*
X199325201Y-95009435D01*
X199328149Y-95011809D01*
X199605253Y-95184627D01*
X199901112Y-95322903D01*
X199904721Y-95324086D01*
X200191710Y-95418166D01*
X200211440Y-95424634D01*
X200215154Y-95425373D01*
X200215155Y-95425373D01*
X200226648Y-95427659D01*
X200531742Y-95488346D01*
X200535514Y-95488633D01*
X200535522Y-95488634D01*
X200853602Y-95512829D01*
X200853607Y-95512829D01*
X200857379Y-95513116D01*
X201183633Y-95498586D01*
X201243425Y-95488634D01*
X201502037Y-95445590D01*
X201502042Y-95445589D01*
X201505778Y-95444967D01*
X201819149Y-95353034D01*
X201822616Y-95351544D01*
X201822620Y-95351543D01*
X202115721Y-95225616D01*
X202115723Y-95225615D01*
X202119205Y-95224119D01*
X202401601Y-95060091D01*
X202662245Y-94863324D01*
X202878552Y-94654804D01*
X202941478Y-94621926D01*
X203012189Y-94628288D01*
X203068235Y-94671869D01*
X203092000Y-94745517D01*
X203092000Y-116850672D01*
X203090500Y-116870056D01*
X203086814Y-116893730D01*
X203088454Y-116906270D01*
X203089059Y-116910897D01*
X203089892Y-116934839D01*
X203074290Y-117192770D01*
X203072456Y-117207874D01*
X203067305Y-117235981D01*
X203021358Y-117486714D01*
X203020962Y-117488873D01*
X203017322Y-117503641D01*
X202932326Y-117776404D01*
X202926931Y-117790627D01*
X202883850Y-117886351D01*
X202809686Y-118051136D01*
X202802615Y-118064609D01*
X202654818Y-118309095D01*
X202646175Y-118321617D01*
X202469984Y-118546507D01*
X202459894Y-118557895D01*
X202257895Y-118759894D01*
X202246507Y-118769984D01*
X202021617Y-118946175D01*
X202009095Y-118954818D01*
X201764609Y-119102615D01*
X201751140Y-119109684D01*
X201490630Y-119226930D01*
X201476403Y-119232326D01*
X201399679Y-119256234D01*
X201328692Y-119257404D01*
X201268342Y-119220009D01*
X201237789Y-119155923D01*
X201242601Y-119096272D01*
X201278399Y-118988346D01*
X201297797Y-118929861D01*
X201308500Y-118825400D01*
X201308500Y-116904500D01*
X201328502Y-116836379D01*
X201382158Y-116789886D01*
X201434500Y-116778500D01*
X201448134Y-116778500D01*
X201510316Y-116771745D01*
X201646705Y-116720615D01*
X201763261Y-116633261D01*
X201850615Y-116516705D01*
X201901745Y-116380316D01*
X201908500Y-116318134D01*
X201908500Y-114021866D01*
X201901745Y-113959684D01*
X201850615Y-113823295D01*
X201763261Y-113706739D01*
X201692954Y-113654046D01*
X201650440Y-113597187D01*
X201645415Y-113526369D01*
X201661087Y-113487386D01*
X201735030Y-113366722D01*
X201737616Y-113362502D01*
X201743088Y-113349293D01*
X201832611Y-113133164D01*
X201832612Y-113133162D01*
X201834505Y-113128591D01*
X201871808Y-112973213D01*
X201892454Y-112887216D01*
X201892455Y-112887210D01*
X201893609Y-112882403D01*
X201913474Y-112630000D01*
X201893609Y-112377597D01*
X201873902Y-112295508D01*
X201854821Y-112216032D01*
X201834505Y-112131409D01*
X201814619Y-112083400D01*
X201739511Y-111902072D01*
X201739509Y-111902068D01*
X201737616Y-111897498D01*
X201605328Y-111681624D01*
X201440898Y-111489102D01*
X201248376Y-111324672D01*
X201032502Y-111192384D01*
X201027932Y-111190491D01*
X201027928Y-111190489D01*
X200803164Y-111097389D01*
X200803162Y-111097388D01*
X200798591Y-111095495D01*
X200680708Y-111067194D01*
X200557216Y-111037546D01*
X200557210Y-111037545D01*
X200552403Y-111036391D01*
X200300000Y-111016526D01*
X200047597Y-111036391D01*
X200042790Y-111037545D01*
X200042784Y-111037546D01*
X199919292Y-111067194D01*
X199801409Y-111095495D01*
X199796838Y-111097388D01*
X199796836Y-111097389D01*
X199572072Y-111190489D01*
X199572068Y-111190491D01*
X199567498Y-111192384D01*
X199351624Y-111324672D01*
X199159102Y-111489102D01*
X198994672Y-111681624D01*
X198862384Y-111897498D01*
X198860491Y-111902068D01*
X198860489Y-111902072D01*
X198785381Y-112083400D01*
X198765495Y-112131409D01*
X198745179Y-112216032D01*
X198726099Y-112295508D01*
X198706391Y-112377597D01*
X198686526Y-112630000D01*
X198706391Y-112882403D01*
X198707545Y-112887210D01*
X198707546Y-112887216D01*
X198728192Y-112973213D01*
X198765495Y-113128591D01*
X198767388Y-113133162D01*
X198767389Y-113133164D01*
X198856913Y-113349293D01*
X198862384Y-113362502D01*
X198864970Y-113366722D01*
X198938913Y-113487386D01*
X198957451Y-113555920D01*
X198935995Y-113623596D01*
X198907046Y-113654046D01*
X198864842Y-113685677D01*
X198798336Y-113710526D01*
X198728954Y-113695474D01*
X198700181Y-113673947D01*
X197749626Y-112723392D01*
X197739162Y-112711524D01*
X197738070Y-112710116D01*
X197722083Y-112689506D01*
X197702355Y-112669219D01*
X197699639Y-112666988D01*
X197699629Y-112666979D01*
X197684848Y-112654839D01*
X197680205Y-112650833D01*
X197484735Y-112473669D01*
X197482447Y-112471595D01*
X197245022Y-112295508D01*
X197242381Y-112293925D01*
X197242372Y-112293919D01*
X196994121Y-112145124D01*
X196994122Y-112145124D01*
X196991480Y-112143541D01*
X196976004Y-112136221D01*
X196727056Y-112018478D01*
X196727055Y-112018478D01*
X196724265Y-112017158D01*
X196445948Y-111917574D01*
X196227951Y-111862969D01*
X196166732Y-111827014D01*
X196151778Y-111806398D01*
X196150615Y-111803295D01*
X196063261Y-111686739D01*
X195946705Y-111599385D01*
X195810316Y-111548255D01*
X195748134Y-111541500D01*
X193651866Y-111541500D01*
X193589684Y-111548255D01*
X193453295Y-111599385D01*
X193336739Y-111686739D01*
X193249385Y-111803295D01*
X193198255Y-111939684D01*
X193191500Y-112001866D01*
X193191500Y-113598134D01*
X193198255Y-113660316D01*
X193249385Y-113796705D01*
X193269313Y-113823295D01*
X193307953Y-113874852D01*
X193332801Y-113941358D01*
X193317748Y-114010741D01*
X193307953Y-114025982D01*
X193255214Y-114096352D01*
X193246676Y-114111946D01*
X193201522Y-114232394D01*
X193197895Y-114247649D01*
X193192369Y-114298514D01*
X193192000Y-114305328D01*
X193192000Y-114581885D01*
X193196475Y-114597124D01*
X193197865Y-114598329D01*
X193205548Y-114600000D01*
X196189884Y-114600000D01*
X196205123Y-114595525D01*
X196206328Y-114594135D01*
X196207999Y-114586452D01*
X196207999Y-114338424D01*
X196228001Y-114270303D01*
X196281657Y-114223810D01*
X196351931Y-114213706D01*
X196416511Y-114243200D01*
X196423094Y-114249329D01*
X197420375Y-115246609D01*
X197430840Y-115258478D01*
X197447918Y-115280495D01*
X197467646Y-115300782D01*
X197484148Y-115314336D01*
X197485163Y-115315170D01*
X197489804Y-115319175D01*
X197687555Y-115498406D01*
X197690041Y-115500250D01*
X197690045Y-115500253D01*
X197777071Y-115564796D01*
X197819871Y-115621441D01*
X197825252Y-115692234D01*
X197791505Y-115754697D01*
X197729345Y-115789000D01*
X197702013Y-115792000D01*
X196334000Y-115792000D01*
X196265879Y-115771998D01*
X196219386Y-115718342D01*
X196208000Y-115666000D01*
X196208000Y-115618115D01*
X196203525Y-115602876D01*
X196202135Y-115601671D01*
X196194452Y-115600000D01*
X193210116Y-115600000D01*
X193194877Y-115604475D01*
X193193672Y-115605865D01*
X193192001Y-115613548D01*
X193192001Y-115784262D01*
X193171999Y-115852383D01*
X193118343Y-115898876D01*
X193067245Y-115909072D01*
X193067281Y-115910061D01*
X193062784Y-115910227D01*
X193058282Y-115910071D01*
X192914534Y-115925686D01*
X190065294Y-116656261D01*
X189994341Y-116653805D01*
X189935978Y-116613378D01*
X189908737Y-116547816D01*
X189908000Y-116534209D01*
X189908000Y-115618115D01*
X189903525Y-115602876D01*
X189902135Y-115601671D01*
X189894452Y-115600000D01*
X185576000Y-115600000D01*
X185507879Y-115579998D01*
X185461386Y-115526342D01*
X185450000Y-115474000D01*
X185450000Y-114581885D01*
X186450000Y-114581885D01*
X186454475Y-114597124D01*
X186455865Y-114598329D01*
X186463548Y-114600000D01*
X187881885Y-114600000D01*
X187897124Y-114595525D01*
X187898329Y-114594135D01*
X187900000Y-114586452D01*
X187900000Y-114581885D01*
X188900000Y-114581885D01*
X188904475Y-114597124D01*
X188905865Y-114598329D01*
X188913548Y-114600000D01*
X189889884Y-114600000D01*
X189905123Y-114595525D01*
X189906328Y-114594135D01*
X189907999Y-114586452D01*
X189907999Y-113155331D01*
X189907629Y-113148510D01*
X189902105Y-113097648D01*
X189898479Y-113082396D01*
X189853324Y-112961946D01*
X189844786Y-112946351D01*
X189768285Y-112844276D01*
X189755724Y-112831715D01*
X189653649Y-112755214D01*
X189638054Y-112746676D01*
X189517606Y-112701522D01*
X189502351Y-112697895D01*
X189451486Y-112692369D01*
X189444672Y-112692000D01*
X188918115Y-112692000D01*
X188902876Y-112696475D01*
X188901671Y-112697865D01*
X188900000Y-112705548D01*
X188900000Y-114581885D01*
X187900000Y-114581885D01*
X187900000Y-112710116D01*
X187895525Y-112694877D01*
X187894135Y-112693672D01*
X187886452Y-112692001D01*
X187355331Y-112692001D01*
X187348510Y-112692371D01*
X187297648Y-112697895D01*
X187282396Y-112701521D01*
X187161946Y-112746676D01*
X187146351Y-112755214D01*
X187044276Y-112831715D01*
X187031715Y-112844276D01*
X186955214Y-112946351D01*
X186946676Y-112961946D01*
X186901522Y-113082394D01*
X186897895Y-113097649D01*
X186892369Y-113148514D01*
X186892000Y-113155328D01*
X186892000Y-113940901D01*
X186871998Y-114009022D01*
X186818342Y-114055515D01*
X186748068Y-114065619D01*
X186683488Y-114036125D01*
X186678749Y-114031718D01*
X186666760Y-114022249D01*
X186528757Y-113937184D01*
X186515576Y-113931037D01*
X186467194Y-113914989D01*
X186453101Y-113914500D01*
X186450000Y-113920711D01*
X186450000Y-114581885D01*
X185450000Y-114581885D01*
X185450000Y-114225684D01*
X185461386Y-114173342D01*
X185465552Y-114164220D01*
X185465553Y-114164217D01*
X185467421Y-114160127D01*
X185487423Y-114092006D01*
X185488064Y-114087551D01*
X185507361Y-113953335D01*
X185507362Y-113953328D01*
X185508000Y-113948887D01*
X185508000Y-113926000D01*
X185496391Y-113818020D01*
X185485005Y-113765678D01*
X185456147Y-113678974D01*
X185453197Y-113670109D01*
X185453197Y-113670108D01*
X185450707Y-113662628D01*
X185372535Y-113540990D01*
X185326042Y-113487334D01*
X185307213Y-113471018D01*
X185295694Y-113461037D01*
X185216766Y-113392645D01*
X185085240Y-113332579D01*
X185061486Y-113325604D01*
X185021442Y-113313846D01*
X185021438Y-113313845D01*
X185017119Y-113312577D01*
X185012671Y-113311937D01*
X185012664Y-113311936D01*
X184878448Y-113292639D01*
X184878441Y-113292638D01*
X184874000Y-113292000D01*
X184848186Y-113292000D01*
X184846711Y-113292070D01*
X184846690Y-113292070D01*
X184801917Y-113294180D01*
X184801902Y-113294181D01*
X184800418Y-113294251D01*
X184794697Y-113294791D01*
X184778317Y-113296338D01*
X184778298Y-113296340D01*
X184776829Y-113296479D01*
X184775348Y-113296690D01*
X184775336Y-113296691D01*
X184735424Y-113302366D01*
X184735421Y-113302367D01*
X184729497Y-113303209D01*
X184723840Y-113305154D01*
X184723839Y-113305154D01*
X184597016Y-113348752D01*
X184597009Y-113348755D01*
X184592759Y-113350216D01*
X184529587Y-113382617D01*
X184411625Y-113466249D01*
X184406043Y-113473318D01*
X184406040Y-113473320D01*
X184324799Y-113576189D01*
X184322010Y-113579721D01*
X184286385Y-113641132D01*
X184232369Y-113775250D01*
X184232136Y-113775156D01*
X184199239Y-113831868D01*
X184136068Y-113864272D01*
X184112476Y-113866500D01*
X183982697Y-113866500D01*
X183914576Y-113846498D01*
X183868083Y-113792842D01*
X183861801Y-113775999D01*
X183831051Y-113671275D01*
X183828512Y-113662628D01*
X183750340Y-113540990D01*
X183703847Y-113487334D01*
X183685018Y-113471018D01*
X183673499Y-113461037D01*
X183594571Y-113392645D01*
X183463045Y-113332579D01*
X183439291Y-113325604D01*
X183399247Y-113313846D01*
X183399243Y-113313845D01*
X183394924Y-113312577D01*
X183390476Y-113311937D01*
X183390469Y-113311936D01*
X183256253Y-113292639D01*
X183256246Y-113292638D01*
X183251805Y-113292000D01*
X181626000Y-113292000D01*
X181622652Y-113292360D01*
X181622651Y-113292360D01*
X181603760Y-113294391D01*
X181518020Y-113303609D01*
X181514736Y-113304323D01*
X181514732Y-113304324D01*
X181489661Y-113309778D01*
X181465678Y-113314995D01*
X181362628Y-113349293D01*
X181240990Y-113427465D01*
X181187334Y-113473958D01*
X181184393Y-113477352D01*
X181175698Y-113487386D01*
X181092645Y-113583234D01*
X181088901Y-113591431D01*
X181088901Y-113591432D01*
X181082617Y-113605193D01*
X181032579Y-113714760D01*
X181031311Y-113719079D01*
X181014598Y-113775999D01*
X181012577Y-113782881D01*
X181011937Y-113787329D01*
X181011936Y-113787336D01*
X180992639Y-113921552D01*
X180992638Y-113921559D01*
X180992000Y-113926000D01*
X180992000Y-119266000D01*
X180971998Y-119334121D01*
X180918342Y-119380614D01*
X180866000Y-119392000D01*
X154849328Y-119392000D01*
X154829943Y-119390500D01*
X154815142Y-119388195D01*
X154815139Y-119388195D01*
X154806270Y-119386814D01*
X154789101Y-119389059D01*
X154765161Y-119389892D01*
X154507230Y-119374290D01*
X154492126Y-119372456D01*
X154421352Y-119359486D01*
X154211121Y-119320960D01*
X154196359Y-119317322D01*
X153923592Y-119232325D01*
X153909370Y-119226930D01*
X153648860Y-119109684D01*
X153635391Y-119102615D01*
X153390905Y-118954818D01*
X153378383Y-118946175D01*
X153153493Y-118769984D01*
X153142105Y-118759894D01*
X152940106Y-118557895D01*
X152930016Y-118546507D01*
X152753825Y-118321617D01*
X152745182Y-118309095D01*
X152597385Y-118064609D01*
X152590314Y-118051136D01*
X152516151Y-117886351D01*
X152473069Y-117790627D01*
X152467674Y-117776404D01*
X152382678Y-117503641D01*
X152379038Y-117488873D01*
X152378643Y-117486714D01*
X152332695Y-117235981D01*
X152327544Y-117207874D01*
X152325710Y-117192770D01*
X152310545Y-116942071D01*
X152311802Y-116915361D01*
X152311805Y-116915141D01*
X152313186Y-116906270D01*
X152311547Y-116893730D01*
X152309064Y-116874749D01*
X152308000Y-116858411D01*
X152308000Y-116268887D01*
X154994337Y-116268887D01*
X155008563Y-116485933D01*
X155009984Y-116491529D01*
X155009985Y-116491534D01*
X155051197Y-116653805D01*
X155062105Y-116696753D01*
X155064522Y-116701996D01*
X155136630Y-116858411D01*
X155153168Y-116894285D01*
X155156501Y-116899001D01*
X155244230Y-117023134D01*
X155278704Y-117071914D01*
X155434509Y-117223692D01*
X155615363Y-117344536D01*
X155620671Y-117346817D01*
X155620672Y-117346817D01*
X155809909Y-117428119D01*
X155809912Y-117428120D01*
X155815212Y-117430397D01*
X155820842Y-117431671D01*
X155918964Y-117453874D01*
X156027360Y-117478402D01*
X156033131Y-117478629D01*
X156033133Y-117478629D01*
X156106120Y-117481496D01*
X156244705Y-117486941D01*
X156459966Y-117455730D01*
X156465430Y-117453875D01*
X156465435Y-117453874D01*
X156660463Y-117387671D01*
X156660468Y-117387669D01*
X156665935Y-117385813D01*
X156855713Y-117279532D01*
X157022946Y-117140446D01*
X157162032Y-116973213D01*
X157268313Y-116783435D01*
X157270169Y-116777968D01*
X157270171Y-116777963D01*
X157336374Y-116582935D01*
X157336375Y-116582930D01*
X157338230Y-116577466D01*
X157369441Y-116362205D01*
X157371070Y-116300000D01*
X157351167Y-116083400D01*
X157292126Y-115874055D01*
X157195923Y-115678974D01*
X157176342Y-115652751D01*
X157069233Y-115509315D01*
X157069232Y-115509314D01*
X157065780Y-115504691D01*
X156943578Y-115391729D01*
X156907133Y-115330800D01*
X156909414Y-115259840D01*
X156948538Y-115202330D01*
X156982139Y-115174385D01*
X157022946Y-115140446D01*
X157162032Y-114973213D01*
X157268313Y-114783435D01*
X157270169Y-114777968D01*
X157270171Y-114777963D01*
X157336374Y-114582935D01*
X157336375Y-114582930D01*
X157338230Y-114577466D01*
X157369441Y-114362205D01*
X157371070Y-114300000D01*
X157368211Y-114268887D01*
X168394337Y-114268887D01*
X168408563Y-114485933D01*
X168409984Y-114491529D01*
X168409985Y-114491534D01*
X168460684Y-114691158D01*
X168462105Y-114696753D01*
X168553168Y-114894285D01*
X168649130Y-115030068D01*
X168672110Y-115097240D01*
X168655126Y-115166175D01*
X168621797Y-115203612D01*
X168610951Y-115211741D01*
X168544239Y-115261739D01*
X168456885Y-115378295D01*
X168405755Y-115514684D01*
X168399000Y-115576866D01*
X168399000Y-117023134D01*
X168405755Y-117085316D01*
X168456885Y-117221705D01*
X168544239Y-117338261D01*
X168660795Y-117425615D01*
X168797184Y-117476745D01*
X168859366Y-117483500D01*
X170305634Y-117483500D01*
X170367816Y-117476745D01*
X170504205Y-117425615D01*
X170620761Y-117338261D01*
X170708115Y-117221705D01*
X170759245Y-117085316D01*
X170766000Y-117023134D01*
X170766000Y-116271585D01*
X174986698Y-116271585D01*
X174990423Y-116346412D01*
X175001926Y-116577466D01*
X175002936Y-116597759D01*
X175003577Y-116601490D01*
X175003578Y-116601498D01*
X175054870Y-116900000D01*
X175058241Y-116919619D01*
X175059329Y-116923258D01*
X175059330Y-116923261D01*
X175150139Y-117226902D01*
X175151814Y-117232504D01*
X175153327Y-117235975D01*
X175153329Y-117235981D01*
X175197908Y-117338261D01*
X175282297Y-117531881D01*
X175284220Y-117535152D01*
X175284222Y-117535156D01*
X175326584Y-117607215D01*
X175447802Y-117813414D01*
X175450103Y-117816429D01*
X175643631Y-118070012D01*
X175643636Y-118070017D01*
X175645931Y-118073025D01*
X175873814Y-118306953D01*
X175946635Y-118365607D01*
X176125196Y-118509431D01*
X176125201Y-118509435D01*
X176128149Y-118511809D01*
X176405253Y-118684627D01*
X176701112Y-118822903D01*
X176787709Y-118851291D01*
X177006523Y-118923022D01*
X177011440Y-118924634D01*
X177331742Y-118988346D01*
X177335514Y-118988633D01*
X177335522Y-118988634D01*
X177653602Y-119012829D01*
X177653607Y-119012829D01*
X177657379Y-119013116D01*
X177983633Y-118998586D01*
X178043425Y-118988634D01*
X178302037Y-118945590D01*
X178302042Y-118945589D01*
X178305778Y-118944967D01*
X178619149Y-118853034D01*
X178622616Y-118851544D01*
X178622620Y-118851543D01*
X178915721Y-118725616D01*
X178915723Y-118725615D01*
X178919205Y-118724119D01*
X179201601Y-118560091D01*
X179462245Y-118363324D01*
X179697363Y-118136670D01*
X179903549Y-117883410D01*
X180077815Y-117607215D01*
X180135190Y-117486112D01*
X180216009Y-117315522D01*
X180217638Y-117312084D01*
X180218840Y-117308482D01*
X180319790Y-117005897D01*
X180319792Y-117005891D01*
X180320992Y-117002293D01*
X180386381Y-116682329D01*
X180388502Y-116656261D01*
X180408165Y-116414497D01*
X180412856Y-116356826D01*
X180413451Y-116300000D01*
X180411510Y-116267796D01*
X180394026Y-115977793D01*
X180394026Y-115977789D01*
X180393798Y-115974015D01*
X180388650Y-115945824D01*
X180335805Y-115656473D01*
X180335804Y-115656469D01*
X180335125Y-115652751D01*
X180333689Y-115648124D01*
X180254076Y-115391729D01*
X180238282Y-115340863D01*
X180104670Y-115042869D01*
X179936226Y-114763084D01*
X179933899Y-114760100D01*
X179933894Y-114760093D01*
X179737726Y-114508558D01*
X179737724Y-114508556D01*
X179735390Y-114505563D01*
X179505070Y-114274034D01*
X179248603Y-114071852D01*
X178969705Y-113901945D01*
X178966261Y-113900379D01*
X178966257Y-113900377D01*
X178833563Y-113840045D01*
X178672414Y-113766775D01*
X178361037Y-113668300D01*
X178100921Y-113619385D01*
X178043809Y-113608645D01*
X178043807Y-113608645D01*
X178040086Y-113607945D01*
X177714208Y-113586586D01*
X177710428Y-113586794D01*
X177710427Y-113586794D01*
X177626155Y-113591432D01*
X177388124Y-113604532D01*
X177384397Y-113605193D01*
X177384393Y-113605193D01*
X177280555Y-113623596D01*
X177066557Y-113661522D01*
X177062941Y-113662624D01*
X177062933Y-113662626D01*
X176757789Y-113755627D01*
X176754167Y-113756731D01*
X176455477Y-113888781D01*
X176354447Y-113948887D01*
X176178074Y-114053817D01*
X176178068Y-114053821D01*
X176174814Y-114055757D01*
X176171812Y-114058073D01*
X175923910Y-114249329D01*
X175916244Y-114255243D01*
X175791769Y-114377778D01*
X175721023Y-114447422D01*
X175683513Y-114484347D01*
X175681149Y-114487314D01*
X175681146Y-114487317D01*
X175482356Y-114736783D01*
X175479991Y-114739751D01*
X175308626Y-115017757D01*
X175307037Y-115021204D01*
X175190681Y-115273602D01*
X175171902Y-115314336D01*
X175170741Y-115317940D01*
X175170741Y-115317941D01*
X175162196Y-115344477D01*
X175071797Y-115625192D01*
X175071079Y-115628903D01*
X175071078Y-115628907D01*
X175010482Y-115942105D01*
X175010481Y-115942114D01*
X175009763Y-115945824D01*
X175009496Y-115949600D01*
X175009495Y-115949605D01*
X174987295Y-116263152D01*
X174986698Y-116271585D01*
X170766000Y-116271585D01*
X170766000Y-115576866D01*
X170759245Y-115514684D01*
X170708115Y-115378295D01*
X170620761Y-115261739D01*
X170542822Y-115203327D01*
X170500307Y-115146468D01*
X170495281Y-115075649D01*
X170521513Y-115021932D01*
X170558334Y-114977659D01*
X170562032Y-114973213D01*
X170668313Y-114783435D01*
X170670169Y-114777968D01*
X170670171Y-114777963D01*
X170736374Y-114582935D01*
X170736375Y-114582930D01*
X170738230Y-114577466D01*
X170769441Y-114362205D01*
X170771070Y-114300000D01*
X170768197Y-114268732D01*
X170781882Y-114199067D01*
X170804573Y-114168108D01*
X172914179Y-112058502D01*
X172938753Y-112039370D01*
X173091912Y-111948069D01*
X173223266Y-111822982D01*
X173323643Y-111671902D01*
X173370937Y-111547402D01*
X173385555Y-111508920D01*
X173385556Y-111508918D01*
X173388055Y-111502338D01*
X173407596Y-111363299D01*
X173412748Y-111326639D01*
X173412748Y-111326636D01*
X173413299Y-111322717D01*
X173413452Y-111311738D01*
X173413561Y-111303962D01*
X173413561Y-111303957D01*
X173413616Y-111300000D01*
X173393397Y-111119745D01*
X173378146Y-111075949D01*
X173336064Y-110955106D01*
X173336062Y-110955103D01*
X173333745Y-110948448D01*
X173302199Y-110897963D01*
X173241359Y-110800598D01*
X173237626Y-110794624D01*
X173221081Y-110777963D01*
X173114778Y-110670915D01*
X173114774Y-110670912D01*
X173109815Y-110665918D01*
X173098697Y-110658862D01*
X173026897Y-110613297D01*
X172956666Y-110568727D01*
X172913909Y-110553502D01*
X172792425Y-110510243D01*
X172792420Y-110510242D01*
X172785790Y-110507881D01*
X172778802Y-110507048D01*
X172778799Y-110507047D01*
X172648047Y-110491456D01*
X172605680Y-110486404D01*
X172598677Y-110487140D01*
X172598676Y-110487140D01*
X172432288Y-110504628D01*
X172432286Y-110504629D01*
X172425288Y-110505364D01*
X172253579Y-110563818D01*
X172247575Y-110567512D01*
X172105095Y-110655166D01*
X172105092Y-110655168D01*
X172099088Y-110658862D01*
X172094053Y-110663793D01*
X172094050Y-110663795D01*
X172055041Y-110701996D01*
X171969493Y-110785771D01*
X171871235Y-110938238D01*
X171868825Y-110944860D01*
X171865692Y-110951170D01*
X171864021Y-110950340D01*
X171841269Y-110986050D01*
X170901347Y-111925972D01*
X170839035Y-111959998D01*
X170768220Y-111954933D01*
X170711384Y-111912386D01*
X170694619Y-111882028D01*
X170693698Y-111879628D01*
X170692126Y-111874055D01*
X170595923Y-111678974D01*
X170465780Y-111504691D01*
X170455693Y-111495366D01*
X170343578Y-111391729D01*
X170307133Y-111330800D01*
X170309414Y-111259840D01*
X170348538Y-111202330D01*
X170362776Y-111190489D01*
X170422946Y-111140446D01*
X170562032Y-110973213D01*
X170663688Y-110791693D01*
X170665489Y-110788478D01*
X170665490Y-110788476D01*
X170668313Y-110783435D01*
X170670169Y-110777968D01*
X170670171Y-110777963D01*
X170736374Y-110582935D01*
X170736375Y-110582930D01*
X170738230Y-110577466D01*
X170769441Y-110362205D01*
X170771070Y-110300000D01*
X170751167Y-110083400D01*
X170692126Y-109874055D01*
X170668132Y-109825400D01*
X174291500Y-109825400D01*
X174291837Y-109828646D01*
X174291837Y-109828650D01*
X174300296Y-109910171D01*
X174302474Y-109931166D01*
X174358450Y-110098946D01*
X174451522Y-110249348D01*
X174576697Y-110374305D01*
X174727262Y-110467115D01*
X174766375Y-110480088D01*
X174888611Y-110520632D01*
X174888613Y-110520632D01*
X174895139Y-110522797D01*
X174901975Y-110523497D01*
X174901978Y-110523498D01*
X174945031Y-110527909D01*
X174999600Y-110533500D01*
X175392241Y-110533500D01*
X175460362Y-110553502D01*
X175470840Y-110561021D01*
X175477273Y-110566156D01*
X175483263Y-110571251D01*
X175663844Y-110734921D01*
X175666327Y-110736762D01*
X175666330Y-110736765D01*
X175729257Y-110783435D01*
X175881539Y-110896375D01*
X176114012Y-111035713D01*
X176190552Y-111071914D01*
X176356222Y-111150271D01*
X176356227Y-111150273D01*
X176359022Y-111151595D01*
X176389550Y-111162518D01*
X176611304Y-111241863D01*
X176611313Y-111241866D01*
X176614212Y-111242903D01*
X176617202Y-111243652D01*
X176617212Y-111243655D01*
X176826436Y-111296062D01*
X176877122Y-111308758D01*
X177145221Y-111348527D01*
X177148307Y-111348679D01*
X177148311Y-111348679D01*
X177314011Y-111356820D01*
X177319920Y-111357413D01*
X177321537Y-111357808D01*
X177329131Y-111358279D01*
X177330752Y-111358380D01*
X177330762Y-111358380D01*
X177332691Y-111358500D01*
X177345131Y-111358500D01*
X177351313Y-111358652D01*
X177359590Y-111359059D01*
X177364605Y-111359305D01*
X177375955Y-111360379D01*
X177378097Y-111360680D01*
X177394614Y-111363001D01*
X177403179Y-111363121D01*
X177411966Y-111363244D01*
X177411972Y-111363244D01*
X177415927Y-111363299D01*
X177451714Y-111359285D01*
X177465758Y-111358500D01*
X183459422Y-111358500D01*
X183476955Y-111359726D01*
X183483745Y-111360680D01*
X183496352Y-111362452D01*
X183496355Y-111362452D01*
X183500260Y-111363001D01*
X183508503Y-111363116D01*
X183517611Y-111363244D01*
X183517617Y-111363244D01*
X183521573Y-111363299D01*
X183541017Y-111361118D01*
X183548863Y-111360486D01*
X183654389Y-111355302D01*
X183789191Y-111348680D01*
X183789196Y-111348680D01*
X183792280Y-111348528D01*
X184060379Y-111308759D01*
X184323289Y-111242904D01*
X184578479Y-111151595D01*
X184640907Y-111122069D01*
X184820708Y-111037030D01*
X184820712Y-111037028D01*
X184823490Y-111035714D01*
X184957976Y-110955106D01*
X185053311Y-110897964D01*
X185053312Y-110897964D01*
X185055962Y-110896375D01*
X185197110Y-110791693D01*
X185271172Y-110736765D01*
X185271175Y-110736762D01*
X185273658Y-110734921D01*
X185398888Y-110621419D01*
X185403475Y-110617669D01*
X185404894Y-110616808D01*
X185413271Y-110609410D01*
X185422046Y-110600635D01*
X185426526Y-110596369D01*
X185436411Y-110587410D01*
X185445196Y-110580144D01*
X185457076Y-110571192D01*
X185457083Y-110571186D01*
X185460240Y-110568807D01*
X185463075Y-110566050D01*
X185463081Y-110566045D01*
X185472680Y-110556710D01*
X185472682Y-110556708D01*
X185475521Y-110553947D01*
X185497989Y-110525802D01*
X185507365Y-110515316D01*
X186053439Y-109969242D01*
X186115751Y-109935216D01*
X186147480Y-109932434D01*
X186206533Y-109934754D01*
X186262205Y-109936941D01*
X186477466Y-109905730D01*
X186482930Y-109903875D01*
X186482935Y-109903874D01*
X186677963Y-109837671D01*
X186677968Y-109837669D01*
X186683435Y-109835813D01*
X186696226Y-109828650D01*
X186788558Y-109776941D01*
X186873213Y-109729532D01*
X187040446Y-109590446D01*
X187100252Y-109518537D01*
X187159189Y-109478953D01*
X187230171Y-109477517D01*
X187292913Y-109517258D01*
X187296204Y-109521914D01*
X187300347Y-109525950D01*
X187300348Y-109525951D01*
X187363596Y-109587564D01*
X187452009Y-109673692D01*
X187632863Y-109794536D01*
X187638171Y-109796817D01*
X187638172Y-109796817D01*
X187827409Y-109878119D01*
X187827412Y-109878120D01*
X187832712Y-109880397D01*
X187838342Y-109881671D01*
X187936464Y-109903874D01*
X188044860Y-109928402D01*
X188050631Y-109928629D01*
X188050633Y-109928629D01*
X188123620Y-109931496D01*
X188262205Y-109936941D01*
X188477466Y-109905730D01*
X188482930Y-109903875D01*
X188482935Y-109903874D01*
X188677963Y-109837671D01*
X188677968Y-109837669D01*
X188683435Y-109835813D01*
X188696226Y-109828650D01*
X188788558Y-109776941D01*
X188873213Y-109729532D01*
X189040446Y-109590446D01*
X189100252Y-109518537D01*
X189159189Y-109478953D01*
X189230171Y-109477517D01*
X189292913Y-109517258D01*
X189296204Y-109521914D01*
X189300347Y-109525950D01*
X189300348Y-109525951D01*
X189363596Y-109587564D01*
X189452009Y-109673692D01*
X189632863Y-109794536D01*
X189638171Y-109796817D01*
X189638172Y-109796817D01*
X189827409Y-109878119D01*
X189827412Y-109878120D01*
X189832712Y-109880397D01*
X189838342Y-109881671D01*
X189936464Y-109903874D01*
X190044860Y-109928402D01*
X190050631Y-109928629D01*
X190050633Y-109928629D01*
X190123620Y-109931496D01*
X190262205Y-109936941D01*
X190477466Y-109905730D01*
X190482930Y-109903875D01*
X190482935Y-109903874D01*
X190677963Y-109837671D01*
X190677968Y-109837669D01*
X190683435Y-109835813D01*
X190696226Y-109828650D01*
X190788558Y-109776941D01*
X190873213Y-109729532D01*
X191040446Y-109590446D01*
X191100252Y-109518537D01*
X191159189Y-109478953D01*
X191230171Y-109477517D01*
X191292913Y-109517258D01*
X191296204Y-109521914D01*
X191300347Y-109525950D01*
X191300348Y-109525951D01*
X191363596Y-109587564D01*
X191452009Y-109673692D01*
X191632863Y-109794536D01*
X191638171Y-109796817D01*
X191638172Y-109796817D01*
X191827409Y-109878119D01*
X191827412Y-109878120D01*
X191832712Y-109880397D01*
X191838342Y-109881671D01*
X191936464Y-109903874D01*
X192044860Y-109928402D01*
X192050631Y-109928629D01*
X192050633Y-109928629D01*
X192123620Y-109931496D01*
X192262205Y-109936941D01*
X192477466Y-109905730D01*
X192482930Y-109903875D01*
X192482935Y-109903874D01*
X192677963Y-109837671D01*
X192677968Y-109837669D01*
X192683435Y-109835813D01*
X192696226Y-109828650D01*
X192788558Y-109776941D01*
X192873213Y-109729532D01*
X193040446Y-109590446D01*
X193100252Y-109518537D01*
X193159189Y-109478953D01*
X193230171Y-109477517D01*
X193292913Y-109517258D01*
X193296204Y-109521914D01*
X193300347Y-109525950D01*
X193300348Y-109525951D01*
X193363596Y-109587564D01*
X193452009Y-109673692D01*
X193632863Y-109794536D01*
X193638171Y-109796817D01*
X193638172Y-109796817D01*
X193827409Y-109878119D01*
X193827412Y-109878120D01*
X193832712Y-109880397D01*
X193838342Y-109881671D01*
X193936464Y-109903874D01*
X194044860Y-109928402D01*
X194050631Y-109928629D01*
X194050633Y-109928629D01*
X194123620Y-109931496D01*
X194262205Y-109936941D01*
X194477466Y-109905730D01*
X194482930Y-109903875D01*
X194482935Y-109903874D01*
X194677963Y-109837671D01*
X194677968Y-109837669D01*
X194683435Y-109835813D01*
X194696226Y-109828650D01*
X194788558Y-109776941D01*
X194873213Y-109729532D01*
X195040446Y-109590446D01*
X195100578Y-109518145D01*
X195159515Y-109478561D01*
X195230497Y-109477125D01*
X195293264Y-109516885D01*
X195300720Y-109525615D01*
X195448191Y-109669275D01*
X195457124Y-109676509D01*
X195628299Y-109790884D01*
X195638412Y-109796375D01*
X195683356Y-109815684D01*
X195697356Y-109817375D01*
X195700000Y-109813048D01*
X195700000Y-109807848D01*
X196700000Y-109807848D01*
X196703973Y-109821379D01*
X196706038Y-109821676D01*
X196710134Y-109820288D01*
X196867882Y-109731944D01*
X196877375Y-109725420D01*
X197035653Y-109593782D01*
X197043782Y-109585653D01*
X197175420Y-109427375D01*
X197181944Y-109417882D01*
X197267111Y-109265806D01*
X197270256Y-109252060D01*
X197268597Y-109250790D01*
X197264349Y-109250000D01*
X196718115Y-109250000D01*
X196702876Y-109254475D01*
X196701671Y-109255865D01*
X196700000Y-109263548D01*
X196700000Y-109807848D01*
X195700000Y-109807848D01*
X195700000Y-108231885D01*
X196700000Y-108231885D01*
X196704475Y-108247124D01*
X196705865Y-108248329D01*
X196713548Y-108250000D01*
X197254433Y-108250000D01*
X197267964Y-108246027D01*
X197268508Y-108242242D01*
X197268146Y-108241073D01*
X197215549Y-108134417D01*
X197209538Y-108124608D01*
X197086360Y-107959651D01*
X197078671Y-107951111D01*
X196927490Y-107811361D01*
X196918365Y-107804360D01*
X196744255Y-107694505D01*
X196734011Y-107689285D01*
X196716827Y-107682429D01*
X196702787Y-107681105D01*
X196700000Y-107685945D01*
X196700000Y-108231885D01*
X195700000Y-108231885D01*
X195700000Y-107691548D01*
X195696027Y-107678017D01*
X195690640Y-107677243D01*
X195683562Y-107680619D01*
X195506639Y-107785877D01*
X195497327Y-107792643D01*
X195342547Y-107928381D01*
X195334629Y-107936725D01*
X195300317Y-107980249D01*
X195242436Y-108021361D01*
X195171516Y-108024655D01*
X195110073Y-107989083D01*
X195100410Y-107977631D01*
X195086733Y-107959315D01*
X195086732Y-107959314D01*
X195083280Y-107954691D01*
X195079044Y-107950775D01*
X194927796Y-107810963D01*
X194927793Y-107810961D01*
X194923556Y-107807044D01*
X194739599Y-107690976D01*
X194537572Y-107610376D01*
X194324239Y-107567941D01*
X194318464Y-107567865D01*
X194318460Y-107567865D01*
X194209419Y-107566438D01*
X194106746Y-107565094D01*
X194101049Y-107566073D01*
X194101048Y-107566073D01*
X193898065Y-107600952D01*
X193898062Y-107600953D01*
X193892375Y-107601930D01*
X193688307Y-107677214D01*
X193501376Y-107788427D01*
X193337842Y-107931842D01*
X193334270Y-107936372D01*
X193334269Y-107936374D01*
X193300007Y-107979834D01*
X193242125Y-108020947D01*
X193171205Y-108024239D01*
X193109763Y-107988667D01*
X193100100Y-107977215D01*
X193086737Y-107959319D01*
X193086730Y-107959312D01*
X193083280Y-107954691D01*
X193079044Y-107950775D01*
X192927796Y-107810963D01*
X192927793Y-107810961D01*
X192923556Y-107807044D01*
X192739599Y-107690976D01*
X192537572Y-107610376D01*
X192324239Y-107567941D01*
X192318464Y-107567865D01*
X192318460Y-107567865D01*
X192209419Y-107566438D01*
X192106746Y-107565094D01*
X192101049Y-107566073D01*
X192101048Y-107566073D01*
X191898065Y-107600952D01*
X191898062Y-107600953D01*
X191892375Y-107601930D01*
X191688307Y-107677214D01*
X191501376Y-107788427D01*
X191337842Y-107931842D01*
X191334270Y-107936372D01*
X191334269Y-107936374D01*
X191300007Y-107979834D01*
X191242125Y-108020947D01*
X191171205Y-108024239D01*
X191109763Y-107988667D01*
X191100100Y-107977215D01*
X191086737Y-107959319D01*
X191086730Y-107959312D01*
X191083280Y-107954691D01*
X191079044Y-107950775D01*
X190927796Y-107810963D01*
X190927793Y-107810961D01*
X190923556Y-107807044D01*
X190739599Y-107690976D01*
X190537572Y-107610376D01*
X190324239Y-107567941D01*
X190318464Y-107567865D01*
X190318460Y-107567865D01*
X190209419Y-107566438D01*
X190106746Y-107565094D01*
X190101049Y-107566073D01*
X190101048Y-107566073D01*
X189898065Y-107600952D01*
X189898062Y-107600953D01*
X189892375Y-107601930D01*
X189688307Y-107677214D01*
X189501376Y-107788427D01*
X189337842Y-107931842D01*
X189334270Y-107936372D01*
X189334269Y-107936374D01*
X189300007Y-107979834D01*
X189242125Y-108020947D01*
X189171205Y-108024239D01*
X189109763Y-107988667D01*
X189100100Y-107977215D01*
X189086737Y-107959319D01*
X189086730Y-107959312D01*
X189083280Y-107954691D01*
X189079044Y-107950775D01*
X188927796Y-107810963D01*
X188927793Y-107810961D01*
X188923556Y-107807044D01*
X188739599Y-107690976D01*
X188537572Y-107610376D01*
X188515997Y-107606084D01*
X188507006Y-107604296D01*
X188442493Y-107569812D01*
X188166078Y-107293397D01*
X188154545Y-107280131D01*
X188147015Y-107270139D01*
X188140381Y-107261335D01*
X188125521Y-107246053D01*
X188122430Y-107243586D01*
X188122425Y-107243581D01*
X188110237Y-107233852D01*
X188104228Y-107228740D01*
X187972584Y-107109424D01*
X187923658Y-107065080D01*
X187896039Y-107044596D01*
X187708447Y-106905469D01*
X187705962Y-106903626D01*
X187703321Y-106902043D01*
X187703312Y-106902037D01*
X187476130Y-106765870D01*
X187476131Y-106765870D01*
X187473489Y-106764287D01*
X187465301Y-106760414D01*
X187231272Y-106649727D01*
X187228479Y-106648406D01*
X187204902Y-106639970D01*
X187147503Y-106598187D01*
X187121804Y-106532005D01*
X187135967Y-106462435D01*
X187158257Y-106432241D01*
X187246198Y-106344300D01*
X187294966Y-106274653D01*
X187374366Y-106161257D01*
X187377523Y-106156749D01*
X187379846Y-106151767D01*
X187379849Y-106151762D01*
X187395805Y-106117543D01*
X187442722Y-106064258D01*
X187510999Y-106044797D01*
X187578959Y-106065339D01*
X187624195Y-106117543D01*
X187640151Y-106151762D01*
X187640154Y-106151767D01*
X187642477Y-106156749D01*
X187645634Y-106161257D01*
X187725035Y-106274653D01*
X187773802Y-106344300D01*
X187935700Y-106506198D01*
X187940208Y-106509355D01*
X187940211Y-106509357D01*
X187945301Y-106512921D01*
X188123251Y-106637523D01*
X188128233Y-106639846D01*
X188128238Y-106639849D01*
X188324975Y-106731588D01*
X188330757Y-106734284D01*
X188336065Y-106735706D01*
X188336067Y-106735707D01*
X188546598Y-106792119D01*
X188546600Y-106792119D01*
X188551913Y-106793543D01*
X188780000Y-106813498D01*
X189008087Y-106793543D01*
X189013400Y-106792119D01*
X189013402Y-106792119D01*
X189223933Y-106735707D01*
X189223935Y-106735706D01*
X189229243Y-106734284D01*
X189235025Y-106731588D01*
X189431762Y-106639849D01*
X189431767Y-106639846D01*
X189436749Y-106637523D01*
X189614699Y-106512921D01*
X189619789Y-106509357D01*
X189619792Y-106509355D01*
X189624300Y-106506198D01*
X189786198Y-106344300D01*
X189834966Y-106274653D01*
X189914366Y-106161257D01*
X189917523Y-106156749D01*
X189919846Y-106151767D01*
X189919849Y-106151762D01*
X189935805Y-106117543D01*
X189982722Y-106064258D01*
X190050999Y-106044797D01*
X190118959Y-106065339D01*
X190164195Y-106117543D01*
X190180151Y-106151762D01*
X190180154Y-106151767D01*
X190182477Y-106156749D01*
X190185634Y-106161257D01*
X190265035Y-106274653D01*
X190313802Y-106344300D01*
X190475700Y-106506198D01*
X190480208Y-106509355D01*
X190480211Y-106509357D01*
X190485301Y-106512921D01*
X190663251Y-106637523D01*
X190668233Y-106639846D01*
X190668238Y-106639849D01*
X190864975Y-106731588D01*
X190870757Y-106734284D01*
X190876065Y-106735706D01*
X190876067Y-106735707D01*
X191086598Y-106792119D01*
X191086600Y-106792119D01*
X191091913Y-106793543D01*
X191320000Y-106813498D01*
X191548087Y-106793543D01*
X191553400Y-106792119D01*
X191553402Y-106792119D01*
X191763933Y-106735707D01*
X191763935Y-106735706D01*
X191769243Y-106734284D01*
X191775025Y-106731588D01*
X191971762Y-106639849D01*
X191971767Y-106639846D01*
X191976749Y-106637523D01*
X192154699Y-106512921D01*
X192159789Y-106509357D01*
X192159792Y-106509355D01*
X192164300Y-106506198D01*
X192326198Y-106344300D01*
X192374966Y-106274653D01*
X192454366Y-106161257D01*
X192457523Y-106156749D01*
X192459846Y-106151767D01*
X192459849Y-106151762D01*
X192475805Y-106117543D01*
X192522722Y-106064258D01*
X192590999Y-106044797D01*
X192658959Y-106065339D01*
X192704195Y-106117543D01*
X192720151Y-106151762D01*
X192720154Y-106151767D01*
X192722477Y-106156749D01*
X192725634Y-106161257D01*
X192805035Y-106274653D01*
X192853802Y-106344300D01*
X193015700Y-106506198D01*
X193020208Y-106509355D01*
X193020211Y-106509357D01*
X193025301Y-106512921D01*
X193203251Y-106637523D01*
X193208233Y-106639846D01*
X193208238Y-106639849D01*
X193404975Y-106731588D01*
X193410757Y-106734284D01*
X193416065Y-106735706D01*
X193416067Y-106735707D01*
X193626598Y-106792119D01*
X193626600Y-106792119D01*
X193631913Y-106793543D01*
X193860000Y-106813498D01*
X194088087Y-106793543D01*
X194093400Y-106792119D01*
X194093402Y-106792119D01*
X194303933Y-106735707D01*
X194303935Y-106735706D01*
X194309243Y-106734284D01*
X194315025Y-106731588D01*
X194511762Y-106639849D01*
X194511767Y-106639846D01*
X194516749Y-106637523D01*
X194694699Y-106512921D01*
X194699789Y-106509357D01*
X194699792Y-106509355D01*
X194704300Y-106506198D01*
X194866198Y-106344300D01*
X194869357Y-106339789D01*
X194872892Y-106335576D01*
X194874026Y-106336527D01*
X194924071Y-106296529D01*
X194994690Y-106289224D01*
X195058049Y-106321258D01*
X195094030Y-106382462D01*
X195097082Y-106399517D01*
X195098255Y-106410316D01*
X195149385Y-106546705D01*
X195236739Y-106663261D01*
X195353295Y-106750615D01*
X195489684Y-106801745D01*
X195551866Y-106808500D01*
X197248134Y-106808500D01*
X197310316Y-106801745D01*
X197446705Y-106750615D01*
X197563261Y-106663261D01*
X197650615Y-106546705D01*
X197701745Y-106410316D01*
X197708500Y-106348134D01*
X197708500Y-104651866D01*
X197701745Y-104589684D01*
X197650615Y-104453295D01*
X197563261Y-104336739D01*
X197446705Y-104249385D01*
X197310316Y-104198255D01*
X197248134Y-104191500D01*
X195551866Y-104191500D01*
X195489684Y-104198255D01*
X195353295Y-104249385D01*
X195236739Y-104336739D01*
X195149385Y-104453295D01*
X195098255Y-104589684D01*
X195097083Y-104600474D01*
X195096197Y-104602606D01*
X195095575Y-104605222D01*
X195095152Y-104605121D01*
X195069845Y-104666035D01*
X195011483Y-104706463D01*
X194940529Y-104708922D01*
X194879510Y-104672629D01*
X194872511Y-104663969D01*
X194869354Y-104660207D01*
X194866198Y-104655700D01*
X194704300Y-104493802D01*
X194699792Y-104490645D01*
X194699789Y-104490643D01*
X194544826Y-104382137D01*
X194516749Y-104362477D01*
X194511767Y-104360154D01*
X194511762Y-104360151D01*
X194314225Y-104268039D01*
X194314224Y-104268039D01*
X194309243Y-104265716D01*
X194303935Y-104264294D01*
X194303933Y-104264293D01*
X194093402Y-104207881D01*
X194093400Y-104207881D01*
X194088087Y-104206457D01*
X193860000Y-104186502D01*
X193631913Y-104206457D01*
X193626600Y-104207881D01*
X193626598Y-104207881D01*
X193416067Y-104264293D01*
X193416065Y-104264294D01*
X193410757Y-104265716D01*
X193405776Y-104268039D01*
X193405775Y-104268039D01*
X193208238Y-104360151D01*
X193208233Y-104360154D01*
X193203251Y-104362477D01*
X193175174Y-104382137D01*
X193020211Y-104490643D01*
X193020208Y-104490645D01*
X193015700Y-104493802D01*
X192853802Y-104655700D01*
X192722477Y-104843251D01*
X192720154Y-104848233D01*
X192720151Y-104848238D01*
X192704195Y-104882457D01*
X192657278Y-104935742D01*
X192589001Y-104955203D01*
X192521041Y-104934661D01*
X192475805Y-104882457D01*
X192459849Y-104848238D01*
X192459846Y-104848233D01*
X192457523Y-104843251D01*
X192326198Y-104655700D01*
X192164300Y-104493802D01*
X192159792Y-104490645D01*
X192159789Y-104490643D01*
X192004826Y-104382137D01*
X191976749Y-104362477D01*
X191971767Y-104360154D01*
X191971762Y-104360151D01*
X191774225Y-104268039D01*
X191774224Y-104268039D01*
X191769243Y-104265716D01*
X191763935Y-104264294D01*
X191763933Y-104264293D01*
X191553402Y-104207881D01*
X191553400Y-104207881D01*
X191548087Y-104206457D01*
X191320000Y-104186502D01*
X191091913Y-104206457D01*
X191086600Y-104207881D01*
X191086598Y-104207881D01*
X190876067Y-104264293D01*
X190876065Y-104264294D01*
X190870757Y-104265716D01*
X190865776Y-104268039D01*
X190865775Y-104268039D01*
X190668238Y-104360151D01*
X190668233Y-104360154D01*
X190663251Y-104362477D01*
X190635174Y-104382137D01*
X190480211Y-104490643D01*
X190480208Y-104490645D01*
X190475700Y-104493802D01*
X190313802Y-104655700D01*
X190182477Y-104843251D01*
X190180154Y-104848233D01*
X190180151Y-104848238D01*
X190164195Y-104882457D01*
X190117278Y-104935742D01*
X190049001Y-104955203D01*
X189981041Y-104934661D01*
X189935805Y-104882457D01*
X189919849Y-104848238D01*
X189919846Y-104848233D01*
X189917523Y-104843251D01*
X189786198Y-104655700D01*
X189624300Y-104493802D01*
X189619792Y-104490645D01*
X189619789Y-104490643D01*
X189464826Y-104382137D01*
X189436749Y-104362477D01*
X189431767Y-104360154D01*
X189431762Y-104360151D01*
X189234225Y-104268039D01*
X189234224Y-104268039D01*
X189229243Y-104265716D01*
X189223935Y-104264294D01*
X189223933Y-104264293D01*
X189013402Y-104207881D01*
X189013400Y-104207881D01*
X189008087Y-104206457D01*
X188780000Y-104186502D01*
X188551913Y-104206457D01*
X188546600Y-104207881D01*
X188546598Y-104207881D01*
X188336067Y-104264293D01*
X188336065Y-104264294D01*
X188330757Y-104265716D01*
X188325776Y-104268039D01*
X188325775Y-104268039D01*
X188128238Y-104360151D01*
X188128233Y-104360154D01*
X188123251Y-104362477D01*
X188095174Y-104382137D01*
X187940211Y-104490643D01*
X187940208Y-104490645D01*
X187935700Y-104493802D01*
X187773802Y-104655700D01*
X187642477Y-104843251D01*
X187640154Y-104848233D01*
X187640151Y-104848238D01*
X187624195Y-104882457D01*
X187577278Y-104935742D01*
X187509001Y-104955203D01*
X187441041Y-104934661D01*
X187395805Y-104882457D01*
X187379849Y-104848238D01*
X187379846Y-104848233D01*
X187377523Y-104843251D01*
X187246198Y-104655700D01*
X187084300Y-104493802D01*
X187079792Y-104490645D01*
X187079789Y-104490643D01*
X186924826Y-104382137D01*
X186896749Y-104362477D01*
X186891767Y-104360154D01*
X186891762Y-104360151D01*
X186694225Y-104268039D01*
X186694224Y-104268039D01*
X186689243Y-104265716D01*
X186683935Y-104264294D01*
X186683933Y-104264293D01*
X186473402Y-104207881D01*
X186473400Y-104207881D01*
X186468087Y-104206457D01*
X186240000Y-104186502D01*
X186011913Y-104206457D01*
X186006600Y-104207881D01*
X186006598Y-104207881D01*
X185796067Y-104264293D01*
X185796065Y-104264294D01*
X185790757Y-104265716D01*
X185785776Y-104268039D01*
X185785775Y-104268039D01*
X185588238Y-104360151D01*
X185588233Y-104360154D01*
X185583251Y-104362477D01*
X185555174Y-104382137D01*
X185400211Y-104490643D01*
X185400208Y-104490645D01*
X185395700Y-104493802D01*
X185233802Y-104655700D01*
X185102477Y-104843251D01*
X185100154Y-104848233D01*
X185100151Y-104848238D01*
X185084195Y-104882457D01*
X185037278Y-104935742D01*
X184969001Y-104955203D01*
X184901041Y-104934661D01*
X184855805Y-104882457D01*
X184839849Y-104848238D01*
X184839846Y-104848233D01*
X184837523Y-104843251D01*
X184706198Y-104655700D01*
X184544300Y-104493802D01*
X184539792Y-104490645D01*
X184539789Y-104490643D01*
X184384826Y-104382137D01*
X184356749Y-104362477D01*
X184351767Y-104360154D01*
X184351762Y-104360151D01*
X184154225Y-104268039D01*
X184154224Y-104268039D01*
X184149243Y-104265716D01*
X184143935Y-104264294D01*
X184143933Y-104264293D01*
X183933402Y-104207881D01*
X183933400Y-104207881D01*
X183928087Y-104206457D01*
X183700000Y-104186502D01*
X183471913Y-104206457D01*
X183466600Y-104207881D01*
X183466598Y-104207881D01*
X183256067Y-104264293D01*
X183256065Y-104264294D01*
X183250757Y-104265716D01*
X183245776Y-104268039D01*
X183245775Y-104268039D01*
X183048238Y-104360151D01*
X183048233Y-104360154D01*
X183043251Y-104362477D01*
X183015174Y-104382137D01*
X182860211Y-104490643D01*
X182860208Y-104490645D01*
X182855700Y-104493802D01*
X182693802Y-104655700D01*
X182562477Y-104843251D01*
X182560154Y-104848233D01*
X182560151Y-104848238D01*
X182544195Y-104882457D01*
X182497278Y-104935742D01*
X182429001Y-104955203D01*
X182361041Y-104934661D01*
X182315805Y-104882457D01*
X182299849Y-104848238D01*
X182299846Y-104848233D01*
X182297523Y-104843251D01*
X182166198Y-104655700D01*
X182004300Y-104493802D01*
X181999792Y-104490645D01*
X181999789Y-104490643D01*
X181844826Y-104382137D01*
X181816749Y-104362477D01*
X181811767Y-104360154D01*
X181811762Y-104360151D01*
X181614225Y-104268039D01*
X181614224Y-104268039D01*
X181609243Y-104265716D01*
X181603935Y-104264294D01*
X181603933Y-104264293D01*
X181393402Y-104207881D01*
X181393400Y-104207881D01*
X181388087Y-104206457D01*
X181160000Y-104186502D01*
X180931913Y-104206457D01*
X180926600Y-104207881D01*
X180926598Y-104207881D01*
X180716067Y-104264293D01*
X180716065Y-104264294D01*
X180710757Y-104265716D01*
X180705776Y-104268039D01*
X180705775Y-104268039D01*
X180508238Y-104360151D01*
X180508233Y-104360154D01*
X180503251Y-104362477D01*
X180475174Y-104382137D01*
X180320211Y-104490643D01*
X180320208Y-104490645D01*
X180315700Y-104493802D01*
X180153802Y-104655700D01*
X180022477Y-104843251D01*
X180020154Y-104848233D01*
X180020151Y-104848238D01*
X180004195Y-104882457D01*
X179957278Y-104935742D01*
X179889001Y-104955203D01*
X179821041Y-104934661D01*
X179775805Y-104882457D01*
X179759849Y-104848238D01*
X179759846Y-104848233D01*
X179757523Y-104843251D01*
X179626198Y-104655700D01*
X179464300Y-104493802D01*
X179459792Y-104490645D01*
X179459789Y-104490643D01*
X179412229Y-104457341D01*
X179367901Y-104401883D01*
X179358500Y-104354128D01*
X179358500Y-103003267D01*
X179366712Y-102958523D01*
X179385555Y-102908920D01*
X179385556Y-102908918D01*
X179388055Y-102902338D01*
X179389187Y-102894285D01*
X179412748Y-102726639D01*
X179412748Y-102726636D01*
X179413299Y-102722717D01*
X179413616Y-102700000D01*
X179393397Y-102519745D01*
X179391080Y-102513091D01*
X179336064Y-102355106D01*
X179336062Y-102355103D01*
X179333745Y-102348448D01*
X179259128Y-102229035D01*
X179241359Y-102200598D01*
X179237626Y-102194624D01*
X179153391Y-102109799D01*
X179114778Y-102070915D01*
X179114774Y-102070912D01*
X179109815Y-102065918D01*
X179098697Y-102058862D01*
X179008740Y-102001774D01*
X178956666Y-101968727D01*
X178923929Y-101957070D01*
X178792425Y-101910243D01*
X178792420Y-101910242D01*
X178785790Y-101907881D01*
X178778802Y-101907048D01*
X178778799Y-101907047D01*
X178655698Y-101892368D01*
X178605680Y-101886404D01*
X178598677Y-101887140D01*
X178598676Y-101887140D01*
X178432288Y-101904628D01*
X178432286Y-101904629D01*
X178425288Y-101905364D01*
X178253579Y-101963818D01*
X178247575Y-101967512D01*
X178105095Y-102055166D01*
X178105092Y-102055168D01*
X178099088Y-102058862D01*
X178094053Y-102063793D01*
X178094050Y-102063795D01*
X177979715Y-102175761D01*
X177969493Y-102185771D01*
X177871235Y-102338238D01*
X177868826Y-102344858D01*
X177868824Y-102344861D01*
X177836817Y-102432799D01*
X177809197Y-102508685D01*
X177786463Y-102688640D01*
X177804163Y-102869160D01*
X177806387Y-102875845D01*
X177835058Y-102962033D01*
X177841500Y-103001805D01*
X177841500Y-104382137D01*
X177821498Y-104450258D01*
X177787769Y-104485351D01*
X177780213Y-104490641D01*
X177780211Y-104490643D01*
X177775700Y-104493802D01*
X177613802Y-104655700D01*
X177482477Y-104843251D01*
X177480154Y-104848233D01*
X177480151Y-104848238D01*
X177421875Y-104973213D01*
X177385716Y-105050757D01*
X177326457Y-105271913D01*
X177306502Y-105500000D01*
X177326457Y-105728087D01*
X177327881Y-105733400D01*
X177327881Y-105733402D01*
X177359304Y-105850671D01*
X177385716Y-105949243D01*
X177388039Y-105954224D01*
X177388039Y-105954225D01*
X177480151Y-106151762D01*
X177480154Y-106151767D01*
X177482477Y-106156749D01*
X177485634Y-106161257D01*
X177565035Y-106274653D01*
X177613802Y-106344300D01*
X177775700Y-106506198D01*
X177780208Y-106509355D01*
X177780211Y-106509357D01*
X177785301Y-106512921D01*
X177958704Y-106634339D01*
X178003031Y-106689795D01*
X178010340Y-106760414D01*
X177975605Y-106826569D01*
X177898682Y-106903626D01*
X177850695Y-106951697D01*
X177846855Y-106957927D01*
X177846854Y-106957928D01*
X177774105Y-107075949D01*
X177757885Y-107102262D01*
X177702203Y-107270139D01*
X177701503Y-107276975D01*
X177701502Y-107276978D01*
X177701179Y-107280131D01*
X177691500Y-107374600D01*
X177691500Y-108000400D01*
X177691837Y-108003646D01*
X177691837Y-108003650D01*
X177700112Y-108083400D01*
X177702474Y-108106166D01*
X177758450Y-108273946D01*
X177851522Y-108424348D01*
X177856704Y-108429521D01*
X177938463Y-108511138D01*
X177972542Y-108573421D01*
X177967539Y-108644241D01*
X177938618Y-108689329D01*
X177856261Y-108771829D01*
X177847249Y-108783240D01*
X177762184Y-108921243D01*
X177756037Y-108934424D01*
X177735843Y-108995306D01*
X177735354Y-109009399D01*
X177741565Y-109012500D01*
X180051748Y-109012500D01*
X180065279Y-109008527D01*
X180066260Y-109001701D01*
X180043412Y-108933216D01*
X180037239Y-108920038D01*
X179951937Y-108782193D01*
X179942901Y-108770792D01*
X179861538Y-108689570D01*
X179827459Y-108627287D01*
X179832462Y-108556467D01*
X179861382Y-108511380D01*
X179889729Y-108482983D01*
X179952011Y-108448903D01*
X179978903Y-108446000D01*
X180253090Y-108446000D01*
X180268883Y-108446994D01*
X180298416Y-108450725D01*
X180318817Y-108448725D01*
X180340986Y-108448512D01*
X180493402Y-108460507D01*
X180512929Y-108463600D01*
X180683074Y-108504448D01*
X180701879Y-108510558D01*
X180863542Y-108577522D01*
X180881157Y-108586498D01*
X180956334Y-108632566D01*
X181003966Y-108685213D01*
X181016500Y-108739999D01*
X181016500Y-109473134D01*
X181023255Y-109535316D01*
X181045173Y-109593782D01*
X181074222Y-109671270D01*
X181079405Y-109742078D01*
X181045484Y-109804447D01*
X180983229Y-109838576D01*
X180956240Y-109841500D01*
X177471910Y-109841500D01*
X177456118Y-109840506D01*
X177454506Y-109840302D01*
X177426584Y-109836775D01*
X177417569Y-109837659D01*
X177406193Y-109838774D01*
X177384013Y-109838987D01*
X177231599Y-109826992D01*
X177212071Y-109823899D01*
X177204719Y-109822134D01*
X177041919Y-109783049D01*
X177023125Y-109776943D01*
X176861455Y-109709977D01*
X176843843Y-109701003D01*
X176768664Y-109654932D01*
X176721033Y-109602284D01*
X176708500Y-109547500D01*
X176708500Y-109199600D01*
X176708163Y-109196350D01*
X176698238Y-109100692D01*
X176698237Y-109100688D01*
X176697526Y-109093834D01*
X176641550Y-108926054D01*
X176548478Y-108775652D01*
X176481209Y-108708500D01*
X176461537Y-108688862D01*
X176427458Y-108626579D01*
X176432461Y-108555759D01*
X176461382Y-108510671D01*
X176543739Y-108428171D01*
X176552751Y-108416760D01*
X176637816Y-108278757D01*
X176643963Y-108265576D01*
X176664157Y-108204694D01*
X176664646Y-108190601D01*
X176658435Y-108187500D01*
X174348252Y-108187500D01*
X174334721Y-108191473D01*
X174333740Y-108198299D01*
X174356588Y-108266784D01*
X174362761Y-108279962D01*
X174448063Y-108417807D01*
X174457099Y-108429208D01*
X174538462Y-108510430D01*
X174572541Y-108572713D01*
X174567538Y-108643533D01*
X174538617Y-108688620D01*
X174455870Y-108771512D01*
X174455866Y-108771517D01*
X174450695Y-108776697D01*
X174446855Y-108782927D01*
X174446854Y-108782928D01*
X174446542Y-108783435D01*
X174357885Y-108927262D01*
X174302203Y-109095139D01*
X174291500Y-109199600D01*
X174291500Y-109825400D01*
X170668132Y-109825400D01*
X170595923Y-109678974D01*
X170588681Y-109669275D01*
X170469233Y-109509315D01*
X170469232Y-109509314D01*
X170465780Y-109504691D01*
X170435962Y-109477127D01*
X170343578Y-109391729D01*
X170307133Y-109330800D01*
X170309414Y-109259840D01*
X170348538Y-109202330D01*
X170351821Y-109199600D01*
X170422946Y-109140446D01*
X170562032Y-108973213D01*
X170668313Y-108783435D01*
X170670169Y-108777968D01*
X170670171Y-108777963D01*
X170736374Y-108582935D01*
X170736375Y-108582930D01*
X170738230Y-108577466D01*
X170769441Y-108362205D01*
X170771070Y-108300000D01*
X170751167Y-108083400D01*
X170692126Y-107874055D01*
X170595923Y-107678974D01*
X170559182Y-107629771D01*
X170469233Y-107509315D01*
X170469232Y-107509314D01*
X170465780Y-107504691D01*
X170343578Y-107391729D01*
X170307133Y-107330800D01*
X170309414Y-107259840D01*
X170348538Y-107202330D01*
X170366370Y-107187500D01*
X170370099Y-107184399D01*
X174335354Y-107184399D01*
X174341565Y-107187500D01*
X174981885Y-107187500D01*
X174997124Y-107183025D01*
X174998329Y-107181635D01*
X175000000Y-107173952D01*
X175000000Y-107169385D01*
X176000000Y-107169385D01*
X176004475Y-107184624D01*
X176005865Y-107185829D01*
X176013548Y-107187500D01*
X176651748Y-107187500D01*
X176665279Y-107183527D01*
X176666260Y-107176701D01*
X176643412Y-107108216D01*
X176637239Y-107095038D01*
X176551937Y-106957193D01*
X176542901Y-106945792D01*
X176428171Y-106831261D01*
X176416760Y-106822249D01*
X176278757Y-106737184D01*
X176265576Y-106731037D01*
X176111290Y-106679862D01*
X176097914Y-106676995D01*
X176013523Y-106668348D01*
X176002876Y-106671475D01*
X176001671Y-106672865D01*
X176000000Y-106680548D01*
X176000000Y-107169385D01*
X175000000Y-107169385D01*
X175000000Y-106685116D01*
X174995525Y-106669877D01*
X174994135Y-106668672D01*
X174990710Y-106667927D01*
X174900794Y-106677257D01*
X174887400Y-106680149D01*
X174733216Y-106731588D01*
X174720038Y-106737761D01*
X174582193Y-106823063D01*
X174570792Y-106832099D01*
X174456261Y-106946829D01*
X174447249Y-106958240D01*
X174362184Y-107096243D01*
X174356037Y-107109424D01*
X174335843Y-107170306D01*
X174335354Y-107184399D01*
X170370099Y-107184399D01*
X170422946Y-107140446D01*
X170562032Y-106973213D01*
X170641863Y-106830665D01*
X170665489Y-106788478D01*
X170665490Y-106788476D01*
X170668313Y-106783435D01*
X170670169Y-106777968D01*
X170670171Y-106777963D01*
X170736374Y-106582935D01*
X170736375Y-106582930D01*
X170738230Y-106577466D01*
X170769441Y-106362205D01*
X170771070Y-106300000D01*
X170751167Y-106083400D01*
X170745769Y-106064258D01*
X170713331Y-105949243D01*
X170692126Y-105874055D01*
X170595923Y-105678974D01*
X170465780Y-105504691D01*
X170460706Y-105500000D01*
X170343578Y-105391729D01*
X170307133Y-105330800D01*
X170309414Y-105259840D01*
X170348538Y-105202330D01*
X170370518Y-105184050D01*
X170422946Y-105140446D01*
X170562032Y-104973213D01*
X170668313Y-104783435D01*
X170670169Y-104777968D01*
X170670171Y-104777963D01*
X170736374Y-104582935D01*
X170736375Y-104582930D01*
X170738230Y-104577466D01*
X170769441Y-104362205D01*
X170771070Y-104300000D01*
X170751167Y-104083400D01*
X170692126Y-103874055D01*
X170595923Y-103678974D01*
X170465780Y-103504691D01*
X170343578Y-103391729D01*
X170307133Y-103330800D01*
X170309414Y-103259840D01*
X170348538Y-103202330D01*
X170371444Y-103183280D01*
X170422946Y-103140446D01*
X170562032Y-102973213D01*
X170668313Y-102783435D01*
X170670169Y-102777968D01*
X170670171Y-102777963D01*
X170736374Y-102582935D01*
X170736375Y-102582930D01*
X170738230Y-102577466D01*
X170769441Y-102362205D01*
X170771070Y-102300000D01*
X170751167Y-102083400D01*
X170692126Y-101874055D01*
X170595923Y-101678974D01*
X170519361Y-101576444D01*
X170469233Y-101509315D01*
X170469232Y-101509314D01*
X170465780Y-101504691D01*
X170412449Y-101455392D01*
X170310296Y-101360963D01*
X170310293Y-101360961D01*
X170306056Y-101357044D01*
X170122099Y-101240976D01*
X169920072Y-101160376D01*
X169706739Y-101117941D01*
X169700964Y-101117865D01*
X169700960Y-101117865D01*
X169591919Y-101116438D01*
X169489246Y-101115094D01*
X169483549Y-101116073D01*
X169483548Y-101116073D01*
X169280565Y-101150952D01*
X169280562Y-101150953D01*
X169274875Y-101151930D01*
X169070807Y-101227214D01*
X168965208Y-101290039D01*
X168924030Y-101314538D01*
X168883876Y-101338427D01*
X168720342Y-101481842D01*
X168716770Y-101486373D01*
X168589255Y-101648124D01*
X168589253Y-101648126D01*
X168585681Y-101652658D01*
X168582993Y-101657767D01*
X168574270Y-101674347D01*
X168484405Y-101845154D01*
X168482693Y-101850668D01*
X168482692Y-101850671D01*
X168421618Y-102047360D01*
X168419903Y-102052882D01*
X168394337Y-102268887D01*
X168408563Y-102485933D01*
X168409984Y-102491529D01*
X168409985Y-102491534D01*
X168460683Y-102691153D01*
X168462105Y-102696753D01*
X168464522Y-102701996D01*
X168475883Y-102726639D01*
X168553168Y-102894285D01*
X168678704Y-103071914D01*
X168682846Y-103075949D01*
X168822241Y-103211741D01*
X168857079Y-103273602D01*
X168852942Y-103344478D01*
X168817399Y-103396726D01*
X168720342Y-103481842D01*
X168585681Y-103652658D01*
X168484405Y-103845154D01*
X168419903Y-104052882D01*
X168394337Y-104268887D01*
X168408563Y-104485933D01*
X168409984Y-104491529D01*
X168409985Y-104491534D01*
X168455978Y-104672629D01*
X168462105Y-104696753D01*
X168553168Y-104894285D01*
X168556501Y-104899001D01*
X168663752Y-105050757D01*
X168678704Y-105071914D01*
X168682846Y-105075949D01*
X168822241Y-105211741D01*
X168857079Y-105273602D01*
X168852942Y-105344478D01*
X168817399Y-105396726D01*
X168720342Y-105481842D01*
X168585681Y-105652658D01*
X168484405Y-105845154D01*
X168419903Y-106052882D01*
X168394337Y-106268887D01*
X168408563Y-106485933D01*
X168409984Y-106491529D01*
X168409985Y-106491534D01*
X168460084Y-106688797D01*
X168462105Y-106696753D01*
X168553168Y-106894285D01*
X168556501Y-106899001D01*
X168659398Y-107044596D01*
X168678704Y-107071914D01*
X168682846Y-107075949D01*
X168717209Y-107109424D01*
X168794174Y-107184399D01*
X168822241Y-107211741D01*
X168857079Y-107273602D01*
X168852942Y-107344478D01*
X168817399Y-107396726D01*
X168720342Y-107481842D01*
X168716770Y-107486373D01*
X168603724Y-107629771D01*
X168585681Y-107652658D01*
X168484405Y-107845154D01*
X168482692Y-107850671D01*
X168429691Y-108021361D01*
X168419903Y-108052882D01*
X168394337Y-108268887D01*
X168408563Y-108485933D01*
X168409984Y-108491529D01*
X168409985Y-108491534D01*
X168460281Y-108689570D01*
X168462105Y-108696753D01*
X168553168Y-108894285D01*
X168678704Y-109071914D01*
X168813131Y-109202866D01*
X168822241Y-109211741D01*
X168857079Y-109273602D01*
X168852942Y-109344478D01*
X168817399Y-109396726D01*
X168720342Y-109481842D01*
X168716770Y-109486373D01*
X168638504Y-109585653D01*
X168585681Y-109652658D01*
X168582993Y-109657767D01*
X168572926Y-109676902D01*
X168484405Y-109845154D01*
X168482692Y-109850671D01*
X168455975Y-109936714D01*
X168419903Y-110052882D01*
X168394337Y-110268887D01*
X168408563Y-110485933D01*
X168409984Y-110491529D01*
X168409985Y-110491534D01*
X168441801Y-110616808D01*
X168462105Y-110696753D01*
X168553168Y-110894285D01*
X168556501Y-110899001D01*
X168653325Y-111036003D01*
X168678704Y-111071914D01*
X168682846Y-111075949D01*
X168822241Y-111211741D01*
X168857079Y-111273602D01*
X168852942Y-111344478D01*
X168817399Y-111396726D01*
X168720342Y-111481842D01*
X168585681Y-111652658D01*
X168484405Y-111845154D01*
X168482692Y-111850671D01*
X168430996Y-112017158D01*
X168419903Y-112052882D01*
X168394337Y-112268887D01*
X168408563Y-112485933D01*
X168409984Y-112491529D01*
X168409985Y-112491534D01*
X168445152Y-112630000D01*
X168462105Y-112696753D01*
X168464522Y-112701996D01*
X168468265Y-112710116D01*
X168553168Y-112894285D01*
X168678704Y-113071914D01*
X168682846Y-113075949D01*
X168822241Y-113211741D01*
X168857079Y-113273602D01*
X168852942Y-113344478D01*
X168817399Y-113396726D01*
X168720342Y-113481842D01*
X168716770Y-113486373D01*
X168608592Y-113623596D01*
X168585681Y-113652658D01*
X168484405Y-113845154D01*
X168482692Y-113850671D01*
X168426475Y-114031718D01*
X168419903Y-114052882D01*
X168394337Y-114268887D01*
X157368211Y-114268887D01*
X157351167Y-114083400D01*
X157348571Y-114074193D01*
X157305284Y-113920711D01*
X157292126Y-113874055D01*
X157195923Y-113678974D01*
X157183716Y-113662626D01*
X157069233Y-113509315D01*
X157069232Y-113509314D01*
X157065780Y-113504691D01*
X157047004Y-113487334D01*
X156943578Y-113391729D01*
X156907133Y-113330800D01*
X156909414Y-113259840D01*
X156948538Y-113202330D01*
X157018508Y-113144137D01*
X157022946Y-113140446D01*
X157162032Y-112973213D01*
X157268313Y-112783435D01*
X157270169Y-112777968D01*
X157270171Y-112777963D01*
X157336374Y-112582935D01*
X157336375Y-112582930D01*
X157338230Y-112577466D01*
X157369441Y-112362205D01*
X157371070Y-112300000D01*
X157351167Y-112083400D01*
X157349573Y-112077746D01*
X157306768Y-111925972D01*
X157292126Y-111874055D01*
X157195923Y-111678974D01*
X157065780Y-111504691D01*
X157061544Y-111500775D01*
X156910296Y-111360963D01*
X156910293Y-111360961D01*
X156906056Y-111357044D01*
X156722099Y-111240976D01*
X156520072Y-111160376D01*
X156327491Y-111122069D01*
X156262978Y-111087585D01*
X156195312Y-111019919D01*
X156181368Y-111012305D01*
X156179535Y-111012436D01*
X156172920Y-111016687D01*
X156099762Y-111089845D01*
X156032005Y-111124930D01*
X156021448Y-111126744D01*
X155880565Y-111150952D01*
X155880562Y-111150953D01*
X155874875Y-111151930D01*
X155670807Y-111227214D01*
X155483876Y-111338427D01*
X155320342Y-111481842D01*
X155185681Y-111652658D01*
X155084405Y-111845154D01*
X155082692Y-111850671D01*
X155030996Y-112017158D01*
X155019903Y-112052882D01*
X154994337Y-112268887D01*
X155008563Y-112485933D01*
X155009984Y-112491529D01*
X155009985Y-112491534D01*
X155045152Y-112630000D01*
X155062105Y-112696753D01*
X155064522Y-112701996D01*
X155068265Y-112710116D01*
X155153168Y-112894285D01*
X155278704Y-113071914D01*
X155282846Y-113075949D01*
X155422241Y-113211741D01*
X155457079Y-113273602D01*
X155452942Y-113344478D01*
X155417399Y-113396726D01*
X155320342Y-113481842D01*
X155316770Y-113486373D01*
X155208592Y-113623596D01*
X155185681Y-113652658D01*
X155084405Y-113845154D01*
X155082692Y-113850671D01*
X155026475Y-114031718D01*
X155019903Y-114052882D01*
X154994337Y-114268887D01*
X155008563Y-114485933D01*
X155009984Y-114491529D01*
X155009985Y-114491534D01*
X155060684Y-114691158D01*
X155062105Y-114696753D01*
X155153168Y-114894285D01*
X155156501Y-114899001D01*
X155260629Y-115046338D01*
X155278704Y-115071914D01*
X155282846Y-115075949D01*
X155422241Y-115211741D01*
X155457079Y-115273602D01*
X155452942Y-115344478D01*
X155417399Y-115396726D01*
X155320342Y-115481842D01*
X155316770Y-115486373D01*
X155207170Y-115625400D01*
X155185681Y-115652658D01*
X155182993Y-115657767D01*
X155174270Y-115674347D01*
X155084405Y-115845154D01*
X155077040Y-115868872D01*
X155054301Y-115942105D01*
X155019903Y-116052882D01*
X154994337Y-116268887D01*
X152308000Y-116268887D01*
X152308000Y-110274666D01*
X154995217Y-110274666D01*
X155008681Y-110480088D01*
X155010481Y-110491456D01*
X155061157Y-110690990D01*
X155062018Y-110693422D01*
X155069388Y-110701866D01*
X155075279Y-110700114D01*
X155462581Y-110312812D01*
X155468959Y-110301132D01*
X156894805Y-110301132D01*
X156894936Y-110302965D01*
X156899187Y-110309580D01*
X157281648Y-110692041D01*
X157294028Y-110698801D01*
X157297089Y-110696509D01*
X157297660Y-110695427D01*
X157335884Y-110582823D01*
X157338572Y-110571627D01*
X157368407Y-110365853D01*
X157369037Y-110358470D01*
X157370471Y-110303704D01*
X157370228Y-110296305D01*
X157351203Y-110089246D01*
X157349106Y-110077932D01*
X157301792Y-109910171D01*
X157294294Y-109898225D01*
X157292226Y-109898500D01*
X157288658Y-109900949D01*
X156902419Y-110287188D01*
X156894805Y-110301132D01*
X155468959Y-110301132D01*
X155470195Y-110298868D01*
X155470064Y-110297035D01*
X155465813Y-110290420D01*
X155082485Y-109907092D01*
X155070105Y-109900332D01*
X155067738Y-109902104D01*
X155066476Y-109904578D01*
X155022107Y-110047470D01*
X155019715Y-110058724D01*
X154995518Y-110263165D01*
X154995217Y-110274666D01*
X152308000Y-110274666D01*
X152308000Y-108268887D01*
X154994337Y-108268887D01*
X155008563Y-108485933D01*
X155009984Y-108491529D01*
X155009985Y-108491534D01*
X155060281Y-108689570D01*
X155062105Y-108696753D01*
X155153168Y-108894285D01*
X155278704Y-109071914D01*
X155282846Y-109075949D01*
X155309566Y-109101978D01*
X155434509Y-109223692D01*
X155615363Y-109344536D01*
X155620671Y-109346817D01*
X155620672Y-109346817D01*
X155809909Y-109428119D01*
X155809912Y-109428120D01*
X155815212Y-109430397D01*
X156027360Y-109478402D01*
X156031606Y-109478569D01*
X156096079Y-109507089D01*
X156103802Y-109514195D01*
X156169688Y-109580081D01*
X156183632Y-109587695D01*
X156185465Y-109587564D01*
X156192080Y-109583313D01*
X156266275Y-109509118D01*
X156328587Y-109475092D01*
X156337290Y-109473517D01*
X156454252Y-109456559D01*
X156454257Y-109456558D01*
X156459966Y-109455730D01*
X156465430Y-109453875D01*
X156465435Y-109453874D01*
X156660463Y-109387671D01*
X156660468Y-109387669D01*
X156665935Y-109385813D01*
X156855713Y-109279532D01*
X157022946Y-109140446D01*
X157162032Y-108973213D01*
X157268313Y-108783435D01*
X157270169Y-108777968D01*
X157270171Y-108777963D01*
X157336374Y-108582935D01*
X157336375Y-108582930D01*
X157338230Y-108577466D01*
X157369441Y-108362205D01*
X157371070Y-108300000D01*
X157351167Y-108083400D01*
X157292126Y-107874055D01*
X157195923Y-107678974D01*
X157159182Y-107629771D01*
X157069233Y-107509315D01*
X157069232Y-107509314D01*
X157065780Y-107504691D01*
X156943578Y-107391729D01*
X156907133Y-107330800D01*
X156909414Y-107259840D01*
X156948538Y-107202330D01*
X156966370Y-107187500D01*
X157022946Y-107140446D01*
X157162032Y-106973213D01*
X157241863Y-106830665D01*
X157265489Y-106788478D01*
X157265490Y-106788476D01*
X157268313Y-106783435D01*
X157270169Y-106777968D01*
X157270171Y-106777963D01*
X157336374Y-106582935D01*
X157336375Y-106582930D01*
X157338230Y-106577466D01*
X157369441Y-106362205D01*
X157371070Y-106300000D01*
X157351167Y-106083400D01*
X157345769Y-106064258D01*
X157313331Y-105949243D01*
X157292126Y-105874055D01*
X157195923Y-105678974D01*
X157065780Y-105504691D01*
X157060706Y-105500000D01*
X156943578Y-105391729D01*
X156907133Y-105330800D01*
X156909414Y-105259840D01*
X156948538Y-105202330D01*
X156970518Y-105184050D01*
X157022946Y-105140446D01*
X157162032Y-104973213D01*
X157268313Y-104783435D01*
X157270169Y-104777968D01*
X157270171Y-104777963D01*
X157336374Y-104582935D01*
X157336375Y-104582930D01*
X157338230Y-104577466D01*
X157369441Y-104362205D01*
X157371070Y-104300000D01*
X157351167Y-104083400D01*
X157292126Y-103874055D01*
X157195923Y-103678974D01*
X157065780Y-103504691D01*
X156965601Y-103412086D01*
X156929156Y-103351159D01*
X156931437Y-103280199D01*
X156975742Y-103218604D01*
X157018418Y-103186737D01*
X157018425Y-103186730D01*
X157023046Y-103183280D01*
X157080885Y-103120710D01*
X157084314Y-103117145D01*
X161683881Y-98517578D01*
X161697587Y-98505715D01*
X161709523Y-98496802D01*
X161754660Y-98453969D01*
X161757035Y-98451114D01*
X161757040Y-98451108D01*
X161771444Y-98433788D01*
X161774959Y-98429740D01*
X161961764Y-98223632D01*
X161963846Y-98221335D01*
X161970953Y-98211753D01*
X162148332Y-97972584D01*
X162150175Y-97970099D01*
X162151758Y-97967458D01*
X162151764Y-97967449D01*
X162309398Y-97704451D01*
X162310981Y-97701810D01*
X162386749Y-97541613D01*
X162433955Y-97488586D01*
X162502338Y-97469497D01*
X162570185Y-97490409D01*
X162608084Y-97529651D01*
X162714384Y-97703116D01*
X162881369Y-97898631D01*
X163076884Y-98065616D01*
X163296113Y-98199960D01*
X163300683Y-98201853D01*
X163300687Y-98201855D01*
X163529087Y-98296461D01*
X163533660Y-98298355D01*
X163582082Y-98309980D01*
X163778861Y-98357223D01*
X163778867Y-98357224D01*
X163783674Y-98358378D01*
X164040000Y-98378551D01*
X164296326Y-98358378D01*
X164301133Y-98357224D01*
X164301139Y-98357223D01*
X164497918Y-98309980D01*
X164546340Y-98298355D01*
X164550913Y-98296461D01*
X164779313Y-98201855D01*
X164779317Y-98201853D01*
X164783887Y-98199960D01*
X165003116Y-98065616D01*
X165198631Y-97898631D01*
X165365616Y-97703116D01*
X165499960Y-97483887D01*
X165542992Y-97380000D01*
X165596461Y-97250913D01*
X165596462Y-97250911D01*
X165598355Y-97246340D01*
X165634781Y-97094616D01*
X165657223Y-97001139D01*
X165657224Y-97001133D01*
X165658378Y-96996326D01*
X165678551Y-96740000D01*
X165658378Y-96483674D01*
X165651772Y-96456155D01*
X165599510Y-96238472D01*
X165598355Y-96233660D01*
X165554837Y-96128598D01*
X165501855Y-96000687D01*
X165501853Y-96000683D01*
X165499960Y-95996113D01*
X165365616Y-95776884D01*
X165198631Y-95581369D01*
X165003116Y-95414384D01*
X164783887Y-95280040D01*
X164779317Y-95278147D01*
X164779313Y-95278145D01*
X164550913Y-95183539D01*
X164550911Y-95183538D01*
X164546340Y-95181645D01*
X164422843Y-95151996D01*
X164301139Y-95122777D01*
X164301133Y-95122776D01*
X164296326Y-95121622D01*
X164040000Y-95101449D01*
X163783674Y-95121622D01*
X163778867Y-95122776D01*
X163778861Y-95122777D01*
X163657157Y-95151996D01*
X163533660Y-95181645D01*
X163529089Y-95183538D01*
X163529087Y-95183539D01*
X163300687Y-95278145D01*
X163300683Y-95278147D01*
X163296113Y-95280040D01*
X163076884Y-95414384D01*
X163073124Y-95417596D01*
X163073119Y-95417599D01*
X162973285Y-95502866D01*
X162891329Y-95572863D01*
X162826541Y-95601893D01*
X162756341Y-95591288D01*
X162703018Y-95544413D01*
X162683500Y-95477051D01*
X162683500Y-95375996D01*
X162703502Y-95307875D01*
X162713689Y-95294166D01*
X162719604Y-95287240D01*
X162825616Y-95163116D01*
X162959960Y-94943887D01*
X162965115Y-94931443D01*
X163056461Y-94710913D01*
X163056462Y-94710911D01*
X163058355Y-94706340D01*
X163088985Y-94578757D01*
X163117223Y-94461139D01*
X163117224Y-94461133D01*
X163118378Y-94456326D01*
X163132515Y-94276695D01*
X167762251Y-94276695D01*
X167762548Y-94281848D01*
X167762548Y-94281851D01*
X167774664Y-94491975D01*
X167775110Y-94499715D01*
X167776247Y-94504761D01*
X167776248Y-94504767D01*
X167791631Y-94573025D01*
X167824222Y-94717639D01*
X167908266Y-94924616D01*
X167920075Y-94943887D01*
X168005471Y-95083240D01*
X168024987Y-95115088D01*
X168171250Y-95283938D01*
X168175230Y-95287242D01*
X168179981Y-95291187D01*
X168219616Y-95350090D01*
X168221113Y-95421071D01*
X168183997Y-95481593D01*
X168143725Y-95506112D01*
X168090810Y-95525949D01*
X168028295Y-95549385D01*
X167911739Y-95636739D01*
X167824385Y-95753295D01*
X167773255Y-95889684D01*
X167766500Y-95951866D01*
X167766500Y-97748134D01*
X167773255Y-97810316D01*
X167824385Y-97946705D01*
X167911739Y-98063261D01*
X168028295Y-98150615D01*
X168164684Y-98201745D01*
X168226866Y-98208500D01*
X169358629Y-98208500D01*
X169426750Y-98228502D01*
X169447724Y-98245405D01*
X171108920Y-99906601D01*
X171120453Y-99919867D01*
X171134620Y-99938667D01*
X171137377Y-99941502D01*
X171137382Y-99941508D01*
X171146467Y-99950850D01*
X171149480Y-99953948D01*
X171164781Y-99966162D01*
X171170763Y-99971251D01*
X171351344Y-100134921D01*
X171569039Y-100296375D01*
X171801512Y-100435713D01*
X171804318Y-100437040D01*
X172043722Y-100550271D01*
X172043727Y-100550273D01*
X172046522Y-100551595D01*
X172103323Y-100571919D01*
X172298804Y-100641863D01*
X172298813Y-100641866D01*
X172301712Y-100642903D01*
X172304702Y-100643652D01*
X172304712Y-100643655D01*
X172540821Y-100702796D01*
X172564622Y-100708758D01*
X172832721Y-100748527D01*
X172835807Y-100748679D01*
X172835811Y-100748679D01*
X173001511Y-100756820D01*
X173007420Y-100757413D01*
X173009037Y-100757808D01*
X173016631Y-100758279D01*
X173018252Y-100758380D01*
X173018262Y-100758380D01*
X173020191Y-100758500D01*
X173032631Y-100758500D01*
X173038813Y-100758652D01*
X173047090Y-100759059D01*
X173052105Y-100759305D01*
X173063456Y-100760379D01*
X173082114Y-100763001D01*
X173090679Y-100763121D01*
X173099466Y-100763244D01*
X173099472Y-100763244D01*
X173103427Y-100763299D01*
X173139214Y-100759285D01*
X173153258Y-100758500D01*
X188309422Y-100758500D01*
X188326955Y-100759726D01*
X188333731Y-100760678D01*
X188346352Y-100762452D01*
X188346355Y-100762452D01*
X188350260Y-100763001D01*
X188358609Y-100763118D01*
X188367612Y-100763244D01*
X188367618Y-100763244D01*
X188371573Y-100763299D01*
X188391027Y-100761117D01*
X188398887Y-100760484D01*
X188447437Y-100758099D01*
X188639190Y-100748679D01*
X188639195Y-100748679D01*
X188642279Y-100748527D01*
X188910379Y-100708758D01*
X189173289Y-100642903D01*
X189428479Y-100551594D01*
X189431276Y-100550271D01*
X189670707Y-100437029D01*
X189670710Y-100437027D01*
X189673489Y-100435713D01*
X189690825Y-100425322D01*
X189903312Y-100297963D01*
X189903321Y-100297957D01*
X189905962Y-100296374D01*
X190123658Y-100134920D01*
X190248873Y-100021432D01*
X190253474Y-100017670D01*
X190254894Y-100016808D01*
X190263271Y-100009410D01*
X190272060Y-100000621D01*
X190276536Y-99996359D01*
X190286397Y-99987421D01*
X190295181Y-99980155D01*
X190310240Y-99968807D01*
X190325521Y-99953947D01*
X190347985Y-99925807D01*
X190357360Y-99915321D01*
X191057009Y-99215671D01*
X191119322Y-99181646D01*
X191157087Y-99179245D01*
X191314525Y-99193019D01*
X191320000Y-99193498D01*
X191548087Y-99173543D01*
X191553400Y-99172119D01*
X191553402Y-99172119D01*
X191763933Y-99115707D01*
X191763935Y-99115706D01*
X191769243Y-99114284D01*
X191837600Y-99082409D01*
X191971762Y-99019849D01*
X191971767Y-99019846D01*
X191976749Y-99017523D01*
X192081611Y-98944098D01*
X192159789Y-98889357D01*
X192159792Y-98889355D01*
X192164300Y-98886198D01*
X192326198Y-98724300D01*
X192457523Y-98536749D01*
X192459846Y-98531767D01*
X192459849Y-98531762D01*
X192475805Y-98497543D01*
X192522722Y-98444258D01*
X192590999Y-98424797D01*
X192658959Y-98445339D01*
X192704195Y-98497543D01*
X192720151Y-98531762D01*
X192720154Y-98531767D01*
X192722477Y-98536749D01*
X192853802Y-98724300D01*
X193015700Y-98886198D01*
X193020208Y-98889355D01*
X193020211Y-98889357D01*
X193098389Y-98944098D01*
X193203251Y-99017523D01*
X193208233Y-99019846D01*
X193208238Y-99019849D01*
X193342400Y-99082409D01*
X193410757Y-99114284D01*
X193416065Y-99115706D01*
X193416067Y-99115707D01*
X193626598Y-99172119D01*
X193626600Y-99172119D01*
X193631913Y-99173543D01*
X193860000Y-99193498D01*
X194088087Y-99173543D01*
X194093400Y-99172119D01*
X194093402Y-99172119D01*
X194303933Y-99115707D01*
X194303935Y-99115706D01*
X194309243Y-99114284D01*
X194377600Y-99082409D01*
X194511762Y-99019849D01*
X194511767Y-99019846D01*
X194516749Y-99017523D01*
X194621611Y-98944098D01*
X194699789Y-98889357D01*
X194699792Y-98889355D01*
X194704300Y-98886198D01*
X194866198Y-98724300D01*
X194997523Y-98536749D01*
X194999846Y-98531767D01*
X194999849Y-98531762D01*
X195016081Y-98496951D01*
X195062998Y-98443666D01*
X195131275Y-98424205D01*
X195199235Y-98444747D01*
X195244471Y-98496951D01*
X195260586Y-98531511D01*
X195266069Y-98541007D01*
X195391028Y-98719467D01*
X195398084Y-98727875D01*
X195552125Y-98881916D01*
X195560533Y-98888972D01*
X195738993Y-99013931D01*
X195748489Y-99019414D01*
X195883583Y-99082409D01*
X195897523Y-99084526D01*
X195900000Y-99080738D01*
X195900000Y-99071949D01*
X196900000Y-99071949D01*
X196903973Y-99085480D01*
X196908450Y-99086123D01*
X197051511Y-99019414D01*
X197061007Y-99013931D01*
X197239467Y-98888972D01*
X197247875Y-98881916D01*
X197401916Y-98727875D01*
X197408972Y-98719467D01*
X197533931Y-98541007D01*
X197539414Y-98531511D01*
X197602409Y-98396417D01*
X197604526Y-98382477D01*
X197600738Y-98380000D01*
X196918115Y-98380000D01*
X196902876Y-98384475D01*
X196901671Y-98385865D01*
X196900000Y-98393548D01*
X196900000Y-99071949D01*
X195900000Y-99071949D01*
X195900000Y-97361885D01*
X196900000Y-97361885D01*
X196904475Y-97377124D01*
X196905865Y-97378329D01*
X196913548Y-97380000D01*
X197591949Y-97380000D01*
X197605480Y-97376027D01*
X197606123Y-97371550D01*
X197539414Y-97228489D01*
X197533931Y-97218993D01*
X197408972Y-97040533D01*
X197401916Y-97032125D01*
X197247875Y-96878084D01*
X197239467Y-96871028D01*
X197061007Y-96746069D01*
X197051511Y-96740586D01*
X196916417Y-96677591D01*
X196902477Y-96675474D01*
X196900000Y-96679262D01*
X196900000Y-97361885D01*
X195900000Y-97361885D01*
X195900000Y-96688051D01*
X195896027Y-96674520D01*
X195891550Y-96673877D01*
X195748489Y-96740586D01*
X195738993Y-96746069D01*
X195560533Y-96871028D01*
X195552125Y-96878084D01*
X195398084Y-97032125D01*
X195391028Y-97040533D01*
X195266069Y-97218993D01*
X195260586Y-97228489D01*
X195244471Y-97263049D01*
X195197554Y-97316334D01*
X195129277Y-97335795D01*
X195061317Y-97315253D01*
X195016081Y-97263049D01*
X194999849Y-97228238D01*
X194999846Y-97228233D01*
X194997523Y-97223251D01*
X194907452Y-97094616D01*
X194869357Y-97040211D01*
X194869355Y-97040208D01*
X194866198Y-97035700D01*
X194704300Y-96873802D01*
X194699792Y-96870645D01*
X194699789Y-96870643D01*
X194553789Y-96768413D01*
X194516749Y-96742477D01*
X194511767Y-96740154D01*
X194511762Y-96740151D01*
X194314225Y-96648039D01*
X194314224Y-96648039D01*
X194309243Y-96645716D01*
X194303935Y-96644294D01*
X194303933Y-96644293D01*
X194093402Y-96587881D01*
X194093400Y-96587881D01*
X194088087Y-96586457D01*
X193860000Y-96566502D01*
X193631913Y-96586457D01*
X193626600Y-96587881D01*
X193626598Y-96587881D01*
X193416067Y-96644293D01*
X193416065Y-96644294D01*
X193410757Y-96645716D01*
X193405776Y-96648039D01*
X193405775Y-96648039D01*
X193208238Y-96740151D01*
X193208233Y-96740154D01*
X193203251Y-96742477D01*
X193166211Y-96768413D01*
X193020211Y-96870643D01*
X193020208Y-96870645D01*
X193015700Y-96873802D01*
X192853802Y-97035700D01*
X192850645Y-97040208D01*
X192850643Y-97040211D01*
X192812548Y-97094616D01*
X192722477Y-97223251D01*
X192720154Y-97228233D01*
X192720151Y-97228238D01*
X192704195Y-97262457D01*
X192657278Y-97315742D01*
X192589001Y-97335203D01*
X192521041Y-97314661D01*
X192475805Y-97262457D01*
X192459849Y-97228238D01*
X192459846Y-97228233D01*
X192457523Y-97223251D01*
X192367452Y-97094616D01*
X192329357Y-97040211D01*
X192329355Y-97040208D01*
X192326198Y-97035700D01*
X192164300Y-96873802D01*
X192159792Y-96870645D01*
X192159789Y-96870643D01*
X192013789Y-96768413D01*
X191976749Y-96742477D01*
X191971767Y-96740154D01*
X191971762Y-96740151D01*
X191774225Y-96648039D01*
X191774224Y-96648039D01*
X191769243Y-96645716D01*
X191763935Y-96644294D01*
X191763933Y-96644293D01*
X191553402Y-96587881D01*
X191553400Y-96587881D01*
X191548087Y-96586457D01*
X191320000Y-96566502D01*
X191091913Y-96586457D01*
X191086600Y-96587881D01*
X191086598Y-96587881D01*
X190876067Y-96644293D01*
X190876065Y-96644294D01*
X190870757Y-96645716D01*
X190865776Y-96648039D01*
X190865775Y-96648039D01*
X190668238Y-96740151D01*
X190668233Y-96740154D01*
X190663251Y-96742477D01*
X190626211Y-96768413D01*
X190480211Y-96870643D01*
X190480208Y-96870645D01*
X190475700Y-96873802D01*
X190313802Y-97035700D01*
X190310645Y-97040208D01*
X190310643Y-97040211D01*
X190272548Y-97094616D01*
X190182477Y-97223251D01*
X190180154Y-97228233D01*
X190180151Y-97228238D01*
X190164195Y-97262457D01*
X190117278Y-97315742D01*
X190049001Y-97335203D01*
X189981041Y-97314661D01*
X189935805Y-97262457D01*
X189919849Y-97228238D01*
X189919846Y-97228233D01*
X189917523Y-97223251D01*
X189827452Y-97094616D01*
X189789357Y-97040211D01*
X189789355Y-97040208D01*
X189786198Y-97035700D01*
X189624300Y-96873802D01*
X189619792Y-96870645D01*
X189619789Y-96870643D01*
X189473789Y-96768413D01*
X189436749Y-96742477D01*
X189431767Y-96740154D01*
X189431762Y-96740151D01*
X189234225Y-96648039D01*
X189234224Y-96648039D01*
X189229243Y-96645716D01*
X189223935Y-96644294D01*
X189223933Y-96644293D01*
X189013402Y-96587881D01*
X189013400Y-96587881D01*
X189008087Y-96586457D01*
X188780000Y-96566502D01*
X188551913Y-96586457D01*
X188546600Y-96587881D01*
X188546598Y-96587881D01*
X188336067Y-96644293D01*
X188336065Y-96644294D01*
X188330757Y-96645716D01*
X188325776Y-96648039D01*
X188325775Y-96648039D01*
X188128238Y-96740151D01*
X188128233Y-96740154D01*
X188123251Y-96742477D01*
X188086211Y-96768413D01*
X187940211Y-96870643D01*
X187940208Y-96870645D01*
X187935700Y-96873802D01*
X187773802Y-97035700D01*
X187770645Y-97040208D01*
X187770643Y-97040211D01*
X187732548Y-97094616D01*
X187642477Y-97223251D01*
X187640154Y-97228233D01*
X187640151Y-97228238D01*
X187624195Y-97262457D01*
X187577278Y-97315742D01*
X187509001Y-97335203D01*
X187441041Y-97314661D01*
X187395805Y-97262457D01*
X187379849Y-97228238D01*
X187379846Y-97228233D01*
X187377523Y-97223251D01*
X187287452Y-97094616D01*
X187249357Y-97040211D01*
X187249355Y-97040208D01*
X187246198Y-97035700D01*
X187200069Y-96989571D01*
X187166043Y-96927259D01*
X187171108Y-96856444D01*
X187205205Y-96806525D01*
X187279620Y-96740024D01*
X187285149Y-96735536D01*
X187287736Y-96733966D01*
X187296113Y-96726568D01*
X187305683Y-96716998D01*
X187310816Y-96712144D01*
X187320204Y-96703754D01*
X187328340Y-96697073D01*
X187339919Y-96688348D01*
X187339922Y-96688345D01*
X187343081Y-96685965D01*
X187355071Y-96674305D01*
X187355526Y-96673863D01*
X187355527Y-96673862D01*
X187358362Y-96671105D01*
X187380832Y-96642958D01*
X187390208Y-96632473D01*
X188053439Y-95969242D01*
X188115751Y-95935216D01*
X188147480Y-95932434D01*
X188206533Y-95934754D01*
X188262205Y-95936941D01*
X188477466Y-95905730D01*
X188482930Y-95903875D01*
X188482935Y-95903874D01*
X188677963Y-95837671D01*
X188677968Y-95837669D01*
X188683435Y-95835813D01*
X188698226Y-95827530D01*
X188762872Y-95791326D01*
X188873213Y-95729532D01*
X189040446Y-95590446D01*
X189100252Y-95518537D01*
X189159189Y-95478953D01*
X189230171Y-95477517D01*
X189292913Y-95517258D01*
X189296204Y-95521914D01*
X189300346Y-95525949D01*
X189300348Y-95525951D01*
X189370343Y-95594137D01*
X189452009Y-95673692D01*
X189632863Y-95794536D01*
X189638171Y-95796817D01*
X189638172Y-95796817D01*
X189827409Y-95878119D01*
X189827412Y-95878120D01*
X189832712Y-95880397D01*
X189838342Y-95881671D01*
X190036097Y-95926419D01*
X190044860Y-95928402D01*
X190050631Y-95928629D01*
X190050633Y-95928629D01*
X190123620Y-95931496D01*
X190262205Y-95936941D01*
X190477466Y-95905730D01*
X190482930Y-95903875D01*
X190482935Y-95903874D01*
X190677963Y-95837671D01*
X190677968Y-95837669D01*
X190683435Y-95835813D01*
X190698226Y-95827530D01*
X190762872Y-95791326D01*
X190873213Y-95729532D01*
X191040446Y-95590446D01*
X191100252Y-95518537D01*
X191159189Y-95478953D01*
X191230171Y-95477517D01*
X191292913Y-95517258D01*
X191296204Y-95521914D01*
X191300346Y-95525949D01*
X191300348Y-95525951D01*
X191370343Y-95594137D01*
X191452009Y-95673692D01*
X191632863Y-95794536D01*
X191638171Y-95796817D01*
X191638172Y-95796817D01*
X191827409Y-95878119D01*
X191827412Y-95878120D01*
X191832712Y-95880397D01*
X191838342Y-95881671D01*
X192036097Y-95926419D01*
X192044860Y-95928402D01*
X192050631Y-95928629D01*
X192050633Y-95928629D01*
X192123620Y-95931496D01*
X192262205Y-95936941D01*
X192477466Y-95905730D01*
X192482930Y-95903875D01*
X192482935Y-95903874D01*
X192677963Y-95837671D01*
X192677968Y-95837669D01*
X192683435Y-95835813D01*
X192698226Y-95827530D01*
X192762872Y-95791326D01*
X192873213Y-95729532D01*
X193040446Y-95590446D01*
X193100252Y-95518537D01*
X193159189Y-95478953D01*
X193230171Y-95477517D01*
X193292913Y-95517258D01*
X193296204Y-95521914D01*
X193300346Y-95525949D01*
X193300348Y-95525951D01*
X193370343Y-95594137D01*
X193452009Y-95673692D01*
X193632863Y-95794536D01*
X193638171Y-95796817D01*
X193638172Y-95796817D01*
X193827409Y-95878119D01*
X193827412Y-95878120D01*
X193832712Y-95880397D01*
X193838342Y-95881671D01*
X194036097Y-95926419D01*
X194044860Y-95928402D01*
X194050631Y-95928629D01*
X194050633Y-95928629D01*
X194123620Y-95931496D01*
X194262205Y-95936941D01*
X194477466Y-95905730D01*
X194482930Y-95903875D01*
X194482935Y-95903874D01*
X194677963Y-95837671D01*
X194677968Y-95837669D01*
X194683435Y-95835813D01*
X194698226Y-95827530D01*
X194762872Y-95791326D01*
X194873213Y-95729532D01*
X195040446Y-95590446D01*
X195100252Y-95518537D01*
X195159189Y-95478953D01*
X195230171Y-95477517D01*
X195292913Y-95517258D01*
X195296204Y-95521914D01*
X195300346Y-95525949D01*
X195300348Y-95525951D01*
X195370343Y-95594137D01*
X195452009Y-95673692D01*
X195632863Y-95794536D01*
X195638171Y-95796817D01*
X195638172Y-95796817D01*
X195827409Y-95878119D01*
X195827412Y-95878120D01*
X195832712Y-95880397D01*
X195838342Y-95881671D01*
X196036097Y-95926419D01*
X196044860Y-95928402D01*
X196050631Y-95928629D01*
X196050633Y-95928629D01*
X196123620Y-95931496D01*
X196262205Y-95936941D01*
X196477466Y-95905730D01*
X196482930Y-95903875D01*
X196482935Y-95903874D01*
X196677963Y-95837671D01*
X196677968Y-95837669D01*
X196683435Y-95835813D01*
X196698226Y-95827530D01*
X196762872Y-95791326D01*
X196873213Y-95729532D01*
X197040446Y-95590446D01*
X197179532Y-95423213D01*
X197285813Y-95233435D01*
X197287669Y-95227968D01*
X197287671Y-95227963D01*
X197353874Y-95032935D01*
X197353875Y-95032930D01*
X197355730Y-95027466D01*
X197386941Y-94812205D01*
X197388570Y-94750000D01*
X197368667Y-94533400D01*
X197358679Y-94497983D01*
X197334257Y-94411389D01*
X197309626Y-94324055D01*
X197213423Y-94128974D01*
X197128664Y-94015467D01*
X197086733Y-93959315D01*
X197086732Y-93959314D01*
X197083280Y-93954691D01*
X197079044Y-93950775D01*
X196927796Y-93810963D01*
X196927793Y-93810961D01*
X196923556Y-93807044D01*
X196739599Y-93690976D01*
X196537572Y-93610376D01*
X196324239Y-93567941D01*
X196318464Y-93567865D01*
X196318460Y-93567865D01*
X196209419Y-93566438D01*
X196106746Y-93565094D01*
X196101049Y-93566073D01*
X196101048Y-93566073D01*
X195898065Y-93600952D01*
X195898062Y-93600953D01*
X195892375Y-93601930D01*
X195688307Y-93677214D01*
X195501376Y-93788427D01*
X195337842Y-93931842D01*
X195334270Y-93936372D01*
X195334269Y-93936374D01*
X195300007Y-93979834D01*
X195242125Y-94020947D01*
X195171205Y-94024239D01*
X195109763Y-93988667D01*
X195100100Y-93977215D01*
X195086737Y-93959319D01*
X195086730Y-93959312D01*
X195083280Y-93954691D01*
X195079044Y-93950775D01*
X194927796Y-93810963D01*
X194927793Y-93810961D01*
X194923556Y-93807044D01*
X194739599Y-93690976D01*
X194537572Y-93610376D01*
X194324239Y-93567941D01*
X194318464Y-93567865D01*
X194318460Y-93567865D01*
X194209419Y-93566438D01*
X194106746Y-93565094D01*
X194101049Y-93566073D01*
X194101048Y-93566073D01*
X193898065Y-93600952D01*
X193898062Y-93600953D01*
X193892375Y-93601930D01*
X193688307Y-93677214D01*
X193501376Y-93788427D01*
X193337842Y-93931842D01*
X193334270Y-93936372D01*
X193334269Y-93936374D01*
X193300007Y-93979834D01*
X193242125Y-94020947D01*
X193171205Y-94024239D01*
X193109763Y-93988667D01*
X193100100Y-93977215D01*
X193086737Y-93959319D01*
X193086730Y-93959312D01*
X193083280Y-93954691D01*
X193079044Y-93950775D01*
X192927796Y-93810963D01*
X192927793Y-93810961D01*
X192923556Y-93807044D01*
X192739599Y-93690976D01*
X192537572Y-93610376D01*
X192324239Y-93567941D01*
X192318464Y-93567865D01*
X192318460Y-93567865D01*
X192209419Y-93566438D01*
X192106746Y-93565094D01*
X192101049Y-93566073D01*
X192101048Y-93566073D01*
X191898065Y-93600952D01*
X191898062Y-93600953D01*
X191892375Y-93601930D01*
X191688307Y-93677214D01*
X191501376Y-93788427D01*
X191337842Y-93931842D01*
X191334270Y-93936372D01*
X191334269Y-93936374D01*
X191300007Y-93979834D01*
X191242125Y-94020947D01*
X191171205Y-94024239D01*
X191109763Y-93988667D01*
X191100100Y-93977215D01*
X191086737Y-93959319D01*
X191086730Y-93959312D01*
X191083280Y-93954691D01*
X191079044Y-93950775D01*
X190927796Y-93810963D01*
X190927793Y-93810961D01*
X190923556Y-93807044D01*
X190739599Y-93690976D01*
X190537572Y-93610376D01*
X190324239Y-93567941D01*
X190318464Y-93567865D01*
X190318460Y-93567865D01*
X190181535Y-93566073D01*
X190138746Y-93565513D01*
X190070893Y-93544621D01*
X190051300Y-93528619D01*
X190016078Y-93493397D01*
X190004545Y-93480131D01*
X190000269Y-93474457D01*
X189990381Y-93461335D01*
X189975521Y-93446053D01*
X189960226Y-93433843D01*
X189954264Y-93428770D01*
X189773658Y-93265079D01*
X189755615Y-93251697D01*
X189558447Y-93105468D01*
X189555962Y-93103625D01*
X189323490Y-92964286D01*
X189301320Y-92953800D01*
X189081270Y-92849725D01*
X189081269Y-92849725D01*
X189078479Y-92848405D01*
X188823289Y-92757096D01*
X188817880Y-92755741D01*
X188563373Y-92691991D01*
X188563374Y-92691991D01*
X188560379Y-92691241D01*
X188292280Y-92651472D01*
X188289196Y-92651321D01*
X188289191Y-92651320D01*
X188123487Y-92643180D01*
X188117576Y-92642587D01*
X188115963Y-92642192D01*
X188108538Y-92641731D01*
X188106748Y-92641620D01*
X188106738Y-92641620D01*
X188104809Y-92641500D01*
X188092379Y-92641500D01*
X188086201Y-92641348D01*
X188080560Y-92641071D01*
X188072889Y-92640694D01*
X188061542Y-92639620D01*
X188046819Y-92637551D01*
X188046807Y-92637550D01*
X188042886Y-92636999D01*
X188032229Y-92636850D01*
X188025534Y-92636756D01*
X188025528Y-92636756D01*
X188021573Y-92636701D01*
X187987793Y-92640490D01*
X187985787Y-92640715D01*
X187971742Y-92641500D01*
X180378078Y-92641500D01*
X180360545Y-92640274D01*
X180350646Y-92638883D01*
X180341148Y-92637548D01*
X180341145Y-92637548D01*
X180337240Y-92636999D01*
X180328891Y-92636882D01*
X180319888Y-92636756D01*
X180319882Y-92636756D01*
X180315927Y-92636701D01*
X180296474Y-92638883D01*
X180288613Y-92639516D01*
X180264205Y-92640715D01*
X180048310Y-92651321D01*
X180048305Y-92651321D01*
X180045221Y-92651473D01*
X179777122Y-92691242D01*
X179774127Y-92691992D01*
X179774128Y-92691992D01*
X179517212Y-92756345D01*
X179517202Y-92756348D01*
X179514212Y-92757097D01*
X179511313Y-92758134D01*
X179511304Y-92758137D01*
X179388098Y-92802221D01*
X179259022Y-92848405D01*
X179256227Y-92849727D01*
X179256222Y-92849729D01*
X179060425Y-92942335D01*
X179038234Y-92952831D01*
X179034912Y-92954402D01*
X178981040Y-92966500D01*
X178399600Y-92966500D01*
X178396354Y-92966837D01*
X178396350Y-92966837D01*
X178300692Y-92976762D01*
X178300688Y-92976763D01*
X178293834Y-92977474D01*
X178287298Y-92979655D01*
X178287296Y-92979655D01*
X178244914Y-92993795D01*
X178126054Y-93033450D01*
X177975652Y-93126522D01*
X177850695Y-93251697D01*
X177846855Y-93257927D01*
X177846854Y-93257928D01*
X177810522Y-93316870D01*
X177757885Y-93402262D01*
X177737245Y-93464489D01*
X177715020Y-93531498D01*
X177702203Y-93570139D01*
X177691500Y-93674600D01*
X177691500Y-94300400D01*
X177691837Y-94303646D01*
X177691837Y-94303650D01*
X177701585Y-94397596D01*
X177702474Y-94406166D01*
X177704655Y-94412702D01*
X177704655Y-94412704D01*
X177734741Y-94502882D01*
X177758450Y-94573946D01*
X177851522Y-94724348D01*
X177856704Y-94729521D01*
X177938463Y-94811138D01*
X177972542Y-94873421D01*
X177967539Y-94944241D01*
X177938618Y-94989329D01*
X177856261Y-95071829D01*
X177847249Y-95083240D01*
X177762184Y-95221243D01*
X177756037Y-95234424D01*
X177735843Y-95295306D01*
X177735354Y-95309399D01*
X177741565Y-95312500D01*
X180051748Y-95312500D01*
X180065279Y-95308527D01*
X180066260Y-95301701D01*
X180043412Y-95233216D01*
X180037239Y-95220038D01*
X179951937Y-95082193D01*
X179942901Y-95070792D01*
X179861538Y-94989570D01*
X179827459Y-94927287D01*
X179832462Y-94856467D01*
X179861383Y-94811380D01*
X179944130Y-94728488D01*
X179944134Y-94728483D01*
X179949305Y-94723303D01*
X179959761Y-94706340D01*
X180038275Y-94578968D01*
X180038276Y-94578966D01*
X180042115Y-94572738D01*
X180080727Y-94456326D01*
X180095632Y-94411389D01*
X180095632Y-94411387D01*
X180097797Y-94404861D01*
X180098542Y-94397596D01*
X180106076Y-94324055D01*
X180108500Y-94300400D01*
X180108500Y-94291299D01*
X180128502Y-94223178D01*
X180182158Y-94176685D01*
X180224614Y-94165687D01*
X180241404Y-94164366D01*
X180273456Y-94161844D01*
X180291241Y-94162263D01*
X180291241Y-94162243D01*
X180298275Y-94162341D01*
X180305270Y-94163225D01*
X180347328Y-94159101D01*
X180359625Y-94158500D01*
X180973279Y-94158500D01*
X181041400Y-94178502D01*
X181087893Y-94232158D01*
X181097997Y-94302432D01*
X181093611Y-94321865D01*
X181040790Y-94491975D01*
X181037403Y-94502882D01*
X181011837Y-94718887D01*
X181026063Y-94935933D01*
X181027484Y-94941529D01*
X181027485Y-94941534D01*
X181064811Y-95088502D01*
X181079605Y-95146753D01*
X181170668Y-95344285D01*
X181176851Y-95353034D01*
X181254086Y-95462318D01*
X181296204Y-95521914D01*
X181452009Y-95673692D01*
X181632863Y-95794536D01*
X181830298Y-95879360D01*
X181832712Y-95880397D01*
X181832508Y-95880871D01*
X181888060Y-95918860D01*
X181915693Y-95984259D01*
X181903583Y-96054215D01*
X181879609Y-96087710D01*
X181422990Y-96544329D01*
X181360678Y-96578355D01*
X181322913Y-96580755D01*
X181165475Y-96566981D01*
X181160000Y-96566502D01*
X180931913Y-96586457D01*
X180926600Y-96587881D01*
X180926598Y-96587881D01*
X180716067Y-96644293D01*
X180716065Y-96644294D01*
X180710757Y-96645716D01*
X180705776Y-96648039D01*
X180705775Y-96648039D01*
X180508238Y-96740151D01*
X180508233Y-96740154D01*
X180503251Y-96742477D01*
X180466211Y-96768413D01*
X180320211Y-96870643D01*
X180320208Y-96870645D01*
X180315700Y-96873802D01*
X180153802Y-97035700D01*
X180150645Y-97040208D01*
X180150643Y-97040211D01*
X180112548Y-97094616D01*
X180022477Y-97223251D01*
X180020154Y-97228233D01*
X180020151Y-97228238D01*
X180004195Y-97262457D01*
X179957278Y-97315742D01*
X179889001Y-97335203D01*
X179821041Y-97314661D01*
X179775805Y-97262457D01*
X179759849Y-97228238D01*
X179759846Y-97228233D01*
X179757523Y-97223251D01*
X179667452Y-97094616D01*
X179629357Y-97040211D01*
X179629355Y-97040208D01*
X179626198Y-97035700D01*
X179580046Y-96989548D01*
X179546020Y-96927236D01*
X179551085Y-96856421D01*
X179593632Y-96799585D01*
X179629266Y-96780929D01*
X179666782Y-96768413D01*
X179679962Y-96762239D01*
X179817807Y-96676937D01*
X179829208Y-96667901D01*
X179943739Y-96553171D01*
X179952751Y-96541760D01*
X180037816Y-96403757D01*
X180043963Y-96390576D01*
X180064157Y-96329694D01*
X180064646Y-96315601D01*
X180058435Y-96312500D01*
X177748252Y-96312500D01*
X177734721Y-96316473D01*
X177733740Y-96323299D01*
X177756588Y-96391784D01*
X177762761Y-96404962D01*
X177848063Y-96542807D01*
X177857099Y-96554208D01*
X177905341Y-96602366D01*
X177939420Y-96664649D01*
X177934417Y-96735469D01*
X177888594Y-96794752D01*
X177780211Y-96870643D01*
X177780208Y-96870645D01*
X177775700Y-96873802D01*
X177613802Y-97035700D01*
X177610645Y-97040208D01*
X177610643Y-97040211D01*
X177572548Y-97094616D01*
X177482477Y-97223251D01*
X177480154Y-97228233D01*
X177480151Y-97228238D01*
X177388039Y-97425775D01*
X177385716Y-97430757D01*
X177384294Y-97436065D01*
X177384293Y-97436067D01*
X177369732Y-97490409D01*
X177326457Y-97651913D01*
X177306502Y-97880000D01*
X177326457Y-98108087D01*
X177327881Y-98113400D01*
X177327881Y-98113402D01*
X177373295Y-98282889D01*
X177371605Y-98353865D01*
X177331811Y-98412661D01*
X177266547Y-98440609D01*
X177251588Y-98441500D01*
X174899410Y-98441500D01*
X174883618Y-98440506D01*
X174882006Y-98440302D01*
X174854084Y-98436775D01*
X174845069Y-98437659D01*
X174833693Y-98438774D01*
X174811513Y-98438987D01*
X174659099Y-98426992D01*
X174639571Y-98423899D01*
X174592761Y-98412661D01*
X174469419Y-98383049D01*
X174450625Y-98376943D01*
X174288955Y-98309977D01*
X174271344Y-98301003D01*
X174122143Y-98209572D01*
X174106148Y-98197951D01*
X174105473Y-98197374D01*
X173997958Y-98105548D01*
X173985677Y-98092674D01*
X173985663Y-98092687D01*
X173980746Y-98087631D01*
X173976431Y-98082068D01*
X173943775Y-98055244D01*
X173934656Y-98046975D01*
X173044609Y-97156928D01*
X173010583Y-97094616D01*
X173008782Y-97051389D01*
X173026529Y-96916590D01*
X173027479Y-96877699D01*
X173028074Y-96853365D01*
X173028074Y-96853361D01*
X173028156Y-96850000D01*
X173009852Y-96627361D01*
X172955431Y-96410702D01*
X172866354Y-96205840D01*
X172812234Y-96122183D01*
X172747822Y-96022617D01*
X172747820Y-96022614D01*
X172745014Y-96018277D01*
X172594670Y-95853051D01*
X172590619Y-95849852D01*
X172590615Y-95849848D01*
X172423414Y-95717800D01*
X172423410Y-95717798D01*
X172419359Y-95714598D01*
X172378053Y-95691796D01*
X172328084Y-95641364D01*
X172313312Y-95571921D01*
X172338428Y-95505516D01*
X172365780Y-95478909D01*
X172430980Y-95432402D01*
X172544860Y-95351173D01*
X172551772Y-95344285D01*
X172563945Y-95332155D01*
X172626317Y-95298240D01*
X172697124Y-95303429D01*
X172734714Y-95325596D01*
X172827038Y-95404448D01*
X172839323Y-95417324D01*
X172839336Y-95417312D01*
X172844255Y-95422370D01*
X172848569Y-95427932D01*
X172854011Y-95432402D01*
X172881225Y-95454756D01*
X172890344Y-95463025D01*
X173146422Y-95719103D01*
X173157955Y-95732369D01*
X173172119Y-95751165D01*
X173186979Y-95766447D01*
X173202274Y-95778657D01*
X173208236Y-95783730D01*
X173388842Y-95947421D01*
X173391328Y-95949265D01*
X173391332Y-95949268D01*
X173460663Y-96000687D01*
X173606538Y-96108875D01*
X173839010Y-96248214D01*
X173841788Y-96249528D01*
X173841792Y-96249530D01*
X174011286Y-96329694D01*
X174084021Y-96364095D01*
X174214278Y-96410702D01*
X174336298Y-96454362D01*
X174336303Y-96454364D01*
X174339211Y-96455404D01*
X174342203Y-96456153D01*
X174342208Y-96456155D01*
X174347705Y-96457532D01*
X174353709Y-96459036D01*
X174414929Y-96494987D01*
X174430239Y-96514955D01*
X174451522Y-96549348D01*
X174576697Y-96674305D01*
X174582927Y-96678145D01*
X174582928Y-96678146D01*
X174720090Y-96762694D01*
X174727262Y-96767115D01*
X174768910Y-96780929D01*
X174888611Y-96820632D01*
X174888613Y-96820632D01*
X174895139Y-96822797D01*
X174901975Y-96823497D01*
X174901978Y-96823498D01*
X174945031Y-96827909D01*
X174999600Y-96833500D01*
X176000400Y-96833500D01*
X176003646Y-96833163D01*
X176003650Y-96833163D01*
X176099308Y-96823238D01*
X176099312Y-96823237D01*
X176106166Y-96822526D01*
X176112702Y-96820345D01*
X176112704Y-96820345D01*
X176244806Y-96776272D01*
X176273946Y-96766550D01*
X176424348Y-96673478D01*
X176429800Y-96668017D01*
X176544134Y-96553483D01*
X176549305Y-96548303D01*
X176592110Y-96478861D01*
X176638275Y-96403968D01*
X176638276Y-96403966D01*
X176642115Y-96397738D01*
X176697797Y-96229861D01*
X176699772Y-96210590D01*
X176708172Y-96128598D01*
X176708500Y-96125400D01*
X176708500Y-95499600D01*
X176707362Y-95488634D01*
X176698238Y-95400692D01*
X176698237Y-95400688D01*
X176697526Y-95393834D01*
X176685890Y-95358955D01*
X176644342Y-95234424D01*
X176641550Y-95226054D01*
X176548478Y-95075652D01*
X176530602Y-95057807D01*
X176461537Y-94988862D01*
X176427458Y-94926579D01*
X176432461Y-94855759D01*
X176461382Y-94810671D01*
X176543739Y-94728171D01*
X176552751Y-94716760D01*
X176637816Y-94578757D01*
X176643963Y-94565576D01*
X176664157Y-94504694D01*
X176664646Y-94490601D01*
X176658435Y-94487500D01*
X174348252Y-94487500D01*
X174333013Y-94491975D01*
X174327806Y-94497983D01*
X174307038Y-94543458D01*
X174247311Y-94581841D01*
X174176314Y-94581839D01*
X174122720Y-94550039D01*
X173976080Y-94403399D01*
X173964547Y-94390133D01*
X173952762Y-94374494D01*
X173950380Y-94371333D01*
X173947623Y-94368498D01*
X173947618Y-94368492D01*
X173942861Y-94363601D01*
X173935520Y-94356052D01*
X173920225Y-94343842D01*
X173914263Y-94338769D01*
X173733657Y-94175078D01*
X173716748Y-94162537D01*
X173518446Y-94015467D01*
X173515961Y-94013624D01*
X173513320Y-94012041D01*
X173513311Y-94012035D01*
X173286130Y-93875869D01*
X173286131Y-93875869D01*
X173283489Y-93874286D01*
X173209529Y-93839305D01*
X173041269Y-93759724D01*
X173041268Y-93759724D01*
X173038478Y-93758404D01*
X172931985Y-93720300D01*
X172874585Y-93678518D01*
X172866376Y-93665826D01*
X172866354Y-93665840D01*
X172748975Y-93484399D01*
X174335354Y-93484399D01*
X174341565Y-93487500D01*
X174981885Y-93487500D01*
X174997124Y-93483025D01*
X174998329Y-93481635D01*
X175000000Y-93473952D01*
X175000000Y-93469385D01*
X176000000Y-93469385D01*
X176004475Y-93484624D01*
X176005865Y-93485829D01*
X176013548Y-93487500D01*
X176651748Y-93487500D01*
X176665279Y-93483527D01*
X176666260Y-93476701D01*
X176643412Y-93408216D01*
X176637239Y-93395038D01*
X176551937Y-93257193D01*
X176542901Y-93245792D01*
X176428171Y-93131261D01*
X176416760Y-93122249D01*
X176278757Y-93037184D01*
X176265576Y-93031037D01*
X176111290Y-92979862D01*
X176097914Y-92976995D01*
X176013523Y-92968348D01*
X176002876Y-92971475D01*
X176001671Y-92972865D01*
X176000000Y-92980548D01*
X176000000Y-93469385D01*
X175000000Y-93469385D01*
X175000000Y-92985116D01*
X174995525Y-92969877D01*
X174994135Y-92968672D01*
X174990710Y-92967927D01*
X174900794Y-92977257D01*
X174887400Y-92980149D01*
X174733216Y-93031588D01*
X174720038Y-93037761D01*
X174582193Y-93123063D01*
X174570792Y-93132099D01*
X174456261Y-93246829D01*
X174447249Y-93258240D01*
X174362184Y-93396243D01*
X174356037Y-93409424D01*
X174335843Y-93470306D01*
X174335354Y-93484399D01*
X172748975Y-93484399D01*
X172747822Y-93482617D01*
X172747818Y-93482612D01*
X172745014Y-93478277D01*
X172594670Y-93313051D01*
X172590619Y-93309852D01*
X172590615Y-93309848D01*
X172423414Y-93177800D01*
X172423410Y-93177798D01*
X172419359Y-93174598D01*
X172223789Y-93066638D01*
X172218920Y-93064914D01*
X172218916Y-93064912D01*
X172018087Y-92993795D01*
X172018083Y-92993794D01*
X172013212Y-92992069D01*
X172008119Y-92991162D01*
X172008116Y-92991161D01*
X171798373Y-92953800D01*
X171798367Y-92953799D01*
X171793284Y-92952894D01*
X171719452Y-92951992D01*
X171575081Y-92950228D01*
X171575079Y-92950228D01*
X171569911Y-92950165D01*
X171349091Y-92983955D01*
X171136756Y-93053357D01*
X171106443Y-93069137D01*
X170996208Y-93126522D01*
X170938607Y-93156507D01*
X170934474Y-93159610D01*
X170934471Y-93159612D01*
X170775773Y-93278766D01*
X170759965Y-93290635D01*
X170756393Y-93294373D01*
X170633225Y-93423261D01*
X170605629Y-93452138D01*
X170575363Y-93496507D01*
X170520455Y-93541507D01*
X170471277Y-93551500D01*
X170320939Y-93551500D01*
X170252818Y-93531498D01*
X170215147Y-93493941D01*
X170214796Y-93493397D01*
X170205014Y-93478277D01*
X170054670Y-93313051D01*
X170050619Y-93309852D01*
X170050615Y-93309848D01*
X169883414Y-93177800D01*
X169883410Y-93177798D01*
X169879359Y-93174598D01*
X169683789Y-93066638D01*
X169678920Y-93064914D01*
X169678916Y-93064912D01*
X169478087Y-92993795D01*
X169478083Y-92993794D01*
X169473212Y-92992069D01*
X169468119Y-92991162D01*
X169468116Y-92991161D01*
X169258373Y-92953800D01*
X169258367Y-92953799D01*
X169253284Y-92952894D01*
X169179452Y-92951992D01*
X169035081Y-92950228D01*
X169035079Y-92950228D01*
X169029911Y-92950165D01*
X168809091Y-92983955D01*
X168596756Y-93053357D01*
X168566443Y-93069137D01*
X168456208Y-93126522D01*
X168398607Y-93156507D01*
X168394474Y-93159610D01*
X168394471Y-93159612D01*
X168235773Y-93278766D01*
X168219965Y-93290635D01*
X168216393Y-93294373D01*
X168093225Y-93423261D01*
X168065629Y-93452138D01*
X168062720Y-93456403D01*
X168062714Y-93456411D01*
X168028957Y-93505897D01*
X167939743Y-93636680D01*
X167923626Y-93671402D01*
X167856728Y-93815522D01*
X167845688Y-93839305D01*
X167785989Y-94054570D01*
X167762251Y-94276695D01*
X163132515Y-94276695D01*
X163138551Y-94200000D01*
X163118378Y-93943674D01*
X163116626Y-93936374D01*
X163079204Y-93780502D01*
X163058355Y-93693660D01*
X163050460Y-93674600D01*
X162961855Y-93460687D01*
X162961853Y-93460683D01*
X162959960Y-93456113D01*
X162825616Y-93236884D01*
X162658631Y-93041369D01*
X162463116Y-92874384D01*
X162243887Y-92740040D01*
X162239317Y-92738147D01*
X162239313Y-92738145D01*
X162010913Y-92643539D01*
X162010911Y-92643538D01*
X162006340Y-92641645D01*
X161911596Y-92618899D01*
X161761139Y-92582777D01*
X161761133Y-92582776D01*
X161756326Y-92581622D01*
X161500000Y-92561449D01*
X161243674Y-92581622D01*
X161238867Y-92582776D01*
X161238861Y-92582777D01*
X161088404Y-92618899D01*
X160993660Y-92641645D01*
X160989089Y-92643538D01*
X160989087Y-92643539D01*
X160760687Y-92738145D01*
X160760683Y-92738147D01*
X160756113Y-92740040D01*
X160536884Y-92874384D01*
X160341369Y-93041369D01*
X160174384Y-93236884D01*
X160040040Y-93456113D01*
X160038147Y-93460683D01*
X160038145Y-93460687D01*
X159949540Y-93674600D01*
X159941645Y-93693660D01*
X159920796Y-93780502D01*
X159883375Y-93936374D01*
X159881622Y-93943674D01*
X159861449Y-94200000D01*
X159881622Y-94456326D01*
X159882776Y-94461133D01*
X159882777Y-94461139D01*
X159911015Y-94578757D01*
X159941645Y-94706340D01*
X159943538Y-94710911D01*
X159943539Y-94710913D01*
X160034886Y-94931443D01*
X160040040Y-94943887D01*
X160174384Y-95163116D01*
X160280396Y-95287240D01*
X160286311Y-95294166D01*
X160315342Y-95358955D01*
X160316500Y-95375996D01*
X160316500Y-95477051D01*
X160296498Y-95545172D01*
X160242842Y-95591665D01*
X160172568Y-95601769D01*
X160108671Y-95572863D01*
X160026715Y-95502866D01*
X159926881Y-95417599D01*
X159926876Y-95417596D01*
X159923116Y-95414384D01*
X159703887Y-95280040D01*
X159699317Y-95278147D01*
X159699313Y-95278145D01*
X159470913Y-95183539D01*
X159470911Y-95183538D01*
X159466340Y-95181645D01*
X159342843Y-95151996D01*
X159221139Y-95122777D01*
X159221133Y-95122776D01*
X159216326Y-95121622D01*
X158960000Y-95101449D01*
X158703674Y-95121622D01*
X158698867Y-95122776D01*
X158698861Y-95122777D01*
X158577157Y-95151996D01*
X158453660Y-95181645D01*
X158449089Y-95183538D01*
X158449087Y-95183539D01*
X158220687Y-95278145D01*
X158220683Y-95278147D01*
X158216113Y-95280040D01*
X157996884Y-95414384D01*
X157801369Y-95581369D01*
X157634384Y-95776884D01*
X157500040Y-95996113D01*
X157498147Y-96000683D01*
X157498145Y-96000687D01*
X157445163Y-96128598D01*
X157401645Y-96233660D01*
X157400490Y-96238472D01*
X157348229Y-96456155D01*
X157341622Y-96483674D01*
X157321449Y-96740000D01*
X157341622Y-96996326D01*
X157342776Y-97001133D01*
X157342777Y-97001139D01*
X157365219Y-97094616D01*
X157401645Y-97246340D01*
X157403538Y-97250911D01*
X157403539Y-97250913D01*
X157457009Y-97380000D01*
X157500040Y-97483887D01*
X157634384Y-97703116D01*
X157801369Y-97898631D01*
X157996884Y-98065616D01*
X158216113Y-98199960D01*
X158220683Y-98201853D01*
X158220687Y-98201855D01*
X158351567Y-98256067D01*
X158406848Y-98300615D01*
X158429269Y-98367979D01*
X158411711Y-98436770D01*
X158392444Y-98461571D01*
X155585823Y-101268192D01*
X155564223Y-101285221D01*
X155561474Y-101286577D01*
X155556842Y-101290036D01*
X155556837Y-101290039D01*
X155529318Y-101310588D01*
X155518356Y-101317914D01*
X155483876Y-101338427D01*
X155440780Y-101376221D01*
X155433113Y-101382428D01*
X155391819Y-101413263D01*
X155391812Y-101413269D01*
X155387191Y-101416720D01*
X155359947Y-101446193D01*
X155350524Y-101455373D01*
X155320342Y-101481842D01*
X155284855Y-101526858D01*
X155278457Y-101534349D01*
X155239544Y-101576444D01*
X155236463Y-101581327D01*
X155236457Y-101581335D01*
X155218135Y-101610375D01*
X155210522Y-101621148D01*
X155189254Y-101648125D01*
X155189251Y-101648129D01*
X155185681Y-101652658D01*
X155182995Y-101657764D01*
X155182992Y-101657768D01*
X155158999Y-101703373D01*
X155154051Y-101711943D01*
X155126558Y-101755515D01*
X155126555Y-101755522D01*
X155123476Y-101760401D01*
X155108761Y-101797284D01*
X155108608Y-101797668D01*
X155103087Y-101809643D01*
X155087095Y-101840039D01*
X155087093Y-101840045D01*
X155084405Y-101845154D01*
X155082693Y-101850668D01*
X155067411Y-101899882D01*
X155064116Y-101909188D01*
X155042876Y-101962428D01*
X155035050Y-102001774D01*
X155031803Y-102014558D01*
X155021617Y-102047360D01*
X155021617Y-102047361D01*
X155019903Y-102052882D01*
X155019224Y-102058615D01*
X155019224Y-102058617D01*
X155013166Y-102109799D01*
X155011618Y-102119567D01*
X155000441Y-102175761D01*
X155000365Y-102181537D01*
X155000365Y-102181540D01*
X154999916Y-102215874D01*
X154999055Y-102229025D01*
X154994337Y-102268887D01*
X154994715Y-102274653D01*
X154998085Y-102326070D01*
X154998344Y-102335960D01*
X154997594Y-102393254D01*
X154998573Y-102398951D01*
X154998573Y-102398952D01*
X155004389Y-102432799D01*
X155005939Y-102445897D01*
X155008563Y-102485933D01*
X155009986Y-102491536D01*
X155022669Y-102541476D01*
X155024726Y-102551152D01*
X155034430Y-102607625D01*
X155036431Y-102613048D01*
X155048318Y-102645270D01*
X155052229Y-102657864D01*
X155062105Y-102696753D01*
X155075883Y-102726639D01*
X155086095Y-102748791D01*
X155089878Y-102757926D01*
X155109714Y-102811693D01*
X155112665Y-102816653D01*
X155130230Y-102846177D01*
X155136368Y-102857843D01*
X155153168Y-102894285D01*
X155156501Y-102899001D01*
X155186238Y-102941078D01*
X155191626Y-102949375D01*
X155217971Y-102993657D01*
X155217976Y-102993664D01*
X155220927Y-102998624D01*
X155224737Y-103002968D01*
X155247376Y-103028783D01*
X155255542Y-103039141D01*
X155275368Y-103067195D01*
X155275373Y-103067201D01*
X155278704Y-103071914D01*
X155282840Y-103075943D01*
X155282845Y-103075949D01*
X155319751Y-103111900D01*
X155326555Y-103119070D01*
X155364342Y-103162158D01*
X155368872Y-103165730D01*
X155368874Y-103165731D01*
X155395862Y-103187007D01*
X155405775Y-103195701D01*
X155422240Y-103211740D01*
X155457079Y-103273601D01*
X155452943Y-103344477D01*
X155417399Y-103396726D01*
X155320342Y-103481842D01*
X155185681Y-103652658D01*
X155084405Y-103845154D01*
X155019903Y-104052882D01*
X154994337Y-104268887D01*
X155008563Y-104485933D01*
X155009984Y-104491529D01*
X155009985Y-104491534D01*
X155055978Y-104672629D01*
X155062105Y-104696753D01*
X155153168Y-104894285D01*
X155156501Y-104899001D01*
X155263752Y-105050757D01*
X155278704Y-105071914D01*
X155282846Y-105075949D01*
X155422241Y-105211741D01*
X155457079Y-105273602D01*
X155452942Y-105344478D01*
X155417399Y-105396726D01*
X155320342Y-105481842D01*
X155185681Y-105652658D01*
X155084405Y-105845154D01*
X155019903Y-106052882D01*
X154994337Y-106268887D01*
X155008563Y-106485933D01*
X155009984Y-106491529D01*
X155009985Y-106491534D01*
X155060084Y-106688797D01*
X155062105Y-106696753D01*
X155153168Y-106894285D01*
X155156501Y-106899001D01*
X155259398Y-107044596D01*
X155278704Y-107071914D01*
X155282846Y-107075949D01*
X155317209Y-107109424D01*
X155394174Y-107184399D01*
X155422241Y-107211741D01*
X155457079Y-107273602D01*
X155452942Y-107344478D01*
X155417399Y-107396726D01*
X155320342Y-107481842D01*
X155316770Y-107486373D01*
X155203724Y-107629771D01*
X155185681Y-107652658D01*
X155084405Y-107845154D01*
X155082692Y-107850671D01*
X155029691Y-108021361D01*
X155019903Y-108052882D01*
X154994337Y-108268887D01*
X152308000Y-108268887D01*
X152308000Y-94844000D01*
X152328002Y-94775879D01*
X152381658Y-94729386D01*
X152451932Y-94719282D01*
X152516512Y-94748776D01*
X152524254Y-94756079D01*
X152571155Y-94804224D01*
X152571160Y-94804228D01*
X152573814Y-94806953D01*
X152646635Y-94865607D01*
X152825196Y-95009431D01*
X152825201Y-95009435D01*
X152828149Y-95011809D01*
X153105253Y-95184627D01*
X153401112Y-95322903D01*
X153404721Y-95324086D01*
X153691710Y-95418166D01*
X153711440Y-95424634D01*
X153715154Y-95425373D01*
X153715155Y-95425373D01*
X153726648Y-95427659D01*
X154031742Y-95488346D01*
X154035514Y-95488633D01*
X154035522Y-95488634D01*
X154353602Y-95512829D01*
X154353607Y-95512829D01*
X154357379Y-95513116D01*
X154683633Y-95498586D01*
X154743425Y-95488634D01*
X155002037Y-95445590D01*
X155002042Y-95445589D01*
X155005778Y-95444967D01*
X155319149Y-95353034D01*
X155322616Y-95351544D01*
X155322620Y-95351543D01*
X155615721Y-95225616D01*
X155615723Y-95225615D01*
X155619205Y-95224119D01*
X155901601Y-95060091D01*
X156162245Y-94863324D01*
X156302445Y-94728171D01*
X156394632Y-94639303D01*
X156394635Y-94639300D01*
X156397363Y-94636670D01*
X156516282Y-94490601D01*
X156601155Y-94386351D01*
X156601158Y-94386347D01*
X156603549Y-94383410D01*
X156612962Y-94368492D01*
X156775788Y-94110428D01*
X156775790Y-94110425D01*
X156777815Y-94107215D01*
X156802757Y-94054570D01*
X156888792Y-93872970D01*
X156917638Y-93812084D01*
X156918840Y-93808482D01*
X157019790Y-93505897D01*
X157019792Y-93505891D01*
X157020992Y-93502293D01*
X157086381Y-93182329D01*
X157086750Y-93177800D01*
X157112674Y-92859061D01*
X157112856Y-92856826D01*
X157113451Y-92800000D01*
X157111510Y-92767796D01*
X157094026Y-92477793D01*
X157094026Y-92477789D01*
X157093798Y-92474015D01*
X157088650Y-92445824D01*
X157035805Y-92156473D01*
X157035804Y-92156469D01*
X157035125Y-92152751D01*
X157027722Y-92128907D01*
X156939404Y-91844477D01*
X156938282Y-91840863D01*
X156804670Y-91542869D01*
X156636226Y-91263084D01*
X156633899Y-91260100D01*
X156633894Y-91260093D01*
X156437726Y-91008558D01*
X156437724Y-91008556D01*
X156435390Y-91005563D01*
X156253643Y-90822862D01*
X156219781Y-90760461D01*
X156225031Y-90689659D01*
X156267726Y-90632934D01*
X156334311Y-90608298D01*
X156342971Y-90608000D01*
X157463862Y-90608000D01*
X157531983Y-90628002D01*
G37*
G04 #@! TD.AperFunction*
M02*
