M48
; DRILL file {KiCad (6.0.2)} date Wed Sep 28 01:25:33 2022
; FORMAT={-:-/ absolute / metric / decimal}
; #@! TF.CreationDate,2022-09-28T01:25:33+02:00
; #@! TF.GenerationSoftware,Kicad,Pcbnew,(6.0.2)
; #@! TF.FileFunction,Plated,1,2,PTH
FMAT,2
METRIC
; #@! TA.AperFunction,Plated,PTH,ViaDrill
T1C0.400
; #@! TA.AperFunction,Plated,PTH,ComponentDrill
T2C0.400
; #@! TA.AperFunction,Plated,PTH,ComponentDrill
T3C0.800
; #@! TA.AperFunction,Plated,PTH,ComponentDrill
T4C1.000
; #@! TA.AperFunction,Plated,PTH,ComponentDrill
T5C1.100
; #@! TA.AperFunction,Plated,PTH,ComponentDrill
T6C1.500
; #@! TA.AperFunction,Plated,PTH,ComponentDrill
T7C2.200
%
G90
G05
T1
X172.6Y-111.3
X178.6Y-102.7
X182.1Y-115.1
X182.5Y-118.5
X183.6Y-116.9
X185.2Y-117.9
X186.9Y-118.8
X188.7Y-118.1
X190.8Y-118.7
X192.5Y-117.5
X194.4Y-119.0
X196.7Y-118.7
X196.9Y-116.9
T2
X152.75Y-92.8
X153.233Y-91.633
X153.233Y-93.967
X154.4Y-91.15
X154.4Y-94.45
X155.567Y-91.633
X155.567Y-93.967
X156.05Y-92.8
X176.05Y-116.3
X176.533Y-115.133
X176.533Y-117.467
X177.7Y-114.65
X177.7Y-117.95
X178.867Y-115.133
X178.867Y-117.467
X179.35Y-116.3
X199.25Y-92.8
X199.733Y-91.633
X199.733Y-93.967
X200.9Y-91.15
X200.9Y-94.45
X202.067Y-91.633
X202.067Y-93.967
X202.55Y-92.8
T3
X156.183Y-102.3
X156.183Y-104.3
X156.183Y-106.3
X156.183Y-108.3
X156.183Y-110.3
X156.183Y-112.3
X156.183Y-114.3
X156.183Y-116.3
X169.582Y-102.3
X169.582Y-104.3
X169.582Y-106.3
X169.582Y-108.3
X169.582Y-110.3
X169.582Y-112.3
X169.582Y-114.3
X169.582Y-116.3
X178.62Y-97.88
X178.62Y-105.5
X181.16Y-97.88
X181.16Y-105.5
X182.2Y-94.75
X182.2Y-108.75
X183.7Y-97.88
X183.7Y-105.5
X184.2Y-94.75
X184.2Y-108.75
X186.2Y-94.75
X186.2Y-108.75
X186.24Y-97.88
X186.24Y-105.5
X188.2Y-94.75
X188.2Y-108.75
X188.78Y-97.88
X188.78Y-105.5
X190.2Y-94.75
X190.2Y-108.75
X191.32Y-97.88
X191.32Y-105.5
X192.2Y-94.75
X192.2Y-108.75
X193.86Y-97.88
X193.86Y-105.5
X194.2Y-94.75
X194.2Y-108.75
X196.2Y-94.75
X196.2Y-108.75
X196.4Y-97.88
X196.4Y-105.5
T4
X169.125Y-94.31
X169.125Y-96.85
X171.665Y-94.31
X171.665Y-96.85
T5
X200.3Y-112.63
X200.3Y-115.17
T6
X158.96Y-91.66
X158.96Y-96.74
X161.5Y-94.2
X164.04Y-91.66
X164.04Y-96.74
T7
X154.4Y-92.8
X177.7Y-116.3
X200.9Y-92.8
T0
M30
