M48
METRIC,TZ
T1C0.400
T2C0.400
T3C0.800
T4C1.000
T5C1.100
T6C1.500
T7C2.200
%
G90
G05
T1
X172600Y-111300
X178600Y-102700
X182100Y-115100
X182500Y-118500
X183600Y-116900
X185200Y-117900
X186900Y-118800
X188700Y-118100
X190800Y-118700
X192500Y-117500
X194400Y-119000
X196700Y-118700
X196900Y-116900
T2
X152750Y-92800
X153233Y-91633
X153233Y-93967
X154400Y-91150
X154400Y-94450
X155567Y-91633
X155567Y-93967
X156050Y-92800
X176050Y-116300
X176533Y-115133
X176533Y-117467
X177700Y-114650
X177700Y-117950
X178867Y-115133
X178867Y-117467
X179350Y-116300
X199250Y-92800
X199733Y-91633
X199733Y-93967
X200900Y-91150
X200900Y-94450
X202067Y-91633
X202067Y-93967
X202550Y-92800
T3
X156183Y-102300
X156183Y-104300
X156183Y-106300
X156183Y-108300
X156183Y-110300
X156183Y-112300
X156183Y-114300
X156183Y-116300
X169583Y-102300
X169583Y-104300
X169583Y-106300
X169583Y-108300
X169583Y-110300
X169583Y-112300
X169583Y-114300
X169583Y-116300
X178620Y-97880
X178620Y-105500
X181160Y-97880
X181160Y-105500
X182200Y-94750
X182200Y-108750
X183700Y-97880
X183700Y-105500
X184200Y-94750
X184200Y-108750
X186200Y-94750
X186200Y-108750
X186240Y-97880
X186240Y-105500
X188200Y-94750
X188200Y-108750
X188780Y-97880
X188780Y-105500
X190200Y-94750
X190200Y-108750
X191320Y-97880
X191320Y-105500
X192200Y-94750
X192200Y-108750
X193860Y-97880
X193860Y-105500
X194200Y-94750
X194200Y-108750
X196200Y-94750
X196200Y-108750
X196400Y-97880
X196400Y-105500
T4
X169125Y-94310
X169125Y-96850
X171665Y-94310
X171665Y-96850
T5
X200300Y-112630
X200300Y-115170
T6
X158960Y-91660
X158960Y-96740
X161500Y-94200
X164040Y-91660
X164040Y-96740
T7
X154400Y-92800
X177700Y-116300
X200900Y-92800
T0
M30
